<svg width="16" height="16" viewBox="0 0 16 16" fill="none" xmlns="http://www.w3.org/2000/svg">
<path d="M8.59318 15.1862L15.1785 8.75763C15.2804 8.65814 15.3613 8.54002 15.4164 8.41003C15.4716 8.28003 15.5 8.14071 15.5 8C15.5 7.85929 15.4716 7.71997 15.4164 7.58997C15.3613 7.45998 15.2804 7.34186 15.1785 7.24237L8.59318 0.813821C8.38734 0.612885 8.10817 0.5 7.81707 0.5C7.52597 0.5 7.2468 0.612885 7.04096 0.813821C6.83512 1.01476 6.71948 1.28729 6.71948 1.57145C6.71948 1.71216 6.74787 1.85148 6.80303 1.98148C6.85819 2.11147 6.93904 2.22959 7.04096 2.32908L12.8502 8L7.04096 13.6709C6.83512 13.8719 6.71948 14.1444 6.71948 14.4285C6.71948 14.7127 6.83512 14.9852 7.04096 15.1862C7.2468 15.3871 7.52597 15.5 7.81707 15.5C8.10817 15.5 8.38734 15.3871 8.59318 15.1862ZM2.37369 15.1862L8.95903 8.75763C9.06095 8.65814 9.1418 8.54002 9.19696 8.41003C9.25212 8.28003 9.28052 8.14071 9.28052 8C9.28052 7.85929 9.25212 7.71997 9.19696 7.58997C9.1418 7.45998 9.06095 7.34186 8.95903 7.24237L2.37369 0.813821C2.16786 0.612885 1.88868 0.5 1.59758 0.5C1.30649 0.5 1.02731 0.612885 0.821475 0.813821C0.615638 1.01476 0.5 1.28729 0.5 1.57145C0.5 1.85562 0.615638 2.12815 0.821475 2.32908L6.63075 8L0.821475 13.6709C0.615638 13.8719 0.5 14.1444 0.5 14.4285C0.5 14.7127 0.615638 14.9852 0.821475 15.1862C1.02731 15.3871 1.30649 15.5 1.59758 15.5C1.88868 15.5 2.16786 15.3871 2.37369 15.1862Z" fill="#FFD412"/>
</svg>
