<svg width="273.56" height="471.891" viewBox="0 0 200 345" class="css-1j8o68f"><path xmlns="http://www.w3.org/2000/svg" fill-rule="evenodd" d="M5 65l95-65 95 65-95-55zm0 200l95 80 95-85-95 75z" fill="#111"/><path xmlns="http://www.w3.org/2000/svg" d="M133.17 106.986a35.875 35.875 0 00-7.715-11.442A35.893 35.893 0 00100 85a35.877 35.877 0 00-25.456 10.544 35.901 35.901 0 00-7.715 11.443A35.798 35.798 0 0064 121c0 4.86.953 9.575 2.829 14.013a35.87 35.87 0 007.715 11.443A35.89 35.89 0 00100 157c4.86 0 9.575-.952 14.013-2.829a35.857 35.857 0 0011.443-7.715A35.891 35.891 0 00136 121c0-4.86-.952-9.575-2.83-14.014zM113.965 95.07l-3.685 7.231-1.196-.608 3.686-7.232 1.195.609zm-5.504-2.28l1.276.414-2.51 7.72-1.275-.415 2.51-7.719zm-4.517-.977l1.324.21-1.27 8.017-1.325-.21 1.27-8.017zm-5.132-2.186h2.376v10.08h-2.376v-10.08zm0 28.376v-16.624h2.376v16.623a3.224 3.224 0 11-2.376 0zm-2.756-26.19l1.27 8.017-1.324.21-1.27-8.017 1.324-.21zm-4.516.977l2.508 7.72-1.276.414-2.509-7.72 1.277-.414zm-4.31 1.67l3.684 7.233-1.194.608-3.686-7.231 1.196-.61zm-18.637 27.728l.001-2.376h10.08v2.376h-10.08zm10.237-3.861l-8.017-1.27.21-1.325 8.017 1.27-.21 1.325zm.68-3.28l-7.72-2.509.414-1.275 7.72 2.509-.414 1.276zm1.183-3.132l-7.232-3.685.61-1.196 7.231 3.686-.61 1.195zm1.659-2.908l-6.567-4.771.788-1.085 6.567 4.771-.788 1.085zm2.093-2.613l-5.739-5.74.948-.948 5.74 5.74-.949.948zm-2.295-8.82l1.085-.788 4.77 6.566-1.083.788-4.772-6.567zm21.054 43.9H91.69v-3.842l-5.672-2.015 1.65-3.587 5.106 1.76v1.04l3.017.006v-1.261h-1.81v-1.084h4.78v1.084h-1.809v1.264l3.374.006.977 1.374 7.58-1.955 2.72-.475 1.321 1.242-.529.685-.898-.977-2.217.337-6.075 6.399zm9.433-.562c-.854 0-1.347-.281-1.347-1.123s1.347-3.104 1.347-3.104 1.346 2.261 1.346 3.104-.492 1.123-1.346 1.123zm.44-36.772l-1.084-.788 4.772-6.567 1.084.788-4.771 6.567zm1.529 1.305l5.74-5.739.948.948-5.74 5.739-.948-.948zm2.254 2.476l6.567-4.77.788 1.084-6.567 4.771-.788-1.085zm1.838 2.799l7.232-3.685.61 1.196-7.232 3.684-.61-1.195zm1.378 3.05l7.72-2.507.415 1.275-7.72 2.508-.415-1.275zm.885 3.23l8.016-1.269.21 1.325-8.017 1.269-.21-1.324zm.334 5.188v-2.376h10.079v2.376h-10.08z" fill="#0f81c7"/><path d="M7.354 217.847c-.693 0-1.387-.37-2.173-.647l-1.018-1.018c-.046-.231-.509-.971-.509-1.573 0-6.336.231-11.47.231-15.449 0-.6-.046-.925-.647-.925-.139 0-.324 0-.509.047-.092 0-.648-.047-.74-.047-.278 0-.601.14-1.156.14-.14-.37-.833.092-.833-.741s.648-.786 1.018-.925c0 0 .138 0 .323.092h1.296c.832-.185.786 0 1.156-.37.139-4.671-.139-5.041 1.341-5.041.047 0 1.342.046 1.665.046.648 0 .417-.278 2.36-.278h-.047c.046 0 .463.14.509.232 0 3.978-.093 3.885-.093 5.041l.37.37h2.082c.092-.138 1.249-.138 1.619-.138h-.046s.97.185.97.647c0 .602-.092.972-1.572.972-.786 0-1.989-.047-3.053-.047-.323 0-.462 2.776-.462 3.932 0 1.249.092 1.85.092 2.822 0 2.636-.138 6.151-.138 7.123 0 .832.046 1.619.23 1.757v-.046c.093 0-.092 1.758 1.759 1.758 1.017 0 1.063 0 1.804-.463-.047 0 .74-.74.74-.925v-.046s.23-1.48 1.248-1.48c.602 0 .833.647.833 1.064 0 .185-.509.508-.509.878 0 1.018-1.896 1.897-2.081 2.406-.139-.093-.416.37-.601.37-1.064 0-1.25.462-2.406.462h-.046c-.971 0-1.85.185-1.85.185-.37 0-.833-.092-1.157-.185zm-.508-.555c0-.046-.047-.046-.047-.046v.139s.047-.047.047-.093zm5.365-.139c-.046 0-.046.047-.046.093 0 0 0 .046.046.046v-.139zm-5.597-.092a.1.1 0 00-.092.092s.046.047.092.047.047-.047.047-.047c0-.046 0-.092-.047-.092zm-.786-.37a.1.1 0 00-.092.092s.046.047.092.047l.046-.047c0-.046-.046-.092-.046-.092zm-.74-.139c-.046 0-.093.046-.093.046h.14zm8.696-.879v.278l.092-.093c0-.092-.092-.185-.092-.185zm-9.482-.092l-.047.046c0 .046.047.046.047.046.046 0 .046 0 .046-.046 0 0 0-.046-.046-.046zm.138-.648c0 .093 0 .093.047.093h.046zm10.917-.694c-.047 0-.093.047-.093.047 0 .046.046.046.093.046 0 0 .046 0 .046-.046zm-11.333-.925v.093h.139zm11.009-.185c-.047 0-.047.047-.047.047 0 .046 0 .046.047.046s.046 0 .046-.046c0 0 0-.047-.046-.047zm.37 0l-.046.093h.185zm-11.379-4.81v-.093.093zM.463 197.912c0 .046-.047.046-.047.092s.047.046.14.093v-.185H.462zm-.185-.37H.23s-.046.046-.046.185c0 .046.046.138.046.138.093 0 .093-.092.093-.138 0-.093 0-.14-.046-.185zm12.072.092v.139c.092 0 .092-.046.092-.139h-.092zm-11.332-.231v.139c.046-.047.092-.093.092-.14h-.092zm-.463-.232c-.092 0-.277.186-.277.232H.74a1.009 1.009 0 00-.185-.232zm7.262-4.162v.23c.231 0 .231-.045.278-.23h-.278zm-3.515-.093s-.047.046-.047.093.047.092.047.092c.046 0 .046-.046.046-.092s0-.093-.046-.093zm0-.37v.278c.092-.047.092-.14.092-.278h-.092zm1.156-.185c0 .046-.046.093.093.093 0-.093-.093-.093-.093-.093zm-1.156-.324v.232h.23c0-.14-.138-.186-.23-.232zm3.515-.046v.185c.093-.046.093-.139.093-.185h-.093zm1.064-.37s0 .277.185.37l.092-.093c0-.046-.046-.37-.23-.37zm17.655 25.44c-.046 0 0-.046.093-.278-.278-.185-.324-.6-.37-.6-.278 0-.37.878-.324.97-.231 0-1.018-.416-1.018-.508 0-.047.047.138-.138.138s-.694-.277-2.128-1.711c-.231-.278-.555-.555-.555-.648.046-.138-.833-.647-.833-1.156-.555-.277-.74-1.434-1.249-1.85h.047s-.972-1.665-.972-3.515c0-.185.093-1.25.093-1.48 0-2.082 1.295-3.1 1.295-3.886 0-.509 1.295-1.341 1.804-2.636 0-.186 1.896-1.712 1.989-1.804.694 0 1.064-1.064 2.035-1.064.37.092 2.035-.74 2.96-.74h2.174c.324 0 .787.23 1.342.23-.047 0-.047-.045-.047-.045.093 0 .694.37 1.527.508 0-.046.046-.046.092-.046.278 0 .833.555 1.064.602s.278.23 1.897 1.433l-.047.047s.417-.047 2.22 2.174c.417.878.88 1.434 1.203 2.266.093.093.786 1.434.786 2.683 0 3.469-1.156 4.209-1.248 5.874.046.324-.648.509-.74 1.203 0 .231-.74.601-1.712 1.989-.185 0-1.758 1.572-2.081 1.572a.1.1 0 00-.093-.092c-.185 0-.786.832-1.711.832l-.185-.092c-.37 0-.278.463-.833.463-.601 0-.509-.14-.832-.14 0 .463-.417.093-.602.463H29.08c-.786-.277-2.59 0-2.544-1.156zm4.44.925l.093.046.093-.046-.093-.092zm2.175-.37c-.093 0-.14.046-.232.046l.047.047c.046 0 .092-.047.277-.093h-.092zm1.619-.74c-.047 0-.14.092-.185.139h.185v-.14zm-6.014-.278c.463 0 .694.278 1.527.324 0-.139.046-.046.971-.231.093 0 .509.092.555.092.37 0 .093-.277.88-.277 1.063-.74.878-.324 1.896-2.36v.047c.046 0 .416-3.7.416-4.302 0-.323-.231-.508-.231-.786l.092-.277c-.046-.185-.139-.463-.139-.602 0-.832.37-.647.37-1.619 0-3.746-.277-4.903-.647-6.706 0-1.943-3.654-2.174-3.932-2.36-1.573.186-2.59.047-3.608 1.11 0 0-.74.556-.74 1.435 0 1.48-.555 1.572-.555 2.775s-.046 3.191-.046 3.515c0 7.03.277 6.568.74 8.048.046 0 .463 2.174 2.405 2.174h.046zm4.256.185c-.046 0-.093.047-.093.093s.047.092.093.092c0 0 .046-.046.046-.092s-.046-.093-.046-.093zm1.156-.185s-.046.047-.046.093.046.092.046.092c.046 0 .046-.046.046-.092s0-.093-.046-.093zm-13.737-5.088c0-.046-.047-.046-.047-.046-.046 0-.046 0-.046.046s0 .093.046.093c0 0 .047-.046.047-.093zm-.232-4.486a.1.1 0 00-.092.092s.046.046.092.046.047-.046.047-.046c0-.046 0-.092-.047-.092zm-.555-.37c-.046 0-.046.046-.046.092 0 0 0 .046.046.046s.047-.046.047-.046c0-.046 0-.092-.047-.092zm15.496-8.465c-.185 0-.185.093-.278.093.139 0 .278.046.278-.093zm-1.804-.832c-.047.092.046.092.185.138.046 0 .138 0 .185-.046-.14-.046-.278-.092-.324-.092h-.046zm-6.337-.093l.046-.046zm1.804-.509c.092-.046-.278.046-.37.093v.138c.23 0 .37.047.37-.23zm.37.093v.138c.046 0 .046-.046.046-.046 0-.046 0-.092-.046-.092zm19.413 11.563c0-.138.092-.277.231-.277-.046 0 0-.093-.139-.185l-.185.185c-.046 0-.185-.185-.185-.278 0-1.85-1.064-1.341-1.064-2.497 0-.047 0-.093.047-.14 0-.045-.417-.693-.417-.832 0-.092.047-.601.047-.694l-.185.093c-.278-.324-.185-.833-.555-1.11-.37-.972-.324-.74-.602-1.62.046-.277-.462-.785-.462-1.063 0-.046.046-.046.046-.092 0-.093-.463-.556-.463-.926 0-.046 0-.138.047-.185l-.463-.37H41.88a.724.724 0 01-.463-.185v-.647l.555-.509c.74 0 1.573-.046 1.85-.046.972 0 1.85.138 3.192.138l.185-.092c1.064 0 .601-.139 4.996-.139.462 0 1.156.093 1.156.648 0 1.434-2.683.139-2.683 1.295 0 .185.093 1.018.324 1.203-.046.046-.046.046-.046.092 0 .278.601.694.601 1.526 1.064 1.85.231.694 1.295 2.914 0 .556.509.88.509 1.342 0 .185.463 1.202 1.573 3.7.185 0 .555.139.647-.37-.046 0-.046-.046-.046-.092 0-.232.74-.787.74-1.758 0-.231-.046-.185-.046-.185s.185-.139 1.064-2.868c.046 0 .185-1.202.832-2.359-.046-.046-.046-.092-.046-.139 0-.277.555-.6.555-1.387 0-1.203.648-1.295.648-2.082 0 .047.046.047.046.047.231 0-.37-1.527 1.48-1.527.185 0 .324 0 .463.139v-.046c.046 0 .23 1.202 1.11 2.497 0 .463.693.972.693 1.712 0 1.711 1.11 1.48 1.11 2.868-.046-.047-.092-.047-.092-.047 0 .14.601 1.064.601 1.25 0-.047.093 1.11 1.295 2.867v-.046s.093 1.341.694 1.434c.555 0 .463-.14.602-.555-.047 0-.047 0-.047-.047 0-.23.925-1.202.925-2.544-.046-.046-.046-.092-.046-.138 0-.324.694-.648.694-1.666 0-.23.925-1.665.925-2.775.093-2.775.971-.925.971-2.868-.046-.046-.046-.046-.046-.092 0-.093.046-.185.046-.231 0-.232-.138-.417-.97-.417-.556 0-1.065.093-1.62.093-.416 0-.74-.046-.74-.139 0 0 .324-.277.324-.324-.046 0-.185 0-.278-.092-.138.092-.138.231-.185.277-.138-.185-.277-.23-.277-.462 0-.278.277-.694.462-.694.37 0 5.32-.093 7.91-.093.37 0 .647.093.647.74 0 .324-.046.74-.462.74H72.87c-.23.093-.925.972-.925 1.573-.277.093.14.74-.647 1.758v.046c0 .416-1.11 2.914-1.11 3.377.138 0-1.203 2.498-1.203 3.515l-.046-.046c-.139 0-.046 1.341-.602 1.341.14 0 .185.185.185.278 0 .324-.555.416-.555 1.434 0 0-.6 1.48-.6 1.619 0 .046.045.046.045.092 0 .139-.416.37-.416.925-1.156 4.58-1.341 3.423-1.758 3.978-.092.046-.138.046-.23.046-1.018 0-1.574-2.035-1.574-2.359 0-.555-1.618-2.174-1.618-3.793-.047 0-.37-1.34-.833-1.85 0 0-.093-1.11-.463-1.295v.046s-.462-.786-1.156-2.867c-.092 0-.37-.833-.462-.88h-.463c.046.047-.324.463-.324.648-.509 1.897-1.202 2.174-1.202 3.516 0 .046-.51.694-.51 1.619-.832 2.775.278-.51-1.248 3.654 0 0 .046 0 .046.046 0 .092-.509.555-.509 1.388-.138 1.711-.508 1.804-.971 2.174h-.879c-.046.046-.046.046-.092.046-.185 0-.185-.648-.648-1.11 0-1.295-1.203-2.406-1.203-3.1-.23-.74-.74-1.34-.74-1.803-.462-1.62-.555-1.203-.786-1.943h.046c0-.046-.416-.277-.462-.879h.046c0-.092-.462-.74-.462-.971 0-.046 0-.046.046-.093zm4.394 9.529l-.093.092h.185zm12.442-1.342c0 .093 0 .232.093.232a.404.404 0 00.277-.185c-.138-.047-.23-.047-.37-.047zm-11.332-.138c.046.092.046.138.093.138s.046-.046.092-.046v-.092h-.185zm9.806-.602c0-.046-.185.047-.185.14.185 0 .185 0 .185-.14zm-11.656 0c-.046 0-.046.047-.046.093 0 0 0 .046.046.046v-.139zm2.035-.647c-.046 0-.092 0-.092.046h.138c0-.046-.046-.046-.046-.046zm-3.515-2.174c-.047 0-.093.046-.093.046 0 .046.046.046.093.046 0 0 .046 0 .046-.046zm.509 0a.1.1 0 00-.093.092s.046.047.093.047.046-.047.046-.047c0-.046 0-.092-.046-.092zm10.13-2.544c-.047 0-.047.046-.047.046 0 .046 0 .046.046.046v-.092zm6.66-.74v.185c.046 0 .046 0 .046-.047 0-.092 0-.138-.046-.138zm.925-2.452l-.092.093h.092v-.093zM47.938 206.1v.23c0-.092.046-.184.046-.23h-.046zm21.185-.14c-.046 0-.046.047-.046.093 0 0 0 .047.046.047s.046-.047.046-.047c0-.046 0-.092-.046-.092zm-21.74-.97a.1.1 0 00-.092.092s.046.046.092.046.046-.046.046-.046c0-.046 0-.092-.046-.092zm-.647-2.128c-.047 0-.093 0-.093.046 0 0 .046.046.093.046s.046-.046.046-.046c0-.046 0-.046-.046-.046zm24.885-3.886a.1.1 0 00-.093.093s.046.046.093.046l.046-.046c0-.046-.046-.093-.046-.093zm-26.782-.693l.278.046c.046 0 .046-.046.046-.093-.324 0-.324 0-.324.047zm-.416-.694c0 .416-.185.694-.509.694.601 0 .694 0 .833-.047 0-.138-.047-.555-.324-.647zm5.412.185c-.047 0-.047.046-.047.046 0 .046.324.093.324.416h.046c0-.092-.046-.37.047-.462l-.093-.185c-.231 0-.324.092-.324.139zm11.24.462c0-.046-.047-.046-.047-.046-.046 0-.046 0-.046.046s0 .047.046.047c0 0 .046 0 .046-.047zm-18.225-.462c0 .139.185.324.278.37 0-.139.324-.416.277-.555-.231 0-.601-.046-.555.185zm25.024.092c.231.093.092.278.416.278.416 0 .509-.093.509-.555-.278.139-.324.277-.555.324-.093-.047-.185-.047-.231-.047h-.14zm1.943.093c-.047 0-.093.046-.093.046 0 .046.046.046.093.046 0 0 .046 0 .046-.046zm4.255-.185c-.139 0-.278.092-.278.185 0 .046.047.092.047.092h.231v-.277zm.324.185s0-.046-.046-.046v.138c.046 0 .046-.046.046-.092zm-30.99-.093c-.047 0-.093 0-.093.047 0 0 .046.046.092.046l.047-.046c0-.047-.047-.047-.047-.047zm-1.435-.185h-.046c-.139 0-.092.185-.092.185l.185-.185h-.047zm5.273.093c0-.046 0-.046-.046-.046s-.092 0-.092.046.046.092.092.092.046-.046.046-.092zm5.643-.185v.185l.047.046c.046 0 .092-.046.138-.139-.138-.138-.23-.046-.185-.092zm-.6-.046c-.14 0-.186.046-.186.092s0 .093.046.093c.185 0 .14-.278.14-.185zm15.402-.093c-.046.093-.046.139-.046.231.046 0 .092-.046.138-.092zm-22.017.093a.1.1 0 00-.093.092s.046.046.093.046.046-.046.046-.046c0-.046 0-.092-.046-.092zm29.88-.14c0 .186 0 .232.046.232 0 0 .093-.046.093-.092 0-.14-.093-.232-.093-.37-.046.092-.046 0-.046.23zm-4.302.047c-.046 0-.092.046-.092.046 0 .047.046.047.092.047 0 0 .047 0 .047-.047zm1.897-.046v.139c.046-.047.092-.093.092-.14h-.092zm.462.046h-.23c0 .046.045.093.092.093s.138-.047.138-.093zm.74-.046c-.046 0-.046.046-.046.046h.093zm-.462-.139c-.046.046-.093.046-.093.093l.047.046zm-6.198 0c-.046 0-.046.046-.046.093 0 0 0 .046.046.046s.046-.046.046-.046c0-.047 0-.093-.046-.093zm1.619 0c-.046 0-.093 0-.093.046 0 0 .093 0 .093-.046zm16.823 20.583c-.694 0-1.388-.37-2.174-.647l-1.018-1.018c-.046-.231-.509-.971-.509-1.573 0-6.336.231-11.47.231-15.449 0-.6-.046-.925-.647-.925-.139 0-.324 0-.509.047-.092 0-.647-.047-.74-.047-.277 0-.601.14-1.156.14-.14-.37-.833.092-.833-.741s.648-.786 1.018-.925c0 0 .138 0 .323.092h1.296c.832-.185.786 0 1.156-.37.139-4.671-.139-5.041 1.341-5.041.047 0 1.342.046 1.666.046.647 0 .416-.278 2.359-.278h-.047c.047 0 .463.14.51.232 0 3.978-.093 3.885-.093 5.041l.37.37h2.081c.093-.138 1.249-.138 1.619-.138h-.046s.971.185.971.647c0 .602-.092.972-1.573.972-.786 0-1.989-.047-3.052-.047-.324 0-.463 2.776-.463 3.932 0 1.249.093 1.85.093 2.822 0 2.636-.14 6.151-.14 7.123 0 .832.047 1.619.232 1.757v-.046c.093 0-.092 1.758 1.758 1.758 1.017 0 1.064 0 1.804-.463-.047 0 .74-.74.74-.925v-.046s.231-1.48 1.249-1.48c.6 0 .832.647.832 1.064 0 .185-.509.508-.509.878 0 1.018-1.896 1.897-2.081 2.406-.139-.093-.416.37-.601.37-1.064 0-1.25.462-2.406.462h-.046c-.971 0-1.85.185-1.85.185-.37 0-.833-.092-1.156-.185zm-.51-.555c0-.046-.045-.046-.045-.046v.139s.046-.047.046-.093zm5.366-.139c-.046 0-.046.047-.046.093 0 0 0 .046.046.046v-.139zm-5.596-.092a.1.1 0 00-.093.092s.046.047.093.047.046-.047.046-.047c0-.046 0-.092-.046-.092zm-.787-.37a.1.1 0 00-.092.092s.046.047.092.047l.046-.047c0-.046-.046-.092-.046-.092zm-.74-.139c-.046 0-.092.046-.092.046h.138zm8.696-.879v.278l.092-.093c0-.092-.092-.185-.092-.185zm-9.482-.092l-.046.046c0 .046.046.046.046.046.046 0 .046 0 .046-.046 0 0 0-.046-.046-.046zm.139-.648c0 .093 0 .093.046.093h.046zm10.916-.694c-.047 0-.093.047-.093.047 0 .046.046.046.093.046 0 0 .046 0 .046-.046zm-11.333-.925v.093h.139zm11.009-.185c-.046 0-.046.047-.046.047 0 .046 0 .046.046.046s.046 0 .046-.046c0 0 0-.047-.046-.047zm.37 0l-.046.093h.185zM82.8 208.32v-.093.093zm-3.561-10.407c0 .046-.047.046-.047.092s.047.046.14.093v-.185h-.093zm-.185-.37h-.047s-.046.046-.046.185c0 .046.046.138.046.138.093 0 .093-.092.093-.138 0-.093 0-.14-.046-.185zm12.072.092v.139c.093 0 .093-.046.093-.139h-.093zm-11.332-.231v.139c.046-.047.092-.093.092-.14h-.092zm-.463-.232c-.092 0-.277.186-.277.232h.462a1.009 1.009 0 00-.185-.232zm7.262-4.162v.23c.231 0 .231-.045.278-.23h-.278zm-3.515-.093s-.046.046-.046.093.046.092.046.092c.046 0 .046-.046.046-.092s0-.093-.046-.093zm0-.37v.278c.092-.047.092-.14.092-.278h-.092zm1.156-.185c0 .046-.046.093.093.093 0-.093-.093-.093-.093-.093zm-1.156-.324v.232h.231c0-.14-.139-.186-.231-.232zm3.515-.046v.185c.093-.046.093-.139.093-.185h-.093zm1.064-.37s0 .277.185.37l.093-.093c0-.046-.047-.37-.232-.37zm11.411 26.041l-.231-.277v-.787c0-.092.323-.416.37-.462h3.053c.138-.093.323-.231.37-.37v-2.637c.092 0 .138-.138.138-.231s-.138-.694-.138-.879v-12.581c0-.694-.278-.786-.463-1.064h-1.896c-.185.093-.324.093-.417.093-1.526 0-1.572-.278-1.572-.694 0-.833 2.035-.925 3.422-.925 1.018 0 1.064.046 2.082.046 2.821 0 2.729-.231 3.33-.231.463 0 1.11 0 1.11.971 0 .185.185 1.295.185 1.434 0 0 0 .139-.092.231 0 .694.092 1.064.324 1.064.277 0 .647-.74.832-1.064 0-.37 1.758-1.757 2.035-2.035.37 0 1.48-.786 2.22-.786 1.11 0 1.342.046 1.85.046s2.776 1.156 2.776 2.544v1.48c0 1.018-.555 1.249-1.064 1.804-.324.093-1.156.879-1.711.879-2.128 0-3.33-1.712-3.33-3.562.277.139-.37-.37-.37-.555-1.018 0-1.48 1.62-2.036 1.62-.185 0-.462.97-.647 1.155-.047 1.48-.787.787-.787 3.053v2.128l.093.277c0 .324-.093.51-.093.787 0 .462.185 5.18.185 7.216 0 .462.37.416.37.786 1.573 0 1.897-.093 2.313-.093 1.527 0 1.712.047 1.712.925-.047.047 0 .232-.14.324v-.046c-.092 0-.554.463-1.156.463-1.063 0 .047-.186-2.682-.186-.602 0-2.22.093-2.22.093h-.926s-.462-.093-.647-.093c-.231 0-1.434.093-1.434.093l-2.637.046c-.323 0-.693.232-.786.232-.416 0-.832-.232-1.295-.232zm-.093-.786c0 .185.232.601.232.647h.231c0-.138-.278-.6-.463-.647zm1.342.416c0 .231.231.139.277.231.093 0 .278-.092.278-.092-.139 0-.37-.139-.555-.139zm2.035.093v.046h.046zm-.833-.093c-.046 0-.092.046-.092.046 0 .047.046.047.092.047s.047 0 .047-.047c0 0 0-.046-.047-.046zm10.361-.046c0 .092 0 .139.14.139s.23-.047.277-.232c0-.046 0-.046-.046-.138-.093.277-.14.231-.37.231zm-2.127 0c.046.046.139.046.092.092.047 0 .139-.046.185-.185l-.092-.138c-.139.046-.046.138-.185.231zm2.914-.555c-.093.046-.093.092-.093.185h.093v-.185zm-12.258 0v.092h.093v-.092h-.093zm-.971-.093c0-.046-.046-.046-.046-.046-.046 0-.046 0-.046.046h.092zm16.744-13.876c-.139.046-.277.093-.277.139l.277-.046v-.093zm.972-.971l.046.231.092-.185v-.046h-.138zm-17.068-3.47c0-.046 0-.046-.047-.046s-.092 0-.092.047h.139zm.416-.277c-.093.046-.139.093-.139.139l.046.046h.093v-.185zm.37 0c.092.093.046.139.092.093v-.093h-.092zm.462.093c0-.047 0-.047-.046-.047 0 0-.046 0-.046.047s.046.092.046.092c.046 0 .046-.046.046-.092zm-1.988-.648l.23.278c.047 0 .232-.047.37-.093.278 0 .602.093.695.093s.323-.047.323-.185c-.185-.14-.647-.185-1.526-.185zm-.648.093l.092.092c.047 0 .047 0 .093-.092l-.046-.047zm8.973-.417c-.092.046-.185 0-.185.232v.092c.185 0 .185-.278.185-.324zm17.61 15.125c0-.37-.047-2.266-.047-2.636 0-.046.046-1.018.046-1.48 0-.925-.046-5.32-.046-5.597 0-.555.046-2.035.046-2.359 0-.601.047-1.989-.416-1.989-.647 0-.694.046-.971.046h-1.943c-.046 0-.092.047-.139.047-.23 0-.323-.417-.462-.555 0-.648.139-.972.971-.972.648 0 1.48.046 2.313.046h5.782c.185.047.462.232.555.463l-.093 9.713.093.093c0 1.758-.139 1.85-.139 2.498 0 .185.046.323.139.37 0 0 0 .231-.093.509 0 5.088.787 5.689 3.053 5.689.093 0 .509-.093.601-.093.648-.323.648-.277.787-.37 0 .047 0 .047.046.047.231 0 1.619-.74 2.22-1.943-.046 0-.046 0-.046-.046 0-.463 1.064-1.758 1.064-2.914.046-.047 0-.417.324-1.388v-4.255c0-1.62-.14-3.146-.14-4.21 0 0 0-.185.047-.416v-1.573c0-1.11-1.249-.462-1.249-.97-.046.092-.092.23-.185.23-.786 0-.694-.046-1.017-.046-.463 0-.556.093-.88.093-.508 0-.924-.463-.924-.833 0-.601.878-.694 1.526-.694 1.11 0 1.434-.046 1.665.139h4.58a.35.35 0 01.184-.093c.232 0 .88.185 1.573.185.278 0 .463.093.463 1.758 0 .74-.14 10.407-.185 10.685v-.046s.092 5.088.092 5.458v-.047s.046 1.388 1.156 1.388c.37 0 .88-.092 1.342-.092.647 0 1.249.185 1.249.97 0 .325-.37.51-.74.51-.694 0-1.573-.139-2.313-.139-.139 0-1.388 0-1.712.139h-2.867c0 .092-.185.185-.185.185-.74 0-1.388-.046-1.388-.787 0-.046 0-.092.046-.185v-2.174c-.092-.138-.277-.508-.462-.508-.093 0-.139.046-.185.138 0 .093-1.064 1.666-1.064 1.62-.046.37-1.434 1.202-1.758 1.294h.046c0 .047-1.711.278-1.85.602h-3.515c-3.978 0-4.996-4.256-4.996-5.505zm14.2 5.273l-.047-.092zm-.093-.23c-.046 0-.092.045-.092.092s.046.046.092.046.046 0 .046-.046 0-.093-.046-.093zm5.643-.093l.093-.047zm2.36-.047c-.14 0-.047 0-.093.047h.185zm-2.452-.092a.1.1 0 00-.093.092s.046.047.093.047.046-.047.046-.047c0-.046 0-.092-.046-.092zm1.202 0c-.046 0-.046.046-.046.092 0 0 0 .047.046.047l.046-.047c0-.046-.046-.092-.046-.092zm-10.5-.463l-.138.185h.138v-.185zm-9.944-4.209c-.047 0-.093.046-.093.046a.1.1 0 00.093.093v-.139zm0-.462c-.047 0-.093.092-.093.185s.046.185.046.185c.047 0 .047-.324.047-.37zm.185-1.064c-.047 0-.093.046-.093.092s.046.093.093.093.046-.046.046-.093 0-.092-.046-.092zm.185-.093c-.047 0-.093 0-.093.047 0 0 .046.046.093.046l.046-.046c0-.047-.046-.047-.046-.047zm13.784-10.5s0 .093.046.093c0-.046 0-.092-.046-.092zm-.694-1.063a.1.1 0 00-.093.092s.047.046.093.046l.046-.046c0-.046-.046-.092-.046-.092zm-16.976-1.203c0 .139.093.093.185.093v-.185c0 .046-.046-.047-.185.092zm13.97-.092c-.047 0-.047.046-.047.092s0 .093.046.093.046-.047.046-.093 0-.092-.046-.092zm-14.34-.093v.046h.093zm22.017-.185c0 .046-.046.046-.046.093s.046.046.139.092v.046zm-3.607 0c-.047 0-.093.046-.093.093s.046.092.093.092c0 0 .046-.046.046-.092s-.046-.093-.046-.093zm-15.218-.185c-.046 0-.093.046-.093.093s.047.092.093.092c0 0 .046-.046.046-.092s-.046-.093-.046-.093zm15.033 0v.093h.092c0-.093 0-.093-.092-.093zm-4.718-.185c0 .139.046.139.092.185 0 0 .093 0 .185-.092 0 0 0-.093-.092-.186zm1.711.185l-.046-.092zm-14.848-.185l.047.093h.092zm15.588.093v.092-.139.047zm23.299 20.722c-1.018 0-1.943-.602-2.96-.694-.278 0-.74-.74-1.388-.74-.324 0-.787-.972-1.295-.972-.833-.879-.556-.555-.602-.694v.047c0-.047-.092-.185-1.202-1.295 0-.37-.51-.555-.972-1.712 0-.046.046-.046.046-.092 0-.185-1.11-1.99-1.11-4.58 0-1.665.51-2.544.51-3.839.323-.37.37-.508.37-.6 0-.047-.093-.047-.093-.14 0-.138.138-.462.879-1.434 0-.6.555-.508.74-1.063v.046c-.232-.602 2.867-2.498 3.191-2.96l.046.046c.047 0 1.157-1.157 6.939-1.157 1.572 0 2.636.925 3.006.972.093 0 .139 0 .231-.047-.046 0 1.712.833 1.85 1.434 0 .185.88.88.88 1.203 0 .139.37 1.249.37 1.711 0 1.48-.787 1.527-.787 2.174 0 0-.277.74-1.341.88 0 .138-1.295.138-1.295.23-.047 0-.047.047-.047.047-.092 0-1.248-.88-1.804-.88l.047.047c-.232 0-.925-1.202-.925-2.081 0-1.157.37-1.11.508-1.897 1.11-.601.37-.509.926-1.249-.047.047-.047.047-.093.047 0-.093.046-.185.046-.37 0-.324-.185-.648-1.017-.648.092 0-1.11-.37-1.203-.648-4.21 0-3.238.833-4.625 1.712-.648-.046-.972 6.337-.972 8.14 0 6.245.787 8.188 1.203 8.188.092 0 .046 0 .046-.046 0 0 .694 1.387 2.174 1.387 1.943 0 2.73-.046 3.377-.046 0 0 1.572-.185 2.359-1.295.601 0 2.081-1.85 2.081-2.637.879-1.989.786-2.081 1.527-2.081 0 0 0 .046.046.046 0 0 .092-.046.139-.046.185 0 .37.092.37.509 0 1.989-.74 1.757-1.018 2.821v-.046c-.093 0-.648 1.48-1.249 1.758-.37.37-.694.277-2.174 1.757-1.11.278-1.434.324-1.573.463h-.786c-.046 0 .046-.185-.092-.185-.047 0-.37 0-.37.046s.046.093.185.139c-.232.324-.417.416-.648.462v-.138h-.648l-.092.138-.139-.092.093-.046c-.37 0-.417 0-.463.046-.462 0-.37 0-.555-.046 0 0-.046 0-.092.046zm-.093-.37c.139 0 .278.092.324.046 0-.046-.046-.093-.046-.139-.185 0-.185 0-.278.093zm3.84-.14a.1.1 0 00-.093.093s.046.047.092.047l.046-.047c0-.046-.046-.092-.046-.092zm-3.192-.554v.277l.046-.185zm4.903-.093c-.232 0-.278.093-.278.231 0 .047-.046.185.046.185.047 0 .232-.185.232-.416zm-1.296-.185v.093s.232.092.324.092l.139-.046c0-.185-.185-.139-.463-.139zm-.647.093c-.046 0-.093.046-.093.046s.047.046.093.046v-.092zm2.081-.093a.665.665 0 00.14.093c.092 0 .23-.093.277-.185-.37 0-.417-.047-.417.092zm-.416-.092v.092-.139.047zm-.092-.14c-.047 0-.093 0-.093.047h.139c0-.046 0-.046-.046-.046zm.647-.462a.1.1 0 00-.092.093s.046.046.092.046.046-.046.046-.046c0-.046 0-.093-.046-.093zm1.249-.925a.497.497 0 00.324.093l-.139-.278c-.139 0-.185.046-.185.185zm1.018-1.064c0 .047.092.047.092.047zm-15.357-1.85a.1.1 0 00-.092.093h.138c0-.047 0-.093-.046-.093zm-.694-.601v.046l.093-.046h-.093zm17.67-.324c0 .093.046.278.092.278s.046-.047.046-.093-.046-.092-.138-.231v.046zm-.556 0v.185c.047-.046.093-.092.093-.185h-.093zm.278-.601v.092h.278v-.092h-.278zm-18.132-1.388a.1.1 0 00-.092.093s.046.046.092.046.046-.046.046-.046c0-.047 0-.093-.046-.093zm-.37-1.572v.046h.093zm.231-1.758c-.046.046-.092.046-.092.046a.1.1 0 00.092.093s0-.047.047-.093zm0-.324h-.046c0 .046 0 .046.046.046 0 0 .047 0 .047-.046h-.047zm15.912-1.11c-.046 0-.046.046-.046.092 0 0 0 .047.046.047s.046-.047.046-.047c0-.046 0-.092-.046-.092zm-.648-.231a.1.1 0 00-.092.092s.046.046.092.046.047-.046.047-.046c0-.046 0-.092-.047-.092zm-2.682-1.99c-.047 0-.093 0-.093.047s.046.093.093.093.046-.047.046-.093 0-.046-.046-.046zm5.411-.092c-.185 0-.23.093-.277.232.139.046.277-.14.277-.232zm-5.411-.879a.1.1 0 00-.093.093s.046.046.093.046.046-.046.046-.046c0-.046 0-.093-.046-.093zm5.226-.74c-.23 0-.185.093-.185.185.14-.046.232-.138.185-.185zm-2.081-2.636c-.046 0-.093.046-.093.092s.047.093.093.093.046-.046.046-.093 0-.092-.046-.092zm-1.203-.093c-.046 0-.046.047-.046.047 0 .046 0 .046.046.046v-.093zm-8.788-.138l-.139.092h.37s-.185-.092-.231-.092zm8.927 0a.1.1 0 00-.092.092s.046.046.092.046.046-.046.046-.046c0-.046 0-.092-.046-.092zm-6.984-.648c.185.185.323.37.462.509 0-.324.232-.509.555-.509l-.138-.185c-.556 0-.694.139-.88.185zm6.43.278v.092c.045 0 .045 0 .045-.046 0 0 0-.046-.046-.046zm-3.1-.833c-.324 0-.278.277-.278.37h.37c0-.046-.046-.324-.092-.37zm9.93 20.306c0-.324.325-.37.463-.602h2.776c.046 0 .37-.185.462-.462v-17.623c0-.046-.092-.231-.092-.278 0-.092.092-.231.092-.231v-3.654c-.046-.046-.092-.231-.092-.231 0-.047.092-.417.092-.88 0-.092-.092-1.294-.092-3.56 0-.14 0-.325.092-.463v-2.313c-.092-.093-.092-.139-.092-.278 0-.277.092-.647.092-.97 0-.093-.092-.371-.092-.463l.092-.232c0-.185 0-.786-.416-.879h-3.284c-.185 0-.555-.277-.555-.832l-.046.092c0-.046.462-.971.6-.832h7.032c0 .046.138.231.23.231.417 0 .463-.092.463-.139 0-.092-.092-.185-.092-.185h-.278l1.434-.046c.509.046.74.231.74 1.295 0 .833-.185 3.515-.185 4.163 0 .093.093.463.093.555 0 1.064-.185 2.128-.185 3.608 0 4.302.185 8.65.185 13.46 0 .324 0 .324-.093.509.047.046.047.324.185.37 3.1-2.59 3.886-3.886 5.273-4.903 0 .046.047.092.047.092.092 0 .092-.971.925-.971 1.202-1.388 1.249-1.11 1.249-1.665-.14.324.323-.37-.88-.37-.092 0-.37.185-.508.185-.093 0-.231-.093-.324-.093-.277 0-1.573.047-1.619.047-.601 0-.694-.602-.694-.787 0-.694 5.042-.74 7.771-.74 1.712 0 3.515.093 3.515.602 0 .878-.925 1.017-1.572 1.017-1.157 0-1.11 0-1.573-.231-.694.185-1.11-.231-2.359.74-.925 1.434-1.572 1.249-1.757 1.573 0 .23-.51.74-.51.74s-.046-.093-.138-.093c-.139 0-.416.185-1.064 1.064 0 .092-.74.416-.879.74l-.185.139c0 1.064.185.555.602 1.387h-.093c0 .093 1.064.602 1.064 1.064 1.989 2.36 1.341 2.313 2.405 3.192.046.231.555.462.786.832.926 1.296 1.388 1.527 2.22 2.868 3.146 3.146 2.128 3.7 4.21 3.7.277 0 .462-.046.694-.046.508 0 .693.324.693.417-.092 0-.185 0-.23-.047l-.417.694.046.093c.463 0 .37-.602.694-.602 0 .833-.971.88-1.249.88-.139 0-.185 0-.324-.047h-1.249c-.138.046-.185.092-.323.092-.185 0-.324-.046-.37-.092h-1.388c-.139.046-.185.092-.463.092s-.97-.138-1.48-.138c-.462 0-1.202.046-1.85.046-.092 0-.324-.046-.37-.046 0 .046-.046.046-.092.046-.093 0-.278-.093-.555-.093-.185 0-.417.047-.694.232-.139 0-.74-.139-1.018-.185-.185.092-.37.092-.462.092-.602 0-.787-.37-.88-.555 0-.74.093-.324.648-.694h1.434c.139 0 .463-.185.463-.555 0-.277-.37-.462-.37-.832-2.128-2.128-.093-.694-2.544-3.146-.787-1.063-.047.37-3.192-4.116 0-.139-.694-.278-.786-.509-.416.416-.463 1.989-.463 3.192 0 5.828-.416 6.013 2.22 6.013.278 0 .463 0 .51-.093.37 0 1.017 0 1.017.648a.667.667 0 01-.694.647h-1.526c0 .185-.14.185-.278.185-.092 0-2.22-.185-3.931-.185-.463 0-2.406.093-2.822.093-.185.092-.324.092-.416.092-.417 0-.463-.092-.694-.092-.185 0-.416.092-.648.092h-1.526c-.509-.37-.555-.277-.555-.832zm1.666.37v.185h.139v-.047c0-.092-.139-.138-.139-.138zm.786 0c-.046 0-.092.046-.092.092s.046.093.092.093v-.185zm.648-.417c0 .232-.139.51-.37.51a.1.1 0 00.092.092c.14 0 .324-.37.463-.37 0-.278-.093-.232-.185-.232zm-2.082.278c0 .092.093.046.37.046-.092 0-.23-.139-.323-.139 0 0-.047.047-.047.093zm11.75-.37c0 .139-.186.277-.186.37l.046.046h.14v-.416zm-12.12-.093c-.37 0-.37.37-.37.51.047.045.093.045.14.045.092 0 .415-.277.415-.37s-.185-.185-.185-.185zm25.58-.138c-.047 0-.047.046-.047.046 0 .046 0 .046.046.046s.046 0 .046-.046c0 0 0-.046-.046-.046zm-2.591-.14c-.046 0-.046.047-.046.093 0 0 0 .047.046.047s.046-.047.046-.047c0-.046 0-.092-.046-.092zm.139 0c-.047 0-.093.047-.093.047 0 .046.046.046.093.046s.046 0 .046-.046c0 0 0-.046-.046-.046zm-19.797-8.094c-.046 0-.093.047-.093.047h.139s0-.047-.046-.047zm10.823-5.689c0 .046-.046.093-.046.093-.046 0-.046-.047-.046-.093s0-.046.046-.046c0 0 .046 0 .046.046zm-10.823-.463c-.046 0-.093.047-.093.093s.047.092.093.092.046-.046.046-.092 0-.093-.046-.093zm14.524-3.376c-.047 0-.093 0-.093.046 0 0 .046.046.093.046s.046-.046.046-.046c0-.046 0-.046-.046-.046zm3.006-1.527v.232c.046 0 .093 0 .093-.046zm-.555.093a.1.1 0 00-.092.093s.046.046.092.046.046-.046.046-.046c0-.047 0-.093-.046-.093zm-16.975-9.898a.1.1 0 00-.093.092h.139c0-.046 0-.092-.046-.092zm3.191-3.655l.185.14c0-.232.185-.278.185-.74 0-.14 0-.186-.092-.232-.046.046-.139.046-.185.139zm1.897.047v-.14.14zm-8.881-.278c0-.046-.046-.046-.046-.046-.047 0-.047 0-.047.046s0 .093.047.093c0 0 .046-.047.046-.093zm1.249-.092c-.046 0-.046.046-.046.092s0 .093.046.093.046-.047.046-.093 0-.092-.046-.092zm.231.092c0-.046-.046-.046-.046-.046v.139s.046-.047.046-.093zm-1.85-.555c-.046 0-.093.046-.093.093s.047.092.093.092.046-.046.046-.092 0-.093-.046-.093zm4.024-.277c-.046 0-.093.046-.093.092s.047.093.093.093c0 0 .046-.047.046-.093s-.046-.092-.046-.092zm-3.562-.14c-.37 0-.323 0-.323.232h-.047l.093-.092c.092 0 .37-.047.462.092 0-.231-.046-.231-.185-.231zm4.996.232c0-.046-.046-.046-.046-.046-.047 0-.047 0-.047.046s0 .093.047.093c0 0 .046-.047.046-.093zm2.729-.231c-.046 0-.093.046-.093.139 0 .046.047.092.093.092s.046-.046.046-.092c0-.093 0-.14-.046-.14zm.509-.231c0 .416.046.323.231.508l.231-.23c0-.232-.37-.14-.462-.278zm-6.615.277l-.185.093h.185v-.093zm3.47 0s-.047.046-.047.093.046.092.046.092c.047 0 .047-.046.047-.092s0-.093-.047-.093zm1.618-.046c-.046 0-.092 0-.092.046h.139c0-.046-.047-.046-.047-.046z" fill="#111"/><path d="M31.27 252.816c-.303 0-.471.068-.674.101-.303 0-.236 0-.27-.033l-.1.033c0 .102.033.102.1.135 0-.033-.1.068-.168.203h.034c0 .033-1.08.876-1.248.876-.775 0-.775-.91-.775-1.045 0-.067 0-.067.033-.169 0-3.776-.168-3.203-.168-5.462 0 0 .033-.034.033-.067 0-.101-.067-.27-.067-.439 0-.303.135-.505 1.012-.505.1 0 .236.1.539.64 0 .169.607.675.674.978-.033.034-.067.067-.067.101 0 .135.506.337.506.54 0 .033-.034.067-.034.067 0 .202.337.371.337.472.405.742.438.708.978 1.248.169 0 1.416 2.225 2.36 2.225 1.214.101 1.45.54 2.731.54.708 0 .607-.034.843-.169-.067.067-.033.067-.067.067 0 0 .236-.337 1.349-.337.505 0 1.483-.944 1.685-1.079.068-.067.405-.202.405-.27 0-.202.708-1.18.81-1.28-.034-.068-.034-.136-.034-.17 0-.505.54.27.54-2.865-.035-.101-.136-1.18-.372-1.383-.101 0-.101-.775-.91-1.315 0-.033.033-.202.033-.27-1.314-.067-.64-.741-1.517-.741-1.652 0-.337-.506-2.124-.506-.169-.169-1.652-.135-1.99-.337-.067 0-.303.067-.37.067-.405 0-.068-.337-.978-.337-3.068-.169-1.416-.742-2.461-.742v-.067c.1 0 .236-.034.337.067 0 0 .168-.067.168-.1 0 0-.067-.068-.067-.102H31.27c-.338-.304-.304-.506-.574-.573 0-.034-.37.033-.944-.742 0-.236-.741-1.113-.91-1.248-.304-1.584-.674-2.528-.674-3.742.067-.371 0-.843.134-1.08v.034c.034 0 .169-1.146.27-1.078a.073.073 0 01-.067-.068c0-.27.708-1.011.708-1.281-.034-.034-.034-.068-.034-.068 0-.236.54-.472.54-.573s.438-.81.64-.944c-.033.034-.033.067-.033.067-.034 0 1.652-1.112 1.685-1.146 2.057-.337.27-.91 2.563-.91h3.304c.068 0 .776 0 1.113.27 1.382.067 1.146.876 1.753.876 1.113 0 .81-.067 1.147-.404-.135-.17.91-.034 1.011-.473h.439c.067 0 .337.27.37.338.102 4.18.304 4.08.304 6.271 0 .169-.304.27-.438.54h-.472v-.135c-.102 0-.81-.472-.81-.843v.034c-.033 0-.27-.843-.64-.978h.033c0-.101-.438-.439-.438-.675-.506-.741-.438-.708-.843-1.112h.034c0-.034-.843-.54-.843-.776 0-.506-1.248-1.113-1.517-1.382.1-.203-.877-.472-1.855-.472-.034 0-.067.033-.101.033-.337 0-.202-.573-.303-.573-.068.068-.102.068-.135.135-.034 0-.169-.034-.27-.067-.202.741-.54.337-.64.54-.203-.102-.068-.203-.203-.237-.708.337-.506.304-2.057 1.08-1.011 1.988-.472-.473-1.585 2.562v1.483-.034c.034 0 .169 1.315.472 1.484.068.101.506.438.641.708.236 0 .54.877 1.517.877.405.438 1.99.337 3.608.742.472.134 2.934.134 3.507.809h-.034c0 .067.81.135.944.236 0-.068 1.619.944 1.619 1.146 0 .034 0 .034-.034.034.573 0 1.146 1.281 1.382 1.45.169 1.214.641.843.641 1.787.405 1.281.337 1.585.337 3.17-.1.1-.168 1.28-.337 1.348 0 1.72-.877 1.618-.877 2.36l-.438.405c0 .067-.034.202-.034.202-.674.607-.438.708-.741.843-.102 0-.27.506-.843.674-.641.978-.91.203-1.585 1.18-3.035 0 .067.742-3.304.742-3.844 0-2.496-.1-3.743-.404-.034 0-.034.033-.068.033-.202 0-.505-.27-.775-.27 0-.033-.506-.1-.506-.168 0 .034.034.034.034.034 0-.034-.472-.708-.843-.708-.068 0-.135.034-.202.067zm6.407 1.214c-.034 0-.034.034-.034.068 0 0 0 .033.034.033s.034-.033.034-.033c0-.034 0-.068-.034-.068zm-2.529-.067c-.034 0-.034.033-.034.033 0 .034 0 .034.034.034s.034 0 .034-.034c0 0 0-.033-.034-.033zm3.203 0c-.033 0-.067.033-.067.067s.034.068.067.068.034-.034.034-.068 0-.067-.034-.067zm-.741-.068c-.034 0-.068.034-.068.068s.034.067.068.067.033-.034.033-.067 0-.068-.033-.068zm.741-.067c-.067 0-.1 0-.1.033l.033.034h.067v-.067zm-2.461 0c-.034 0-.034 0-.034.033 0 0 0 .034.034.034s.034-.034.034-.034c0-.033 0-.033-.034-.033zm2.461-.236v.168a.406.406 0 00.169-.168h-.169zm.91-.101c-.303 0-.303.1-.303.202.034 0 .101-.034.169-.068.034 0 .135.034.202.068l.135-.068s0-.134-.202-.134zm-4.012.033v.068h.135v-.068h-.135zm1.686 0c-.034 0-.034.034-.034.068 0 0 0 .033.034.033s.034-.033.034-.033c0-.034 0-.068-.034-.068zm.944 0a.073.073 0 00-.067.068s.034.033.067.033.034-.033.034-.033c0-.034 0-.068-.034-.068zm-3.102-.202c-.033 0-.067 0-.067.034h.101c0-.034 0-.034-.034-.034zm-1.045-.101c-.034 0-.067 0-.101.034zm-.101-.135c-.034 0-.068.034-.068.067s.034.068.068.068.034-.034.034-.068 0-.067-.034-.067zm.101-.034c-.034 0-.034.034-.034.068 0 0 0 .033.034.033s.034-.033.034-.033c0-.034 0-.068-.034-.068zm-4.822-.067a.073.073 0 00-.067.067s.034.034.067.034l.034-.034c0-.033-.034-.067-.034-.067zm4.72 0a.073.073 0 00-.067.067s.034.034.068.034.034-.034.034-.034c0-.033 0-.067-.034-.067zm-5.192-.101c-.033 0-.067.033-.067.033 0 .034.034.068.067.068 0 0 .034-.034.034-.068zm5.463.033h-.068c0 .034 0 .068.034.068 0 0 .034-.034.034-.068zm6.608-.033c-.033 0-.033.033-.033.033h.067c0 .034 0-.033-.034-.033zm-12.07-.574v-.134.134zm13.621-.067a.073.073 0 00-.067.067h.101c0-.033-.034-.067-.034-.067zm.472-.405v.068h.034zm-.1-.1a.073.073 0 00-.068.067s.033.033.067.033.034-.033.034-.033c0-.034 0-.068-.034-.068zm.201.033l.068-.034zm.203-.202l-.068.067c.034-.034.034-.067.068-.067zm-14.297-.034c-.033 0-.067 0-.067.034 0 0 .067 0 .067-.034zm-.1-.337v.202h.033c0-.034 0-.168-.034-.202zm15.442-.742c-.034 0-.034.034-.034.034s0 .033.034.033.034-.033.034-.033 0-.034-.034-.034zm-1.045-2.765l.067.034.068-.034h-.135zm-14.398-.54h-.067c0 .034 0 .068.034.068 0 0 .033-.034.033-.067zm16.792-.573v-.033c-.034 0-.034 0-.034.033s0 .068.034.068v-.068zm-14.162-5.698c-.033 0-.067.034-.067.068s.034.067.067.067.034-.034.034-.067 0-.068-.034-.068zm-1.382-1.45a.073.073 0 00-.068.068s.034.033.068.033l.034-.033c0-.034-.034-.068-.034-.068zm10.823-.337c-.033 0-.033.034-.033.068 0 0 0 .033.033.033s.034-.033.034-.033c0-.034 0-.068-.034-.068zm-11.228-.135v.068l.068-.068h-.068zm3.203-.303s-.033 0-.033.034h.067c0-.034-.034-.034-.034-.034zm3.339-.439c-.068 0-.237.068-.237.102s.034.033.034.033c.068 0 .135-.067.203-.135zm-7.182-.977c-.034 0-.068-.034-.068.168a.34.34 0 00.034.101c.034 0 .067-.067.067-.1 0-.068-.033-.136-.033-.17zm-.102-.338c-.033 0-.067.034-.067.068s.034.067.067.067v-.135zm14.432-5.934a.073.073 0 00-.068.068s.034.033.068.033.033-.033.033-.033c0-.034 0-.068-.033-.068zm.472 0c-.034 0-.034.034-.034.068 0 0 0 .033.034.033s.033-.033.033-.033c0-.034 0-.068-.033-.068zm.135 0a.073.073 0 00-.068.068s.034.033.068.033l.033-.033c0-.034-.033-.068-.033-.068zm-7.553-.742v-.37c.034-.034.101-.068.135-.102l.067.068c0 .1-.135.27-.135.472zm7.418-.135c-.034 0-.034.034-.034.068 0 0 0 .034.034.034s.033-.034.033-.034c0-.034 0-.068-.033-.068zm-11.06-.168c-.168.034-.168.168-.168.168.033-.033.168-.1.168-.134v-.034zm-.809-.169c0 .068.101.101.169.101-.034-.1-.169-.1-.203-.1h.034zm11.734.068c.034.033.067.033.101.033.135 0 .169-.1.169-.202zm-11.194-.27c-.102 0-.068.101-.068.202h.068v-.202zm6.676-.303c-.101.168-.068.303-.068.438.135-.034.169-.202.169-.371-.034-.034-.034-.067-.101-.067zm-6.676.134c-.034 0-.068 0-.068.034h.101c0-.034 0-.034-.033-.034zm10.857-.067c0-.034-.034-.034-.101-.034-.034 0-.068 0-.068.034s.034.067.068.067c.067 0 .1-.033.1-.067zm.135-.101c-.034 0-.068.034-.068.034h.068v-.034zm-3.339 0l-.033-.034zm-2.09-.034c0-.034-.034-.034-.034-.034s-.033 0-.033.034.033.034.033.034.034 0 .034-.034zm4.586 0c0-.034-.034-.034-.034-.034-.034 0-.034 0-.034.034s0 .034.034.034c0 0 .034 0 .034-.034zm.438-.067a.073.073 0 00-.068.067s.034.034.068.034.034-.034.034-.034c0-.034 0-.067-.034-.067zm.742-.068v.135l.067-.067zm-10.25-.27c0 .102.067.237.067.338l.067-.169s-.033-.135-.067-.236zm5.934.135c-.034 0-.068.034-.068.034s.034.034.068.034.034-.034.034-.034 0-.034-.034-.034zm3.675-.202c-.101.034-.135.135-.169.236.203 0 .17-.101.17-.236zm.64.202v.034h.068zm0-.202c-.033 0-.033.034-.033.034 0 .034 0 .034.034.034s.033 0 .033-.034c0 0 0-.034-.033-.034zm-7.046-.135c-.034.101.168.135.168.135.068-.101.405.034.371-.135h-.54zm2.124.068h-.068c0 .033 0 .067.034.067 0 0 .034-.034.034-.067zm-4.012-.135v.067h.134v-.067h-.134zm.64-.068c-.101 0-.236.101-.27.135h.27v-.135zm2.529.068v.067h.202zm30.095 25.288c-1.248 0-3.27.034-3.372.034-1.079 0-1.113-.068-1.113-.405 0-.607.708-.607.708-.775h.607l.135.067h1.383s.168-.135.168-.168c0-.641-.506-.607-.506-.978l-.404-.439v-.135c-.135-.067-.506-.404-.573-.505 0-.54-.675-.337-.675-.944-.573-.742-.472-.472-1.585-1.922 0-.236-.842-1.113-1.045-1.248 0-.101-.37-.978-1.011-1.315.033-.034.033-.067.033-.067 0-.27-1.787-2.327-2.056-2.462 0-.1-.675-1.045-.81-1.112l-.033.033c-.135 0-.27-.64-.506-.64-.101 0-.169 3-.169 3.304 0 .135.034.742.034 1.113v6.17c0 .101.068.776.068.91-.034 0-.034.034-.034.034 0 .135.337.472.438.472h1.45l.101-.033.169.033c.067 0 .135 0 .202-.033.91 0 .944.404.944.91-.067.067-.438.236-.843.236-.067 0-.067-.101-.37-.101-.81 0-1.62.067-2.53.067-.472 0-2.562-.067-4.551-.067l.067-.034h-.236l.034.034c-.236 0-.607.1-.843.1-.068 0-.169 0-.169-.067 0-.033.101-.067.169-.1 0 0-.068-.136-.068-.203-.202.236-.674.236-.876.236h.27a4.474 4.474 0 01-.709.101h-.067c.034-.067.135-.067.202-.1h-.404l-.102.1s-.54 0-.54-.135v-.607c.035 0 .507-.337.911-.37 0 .033.034.033.068.033.1 0 .303-.067.438-.067.202 0 .337.067.472.067.304 0 .371-.033.54-.033.1.033.303.1.404.1.304 0 .405-.471.506-.606 0-.135 0-.371-.034-.506 0-.034.034-.303.034-.37 0-.035-.034-.642-.034-.81 0-.135.034-.405.034-.708 0-.439-.067-1.754-.067-5.26 0-.304.033-.776.033-1.045 0-.54-.033-1.383-.033-2.057 0-.27.033-2.26.033-2.327 0-.135-.033-.438-.033-.54 0-.235.033-1.146.033-1.348v-7.35c0-.439-.337-.338-.37-.54-.405 0-.372.068-.574.068h-2.191c-.068-.034-.27-.135-.27-.236v-.405c0-.067.404-.405.607-.405h1.55c.17 0 .304.135.54.135.068 0 1.248-.034 1.754-.135.1 0 .438.068.539.068.135 0 .438.033.674.033.203 0 .405-.033.439-.1 0 0 .54.067.775.067.978 0 2.26-.169 3.406-.169.573 0 1.247.068 1.382.371 0 .742-.236.776-.607.776-.708 0-.742-.068-1.079-.068-.033.034-.1.034-.135.034-.202 0-.54-.068-.843-.068-.64 0-.708.641-.708 1.383 0 .337.034.843.034 1.753 0 .236-.101 1.888-.101 2.799 0 .303 0 .573.067.674a.362.362 0 01-.067.202c0 .405 0 .472.067.641 0 .202-.067 3.642.236 3.642.102-.102 1.518-1.383 1.518-1.653.775-.067-.371-.404 1.348-1.517 0-.607.91-.337.91-1.113 2.26-2.292.608-.809 1.855-2.056.742-.236-.708.337 1.518-1.585.134 0 .472-.877.977-1.18.371 0 .843-1.012 1.416-1.45v-.405c-.033-.033-.134-.067-.168-.1h-2.563c-.27 0-.607 0-.607-.338v.034-.034c0-.169.068-.843.81-.843.168 0 .573.101.54.101.201 0 .134 0 .235-.034l1.214.034.067-.101c.135 0 .338.101.675.101.034-.067 2.596-.101 3.034-.101.304 0 .641-.034 1.012-.034.708 0 1.416.101 1.45.64 0 .372-.068.675-.81.675-.471 0-.91-.1-1.483-.1l.101-.035c0-.067 0-.134-.101-.134-.034 0-.034.033-.101.134h-1.147c-.404.135-.404.439-.775.641 0 .54-.607.337-.91 1.146-.203 0-1.147 1.113-1.214 1.35.033 0 .033 0 .033.033 0 .101-1.213.708-1.213 1.247-2.63 2.63-2.36 2.226-2.462 2.563.034.135-1.214.877-1.214 1.416 0 .202.304.506.304.742.101.135.843.708.843 1.011 0 0 .573 1.012 1.45 1.889 0 .033-.034.033-.034.067 0 .202.64.472.843 1.045-.135.101.775.675.843.91 0 .034.202.338.202.338.202 0 1.753 2.192 1.855 2.259 0 .236 1.18 1.146 1.18 1.618 0 .102.64.574.708.776 0 .202.91.775.91 1.18.742.81.405.607.978 1.18.742.236.674 1.754 1.72 1.754h1.989c.303.27.472.337.54.775 0 .573-.506.64-.776.64 0 0-.506-.134-1.012-.134-2.292 0-2.866-.034-5.9-.034zm-11.498-.034l-.034.034.034.034c.034 0 .034-.034.034-.034s0-.034-.034-.034zm3.642.034h-.304c0 .034.067.034.135.034.101 0 .169 0 .169-.034zm14.06 0h-.101c0 .034.033.034.033.034.034 0 .068 0 .068-.034zm-24.985-.236c0 .135-.034.202.135.202.067 0 .135-.1.135-.236 0 0-.101-.27-.203-.337-.033 0-.067.202-.067.371zm15.173.135l.034.067.135-.067h-.17zm-.236-.068c-.034 0-.034.034-.034.068s0 .067.034.067.034-.033.034-.067 0-.068-.034-.068zm8.8-.1a.073.073 0 00-.067.067s.034.033.067.033.034-.033.034-.033c0-.034 0-.068-.034-.068zm-13.622-.102a.073.073 0 00-.067.068s.034.033.067.033.034-.033.034-.033c0-.034 0-.068-.034-.068zm-7.418-.101c-.033 0-.067 0-.067.034h.101c0-.034 0-.034-.034-.034zm7.823-.135l.101.135c0-.034.034-.067.034-.135h-.135zm-10.25 0v.068l.033-.068h-.033zm.404 0h-.1c0 .034.033.068.033.068a.073.073 0 00.067-.068zm.843 0h-.067c0 .034 0 .068.034.068 0 0 .033-.034.033-.068zm22.288-.101l.067.067c.101 0 .101-.033.135-.067h-.202zm1.247-.169c-.033 0-.067.034-.067.068s.034.067.067.067.034-.033.034-.067 0-.068-.034-.068zm-2.562-.37c0 .168.236.202.27.236 0-.236-.17-.236-.27-.236zm-6.002-1.518v.034l.034-.034h-.034zm-13.15-5.934l-.034.034c0 .033.034.033.034.033s.034 0 .034-.033zm10.756-3.035v.068h.101v-.068h-.101zm-.27-6.608l-.067.067h.337zm.607-.641l.034-.067zm.506-.405c-.034 0-.034.034-.034.068s0 .067.034.067.034-.033.034-.067 0-.068-.034-.068zm-.068-.607c-.033 0-.067.034-.067.068s.034.067.067.067v-.135zm1.113-.64c-.034 0-.034.034-.034.034 0 .033 0 .033.034.033s.034 0 .034-.033c0 0 0-.034-.034-.034zm.776-.742a.073.073 0 00-.068.067s.034.034.068.034l.033-.034c0-.033-.033-.067-.033-.067zm-.101-.067c-.034 0-.068.033-.068.067s.034.067.068.067.033-.033.033-.067 0-.067-.033-.067zm.876-.742c-.034 0-.067.034-.067.034h.1zm-.775-.169a.073.073 0 00-.068.068s.034.033.068.033l.033-.033c0-.034-.033-.068-.033-.068zm-16.455-2.124v.067h.102v-.067h-.102zm1.282-.405c-.068 0-.068.068-.135.135 0 .034.034.034.034.068 0 .1-.54.135-.54.27h.506c.101 0 .135-.203.135-.473zm19.994.405c.034.034.304.067.371.067.304 0 .405-.067.54-.067 0-.067-.068-.169-.135-.169-.169.102-.472.169-.776.169zm-11.261-.067v.067l.067-.067h-.067zm.741-.102c-.067-.033-.168.102-.168.169.202.034.168-.067.168-.169zm12.105-.168c0 .034-.169.202-.169.27v.067c.203-.101.169-.101.169-.337zm-23.299-.068c.068.102.068.169.068.304h.1c0-.337.27-.371.54-.371v-.135c-.27 0-.674-.034-.708.202zm20.905.236c-.034 0-.067.034-.067.034 0 .034.033.034.067.034s.034 0 .034-.034c0 0 0-.034-.034-.034zm-6.07-.37c0 .168-.033.337.102.472 0 0 .135-.472.101-.472h-.202zm5.733-.068c.236 0 .135.068.27.337.1 0 .1-.067.168-.135l.236-.134v-.068c-.135 0-.202 0-.27.068l-.134-.068.135-.067c-.203 0-.27 0-.405.067zm-19.354.068v.202h.034c0-.068 0-.169-.034-.202zm.775 0c0 .067 0 .1.068.134.202 0 .202-.134.202-.134h-.27zm1.383.134h.101v-.067c-.034 0-.067.034-.101.067zm.607-.134c0 .067 0 .1.067.134v-.134h-.067zm17.904-.068l.101.202.034-.067c0-.067 0-.135-.034-.202zm-19.152.068c-.033 0-.067.033-.067.067s.034.067.067.067c0 0 .034-.033.034-.067s-.034-.067-.034-.067zm6.98 0c0 .067.135.134.168.134.203-.033.27-.1.27-.134s0-.068-.034-.068c-.1 0-.303.068-.404.068zm-5.024 0c-.034 0-.068.033-.068.067s.034.067.068.067v-.134zm5.9 0l.068.067c.101 0 .168-.067.27-.135-.203 0-.203 0-.338.068zm.607 0c-.033 0-.067.033-.067.067s.034.067.067.067c0 0 .034-.033.034-.067s-.034-.067-.034-.067zm5.699 0c-.034 0-.068.033-.068.033 0 .034.034.034.068.034 0 0 .033 0 .033-.034zm5.867-.135c0 .135.067.202.1.202l.338-.202-.135-.034c-.202 0-.27.034-.303.034zm-5.429.135c0-.034-.034-.034-.034-.034-.033 0-.033 0-.033.034s0 .067.033.067c0 0 .034-.034.034-.067zm.472-.068c-.034 0-.067.034-.067.068s.033.067.067.067.034-.034.034-.067 0-.068-.034-.068zm-1.787 0c0-.034-.034-.034-.101-.034 0 0-.034 0-.034.034s.034.068.034.068c.067 0 .101-.034.101-.068zm3.17-.067c-.034 0-.068.033-.068.067s.034.068.067.068c0 0 .034-.034.034-.068s-.034-.067-.034-.067zm.539 0c-.034 0-.067.033-.067.067s.033.068.067.068c0 0 .034-.034.034-.068s-.034-.067-.034-.067zm.573 0l-.067.067h.135zm1.922 0v.067h.202c-.1-.067-.134-.067-.202-.067zm8.684 1.213c-.169 0-.27.102-.405.102-.472 0-1.045-.304-1.045-.506v.034c0-.034 0-.776.843-.776 0 0 1.416.068 1.686.068.776 0 3.507-.068 4.215-.068.27 0 2.495.068 2.765.068.337 0 .741-.034 1.079-.034.606 0 .91.1.91.64 0 .304-.202.338-.304.472-1.348 0-1.584-.067-2.056-.067-.068 0-.607.067-.607.067l-.101.102v.37c.135.17-.135.607.337 1.18-.034.068-.034.102-.034.17 0 .438.776.707.776 1.921-.034 0-.034.034-.034.034 0 .101.303.404.506 1.315.202 0-.135.236.472.978-.034.033-.034.033-.034.067 0 .135.337.472.337.776 0 .067 0 .134-.034.134 0 .068.54.709.54 1.484 0 1.012.91 1.619.91 2.529.135.91.64 1.18.64 1.753.338.068.102.573.473.91a.073.073 0 00-.067.068c0 .135.37.472.37.944-.033 0-.067 0-.067.034 0 .135.506.607.506.978.202.607.236.708.303 1.045.135-.034.607.337 1.113-2.057v.034c.034 0 .067-.978.438-1.214.135 0-.236-.27.573-1.854.439-.641.338-1.551.675-1.99 0 .034.168-1.146.472-1.382 0-.169.202-.944.573-1.855 0-.135.573-1.214.573-1.483.068-.034.068-.034.068-.068s-.068-.1-.068-.236c0-.168.068-.37.337-.775.27-.236.27-1.282.54-1.416.169-.81.303-1.012.337-1.147.101.068.068-.843.337-1.247-.1-.203-.303-.236-.472-.236-.337 0-.337 0-.438.067-.236-.101-.472-.101-.742-.101v-.034c-.472 0-.573.135-.877.135-.033-.034-.067-.067-.1-.067-.068 0-.17.033-.27.033-.135 0-.304-.067-.472-.37 0-.776.067-.304.64-.675h6.508c.168 0 .438.068.472.169h-.169c0 .033.068.168.068.168.067 0 .1-.033.168-.067 0 1.011-.708.607-.81.809-.269 0-.943.034-1.044-.135h-.81s-.134.135-.202.27c0 0-.607.674-.607 1.382-.1-.033 0 .506-.438 1.147 0 0 .034.033.034.067 0 .135-.338.573-.338.843 0 .068 0 .101.034.135 0 .067-.27.742-.404.843.033 0 .067.034.067.101 0 .405-.877 2.057-.877 2.461-.033 0-.135.675-.303.81-.135.067 0 .775-.472 1.483 0 .405-.742 1.18-.742 2.226-.034 0-.236.64-.37.741-.068 0-.136-.033-.136-.033 0 .337.034.27.034.54 0 .067-.37.674-.37 1.28v-.033c-.237 0-1.417 3.81-1.383 3.844.067.1-.338.505-.338.977 0 .641-.404.068-.404 1.282 0 .033.034.067.034.1 0 .203-.371.338-.371.844-.135 1.72-.708.708-.708 1.888-.102.405.1 1.146-.877 1.922-.674 0-1.012-1.214-1.012-1.315-.1-.034.068-.438-.505-1.315 0-.034.033-.034.033-.068 0-.168-.337-.472-.337-.876 0-.506-.742-.877-.742-2.09 0-.372-.573-.877-.573-1.282-.067 0-.034-.607-.472-1.315l.034.034c0-.034-.405-.675-.472-1.282 0-.236-.573-.539-.573-1.517a.073.073 0 00.067-.067c0-.236-.607-.708-.607-1.45 0-.438-.708-.944-.708-1.585-.27-.54-.337-.978-.472-1.55.034 0 .034 0 .034-.035 0-.134-.843-2.158-.843-2.326v-.135c0 .034-.405-1.012-.506-1.045-.169 0 .101-.607-.54-1.416 0 0 .034-.034.034-.068 0-.236-.506-.775-.506-1.112 0-.574-.337-1.012-.438-1.518-.135.27.034-.404-.27-.775-.168-.776-.505-.574-.708-.81h-1.28zm11.363 24.412v.101c.067 0 .101 0 .135-.1h-.135zm-.708-.64l-.034.033h.068s0-.034-.034-.034zm1.214-.27c-.135 0-.135.236-.169.27.169-.034.169.033.169-.27zm-1.518-1.248c-.033.034-.033.068-.033.101.033 0 .033-.033.067-.067zm5.16-9.44l.1.067v-.236c-.067.067-.1.067-.1.168zm.1-.709c-.033 0-.067.034-.067.034 0 .034.034.034.067.034s.034 0 .034-.034c0 0 0-.034-.034-.034zm.169-.404c-.169 0-.169.27-.169.27l.203-.203zm-5.53.134a.073.073 0 00-.067.068s.034.034.067.034.034-.034.034-.034c0-.034 0-.068-.034-.068zm-4.889-2.663l.068.1.067-.033c-.067-.067-.101-.067-.135-.067zm12.172-2.125c-.033 0-.067.034-.067.034 0 .034.034.034.067.034 0 0 .034 0 .034-.034zm-13.25-.539a.073.073 0 00-.068.067s.034.034.067.034v-.101zm13.453-1.484c0-.033-.034-.033-.068-.033s-.034 0-.034.033 0 .068.034.068.068-.034.068-.068zm.708-.674v.034l.067-.034h-.067zm-15.578-2.023c.034 0 .101.101.101.169l.068-.068c0-.135 0-.37-.169-.37 0 .033-.169.134-.169.269l.068.067zm16.218-1.012v.034h.068zm-15.577-1.584c0 .1 0 .135.067.135.034 0 .068-.034.068-.034 0-.034-.068-.101-.135-.169v.068zm-4.62-.203c.034.034.102.135.169.203l.067-.068h-.033s.033 0 .033-.033c0-.068-.033-.102-.236-.102zm18.174.135c-.033 0-.033.034-.033.034 0 .034 0 .034.033.034s.034 0 .034-.034c0 0 0-.034-.034-.034zm-.843-.067c-.033 0-.067.034-.067.067s.034.068.067.068c0 0 .034-.034.034-.068s-.034-.067-.034-.067zm.708 0v.067l.034.034c.034 0 .034-.034.068-.101h-.102zm5.564 0l-.034.034c0 .033.034.033.034.033.034 0 .034 0 .034-.033 0 0 0-.034-.034-.034zm-1.08 0s-.033-.034-.067-.034l-.033.034c0 .034.033.067.033.067a.073.073 0 00.068-.067zm-17.97-.068c-.034 0-.068 0-.068.034 0 0 .034.034.067.034s.034-.034.034-.034c0-.034 0-.034-.034-.034zm-.979-.134c-.033.033-.067.067-.067.1l.034.034c.033 0 .1-.033.168-.067zm-1.82 0l.033.067c.068 0 .102.034.135-.067l-.135-.068zm1.45 0c-.034 0-.034.033-.034.067s0 .067.034.067.033-.033.033-.067 0-.067-.033-.067zm3.81 0l.067.067v-.067h-.067zm2.765.067c0-.034-.034-.034-.068-.034s-.067 0-.067.034.033.067.067.067.068-.033.068-.067zm1.078-.169c-.033.135.068.203.102.169 0-.101.033-.169-.102-.169zm10.048-.1c-.168 0-.168.168-.168.269h.54c-.136 0-.237-.202-.372-.27zm1.754-.068c0 .034-.034.135-.034.236 0 .067.034.101.067.101l.102-.135v.034c0-.034-.068-.236-.135-.236zm-21.68.27c0-.034-.035-.034-.068-.034 0 0-.034 0-.034.034s.034.067.034.067a.073.073 0 00.067-.067zm9.508-.169c-.068.067-.068.101-.068.169.068-.034.068-.102.068-.169zm12.509-.034s0 .101.067.101c.169-.033.135-.134.135-.27-.168.034-.202 0-.202.17zm-6.002-.067c-.067.067-.067.135-.067.135 0-.034.067 0 .067-.135zm10.201 24.277c.169-.472.27-.574.641-.574 1.113 0 1.349.102 2.158.102.303 0 .438-.27.573-.439l-.067-5.192c0-.068.067-.169.067-.236 0 .033-.067-.472-.067-.607 0-.034-.034-.675.067-.978 0-.034-.067-.135-.067-.202v-2.394c.067-.068.067-.169.067-.236 0-.203-.067-.304-.067-.472 0 0-.101-8.093-.101-10.723l.067-.135v-1.584c-.236-.337-1.012-.101-1.113-.27l-.202.067v.034c-.067 0-.27-.101-.64-.101-.068 0-.405.067-.473.135-.54 0-.91.101-.91-.607 0-.27.169-.64 1.281-.64.135 0 .439.067.64.067.136 0 1.89-.068 1.923-.068.236 0 .64.101.775.101.135.034 1.888-.134 2.698-.134.1 0 .067.303.303.303 0 0 .034 0 .034-.034s-.034-.1-.034-.168c.371 0 .742-.101 1.281-.203.034.034.169.068.135.102.034 0 .101-.068.101-.135.034 0 .203.033.27.1.169-.033.607-.134.64-.134 1.316 0 1.383.607 1.383.944 0 .169-.236.506-.404.506-.675 0-1.956-.169-2.26-.169-.27 0-.404.439-.438.64l.034 11.296c0 .169-.034.641-.034.708 0 .034.034-.033.034.506 0 1.18-.034 1.652-.034 2.293 0 .91.034.81.034 1.045v3.911c0 .17-.101 2.833.405 2.934.067 0 1.28.034 1.854-.034l.067-.067h.607a.723.723 0 01.439.64c0 .169-.27.574-.371.574-1.585 0-4.013.1-4.35.1 0 0-1.011-.067-1.517-.067-1.484 0-3.372.101-4.45.101-.877 0-.979-.27-.979-.606zm.708.404c0-.034-.033-.034-.067-.034s-.067 0-.067.034.033.068.067.068.067-.034.067-.068zm.203-.067c.135 0 .202.067.337.067.067 0 .169 0 .27-.067-.236 0-.304-.236-.405-.27-.034 0-.202 0-.202.202v.068zm.674 0c-.034 0-.067.033-.067.067s.033.068.067.068c0 0 .034-.034.034-.068s-.034-.067-.034-.067zm.843-.068l.068.068c.168 0 .202 0 .27-.068l-.068-.033c-.304 0-.202 0-.27.033zm7.25-.27c-.203.068-.17.135-.17.338.17-.068.136-.169.203-.337h-.034zm1.146 0c-.236 0-.236.237-.27.338h.405c0-.236-.068-.337-.135-.337zm-2.529.237l-.101.033c0 .034 0 .034.034.034zm.405.033l-.068-.033zm2.528-.337v.202c.102.034.169-.134.169-.202h-.169zm-10.722-.202c-.236 0-.236.236-.236.337.135-.101.337-.067.371-.135 0-.034.034-.202-.135-.202zm2.529.236l.067.101v-.101h-.067zm-1.99-.169v.068l.068-.068h-.067zm9.442-.067c0 .034-.034.034-.034.067s.034.034.101.068l.067-.068-.067-.135a.073.073 0 00-.067.068zm.54.067c.033.068.1.068.168.068 0-.034-.034-.101-.034-.169zm-7.284-.438c-.034.034-.034.034-.034.067s.102.034.169.034v-.101h-.135zm3.979-21.748c-.034 0-.068 0-.068.034h.101c0-.034 0-.034-.033-.034zm1.72-1.82c-.034 0-.068.033-.068.067s.034.067.067.067.034-.034.034-.067 0-.068-.034-.068zm-9.273-.304a.073.073 0 00-.067.067s.033.034.067.034.034-.034.034-.034c0-.033 0-.067-.034-.067zm1.922-.169a.073.073 0 00-.068.068s.034.033.068.033v-.1zm.472 0c0 .034-.034.034-.034.034 0 .034.034.034.101.067v-.1h-.067zm-2.124-.034c-.135 0-.101.034-.101.102.067 0 .134 0 .168-.068zm14.652 24.952v-.169c.067-.067-.034-.64.708-.64.573 0 .674.033.978.033.674 0 1.18-.034 1.28-.202v-2.866c0-.068-.033-.304-.033-.337l-.033.033c-.068-.067.067.304.067-.91 0-2.529-.034-3.473-.034-4.316 0-.54 0-1.585.068-2.461 0-.068-.135-.506-.135-1.349 0-.405.1-.405.1-.607 0-.54-.033-1.045-.033-1.45 0-.708.034-1.247.034-2.023 0-.202.506-.168.607-.27 0 0 0-.168-.304-.168 0 0-.1 0-.202.135-.034 0-.067-.034-.101-.135v-5.699c0-.438-.101-.708-.54-.708-.64 0-.775.102-1.921.102-.91 0-.371-.135-.877-.439 0-.809 2.529-.573 3.237-.674h-.101c0 .034 1.955.135 1.955.135.068 0 .135.033.203.033.404 0 .573-.168.876-.168.135 0 .27.034.439.034.1 0 .37-.034.539-.034.405 0 1.618.034 1.99.034.27 0 .471-.102 1.01-.102.17 0 3.103.068 3.474.068.674 0 1.787.337 2.697.337 1.282.135.506.304 1.787.607-.033 0-.067-.034-.067-.034 0 .034.944.54.944.64.405.102 1.011.945 1.315 1.215l-.034-.034s.91 1.281.91 2.428c0 1.247 0 1.315-.27 2.158 0 .573-.775 1.584-2.123 2.73-.169-.067-.371.574-.978.574.101-.337-.169.438-1.113.506-.034-.034-.067-.034-.067-.034-.169 0-.405.303-.54.303-1.281.338-1.854.203-1.854.709 0 0-.068.27.202.27.371-.068.978.539 1.18.539.708 0 .843.64 1.416.64.607.27.843.472 1.585 1.248.742 2.192 1.315 1.012 1.315 2.664 0 .91.304 1.55.304 2.461 0 .135-.068.708-.068 1.888.068.439.101 1.315.236 1.45v-.067c0 .033-.101 1.112 1.08 1.112.808 0 1.18-.1 1.415-.1 0 0 .034.033.068.033.067 0 .236-.067.37-.067s.27.033.338.168h-.236c0 .169.1.169.1.236.068-.034.102-.101.136-.101h.033v.438c-.1 0-.1-.1-.1-.236-.068.034-.102.034-.27.101 0 .068.033.135.27.236-.136.068-.17.236-.338.236v-.033s-.168.337-1.18.337c-.37 0-2.664-.135-3.27-.169 0 .034 0 .034-.034.034-.27 0-.91-.674-1.45-.674h.034c0-.135-1.518-.843-1.552-1.484l.034.034c0-.034-.337-.337-.337-.438 0-.068.034-.27.034-.473 0-.1-.101-.1-.27-.168-.236-5.496-.742-7.013-1.248-7.755-.1.37.135-.405-.64-.776 0-.236-1.045-.607-1.012-.742-.067 0-.135.034-.168.034-.708 0-.675-.674-1.821-.674h-1.82c-.372.775-.372 1.753-.372 2.225 0 .101 0 .877.068.944 0 .034-.034.135-.101.472 0 .102.067.506.067.776v-.034c0 .202-.034.944-.034 1.18 0 .439.034.54.034.843v3.911c0 .068.067.27.067.338 0 .1-.067.303-.067.438 0 .438.067.506.067.674-.033.034-.067.034-.067.068 0 .1.472.168 1.382.168.034 0 .709-.067.742-.067.944 0 .944.067 1.147.337 0 .607-.135.708-.236.708-.034 0-.068-.034-.135-.168-.169 0-.203 0-.203.033.27.304-3.27.304-3.641.304h.067s-1.146-.034-1.584-.135c-1.35.135-3.676 0-4.62.337-.404 0-.775 0-.775-.54zm20.804.202c-.034 0-.068.034-.068.067s.034.068.068.068c0 0 .033-.034.033-.068s-.033-.067-.033-.067zm.91-.304c-.236 0-.169.135-.27.304 0 0 .034.034.068.034.1 0 .202-.169.202-.338zm-19.96.203c-.068 0-.17 0-.237.033.068 0 .169 0 .236-.033zm.067 0v.033h.067zm1.213.033l-.033-.033c-.034 0-.034.033-.034.033 0 .034 0 .068.034.068 0 0 .033-.034.033-.068zm.641-.067c-.034.034-.067.034-.067.067.033 0 .1 0 .134-.033zm5.226-.067v.1h.203c-.068-.067-.102-.1-.203-.1zm1.315.067c-.033 0-.067.034-.067.034s.034.033.067.033.034-.033.034-.033 0-.034-.034-.034zm11.633-.27c-.034.101.135.27.135.304.168 0 .168 0 .27-.034-.102-.303 0-.37-.27-.506-.101.068-.135.034-.135.236zm-13.42.203l-.067.067h.067v-.067zm2.26-.607c0 .303.202.303.202.54h.067v-.372c-.034-.067-.101-.135-.27-.168zm-10.116.067v.101c0-.033.034.304.236.304.034 0 .101-.068.169-.135-.034.034-.27-.27-.371-.27h-.034zm.573.337c0-.033-.034-.033-.034-.033-.033 0-.033 0-.033.033 0 0 0 .034.033.034zm7.35-.067c-.033 0-.033.034-.033.034 0 .033 0 .033.034.033s.033 0 .033-.033c0 0 0-.034-.033-.034zm1.046-.101v.168c.067-.033.135-.067.168-.135-.067-.033-.1-.033-.168-.033zm-8.969-.405c-.034 0-.034.034-.034.068s0 .067.034.067.034-.034.034-.067 0-.068-.034-.068zm15.544-.877c.034.068.067.169.067.169.034 0 .034 0 .034-.034v-.135h-.101zm-9.407-.91l.134.067c.068-.033.068-.1.068-.168-.101 0-.135.034-.202.101zm7.99-1.349c.034 0 .034.034.034.068 0 0 0 .033-.033.033s-.034-.033-.034-.033c0-.034 0-.068.034-.068zm.405-.033c.034.033.068.033.135.033-.067-.033-.101-.033-.135-.033zm-11.7-3.507c-.033 0-.067.034-.067.067s.034.068.067.068.034-.034.034-.068 0-.067-.034-.067zm-.27-.877c-.033 0-.067.034-.067.068s.034.067.068.067.033-.034.033-.067 0-.068-.033-.068zm11.262-4.046c-.033 0-.067.034-.067.034 0 .034.034.067.067.067 0 0 .034-.033.034-.067zm-8.058-.573v.135l.033.034c.102 0 .236-.135.236-.169h-.27zm.067-.337c0 .034-.034.034-.034.034 0 .033.034.033.135.033 0 0 .034 0 .101-.033-.033-.102 0-.135-.1-.27-.034 0-.136.202-.102.236zm1.416-2.9v1.72c0 .573.337.674.64.843 5.362-.135 5.362-.877 5.868-1.383-.034 0-.034-.034-.034-.034 0-.168.506-.505.506-.741h-.034c0-.135.708-1.248.708-2.698 0-3.439-.944-4.08-1.079-4.788 0-.033-1.011-.91-2.191-.91-.742 0-.91.067-1.18.067h-2.53c-.707 0-.438.338-.64.708v2.664l.067.169c0 1.315-.134 2.529-.134 3.709 0 .067 0 .168.1.27 0 .067-.067.168-.067.404zm-4.417-.742c-.033 0-.067.034-.067.034h.101s0-.034-.034-.034zm-.1-.168c-.035 0-.035.033-.035.067 0 0 0 .034.034.034l.034-.034c0-.034-.034-.067-.034-.067zm.1-.169a.073.073 0 00-.067.068s.034.033.067.033.034-.033.034-.033c0-.034 0-.068-.034-.068zm-.27-1.956v.17h.068c0-.068 0-.136-.067-.17zm15.207-3.91c.034.067.135.067.169.067v-.203c-.101 0-.169 0-.169.135zm-2.562-1.147c-.034 0-.068.034-.068.067s.034.034.068.034.033 0 .033-.034 0-.067-.033-.067zm-13.96-.236a.427.427 0 00.203.034l-.135-.102zm3.271 0v-.034c-.034 0-.034 0-.034.034s0 .034.034.034v-.034zm7.89-.068l.135.068c.169 0 .169-.068.169-.236 0-.034-.034-.034-.169-.034-.067 0-.135 0-.135.202zm-3.44-.202c0 .068-.033.202.068.202.034-.033.068-.134.101-.202h-.168zm4.721.135c-.033 0-.067.034-.067.034 0 .033.034.033.067.033s.034 0 .034-.033c0 0 0-.034-.034-.034zm-11.936-.135v.068c0-.034.101.067.169-.068h-.169zm8.7 0c-.068 0-.102.034-.135.068h.134v-.068zm-11.026 0h.843-.843zm27.161 25.22c-.37 0-.37.035-.607.035-.067 0-.37-.27-.472-.371 0 0 .068-.506.068-.607 1.213-.101 2.09-.135 3.034-.236.101 0 0-.64.371-.64v-.54a.104.104 0 00.067.033c.203 0 .17-.944.439-1.011 0-.068.135-1.214.472-1.484l.168-.64s1.147-3.912 1.585-3.912c.034 0 .101.034.135.034.169 0 .202-.067.202-.135 0-.303-.27-.168-.27-.404 0-.607.608-1.754.675-1.821.034-1.383.54-1.045.54-1.922v.034c.033 0 .303-.843.438-.944 0 .067.033.067.033.067s-.033 0-.033-.034c0-.202.674-1.584.674-1.955.169 0 .202-.034.202-.101s-.033-.135-.033-.236c0-.203.067-.405.303-.675v.034c.068 0 .034-.742.304-.742l.135-.64.202-.17v-.539l.27-.202v-.573s.202-.068.202-.135c-.034 0-.068-.067-.068-.101 0-.438.843-1.72.843-2.596l.169-.135v-.54c0 .034.034.034.034.034.472 0-.169-1.956 1.584-1.956.135 0 .742.371.742.877.135.135-.135.472.472 1.585.034 0 .843 2.191.843 2.765.304 0 .101.674.877 2.292.202.91.573.877.573 1.282v-.034s.169 1.079.304 1.079h-.034c0 .135.809 1.011.809 2.057.202.977.54.573.54 1.416l-.034-.034c0 .068.54.776.54 1.214-.034 0-.068 0-.068.034 0 .135.37.607.37.775 0 .034-.033.034-.033.068 0 .067.337.337.337.944.135 1.18.708 1.247.708 1.989-.033.067-.067.101-.067.135 0 .168.54.168.54.944 0 1.922 1.314 2.36 1.314 3.709.135 1.079.776 1.45.877 1.517h2.192c.134 0 .337.101.438.169v.607c-.135.067-.236.202-.776.202-.067 0-1.685-.067-2.36-.067-.303 0-.573.067-.843.067-.033 0-.573-.067-.64-.067-1.821 0-2.968.1-3.676.1-.033 0-.033-.1-.573-.1-.27 0-.337 0-.472.067-.168 0-.303-.067-.37-.169-.068 0-.203.034-.203.034l.067.068-.067.067c-1.113 0-1.214 0-1.45-.202l.068-.573c0-.068.236-.203.37-.203h2.53c.033.034.269-.168.269-.337 0-.067-.54-.775-.54-1.18.068-.034.068-.034.068-.101 0-.169-.573-.607-.573-1.484.033 0 .033 0 .033-.034 0-.067-.37-.337-.37-.606 0-1.214-.54-1.214-.54-2.125v.034c-.067 0-.37-.843-.674-.843-2.26 0-4.653.068-7.384.068 0 .134-.27.202-.27.573-.506 1.112-.573.944-.573 1.483-.405.27.033.472-.439 1.046-.27 1.854-.64.809-.64 2.056v-.033c-.068 0-.371.876-.405.876 0 .54.135.54.337.675h2.698c.168 0 .505.033.505.438s-.1.607-.708.607c-.1 0-.236-.068-.404-.068-.371 0-.506.068-.675.068-.067 0-.236-.068-.27-.068h-2.393c-.068.068-.135.068-.203.068a.718.718 0 01-.404-.135s.067-.067.067-.135h-.101c-.067 0-.101 0-.101.068l.034.067c-.034.135-.068.135-.27.135 0-.438 0-.337.101-.472-.034-.135.034-.304-.067-.371 0 .236-.102.405-.304.54 0 .067.101.134.169.168-.135 0-.506.169-.574.27-.606 0-.539-.135-.91-.135zm-.27-.269v.068h.169c-.101-.068-.135-.068-.169-.068zm.574.068c0-.034-.034-.034-.068-.034s-.067 0-.067.034.033.067.067.067.068-.034.068-.067zm.202-.068c-.034 0-.068.034-.068.068s.034.067.068.067.034-.034.034-.067 0-.068-.034-.068zm.742-.067c-.203 0-.472.067-.54.135.573 0 .405-.034.54-.135zm1.112.033c0 .034.27.068.304.102l.067-.068c-.168-.034-.337-.034-.37-.034zm2.495.034c.439 0 1.113.068 1.282.068-.371 0-.371-.371-.405-.54.034 0-.27.068-.27.27-.067 0-.033-.202-.303-.202 0 .236-.135.303-.304.404zm1.551 0l.068.068c.034 0 .236-.068.303-.068h-.37zm-4.653-.034a.073.073 0 00-.067.068s.034.034.067.034.034-.034.034-.034c0-.034 0-.068-.034-.068zm2.664.034s-.067-.034-.101-.034c-.067 0-.067.034-.067.034 0 .034 0 .068.067.068.034 0 .101-.034.101-.068zm8.295-.067c.033.033.135.067.168.067s.203-.034.27-.067v-.405s-.067-.034-.101-.034c-.304 0-.337.068-.337.203v.236zm9.137.033c.101 0 .135.034.304.034.033 0 .202-.034.303-.034h-.607zm1.619 0v.034l.033-.034h-.033zm-9.812-.033l-.068.033.101.034zm2.529 0c-.034 0-.068.033-.068.033s.034.034.068.034.033-.034.033-.034 0-.033-.033-.033zm4.619 0c.034.033.067.033.169.033h.64a.75.75 0 00-.168-.1c-.068.067-.169.067-.203.067-.303 0-.236-.236-.303-.236zm-21.613-.236c0 .202 0 .168.067.236h.439v-.573c-.472.236-.506.134-.506.337zm7.114.067v.169c.068 0 .101-.068.101-.068-.033-.202-.134-.202-.134-.37-.135 0-.203.067-.203.1.034.068.068.17.236.17zm16.488.101c-.033 0-.033.034-.033.068s0 .033.033.033.034 0 .034-.033 0-.068-.034-.068zm-22.692-.37c0 .27-.033.337-.1.37.201 0 .37 0 .37-.202s-.034-.169-.27-.169zm3.574.303v.067h.068zm.607-.135l.068.034v-.101zm2.192-.236c0 .034 0 .101.034.101 0 0 .134 0 .134-.101 0-.067-.067-.067-.134-.101-.034.034-.034.067-.034.101zm15.409.067c0 .034.067.034.101.034 0-.168 0-.168-.067-.202 0 0-.034.101-.034.168zm1.483-.236c-.168.034-.134.102-.134.27l.27-.168c0-.034-.102-.068-.136-.102zm-2.562.102c-.034 0-.068.033-.068.033 0 .034.034.034.068.034s.034 0 .034-.034c0 0 0-.033-.034-.033zm-18.511-.102v.102l.067-.102h-.067zm.101-.505c0 .033.034.505.337.505-.067-.033-.168-.337-.168-.505l.067-.203-.067-.067c-.135 0-.169.202-.169.27zm1.248-1.585c-.102.067-.236.27-.236.54a.104.104 0 00.067.033c.135 0 .169-.202.202-.303 0-.034-.033-.304-.033-.27zm-.169-.877c0-.033-.034-.033-.034-.033-.033 0-.033 0-.033.033s0 .034.033.034c0 0 .034 0 .034-.034zm.944-2.427c-.034 0-.067.033-.067.033s.033.034.067.034l.034-.034zm9.576-.472c-.034 0-.034.033-.034.067s0 .067.034.067.034-.033.034-.067 0-.067-.034-.067zm-9.272-.27c-.034 0-.034.033-.034.067s0 .068.034.068.033-.034.033-.068 0-.067-.033-.067zm0-.708c-.034 0-.034.033-.034.033 0 .034 0 .034.034.034s.033 0 .033-.034c0 0 0-.033-.033-.033zm1.55-1.383c.102.405.135.439.371.573.405 0 1.518-.067 4.586-.067.27 0 .405.101 1.08.101.336 0 .673-.101.673-.472 0-.168-.438-.81-.438-1.146h.034c0-.068-.371-.371-.371-.742 0-1.248-.64-1.113-.64-1.888a.104.104 0 01.033.067c-.034 0-.64-1.112-.64-1.753 0-.438-.608-1.08-.608-1.82h.034c0-.068-.37-.405-.37-.81-.304-.708-.338-.64-.608-.64-.977 2.326-.91 2.36-1.214 2.933 0-.068-.033 1.079-.472 1.247v-.067c-.033 0-.37 1.922-.708 2.225 0 .439-.741 1.012-.741 2.26zm-.674-.944c-.033 0-.067.034-.067.068s.034.067.067.067.034-.034.034-.067 0-.068-.034-.068zm.776-2.225a.073.073 0 00-.068.067s.034.034.068.034v-.101zm1.416-1.99v.034h.034zm-.135-.539a.073.073 0 00-.067.067h.101c0-.033 0-.067-.034-.067zm.135-.877c-.034 0-.068.034-.068.034 0 .034.034.067.068.067 0 0 .034-.033.034-.067zm.91-2.292c0-.034-.033-.034-.033-.034-.034 0-.034 0-.034.034s0 .067.034.067c0 0 .033-.034.033-.067zm.101-.102h-.033c0 .034.033.034.033.034s.034 0 .034-.034h-.034zm3.676-2.36c-.034 0-.034.034-.034.068s0 .067.034.067.033-.034.033-.067 0-.068-.033-.068zm-.641-4.687s-.034.034-.034.068h.068c0-.034 0-.068-.034-.068zm-.877-.067c-.033 0-.033.034-.033.067s0 .068.033.068.034-.034.034-.068 0-.067-.034-.067zm.27 0l.135.067c.27 0 .169 0 .27-.067l-.101-.135c-.135 0-.203.135-.304.135z" fill="#0f81c7"/></svg>