<svg width="60" height="60" viewBox="0 0 60 60" fill="none" xmlns="http://www.w3.org/2000/svg">
<rect width="60" height="60" fill="white" fill-opacity="0.1"/>
<path d="M36.2944 40.1315H36.2629C31.941 40.0251 27.8167 38.2994 24.7069 35.2963C21.7026 32.1893 19.9759 28.0665 19.8693 23.7459C19.8629 23.1406 20.1005 22.5583 20.5286 22.1304L23.5819 19.0794C24.0212 18.6402 24.7333 18.6402 25.1726 19.0794L29.6726 23.5794C30.1118 24.0187 30.1118 24.7308 29.6726 25.1701L27.8771 26.9623C28.2102 28.2064 28.8236 29.3578 29.6704 30.3283C30.6391 31.1754 31.789 31.7892 33.0319 32.1226L34.8319 30.3294C35.2712 29.8902 35.9833 29.8902 36.4226 30.3294L40.9226 34.8294C41.3618 35.2687 41.3618 35.9808 40.9226 36.4201L37.8694 39.4723C37.4531 39.8929 36.8862 40.1302 36.2944 40.1315ZM24.375 21.4666H24.3694L22.1194 23.7211C22.2111 27.4546 23.7015 31.0175 26.2954 33.7044C28.9824 36.2974 32.5446 37.7876 36.2775 37.8804L38.5354 35.6248L35.6194 32.7166L34.1648 34.1701C33.9567 34.3806 33.6732 34.4992 33.3773 34.4998C33.2982 34.4998 33.2194 34.4915 33.1421 34.475C31.2675 34.0603 29.5268 33.1819 28.0796 31.9201C26.8179 30.4729 25.9395 28.7323 25.5248 26.8576C25.4465 26.485 25.5621 26.0981 25.8319 25.8294L27.2854 24.3748L24.375 21.4666Z" fill="white"/>
</svg>
