<svg width="17" height="25" viewBox="0 0 17 25" fill="none" xmlns="http://www.w3.org/2000/svg">
<path fill-rule="evenodd" clip-rule="evenodd" d="M2.49902 0.0133667C1.39453 0.0133667 0.499023 0.908875 0.499023 2.01337V22.0655C0.499023 23.1699 1.39453 24.0655 2.49902 24.0655H14.5137C15.6182 24.0655 16.5137 23.1699 16.5137 22.0655V2.01337C16.5137 0.908875 15.6182 0.0133667 14.5137 0.0133667H2.49902ZM2.9248 1.98765C2.77767 1.98765 2.6582 2.10712 2.6582 2.25425V21.6996C2.6582 21.8467 2.77767 21.9662 2.9248 21.9662H14.2526C14.4001 21.9662 14.5192 21.8467 14.5192 21.6996V2.25425C14.5192 2.10712 14.4001 1.98765 14.2526 1.98765H2.9248Z" fill="#292929"/>
<path d="M6.50684 18.9922H10.5656V21.0214H6.50684V18.9922Z" fill="#292929"/>
</svg>
