<svg width="134" height="136" viewBox="0 0 134 136" fill="none" xmlns="http://www.w3.org/2000/svg">
<circle opacity="0.2" cx="65.278" cy="67.2778" r="54.1667" fill="#292929" stroke="white"/>
<circle opacity="0.2" cx="66" cy="68" r="65" fill="#292929" stroke="white"/>
<path d="M66 3C77.4027 3 88.6048 5.99965 98.4818 11.6978C108.359 17.396 116.563 25.5922 122.271 35.4635C127.978 45.3349 130.989 56.5341 131 67.9368C131.011 79.3395 128.022 90.5445 122.334 100.427C116.645 110.309 108.457 118.522 98.5912 124.239C88.7254 129.956 77.5291 132.978 66.1264 133C54.7237 133.022 43.5158 130.044 33.6278 124.365C23.7398 118.686 15.5198 110.506 9.79281 100.646" stroke="#FFD412" stroke-width="6" stroke-linecap="round"/>
<g clip-path="url(#clip0)">
<path d="M83.8122 41.325H71.4775C70.9597 41.325 70.54 41.7446 70.54 42.2625C70.54 42.7803 70.9597 43.2 71.4775 43.2H83.8122C84.33 43.2 84.7497 42.7803 84.7497 42.2625C84.7497 41.7446 84.33 41.325 83.8122 41.325Z" fill="#FFD412"/>
<path d="M83.8122 45.4972H71.4775C70.9597 45.4972 70.54 45.9168 70.54 46.4347C70.54 46.9526 70.9597 47.3722 71.4775 47.3722H83.8122C84.33 47.3722 84.7497 46.9526 84.7497 46.4347C84.7497 45.9168 84.33 45.4972 83.8122 45.4972Z" fill="#FFD412"/>
<path d="M83.8122 49.6693H71.4775C70.9597 49.6693 70.54 50.0889 70.54 50.6068C70.54 51.1247 70.9597 51.5443 71.4775 51.5443H83.8122C84.33 51.5443 84.7497 51.1247 84.7497 50.6068C84.7497 50.0889 84.33 49.6693 83.8122 49.6693Z" fill="#FFD412"/>
<path d="M89.3288 35.9987H79.5188C79.0009 35.9987 78.5813 36.4183 78.5813 36.9362C78.5813 37.454 79.0009 37.8737 79.5188 37.8737H89.3288C89.4107 37.8737 89.4773 37.9403 89.4773 38.0222V54.1887C89.4773 54.2705 89.4107 54.3372 89.3288 54.3372H71.9272C71.4232 54.3372 70.9401 54.5238 70.5664 54.8629L70.0916 55.2943C70.0906 55.2953 70.0894 55.2962 70.0884 55.2972L66.0601 58.957C66.0406 58.9749 65.9882 59.022 65.9001 58.9829C65.8116 58.9438 65.8116 58.8735 65.8116 58.847V38.022C65.8116 37.9402 65.8782 37.8735 65.9601 37.8735H75.7702C76.2881 37.8735 76.7077 37.4539 76.7077 36.936C76.7077 36.4182 76.2881 35.9985 75.7702 35.9985H65.9601C64.8442 35.9985 63.9366 36.9063 63.9366 38.022V41.8059C63.8632 41.8049 63.7883 41.802 63.7158 41.802C54.0288 41.802 46.1479 49.6829 46.1479 59.3698C46.1479 60.1103 46.1944 60.9027 46.2862 61.7248C46.3398 62.204 46.7457 62.5584 47.2168 62.5584C47.2514 62.5584 47.2867 62.5564 47.3219 62.5525C47.8366 62.495 48.2071 62.0313 48.1497 61.5168C48.0654 60.7634 48.0228 60.041 48.0228 59.3698C48.0228 50.7168 55.0626 43.677 63.7157 43.677C63.7881 43.677 63.8629 43.6799 63.9364 43.681V50.6474C63.8628 50.6455 63.7892 50.6433 63.7157 50.6433C58.9038 50.6433 54.9892 54.5579 54.9892 59.3698C54.9892 64.1817 58.9038 68.0963 63.7157 68.0963C68.5276 68.0963 72.4422 64.1817 72.4422 59.3698C72.4422 58.2822 72.2434 57.2304 71.8573 56.232C71.9286 56.1937 71.4366 56.2209 79.0882 56.2122C79.2997 57.2474 79.4084 58.3062 79.4084 59.3698C79.4084 68.39 72.0739 83.3129 63.7157 83.3129C61.5681 83.3129 58.2441 82.3083 54.6043 77.5225C51.9327 74.0097 49.8754 69.4097 48.8152 65.1432C48.6903 64.6405 48.1817 64.334 47.6793 64.4594C47.1767 64.5843 46.8707 65.0928 46.9956 65.5953C47.5571 67.8549 48.3599 70.1182 49.3379 72.2557H43.2442C41.8129 72.2557 40.6484 73.42 40.6484 74.8514V97.4029C40.6486 98.8343 41.8129 99.9987 43.2442 99.9987H69.2554C69.7733 99.9987 70.1929 99.579 70.1929 99.0612C70.1929 98.5433 69.7733 98.1237 69.2554 98.1237H61.9092L58.7283 96.0122L84.9081 82.3689V97.4029C84.9081 97.8003 84.5847 98.1237 84.1873 98.1237H73.0037C72.4858 98.1237 72.0662 98.5433 72.0662 99.0612C72.0662 99.579 72.4858 99.9987 73.0037 99.9987H84.1873C85.6186 99.9987 86.7831 98.8343 86.7831 97.4029V74.8514C86.7831 73.4202 85.6187 72.2557 84.1873 72.2557H78.0932C80.0774 67.9075 81.2836 63.1462 81.2836 59.3698C81.2836 58.3084 81.1871 57.2509 80.9984 56.2122H89.3288C90.4447 56.2122 91.3523 55.3044 91.3523 54.1887V38.0222C91.3523 36.9064 90.4447 35.9987 89.3288 35.9987ZM63.7159 66.2214C59.9379 66.2214 56.8644 63.1478 56.8644 59.3699C56.8644 55.592 59.9381 52.5184 63.7159 52.5184C63.7893 52.5184 63.8629 52.5202 63.9367 52.5225V58.8473C63.9367 59.6598 64.3982 60.3689 65.1413 60.6978C65.4102 60.8167 65.6911 60.8749 65.9686 60.8749C66.4582 60.8749 66.9372 60.6938 67.3209 60.345L70.3364 57.6054C70.4884 58.1763 70.5676 58.7658 70.5676 59.37C70.5674 63.1478 67.4938 66.2214 63.7159 66.2214ZM42.5236 97.4029V91.2568L52.8683 98.1237H43.2442C42.8468 98.1237 42.5236 97.8003 42.5236 97.4029ZM56.4533 95.0835C56.1591 95.2369 55.9678 95.5342 55.9504 95.8655C55.9328 96.1967 56.0918 96.5127 56.3682 96.6962L58.5188 98.1237H56.2586L42.5236 89.0064V87.506L53.3943 94.7222C53.6784 94.911 54.0433 94.9303 54.3459 94.7724L84.9082 78.8453V80.2547L56.4533 95.0835ZM84.1874 74.1308C84.5848 74.1308 84.9082 74.4542 84.9082 74.8515V76.7309L53.9702 92.8538L42.5236 85.2555V74.8515C42.5236 74.4542 42.8469 74.1308 43.2443 74.1308H50.2569C51.1182 75.7684 52.0801 77.3004 53.1122 78.6577C56.3612 82.9299 60.0279 85.188 63.7159 85.188C68.2012 85.188 72.6637 81.8302 76.2814 75.7328C76.5908 75.2114 76.8883 74.676 77.1744 74.1308H84.1874Z" fill="white"/>
<path d="M67.9358 92.8114L66.4245 93.5991C65.9652 93.8383 65.787 94.4046 66.0262 94.8637C66.1935 95.1845 66.5201 95.3682 66.8583 95.3682C67.0043 95.3682 67.1526 95.334 67.2908 95.2618L68.8022 94.4742C69.2615 94.235 69.4397 93.6687 69.2005 93.2096C68.9611 92.7504 68.3945 92.5726 67.9358 92.8114V92.8114Z" fill="white"/>
<path d="M73.159 92.4362L74.6704 91.6486C75.1296 91.4093 75.3079 90.8431 75.0686 90.384C74.8293 89.9246 74.2626 89.7467 73.804 89.9857L72.2926 90.7733C71.8334 91.0126 71.6551 91.5788 71.8944 92.038C72.0616 92.3587 72.3883 92.5425 72.7265 92.5425C72.8725 92.5426 73.0206 92.5082 73.159 92.4362V92.4362Z" fill="white"/>
<path d="M78.5947 89.7167C78.7407 89.7167 78.8889 89.6825 79.0272 89.6103L80.5385 88.8227C80.9978 88.5835 81.176 88.0172 80.9368 87.5581C80.6973 87.0988 80.1308 86.921 79.6722 87.1598L78.1608 87.9475C77.7015 88.1867 77.5233 88.753 77.7625 89.2121C77.9298 89.5331 78.2564 89.7167 78.5947 89.7167V89.7167Z" fill="white"/>
</g>
<defs>
<clipPath id="clip0">
<rect width="64" height="64" fill="white" transform="translate(34 36)"/>
</clipPath>
</defs>
</svg>
