<?xml version="1.0" standalone="no"?>
<!DOCTYPE svg PUBLIC "-//W3C//DTD SVG 20010904//EN"
 "http://www.w3.org/TR/2001/REC-SVG-20010904/DTD/svg10.dtd">
<svg version="1.0" xmlns="http://www.w3.org/2000/svg"
 width="668.000000pt" height="668.000000pt" viewBox="0 0 668.000000 668.000000"
 preserveAspectRatio="xMidYMid meet">
<metadata>
Created by potrace 1.14, written by Peter Selinger 2001-2017
</metadata>
<g transform="translate(0.000000,668.000000) scale(0.100000,-0.100000)"
fill="#000000" stroke="none">
<path d="M3170 6565 c-91 -62 -207 -142 -258 -177 -51 -35 -122 -83 -157 -108
-35 -25 -114 -79 -175 -120 -61 -41 -145 -99 -188 -128 -73 -51 -244 -168
-696 -477 -113 -76 -203 -141 -201 -143 2 -2 20 8 42 21 21 14 339 199 708
413 369 213 765 443 882 510 l212 124 218 -126 c120 -70 274 -159 343 -199
493 -284 588 -340 612 -356 14 -11 28 -19 31 -19 3 0 145 -81 317 -181 171
-99 313 -179 315 -177 3 2 -195 140 -271 188 -13 8 -125 85 -250 170 -124 85
-281 193 -350 240 -68 47 -311 213 -540 370 -229 157 -419 286 -422 287 -4 1
-81 -50 -172 -112z"/>
<path d="M3195 4966 c-265 -62 -457 -236 -542 -491 -23 -69 -26 -97 -27 -210
-1 -109 3 -142 22 -205 76 -243 254 -421 499 -496 80 -25 283 -25 373 -1 240
64 427 242 507 482 23 71 26 96 27 215 0 119 -3 144 -26 212 -40 119 -92 204
-182 294 -139 139 -286 203 -481 210 -72 2 -130 -1 -170 -10z m170 -171 c1
-105 -1 -114 -23 -110 -9 2 -19 4 -22 4 -4 1 -5 150 -1 189 0 8 10 12 23 10
22 -3 23 -8 23 -93z m-101 23 c5 -23 16 -104 17 -123 0 -5 -4 -11 -9 -13 -10
-3 -17 20 -28 98 -3 24 -8 48 -10 52 -3 5 2 8 10 8 9 0 18 -10 20 -22z m176
-1 c0 -36 -22 -137 -30 -137 -18 0 -16 27 8 133 1 4 2 12 2 17 0 6 5 10 10 10
6 0 10 -10 10 -23z m-243 -72 c15 -45 20 -72 13 -79 -10 -10 -9 -13 -40 78
-23 68 -24 79 -8 74 6 -2 22 -35 35 -73z m333 68 c0 -26 -46 -143 -57 -143 -7
0 -13 2 -13 3 0 3 33 103 45 135 5 12 25 17 25 5z m-412 -88 c34 -69 38 -85
22 -85 -12 0 -81 135 -73 144 13 12 19 5 51 -59z m495 58 c3 -5 -12 -41 -32
-82 -25 -49 -40 -70 -46 -61 -5 7 6 40 26 81 31 66 42 78 52 62z m-559 -105
c27 -39 41 -67 36 -72 -6 -5 -11 -8 -13 -5 -1 2 -22 30 -45 61 -23 31 -42 62
-42 68 0 24 22 6 64 -52z m636 52 c0 -6 -19 -37 -42 -68 -23 -31 -44 -59 -45
-61 -2 -3 -7 0 -12 5 -6 5 9 34 36 72 42 58 63 75 63 52z m-701 -103 c47 -45
62 -67 44 -67 -12 0 -113 100 -113 111 0 17 15 7 69 -44z m771 44 c0 -12 -99
-111 -111 -111 -18 0 -8 17 42 68 50 50 69 62 69 43z m-395 -187 c0 -139 3
-163 18 -178 36 -37 10 -106 -41 -106 -55 0 -83 69 -44 107 16 16 18 36 17
181 l0 163 25 -3 25 -3 0 -161z m-427 84 c31 -23 59 -44 61 -45 3 -2 0 -7 -5
-13 -10 -9 -134 74 -134 91 0 18 21 9 78 -33z m880 31 c-7 -21 -126 -100 -133
-88 -4 6 1 17 11 24 11 7 37 27 59 43 41 31 70 41 63 21z m-861 -142 c-4 -13
-11 -11 -80 24 -74 37 -71 35 -62 48 7 13 147 -58 142 -72z m912 59 c-10 -9
-129 -66 -139 -66 -5 0 -10 4 -10 10 0 15 134 80 144 69 5 -5 8 -10 5 -13z
m-1029 -80 c82 -26 104 -36 94 -46 -12 -12 -146 31 -152 48 -5 15 3 15 58 -2z
m1058 2 c-5 -14 -138 -59 -151 -51 -15 9 9 24 69 43 72 22 87 24 82 8z m-1025
-91 c21 -3 41 -7 44 -10 7 -8 -7 -28 -16 -23 -4 3 -30 8 -57 11 -68 9 -84 14
-84 30 0 10 9 11 38 5 20 -5 54 -10 75 -13z m1047 4 c0 -11 -9 -14 -102 -28
-45 -8 -58 -7 -58 3 0 7 17 16 38 19 20 4 41 8 46 9 30 7 76 5 76 -3z m-1017
-70 c5 0 7 -11 5 -23 -3 -21 -8 -23 -91 -23 -89 -1 -115 9 -104 38 3 9 29 12
93 11 49 -1 93 -2 97 -3z m1062 -21 c0 -25 0 -25 -100 -25 -82 0 -100 3 -101
15 -1 30 16 35 108 35 92 0 93 -1 93 -25z m-820 -241 c5 -5 17 -9 26 -9 9 0
20 -7 23 -16 4 -10 15 -14 33 -12 27 3 36 23 11 23 -6 0 -13 6 -15 13 -6 15
83 17 92 2 3 -5 -3 -10 -14 -10 -12 0 -21 -6 -21 -14 0 -10 10 -14 30 -14 16
1 36 -5 44 -11 12 -10 31 -9 93 5 90 21 135 24 140 8 2 -7 -8 -9 -28 -6 -29 4
-38 -2 -94 -62 l-62 -66 -111 0 c-117 0 -120 1 -117 53 1 15 -2 27 -7 27 -5 0
-31 9 -58 21 l-49 21 17 34 c12 27 20 33 36 28 12 -3 25 -10 31 -15z m465
-149 c-8 -6 -19 -10 -23 -10 -15 0 -19 32 -7 58 l12 27 16 -33 c14 -29 14 -34
2 -42z"/>
<path d="M1340 3002 l0 -37 150 0 c111 0 151 3 155 12 5 13 -28 16 -197 15
-43 0 -80 4 -83 9 -4 5 56 9 149 9 l156 0 0 -30 0 -30 -85 0 -85 0 -1 -32 c-4
-119 -1 -320 5 -326 16 -16 21 25 20 172 l-1 156 86 0 86 0 -3 60 -4 60 -174
0 -174 0 0 -38z"/>
<path d="M1936 3024 c-62 -20 -137 -93 -154 -150 -64 -217 150 -405 346 -305
83 43 146 153 137 243 -8 82 -68 168 -142 203 -49 24 -129 28 -187 9z m182
-35 c134 -65 164 -244 57 -353 -131 -135 -363 -52 -378 136 -9 111 54 200 167
233 50 15 99 10 154 -16z"/>
<path d="M1925 2966 c-54 -25 -104 -89 -107 -136 -7 -116 32 -186 126 -224 98
-40 202 0 251 98 88 176 -89 348 -270 262z m161 -17 c90 -28 132 -146 85 -237
-83 -162 -323 -104 -325 78 -1 75 30 124 98 156 51 24 77 24 142 3z"/>
<path d="M1983 2940 c-118 -27 -161 -171 -76 -256 32 -32 68 -46 115 -46 143
2 202 198 81 275 -46 30 -77 37 -120 27z m124 -64 c82 -89 9 -226 -111 -209
-120 18 -145 191 -33 238 55 23 106 13 144 -29z"/>
<path d="M2295 3020 c2 -8 27 -89 56 -180 28 -91 52 -169 53 -175 1 -5 10 -35
20 -66 15 -49 21 -56 43 -56 19 0 29 8 41 36 60 140 80 196 75 208 -8 22 -17
8 -63 -109 -24 -60 -47 -108 -51 -108 -4 0 -26 60 -49 133 -23 72 -44 141 -48
152 -3 11 -6 22 -7 25 -1 3 -9 31 -19 64 -15 50 -16 80 -2 65 3 -4 60 -185
104 -331 9 -32 20 -58 24 -58 14 0 13 37 -3 85 -18 54 -70 223 -90 292 -11 40
-13 42 -50 40 -30 -1 -38 -5 -34 -17z"/>
<path d="M2396 3031 c-3 -4 8 -48 24 -97 24 -76 33 -107 56 -189 21 -74 17
-76 61 23 l40 93 69 -161 c38 -88 75 -160 82 -160 13 0 17 22 5 33 -3 4 -38
81 -78 173 -39 91 -75 166 -80 165 -5 0 -23 -34 -41 -77 l-32 -77 -41 131
c-22 71 -41 135 -41 141 0 13 -17 15 -24 2z"/>
<path d="M2785 3026 c-49 -151 -57 -196 -36 -196 3 0 17 41 30 90 l25 90 37 0
38 0 -15 -47 c-19 -63 -37 -127 -38 -133 -1 -3 -4 -9 -7 -15 -3 -5 -16 -47
-29 -92 -12 -46 -26 -83 -30 -83 -4 0 -43 82 -85 183 -43 100 -84 188 -91 196
-11 12 -17 7 -35 -35 -46 -106 -57 -141 -50 -153 5 -8 21 18 43 69 l35 81 83
-193 c116 -271 102 -254 130 -161 12 43 45 149 71 236 27 87 49 162 49 167 0
12 -121 9 -125 -4z"/>
<path d="M3009 3002 l-4 -37 152 0 c118 0 153 2 153 12 0 14 1 14 -167 15 -62
0 -113 5 -113 9 0 5 67 9 149 9 137 0 149 -1 154 -19 8 -33 -7 -40 -88 -43
l-80 -3 0 -177 c0 -128 3 -178 11 -178 17 0 20 21 18 183 l0 147 83 0 83 0 0
60 0 60 -174 0 -174 0 -3 -38z"/>
<path d="M3465 2793 l0 -248 60 0 60 0 3 85 c2 47 7 89 11 93 5 5 32 -34 60
-87 l51 -95 69 0 70 0 -40 77 c-22 42 -47 83 -54 91 -30 30 -25 1 9 -63 20
-37 36 -69 36 -71 0 -3 -17 -5 -38 -5 -37 0 -38 1 -84 88 -44 82 -48 87 -82
90 l-36 3 0 -89 c0 -85 -1 -90 -23 -94 -47 -9 -47 -10 -47 238 0 181 -3 234
-13 234 -9 0 -12 -55 -12 -247z"/>
<path d="M3516 3032 c-9 -16 0 -437 9 -440 6 -1 11 70 12 195 1 109 2 204 2
211 1 17 142 16 186 -2 76 -32 97 -143 38 -205 -23 -23 -61 -43 -71 -37 -4 3
-14 1 -22 -4 -12 -8 -13 -13 -2 -30 6 -11 26 -47 43 -79 20 -38 36 -58 44 -54
10 3 4 21 -22 69 -19 36 -34 66 -32 67 2 1 22 11 44 22 53 27 78 72 77 140 0
63 -25 106 -75 132 -33 17 -222 29 -231 15z"/>
<path d="M3959 3033 c-1 -4 -1 -85 -1 -179 0 -142 3 -177 17 -205 38 -75 81
-101 173 -105 96 -4 158 24 198 89 17 28 19 56 22 221 3 153 1 187 -9 184 -11
-4 -14 -44 -15 -181 -1 -174 -1 -176 -28 -217 -33 -50 -76 -70 -150 -70 -74 0
-125 22 -156 66 -23 34 -24 44 -26 204 l-3 168 30 4 c17 3 33 0 35 -6 2 -6 5
-80 6 -164 l3 -154 28 -24 c53 -46 169 -23 185 36 3 14 6 89 6 168 0 90 4 142
11 142 12 0 13 -292 1 -327 -23 -69 -156 -89 -218 -34 l-33 29 -3 156 c-3 114
-7 156 -16 156 -9 0 -12 -39 -11 -154 1 -145 3 -157 25 -189 28 -40 68 -57
136 -57 62 0 112 26 137 71 17 29 19 55 19 189 0 85 0 163 -1 173 -1 13 -10
17 -36 17 -40 0 -37 16 -37 -185 0 -153 -9 -179 -64 -190 -46 -8 -92 10 -100
40 -3 13 -6 92 -7 176 l-2 154 -57 3 c-32 2 -58 0 -59 -5z"/>
<path d="M4625 3030 c-74 -18 -114 -47 -161 -119 -26 -39 -29 -53 -29 -120 0
-87 15 -122 74 -180 77 -75 196 -89 291 -34 25 14 47 27 48 29 2 1 -11 25 -29
52 l-33 51 -39 -21 c-52 -26 -98 -25 -137 2 -129 92 -10 277 132 204 29 -15
31 -14 55 8 l24 23 -25 22 c-70 60 -199 51 -262 -19 -128 -140 -19 -357 168
-335 28 4 59 13 67 22 22 22 10 26 -33 11 -167 -57 -303 139 -189 275 35 41
74 59 128 59 48 0 110 -24 100 -40 -3 -5 -22 -2 -42 6 -114 48 -231 -59 -196
-179 25 -85 127 -132 205 -93 32 16 34 16 51 -5 25 -31 22 -38 -29 -59 -149
-64 -306 42 -306 207 -1 59 31 124 82 167 74 61 192 59 282 -6 21 -15 35 -4
19 16 -35 43 -149 72 -216 56z"/>
<path d="M4921 2790 l0 -250 65 0 c46 0 64 4 63 13 -1 6 -1 53 0 103 l1 91 94
119 c64 82 89 120 79 122 -8 2 -21 -4 -28 -15 -7 -10 -50 -63 -94 -118 l-81
-100 0 -91 c0 -97 -5 -106 -52 -96 -17 3 -18 23 -18 238 0 195 -2 234 -14 234
-12 0 -14 -41 -15 -250z"/>
<path d="M4975 3031 c-3 -5 -4 -55 -4 -110 2 -80 5 -99 15 -90 8 6 12 36 12
82 0 95 0 97 12 97 6 0 10 -29 10 -66 0 -59 2 -65 15 -54 12 10 15 30 14 80
l-2 67 -33 1 c-18 1 -36 -3 -39 -7z"/>
<path d="M5174 3026 c-5 -6 -54 -67 -107 -135 l-98 -125 3 -90 c4 -116 23
-117 24 -2 l1 84 98 126 98 126 45 0 c34 0 42 -3 35 -12 -99 -126 -183 -238
-183 -243 0 -7 82 -117 113 -152 11 -12 24 -20 29 -17 8 5 -13 37 -89 140
l-23 31 105 134 c57 74 105 137 105 141 0 11 -145 6 -156 -6z"/>
<path d="M2618 3024 c-4 -3 5 -32 18 -63 14 -31 46 -104 72 -163 25 -60 47
-106 49 -104 5 4 93 288 93 299 0 4 -6 6 -12 5 -7 -2 -29 -56 -48 -121 l-36
-119 -54 124 c-53 124 -71 154 -82 142z"/>
<path d="M3560 2953 l0 -39 57 0 c103 2 116 -58 15 -68 -39 -4 -42 -2 -42 20
0 15 -6 24 -15 24 -10 0 -15 -11 -15 -35 l0 -35 53 0 c92 0 136 43 96 94 -17
22 -29 26 -70 26 -27 0 -49 5 -49 10 0 6 24 10 54 10 43 0 58 -5 80 -25 28
-26 32 -48 16 -90 -12 -32 -49 -47 -122 -47 -43 -1 -58 -4 -58 -15 0 -20 140
-12 174 11 52 33 52 139 0 173 -16 10 -54 18 -100 21 l-74 4 0 -39z"/>
<path d="M1340 2935 c0 -12 12 -15 55 -15 l55 0 0 -189 0 -189 60 -1 60 0 1
32 c3 85 -2 321 -6 325 -14 14 -17 -20 -17 -165 0 -98 -4 -160 -10 -164 -6 -4
-22 -3 -37 0 l-26 7 0 185 0 184 -67 3 c-56 2 -68 0 -68 -13z"/>
<path d="M3010 2935 c0 -12 12 -15 53 -15 l54 0 1 -172 c0 -95 1 -181 1 -191
1 -14 10 -17 61 -16 l60 2 0 178 c0 104 -4 179 -9 179 -16 0 -18 -29 -16 -170
1 -74 -2 -142 -6 -151 -5 -10 -17 -14 -36 -12 l-28 5 0 186 0 187 -67 3 c-56
2 -68 0 -68 -13z"/>
<path d="M5156 2761 c-3 -4 24 -48 59 -97 36 -49 65 -91 65 -94 0 -3 -19 -4
-43 -2 -41 4 -45 8 -102 85 -41 55 -61 76 -63 64 -2 -10 23 -53 55 -97 l58
-79 78 -1 78 0 -56 76 c-31 42 -68 93 -83 114 -28 40 -37 46 -46 31z"/>
<path d="M1974 2315 c-93 -56 -92 -195 2 -245 16 -8 34 -16 39 -17 6 -1 30 -4
54 -8 85 -12 121 -41 121 -97 0 -64 -42 -107 -109 -110 -51 -2 -83 20 -124 82
-46 71 -58 66 -55 -21 1 -39 5 -72 10 -75 4 -3 15 0 25 7 14 8 29 8 61 -3 114
-38 232 22 247 126 9 55 0 97 -26 131 -29 35 -47 43 -140 60 -91 15 -119 35
-119 83 0 57 71 110 119 89 30 -13 67 -48 100 -95 12 -18 27 -30 32 -27 5 4 8
35 7 70 l-3 64 -40 0 c-22 0 -67 3 -100 6 -52 5 -65 2 -101 -20z"/>
<path d="M2425 2332 c-55 -1 -104 -7 -109 -12 -7 -7 3 -10 27 -10 l37 0 0
-235 0 -235 -23 4 c-28 5 -57 -8 -35 -16 26 -11 216 -9 223 2 6 10 -6 14 -38
11 -25 -3 -28 13 -25 133 l3 109 88 -112 c83 -105 97 -135 60 -129 -9 2 -18
-2 -19 -7 -3 -7 40 -11 116 -12 88 -1 120 2 117 10 -2 7 -15 13 -30 15 -17 2
-38 18 -59 45 -18 23 -40 51 -48 61 -8 11 -29 35 -46 55 -17 20 -47 58 -67 85
l-37 49 42 46 c115 126 114 125 152 123 20 -2 36 2 36 8 0 11 -10 12 -112 14
-48 1 -68 -3 -68 -11 0 -8 14 -13 36 -13 l35 0 -87 -97 c-48 -54 -93 -105
-100 -113 -12 -12 -14 3 -14 98 l0 112 30 0 c27 0 41 14 23 22 -5 2 -53 2
-108 0z"/>
<path d="M3460 2323 c0 -8 13 -13 30 -13 l30 0 1 -82 c2 -305 1 -369 -4 -374
-4 -4 -16 -7 -28 -8 -12 0 -24 -6 -26 -12 -2 -6 35 -10 109 -9 80 0 113 4 116
13 2 8 -8 12 -31 12 l-34 0 0 223 c0 122 2 227 4 233 2 6 15 9 29 6 17 -3 24
0 24 11 0 14 -16 16 -110 14 -80 -1 -110 -5 -110 -14z"/>
<path d="M3780 2329 c-35 -6 -29 -14 15 -21 19 -3 20 -11 21 -223 1 -121 -1
-225 -5 -230 -3 -6 -15 -11 -25 -10 -11 0 -21 -5 -23 -11 -3 -10 118 -13 207
-5 21 2 -1 19 -30 23 -24 3 -25 4 -26 103 -1 119 6 139 44 130 68 -16 87 -45
95 -141 3 -32 8 -66 12 -75 9 -24 74 -50 117 -47 46 4 52 28 8 28 -22 0 -30 5
-31 18 -6 130 -22 172 -71 193 -49 20 -52 35 -10 47 79 24 118 101 81 161 -31
52 -66 62 -212 64 -73 1 -148 -1 -167 -4z m256 -27 c26 -18 39 -91 24 -137
-15 -44 -28 -54 -84 -59 -36 -4 -48 -1 -54 12 -7 14 -9 125 -3 180 1 13 98 17
117 4z"/>
<path d="M4524 2332 c-6 -4 -17 -25 -24 -47 -7 -22 -30 -87 -52 -145 -22 -58
-42 -112 -44 -120 -10 -43 -59 -166 -68 -172 -6 -4 -17 -6 -24 -3 -8 3 -10 0
-6 -7 5 -8 2 -9 -9 -5 -10 3 -17 2 -17 -3 0 -5 36 -8 80 -7 44 1 80 5 80 10 0
7 -23 11 -47 8 -6 -1 -14 2 -17 7 -6 11 32 114 45 123 14 8 133 9 145 1 12 -8
44 -96 44 -120 0 -10 -8 -13 -25 -10 -14 3 -28 1 -31 -3 -6 -10 -1 -11 124
-13 51 -1 96 2 98 6 3 4 -2 9 -10 9 -52 4 -36 -30 -185 386 -40 112 -42 115
-57 105z m5 -241 c17 -47 29 -87 26 -89 -3 -3 -30 -6 -61 -7 -39 -1 -58 3 -61
12 -6 16 54 179 63 170 1 -1 16 -40 33 -86z"/>
<path d="M2914 2321 c-11 -11 -1 -20 27 -23 34 -3 26 12 104 -208 69 -192 103
-275 115 -275 6 0 33 63 59 140 27 77 65 187 85 244 20 57 36 106 36 108 0 3
11 3 25 1 13 -2 23 2 22 7 -2 10 -100 15 -124 7 -24 -8 -13 -22 12 -18 13 3
27 1 30 -4 3 -4 -13 -61 -36 -127 -22 -65 -45 -133 -49 -152 -15 -61 -26 -55
-59 36 -18 48 -45 120 -60 158 -15 39 -26 75 -24 81 2 6 15 9 28 6 17 -3 25 0
25 10 0 11 -21 14 -106 13 -58 0 -108 -2 -110 -4z"/>
<path d="M5141 1626 c-6 -7 -80 -66 -163 -132 -84 -65 -158 -123 -164 -129 -6
-5 -46 -37 -89 -70 -43 -33 -86 -67 -95 -76 -10 -9 -44 -36 -76 -60 -64 -48
-90 -69 -108 -84 -6 -6 -96 -78 -201 -160 -104 -82 -257 -203 -340 -268 -82
-65 -157 -124 -165 -130 -8 -7 -29 -23 -46 -37 -17 -14 -46 -37 -65 -52 -64
-49 -254 -199 -271 -213 -14 -12 -24 -8 -79 31 -35 24 -76 54 -92 66 -16 13
-104 78 -196 146 -91 67 -173 128 -182 135 -8 6 -23 17 -31 22 -16 10 -528
388 -558 412 -58 45 -193 143 -198 143 -4 0 -21 13 -39 28 -17 15 -71 56 -120
91 -48 36 -131 96 -183 135 -52 39 -111 81 -130 94 l-35 23 30 -28 c17 -15 55
-48 85 -73 30 -25 72 -61 94 -80 23 -19 47 -39 54 -45 7 -5 21 -17 30 -26 9
-8 44 -38 77 -65 33 -27 71 -59 85 -71 14 -12 59 -50 101 -85 185 -155 314
-263 319 -268 3 -3 91 -77 195 -165 105 -87 192 -161 195 -165 3 -3 30 -25 60
-50 30 -25 57 -47 60 -50 3 -3 48 -41 100 -85 52 -43 97 -81 100 -84 3 -3 26
-23 52 -44 26 -21 53 -43 60 -50 7 -7 39 -33 70 -60 l56 -47 44 37 c55 49 99
88 203 182 22 20 78 70 125 111 46 41 91 82 100 90 9 8 48 43 87 78 40 35 83
73 96 85 82 75 199 179 237 213 25 21 47 41 50 44 3 3 45 41 95 85 49 44 99
89 111 100 11 11 49 45 84 75 35 30 75 66 89 80 15 14 65 59 111 100 47 41 90
79 96 85 51 46 180 161 226 201 31 27 59 55 62 62 7 16 1 15 -13 -2z"/>
</g>
</svg>
