<svg width="40" height="40" viewBox="0 0 40 40" fill="none" xmlns="http://www.w3.org/2000/svg">
<path d="M20 1.875C16.4152 1.875 12.9109 2.93801 9.9303 4.92961C6.94966 6.92121 4.62653 9.75195 3.25469 13.0639C1.88285 16.3758 1.52392 20.0201 2.22327 23.536C2.92263 27.0519 4.64887 30.2815 7.1837 32.8163C9.71852 35.3511 12.9481 37.0774 16.464 37.7767C19.9799 38.4761 23.6242 38.1172 26.9361 36.7453C30.2481 35.3735 33.0788 33.0504 35.0704 30.0697C37.062 27.0891 38.125 23.5848 38.125 20C38.1196 15.1946 36.2082 10.5876 32.8103 7.18968C29.4124 3.79176 24.8054 1.88043 20 1.875ZM20 36.875C16.6624 36.875 13.3998 35.8853 10.6248 34.0311C7.84968 32.1768 5.68677 29.5413 4.40954 26.4578C3.13231 23.3743 2.79813 19.9813 3.44926 16.7079C4.10038 13.4344 5.70757 10.4276 8.06758 8.06757C10.4276 5.70756 13.4344 4.10037 16.7079 3.44925C19.9813 2.79812 23.3743 3.1323 26.4578 4.40953C29.5413 5.68676 32.1768 7.84967 34.0311 10.6248C35.8853 13.3998 36.875 16.6624 36.875 20C36.8699 24.474 35.0904 28.7632 31.9268 31.9268C28.7632 35.0904 24.474 36.8699 20 36.875Z" fill="white"/>
<path d="M31.9078 13.1251C30.0843 9.96704 27.081 7.66268 23.5586 6.71884C20.0362 5.775 16.2831 6.26898 13.1249 8.09213C12.9814 8.17508 12.8767 8.3116 12.8337 8.47171C12.7908 8.63181 12.8132 8.80239 12.896 8.946L13.521 10.0284C13.562 10.0995 13.6167 10.1618 13.6818 10.2118C13.7469 10.2618 13.8212 10.2985 13.9005 10.3197C13.9798 10.341 14.0625 10.3464 14.1439 10.3357C14.2253 10.325 14.3038 10.2984 14.3749 10.2573C14.446 10.2163 14.5083 10.1616 14.5583 10.0965C14.6082 10.0314 14.6449 9.95707 14.6661 9.87778C14.6874 9.79849 14.6928 9.71579 14.6821 9.6344C14.6714 9.55301 14.6448 9.47453 14.6037 9.40344L14.2989 8.8755C15.8747 8.06664 17.6056 7.60497 19.3749 7.52163V8.12506C19.3749 8.29082 19.4407 8.44979 19.5579 8.567C19.6751 8.68422 19.8341 8.75006 19.9999 8.75006C20.1656 8.75006 20.3246 8.68422 20.4418 8.567C20.559 8.44979 20.6249 8.29082 20.6249 8.12506V7.52213C22.3942 7.6033 24.1251 8.06595 25.699 8.87838L25.396 9.40338C25.3549 9.47447 25.3283 9.55296 25.3176 9.63435C25.3068 9.71575 25.3123 9.79846 25.3335 9.87776C25.3548 9.95706 25.3914 10.0314 25.4414 10.0965C25.4914 10.1616 25.5537 10.2163 25.6249 10.2573C25.7684 10.3402 25.939 10.3626 26.0991 10.3197C26.2592 10.2768 26.3957 10.1721 26.4785 10.0286L26.7821 9.50275C28.2682 10.4645 29.5312 11.7334 30.486 13.2239L29.9712 13.5212C29.9001 13.5622 29.8378 13.6169 29.7878 13.682C29.7379 13.7471 29.7012 13.8215 29.68 13.9008C29.6588 13.9801 29.6534 14.0628 29.6641 14.1441C29.6748 14.2255 29.7015 14.304 29.7425 14.3751C29.7836 14.4462 29.8382 14.5085 29.9033 14.5584C29.9685 14.6084 30.0428 14.6451 30.1221 14.6663C30.2013 14.6876 30.284 14.693 30.3654 14.6823C30.4468 14.6716 30.5253 14.6449 30.5964 14.6039L31.1112 14.3066C31.9247 15.8789 32.3921 17.6071 32.482 19.3751H31.8749C31.7091 19.3751 31.5501 19.4409 31.4329 19.5581C31.3157 19.6753 31.2499 19.8343 31.2499 20.0001C31.2499 20.1658 31.3157 20.3248 31.4329 20.442C31.5501 20.5592 31.7091 20.6251 31.8749 20.6251H32.4811C32.3967 22.3943 31.933 24.1248 31.1214 25.6992L30.5964 25.3962C30.5253 25.3551 30.4469 25.3285 30.3655 25.3178C30.2841 25.3071 30.2014 25.3125 30.1221 25.3338C30.0428 25.355 29.9685 25.3917 29.9034 25.4417C29.8383 25.4917 29.7836 25.554 29.7426 25.6251C29.6598 25.7686 29.6373 25.9392 29.6802 26.0993C29.7231 26.2594 29.8278 26.3959 29.9714 26.4787L30.4972 26.7823C29.5354 28.2684 28.2665 29.5314 26.776 30.4863L26.4787 29.9714C26.4377 29.9003 26.383 29.838 26.3179 29.788C26.2528 29.7381 26.1784 29.7014 26.0992 29.6802C26.0199 29.659 25.9372 29.6536 25.8558 29.6643C25.7744 29.675 25.6959 29.7017 25.6249 29.7428C25.5538 29.7838 25.4915 29.8384 25.4415 29.9035C25.3915 29.9687 25.3549 30.043 25.3336 30.1223C25.3124 30.2015 25.3069 30.2842 25.3177 30.3656C25.3284 30.447 25.355 30.5255 25.396 30.5966L25.6933 31.1114C24.121 31.9248 22.3928 32.3922 20.6249 32.4822V31.8751C20.6249 31.7093 20.559 31.5503 20.4418 31.4331C20.3246 31.3159 20.1656 31.2501 19.9999 31.2501C19.8341 31.2501 19.6751 31.3159 19.5579 31.4331C19.4407 31.5503 19.3749 31.7093 19.3749 31.8751V32.4813C17.6056 32.3969 15.8751 31.9333 14.3007 31.1217L14.6037 30.5967C14.6448 30.5256 14.6714 30.4471 14.6821 30.3657C14.6929 30.2843 14.6874 30.2016 14.6662 30.1223C14.6449 30.043 14.6083 29.9687 14.5583 29.9036C14.5083 29.8385 14.446 29.7838 14.3749 29.7428C14.2313 29.66 14.0607 29.6375 13.9007 29.6804C13.7406 29.7233 13.6041 29.828 13.5212 29.9716L13.2176 30.4974C11.7315 29.5356 10.4686 28.2668 9.51368 26.7762L10.0286 26.4789C10.0996 26.4379 10.1619 26.3832 10.2119 26.3181C10.2619 26.253 10.2985 26.1786 10.3197 26.0994C10.341 26.0201 10.3464 25.9374 10.3356 25.856C10.3249 25.7746 10.2982 25.6961 10.2572 25.6251C10.2161 25.554 10.1615 25.4917 10.0964 25.4417C10.0313 25.3917 9.95695 25.3551 9.87767 25.3338C9.79838 25.3126 9.71569 25.3071 9.63431 25.3179C9.55292 25.3286 9.47445 25.3552 9.40337 25.3962L8.87987 25.6985C8.22228 24.4195 7.79011 23.0368 7.60237 21.611L8.30799 22.3169C8.42587 22.4308 8.58374 22.4938 8.74762 22.4924C8.91149 22.4909 9.06825 22.4252 9.18413 22.3093C9.30001 22.1934 9.36574 22.0367 9.36716 21.8728C9.36859 21.7089 9.30559 21.5511 9.19174 21.4332L7.31674 19.5582C7.25873 19.5001 7.18985 19.4541 7.11403 19.4226C7.03821 19.3912 6.95694 19.375 6.87487 19.375C6.79279 19.375 6.71152 19.3912 6.6357 19.4226C6.55988 19.4541 6.491 19.5001 6.43299 19.5582L4.55799 21.4332C4.4983 21.4908 4.45068 21.5598 4.41793 21.6361C4.38517 21.7123 4.36793 21.7943 4.36721 21.8773C4.36649 21.9603 4.3823 22.0426 4.41373 22.1194C4.44515 22.1962 4.49156 22.266 4.55025 22.3247C4.60893 22.3834 4.67871 22.4298 4.75552 22.4612C4.83233 22.4926 4.91463 22.5084 4.99762 22.5077C5.08061 22.507 5.16262 22.4898 5.23887 22.457C5.31512 22.4242 5.38409 22.3766 5.44174 22.3169L6.32924 21.4297C6.54229 23.467 7.20787 25.4308 8.27734 27.1778C9.3468 28.9248 10.7931 30.4107 12.5106 31.5269C14.228 32.6431 16.1732 33.3615 18.2039 33.6294C20.2347 33.8974 22.2996 33.7082 24.2478 33.0757C26.196 32.4431 27.9783 31.3833 29.4643 29.9735C30.9503 28.5638 32.1025 26.8398 32.8367 24.9275C33.5709 23.0153 33.8685 20.9632 33.7078 18.9212C33.5471 16.8792 32.9321 14.8989 31.9078 13.1251Z" fill="white"/>
<path d="M8.125 18.125H10.625C10.7908 18.125 10.9497 18.0592 11.0669 17.9419C11.1842 17.8247 11.25 17.6658 11.25 17.5C11.25 17.3342 11.1842 17.1753 11.0669 17.0581C10.9497 16.9408 10.7908 16.875 10.625 16.875H8.75V15.625H10C10.3314 15.6247 10.6492 15.4929 10.8835 15.2585C11.1179 15.0242 11.2497 14.7064 11.25 14.375V13.125C11.2497 12.7936 11.1179 12.4758 10.8835 12.2415C10.6492 12.0071 10.3314 11.8753 10 11.875H8.75C8.41858 11.8753 8.10083 12.0071 7.86648 12.2415C7.63213 12.4758 7.50033 12.7936 7.5 13.125C7.5 13.2908 7.56585 13.4497 7.68306 13.5669C7.80027 13.6842 7.95924 13.75 8.125 13.75C8.29076 13.75 8.44973 13.6842 8.56694 13.5669C8.68415 13.4497 8.75 13.2908 8.75 13.125H10V14.375H8.75C8.41858 14.3753 8.10083 14.5071 7.86648 14.7415C7.63213 14.9758 7.50033 15.2936 7.5 15.625V17.5C7.5 17.6658 7.56585 17.8247 7.68306 17.9419C7.80027 18.0592 7.95924 18.125 8.125 18.125Z" fill="#FFD412"/>
<path d="M12.8125 15.625H14.6875V17.5C14.6875 17.6658 14.7533 17.8247 14.8706 17.9419C14.9878 18.0592 15.1467 18.125 15.3125 18.125C15.4783 18.125 15.6372 18.0592 15.7544 17.9419C15.8717 17.8247 15.9375 17.6658 15.9375 17.5V12.5C15.9375 12.3342 15.8717 12.1753 15.7544 12.0581C15.6372 11.9408 15.4783 11.875 15.3125 11.875C15.1467 11.875 14.9878 11.9408 14.8706 12.0581C14.7533 12.1753 14.6875 12.3342 14.6875 12.5V14.375H13.4375V12.5C13.4375 12.3342 13.3717 12.1753 13.2544 12.0581C13.1372 11.9408 12.9783 11.875 12.8125 11.875C12.6467 11.875 12.4878 11.9408 12.3706 12.0581C12.2533 12.1753 12.1875 12.3342 12.1875 12.5V15C12.1875 15.1658 12.2533 15.3247 12.3706 15.4419C12.4878 15.5592 12.6467 15.625 12.8125 15.625Z" fill="#FFD412"/>
<path d="M20.0001 10.625C19.8343 10.625 19.6754 10.6908 19.5581 10.8081C19.4409 10.9253 19.3751 11.0842 19.3751 11.25V18.2402C19.0767 18.3451 18.8099 18.5239 18.5994 18.7599C18.3889 18.9959 18.2417 19.2815 18.1716 19.5898C18.1014 19.8982 18.1106 20.2193 18.1983 20.5231C18.2859 20.827 18.4492 21.1037 18.6728 21.3273C18.8964 21.5509 19.1731 21.7141 19.4769 21.8018C19.7808 21.8895 20.1019 21.8986 20.4103 21.8285C20.7186 21.7583 21.0042 21.6112 21.2402 21.4007C21.4762 21.1902 21.655 20.9233 21.7599 20.625H27.5001C27.6658 20.625 27.8248 20.5592 27.942 20.4419C28.0592 20.3247 28.1251 20.1658 28.1251 20C28.1251 19.8342 28.0592 19.6753 27.942 19.5581C27.8248 19.4408 27.6658 19.375 27.5001 19.375H21.7599C21.6667 19.1135 21.5165 18.8761 21.3203 18.6798C21.124 18.4835 20.8865 18.3334 20.6251 18.2402V11.25C20.6251 11.0842 20.5592 10.9253 20.442 10.8081C20.3248 10.6908 20.1658 10.625 20.0001 10.625ZM20.0001 20.625C19.8765 20.625 19.7556 20.5883 19.6529 20.5197C19.5501 20.451 19.47 20.3534 19.4227 20.2392C19.3754 20.125 19.363 19.9993 19.3871 19.8781C19.4112 19.7568 19.4707 19.6455 19.5581 19.5581C19.6456 19.4706 19.7569 19.4111 19.8782 19.387C19.9994 19.3629 20.1251 19.3753 20.2393 19.4226C20.3535 19.4699 20.4511 19.55 20.5198 19.6528C20.5884 19.7555 20.6251 19.8764 20.6251 20C20.6249 20.1657 20.559 20.3245 20.4418 20.4417C20.3246 20.5589 20.1658 20.6248 20.0001 20.625Z" fill="white"/>
</svg>
