<svg width="19" height="19" viewBox="0 0 19 19" fill="none" xmlns="http://www.w3.org/2000/svg">
<path d="M9.00195 18.5409C6.54195 18.5409 6.25195 18.5279 5.29195 18.4859C4.54332 18.4613 3.80439 18.3091 3.10695 18.0359C1.90026 17.5663 0.946094 16.6117 0.476953 15.4049C0.214259 14.7049 0.072571 13.9654 0.0579531 13.2179C0.00195312 12.2599 0.00195312 11.9459 0.00195312 9.50488C0.00195312 7.03788 0.0149531 6.74988 0.0579531 5.79488C0.0728908 5.0484 0.214574 4.30989 0.476953 3.61088C0.945584 2.40241 1.9013 1.44706 3.10995 0.978883C3.8086 0.715085 4.5473 0.573027 5.29395 0.558883C6.24895 0.504883 6.56295 0.504883 9.00195 0.504883C11.482 0.504883 11.767 0.517883 12.712 0.558883C13.4605 0.573149 14.2012 0.715192 14.902 0.978883C16.1103 1.44759 17.0658 2.40276 17.535 3.61088C17.8021 4.32008 17.9445 5.07013 17.956 5.82788C18.012 6.78588 18.012 7.09888 18.012 9.53888C18.012 11.9789 17.998 12.2989 17.956 13.2459C17.9411 13.9941 17.799 14.7343 17.536 15.4349C17.0656 16.6426 16.11 17.5975 14.902 18.0669C14.2022 18.3291 13.4631 18.4707 12.716 18.4859C11.761 18.5409 11.448 18.5409 9.00195 18.5409ZM8.96795 2.08788C6.52195 2.08788 6.26795 2.09988 5.31295 2.14288C4.74294 2.15043 4.17843 2.25562 3.64395 2.45388C2.85471 2.75589 2.23018 3.37787 1.92495 4.16588C1.72517 4.70618 1.61996 5.27686 1.61395 5.85288C1.56095 6.82188 1.56095 7.07588 1.56095 9.50488C1.56095 11.9049 1.56995 12.1959 1.61395 13.1589C1.62291 13.7291 1.72805 14.2937 1.92495 14.8289C2.23063 15.6164 2.85505 16.2379 3.64395 16.5399C4.17807 16.7395 4.7428 16.8447 5.31295 16.8509C6.28095 16.9069 6.53595 16.9069 8.96795 16.9069C11.421 16.9069 11.675 16.8949 12.622 16.8509C13.1924 16.8439 13.7573 16.7387 14.292 16.5399C15.0764 16.2353 15.6969 15.6152 16.002 14.8309C16.2014 14.2901 16.3065 13.7192 16.313 13.1429H16.324C16.367 12.1869 16.367 11.9319 16.367 9.48888C16.367 7.04588 16.356 6.78888 16.313 5.83388C16.304 5.26433 16.1988 4.70039 16.002 4.16588C15.6976 3.38046 15.077 2.75918 14.292 2.45388C13.7574 2.25462 13.1924 2.1494 12.622 2.14288C11.655 2.08788 11.402 2.08788 8.96795 2.08788ZM9.00195 14.1239C7.13194 14.1251 5.44537 12.9996 4.72882 11.2723C4.01226 9.54506 4.40686 7.55621 5.72858 6.23334C7.05031 4.91047 9.03882 4.51415 10.7667 5.22921C12.4946 5.94428 13.6215 7.62987 13.622 9.49988C13.6192 12.0509 11.553 14.1189 9.00195 14.1239ZM9.00195 6.49788C7.3451 6.49788 6.00195 7.84103 6.00195 9.49788C6.00195 11.1547 7.3451 12.4979 9.00195 12.4979C10.6588 12.4979 12.002 11.1547 12.002 9.49788C11.9981 7.84263 10.6572 6.50173 9.00195 6.49788ZM13.802 5.78489C13.2074 5.78268 12.7269 5.29947 12.728 4.70489C12.7291 4.11031 13.2114 3.62889 13.806 3.62889C14.4005 3.62889 14.8828 4.1103 14.884 4.70488C14.8842 4.99174 14.7702 5.26691 14.5672 5.46956C14.3642 5.67222 14.0888 5.78568 13.802 5.78489Z" fill="#292929"/>
</svg>
