<svg width="60" height="60" viewBox="0 0 60 60" fill="none" xmlns="http://www.w3.org/2000/svg">
<rect width="60" height="60" fill="white" fill-opacity="0.1"/>
<path fill-rule="evenodd" clip-rule="evenodd" d="M24.5229 30.0001C24.5229 26.975 26.9756 24.5223 30.0008 24.5223C33.0258 24.5224 35.4777 26.9751 35.4777 30.0001C35.4777 33.0253 33.0259 35.4769 30.0008 35.4769C26.9756 35.4769 24.5229 33.0253 24.5229 30.0001ZM33.5563 30.0004C33.5563 28.0366 31.9643 26.4448 30.0007 26.4448C28.0369 26.4448 26.4451 28.0366 26.4451 30.0004C26.4451 31.964 28.0369 33.556 30.0007 33.556C31.9643 33.556 33.5563 31.964 33.5563 30.0004Z" fill="white"/>
<path d="M34.4145 24.3065C34.4145 23.5996 34.9879 23.027 35.6946 23.027C36.4012 23.027 36.9746 23.5999 36.9746 24.3065C36.9746 25.0132 36.4012 25.5866 35.6946 25.5866C34.9879 25.5866 34.4145 25.0132 34.4145 24.3065Z" fill="white"/>
<path fill-rule="evenodd" clip-rule="evenodd" d="M25.6024 19.3979C26.7402 19.3462 27.1038 19.3335 30.0007 19.3335H29.9973C32.8951 19.3335 33.2574 19.3462 34.3952 19.3979C35.5307 19.4499 36.3063 19.6297 36.9863 19.8935C37.6885 20.1657 38.2819 20.5302 38.8752 21.1235C39.4685 21.7164 39.833 22.3115 40.1063 23.0131C40.3686 23.6913 40.5486 24.4664 40.6019 25.602C40.653 26.7398 40.6663 27.1034 40.6663 30.0003C40.6663 32.8972 40.653 33.2599 40.6019 34.3977C40.5486 35.5328 40.3686 36.3081 40.1063 36.9866C39.833 37.6879 39.4685 38.283 38.8752 38.8759C38.2825 39.4693 37.6883 39.8346 36.987 40.107C36.3083 40.3708 35.5323 40.5506 34.3967 40.6026C33.2589 40.6544 32.8965 40.667 29.9993 40.667C27.1026 40.667 26.7393 40.6544 25.6015 40.6026C24.4662 40.5506 23.6908 40.3708 23.0122 40.107C22.311 39.8346 21.7159 39.4693 21.1232 38.8759C20.5301 38.283 20.1657 37.6879 19.893 36.9863C19.6295 36.3081 19.4497 35.533 19.3975 34.3974C19.3459 33.2596 19.333 32.8972 19.333 30.0003C19.333 27.1034 19.3463 26.7396 19.3972 25.6018C19.4483 24.4667 19.6283 23.6913 19.8928 23.0129C20.1661 22.3115 20.5306 21.7164 21.1239 21.1235C21.7168 20.5304 22.3119 20.1659 23.0135 19.8935C23.6917 19.6297 24.4668 19.4499 25.6024 19.3979ZM29.6452 21.2557C29.4295 21.2556 29.2296 21.2555 29.0438 21.2558V21.2531C27.0558 21.2553 26.6745 21.2686 25.6905 21.3131C24.6504 21.3609 24.0858 21.5342 23.7098 21.6809C23.212 21.8747 22.8564 22.1058 22.4831 22.4791C22.1097 22.8524 21.8782 23.208 21.6849 23.7058C21.5389 24.0818 21.3651 24.6462 21.3175 25.6862C21.2664 26.8107 21.2562 27.1467 21.2562 29.9952C21.2562 32.8437 21.2664 33.1814 21.3175 34.3059C21.3649 35.3459 21.5389 35.9104 21.6849 36.2859C21.8786 36.7839 22.1097 37.1386 22.4831 37.5119C22.8564 37.8853 23.212 38.1164 23.7098 38.3097C24.086 38.4557 24.6504 38.6295 25.6905 38.6775C26.8149 38.7286 27.1525 38.7397 30.0007 38.7397C32.8487 38.7397 33.1865 38.7286 34.311 38.6775C35.351 38.6299 35.9159 38.4566 36.2915 38.3099C36.7895 38.1166 37.1439 37.8855 37.5172 37.5121C37.8906 37.139 38.1221 36.7846 38.3155 36.2868C38.4615 35.9112 38.6353 35.3468 38.6828 34.3068C38.7339 33.1823 38.745 32.8445 38.745 29.9978C38.745 27.1512 38.7339 26.8134 38.6828 25.6889C38.6355 24.6489 38.4615 24.0845 38.3155 23.7089C38.1217 23.2111 37.8906 22.8556 37.5172 22.4822C37.1441 22.1089 36.7892 21.8778 36.2915 21.6844C35.9154 21.5384 35.351 21.3646 34.311 21.3171C33.1863 21.266 32.8487 21.2558 30.0007 21.2558L29.6452 21.2557Z" fill="white"/>
</svg>
