<svg width="282.569" height="471.891" viewBox="0 0 200 334" class="css-1j8o68f">
  <path xmlns="http://www.w3.org/2000/svg" fill-rule="evenodd" d="m5 65 95-65 95 65-95-55zm0 189 95 80 95-85-95 75z" fill="#68651f"/>
  <path xmlns="http://www.w3.org/2000/svg" d="M133.17 106.986a35.875 35.875 0 0 0-7.715-11.443 35.893 35.893 0 0 0-11.442-7.715A35.79 35.79 0 0 0 100 85a35.8 35.8 0 0 0-14.013 2.829 35.878 35.878 0 0 0-11.442 7.715 35.901 35.901 0 0 0-7.716 11.442A35.798 35.798 0 0 0 64 121c0 4.859.953 9.574 2.83 14.013a35.87 35.87 0 0 0 7.715 11.442A35.89 35.89 0 0 0 100 157c4.858 0 9.574-.952 14.012-2.83a35.857 35.857 0 0 0 11.443-7.715 35.89 35.89 0 0 0 7.714-11.442A35.77 35.77 0 0 0 136 121c0-4.86-.952-9.575-2.83-14.014zm-19.205-11.917-3.685 7.232-1.196-.609 3.686-7.231 1.195.608zm-5.504-2.28 1.276.415-2.51 7.719-1.275-.414 2.51-7.72zm-4.517-.976 1.324.21-1.27 8.017-1.325-.21 1.27-8.017zm-5.132-2.186 2.376-.001v10.08h-2.376v-10.08zm0 28.375v-16.624h2.376v16.623a3.224 3.224 0 1 1-2.376.001zm-2.755-26.189 1.27 8.017-1.325.21-1.27-8.018 1.325-.209zm-4.517.977 2.508 7.719-1.276.415-2.509-7.72 1.277-.414zm-4.31 1.67 3.684 7.232-1.194.609-3.685-7.232 1.195-.608zm-18.636 27.728v-2.376h10.08v2.376h-10.08zm10.236-3.861-8.017-1.271.21-1.325 8.017 1.271-.21 1.325zm.68-3.28-7.72-2.51.414-1.275 7.72 2.51-.414 1.276zm1.183-3.132-7.232-3.685.61-1.196 7.231 3.685-.61 1.196zm1.66-2.908-6.568-4.771.789-1.085 6.566 4.77-.788 1.086zm2.092-2.613-5.739-5.74.949-.948 5.739 5.739-.949.949zm-2.295-8.821 1.085-.788 4.77 6.567-1.083.788-4.772-6.567zm21.054 43.901H91.69v-3.842l-5.673-2.016 1.65-3.586 5.106 1.759v1.04l3.018.007v-1.262h-1.81v-1.083h4.78v1.083h-1.81v1.264l3.374.007.977 1.374 7.58-1.955 2.72-.475 1.321 1.241-.529.686-.898-.977-2.216.337-6.076 6.398zm9.433-.562c-.854 0-1.347-.281-1.347-1.124s1.347-3.104 1.347-3.104 1.346 2.262 1.346 3.104-.492 1.124-1.346 1.124zm.441-36.773-1.085-.787 4.772-6.567 1.084.788-4.771 6.566zm1.528 1.305 5.74-5.738.948.948-5.74 5.738-.948-.948zm2.254 2.477 6.567-4.77.788 1.084-6.567 4.77-.788-1.084zm1.838 2.798 7.233-3.684.609 1.196-7.232 3.684-.61-1.196zm1.378 3.051 7.72-2.508.415 1.276-7.72 2.508-.415-1.276zm.885 3.23 8.016-1.27.21 1.325-8.017 1.27-.21-1.325zm.334 5.188v-2.376h10.079v2.376h-10.08z" fill="#7d212a"/>
  <path d="M7.882 186.687h8.485v-3.373H1.278v1.1H15.16v1.278H0v-3.656h17.645v5.929H9.16v16.615H7.882v-17.893zm-2.379 1.278H0v-1.278h6.781v18.923h3.55v-16.545h1.279v17.859H5.503v-18.96zm28.359 18.959c-2.166 0-4.225-.568-6.178-1.705-3.905-2.236-6.32-6.355-6.32-10.757 0-2.201.568-4.26 1.705-6.213 2.236-3.835 6.426-6.249 10.793-6.249 2.165 0 4.26.568 6.213 1.669 3.905 2.272 6.248 6.497 6.248 10.793 0 2.166-.568 4.19-1.668 6.142-2.273 3.905-6.39 6.32-10.793 6.32zm0-23.681c-2.024 0-3.906.497-5.61 1.49-3.444 1.99-5.574 5.646-5.574 9.729 0 2.024.497 3.905 1.491 5.61 1.988 3.443 5.61 5.573 9.693 5.573 2.023 0 3.905-.497 5.645-1.49 3.444-1.989 5.574-5.61 5.574-9.693 0-2.024-.497-3.906-1.491-5.645-1.989-3.444-5.752-5.574-9.728-5.574zm0 21.266c-1.776 0-3.444-.461-5.042-1.349-3.16-1.81-5.112-5.112-5.112-8.698 0-1.81.461-3.48 1.349-5.042 1.81-3.124 5.006-4.97 8.805-4.97 1.917 0 3.657.426 5.183 1.278 3.053 1.704 4.829 4.9 4.829 8.734 0 1.81-.426 3.48-1.278 5.006-1.74 3.089-5.149 5.041-8.734 5.041zm0-18.817c-1.598 0-3.054.391-4.403 1.172-2.734 1.562-4.402 4.367-4.402 7.598 0 1.562.39 3.018 1.207 4.367 1.562 2.734 4.331 4.438 7.598 4.438 1.597 0 3.053-.39 4.402-1.207 2.663-1.563 4.367-4.474 4.367-7.598 0-1.598-.39-3.089-1.172-4.438-1.562-2.698-4.509-4.332-7.597-4.332zm0 16.51a7.697 7.697 0 0 1-3.87-1.03c-2.379-1.385-3.906-4.012-3.906-6.71 0-1.385.355-2.698 1.065-3.906 1.385-2.414 3.835-3.798 6.71-3.798 1.385 0 2.663.355 3.835 1.03 2.379 1.384 3.763 3.798 3.763 6.674 0 1.42-.32 2.698-.958 3.87a7.613 7.613 0 0 1-6.64 3.87zm0-14.166a6.336 6.336 0 0 0-3.196.852c-1.988 1.171-3.266 3.266-3.266 5.574 0 1.136.284 2.201.852 3.16 1.136 1.988 3.195 3.195 5.61 3.195 1.171 0 2.272-.284 3.23-.852 1.953-1.136 3.125-3.23 3.125-5.503a6.37 6.37 0 0 0-.852-3.231 6.324 6.324 0 0 0-5.503-3.195zm22.855 17.645h-.639l-.284-.959-5.184-16.65-1.42-4.758h1.1l5.54 18.036.568 1.917h.213l.674-1.669-.674-2.06-5.361-17.467h-3.8l7.67 24.853h2.45l3.23-7.705.675-1.633.923-2.308-.675-1.597-.959 2.272-.674 1.633zm-4.331-23.61 5.503 18.107 3.905-9.338 7.03 16.12h1.384l-8.414-19.35-3.763 8.663-4.296-14.202h-1.35zm18.035 10.97 2.983-9.727h3.621l-.32 1.03-3.62 11.858-2.06 6.71-8.734-20.166h-.923l-3.763 8.734.568 1.881 3.657-8.45 1.136 2.592 7.953 18.426.319.71 7.491-24.568h-6.284l-2.77 9.196zm.213 3.09-.745-1.776-5.042-11.61h-1.384l7.385 17.042 4.757-15.515h-1.35zm20.655-9.444h8.485v-3.373H84.685v1.1h13.882v1.278h-15.16v-3.656h17.645v5.929h-8.485v16.615h-1.278v-17.893zm-2.379 1.278h-5.503v-1.278h6.781v18.923h3.55v-16.545h1.279v17.859H88.91v-18.96zm34.43 17.68h-4.083l-4.9-9.124-3.302.036v9.088h-3.586v-23.574h-1.278v24.853h6.178v-9.125h1.243l4.864 9.125h6.994l-4.9-9.16-1.171.461zm-8.45-22.296c5.148 0 8.059 2.308 8.059 6.533 0 3.834-2.308 6.177-6.32 6.604l-.958.106 4.438 8.201h1.455l-3.87-7.207c4.26-.745 6.533-3.337 6.533-7.704 0-1.456-.32-2.77-.923-3.941-1.42-2.52-4.331-3.87-8.414-3.87h-6.284v22.687h1.278v-21.409h5.006zm-.284 12.071c4.864 0 7.171-1.668 7.171-5.36 0-3.515-2.414-5.504-6.284-5.504h-4.473v3.728h4.083c1.881 0 2.84.533 2.84 1.598 0 1.242-1.172 1.846-3.55 1.846h-2.06v-2.201h-1.313v3.48h3.373c3.16 0 4.828-1.101 4.828-3.125 0-.64-.142-1.136-.461-1.527-.604-.887-1.811-1.313-3.657-1.313h-2.77v-1.208h3.16c3.16 0 5.006 1.527 5.006 4.225 0 2.805-1.881 4.119-5.893 4.119h-3.55v1.242h3.55zm26.654 11.504c-3.444 0-6.071-.888-7.81-2.663-1.705-1.704-2.593-4.225-2.593-7.207v-14.947h6.036v14.947c0 2.698 1.314 3.834 4.19 3.834 2.804 0 4.33-1.385 4.33-3.834v-14.947h3.658v14.947c0 1.881-.497 3.656-1.456 4.935-1.278 1.74-3.302 2.556-6.426 2.556-1.81 0-3.266-.249-4.367-.781-2.237-1.03-3.586-3.338-3.586-6.71v-12.675h1.278v12.675c0 4.012 2.308 6.213 6.675 6.213s6.604-2.201 6.604-6.213v-13.67h-1.1v13.67c0 3.124-2.096 5.112-5.61 5.112-3.55 0-5.433-1.81-5.433-5.112v-13.67h-3.514v13.67c0 5.645 3.124 8.591 9.124 8.591 3.124 0 5.255-.745 6.71-2.272s2.237-3.728 2.237-6.32v-14.946h1.278v14.947c0 2.982-.923 5.467-2.627 7.207-1.704 1.775-4.225 2.663-7.598 2.663zm30.453-8.095c-2.236 1.455-3.337 1.881-4.864 1.881-1.065 0-2.059-.284-3.018-.852-1.881-1.136-3.16-3.195-3.16-5.325 0-1.136.285-2.201.853-3.16 1.1-1.917 3.195-3.053 5.325-3.053 1.35 0 2.556.39 3.586 1.136.178.106.39.248.64.497l.532.39 2.378-2.804-.39-.39c-.249-.25-.568-.462-.959-.711-1.668-1.278-3.621-1.917-5.787-1.917-2.663 0-5.112 1.03-7.065 2.911-1.882 1.988-2.947 4.438-2.947 7.1s1.065 5.184 2.947 7.066 4.402 2.947 7.065 2.947c1.917 0 3.693-.533 5.361-1.598l-.71-1.065c-1.455.959-2.982 1.42-4.65 1.42-2.308 0-4.51-.923-6.178-2.592s-2.557-3.87-2.557-6.177.888-4.474 2.557-6.142a8.566 8.566 0 0 1 6.177-2.592c1.74 0 3.409.533 5.077 1.633l.284.249-.78.887a.572.572 0 0 1-.25-.142c-1.313-.887-2.769-1.349-4.33-1.349-1.385 0-2.628.32-3.729.959-2.236 1.313-3.728 3.905-3.728 6.497 0 1.242.356 2.485 1.03 3.657 1.385 2.378 3.905 3.834 6.426 3.834 1.669 0 3.018-.497 5.042-1.775l1.988 2.947c-2.592 1.704-4.616 2.414-7.03 2.414-1.988 0-3.834-.497-5.538-1.491-3.444-1.988-5.574-5.61-5.574-9.586 0-1.988.497-3.835 1.49-5.574a11.152 11.152 0 0 1 9.622-5.539c2.805 0 5.468 1.03 7.491 2.912l.214.177.284.284.887-.923-.497-.497a12.626 12.626 0 0 0-8.379-3.195c-2.236 0-4.296.532-6.177 1.633-3.764 2.165-6.214 6.32-6.214 10.722 0 2.166.569 4.225 1.705 6.142 2.236 3.834 6.248 6.249 10.686 6.249 2.805 0 5.148-.888 8.308-3.054l.497-.32-3.373-5.076zm8.725 6.852v-23.61h-1.278v24.888l6.213-.035V196.77l9.728-12.32h-1.633l-9.408 11.858v9.373h-3.622zm3.586-15.373 1.314-1.633v-6.604h-3.764v11.397l1.278-1.633v-8.45h1.172v6.923zm15.941-8.237h-7.846l-10.545 13.527v9.16h1.278v-8.734l9.87-12.64h4.616l-10.012 12.747 6.39 8.627h1.598l-6.355-8.627zm-2.52 23.61h-4.51l-6.355-8.592v2.13l5.716 7.705h7.705l-8.699-11.681-.816 1.03z" fill="#111"/>
  <path d="M31.27 241.816c-.303 0-.471.067-.674.101-.303 0-.236 0-.27-.034l-.1.034c0 .101.033.101.1.135 0-.034-.1.067-.168.202h.034c0 .034-1.08.877-1.248.877-.775 0-.775-.91-.775-1.045 0-.068 0-.068.033-.169 0-3.776-.168-3.203-.168-5.462 0 0 .033-.034.033-.068 0-.1-.067-.27-.067-.438 0-.303.135-.506 1.011-.506.102 0 .237.101.54.641 0 .169.607.674.674.978-.033.033-.067.067-.067.1 0 .136.506.338.506.54 0 .034-.034.068-.034.068 0 .202.337.37.337.472.405.742.438.708.978 1.247.169 0 1.416 2.226 2.36 2.226 1.214.101 1.45.54 2.731.54.708 0 .607-.034.843-.17-.067.068-.033.068-.067.068 0 0 .236-.337 1.349-.337.505 0 1.483-.944 1.685-1.079.068-.067.405-.202.405-.27 0-.202.708-1.18.81-1.281-.034-.067-.034-.135-.034-.169 0-.505.539.27.539-2.866-.034-.1-.135-1.18-.37-1.382-.102 0-.102-.776-.911-1.315 0-.034.033-.202.033-.27-1.315-.067-.64-.742-1.517-.742-1.652 0-.337-.505-2.124-.505-.169-.169-1.652-.135-1.99-.338-.067 0-.303.068-.37.068-.405 0-.068-.337-.978-.337-3.068-.169-1.416-.742-2.462-.742v-.067c.102 0 .237-.034.338.067 0 0 .168-.067.168-.101 0 0-.067-.068-.067-.101H31.27c-.338-.304-.304-.506-.574-.574 0-.033-.37.034-.944-.741 0-.236-.742-1.113-.91-1.248-.304-1.585-.674-2.529-.674-3.743.067-.37 0-.843.134-1.079v.034c.034 0 .169-1.146.27-1.079a.073.073 0 0 1-.067-.067c0-.27.708-1.012.708-1.282-.034-.033-.034-.067-.034-.067 0-.236.54-.472.54-.573s.438-.81.64-.944c-.034.033-.034.067-.034.067-.033 0 1.653-1.113 1.686-1.146 2.057-.337.27-.91 2.563-.91h3.304c.068 0 .776 0 1.113.27 1.382.067 1.146.876 1.753.876 1.113 0 .81-.068 1.147-.405-.135-.168.91-.034 1.011-.472h.439c.067 0 .337.27.37.337.102 4.181.304 4.08.304 6.272 0 .168-.304.27-.438.54h-.472v-.136c-.102 0-.81-.472-.81-.842v.033c-.033 0-.27-.843-.64-.978h.033c0-.1-.438-.438-.438-.674-.506-.742-.438-.708-.843-1.113h.034c0-.033-.843-.54-.843-.775 0-.506-1.248-1.113-1.517-1.383.1-.202-.877-.472-1.855-.472-.034 0-.067.034-.101.034-.337 0-.202-.573-.304-.573-.067.067-.1.067-.134.135a1.517 1.517 0 0 1-.27-.068c-.202.742-.54.337-.64.54-.203-.101-.068-.203-.203-.236-.708.337-.506.303-2.057 1.079-1.011 1.99-.472-.472-1.585 2.562v1.484-.034c.034 0 .169 1.315.472 1.484.068.1.506.438.641.708.236 0 .54.876 1.517.876.405.439 1.99.338 3.608.742.472.135 2.934.135 3.507.81h-.034c0 .067.81.134.944.236 0-.068 1.619.944 1.619 1.146 0 .034 0 .034-.034.034.573 0 1.146 1.28 1.382 1.45.169 1.213.641.842.641 1.787.405 1.28.337 1.584.337 3.169-.101.101-.168 1.281-.337 1.349 0 1.72-.877 1.618-.877 2.36l-.438.405c0 .067-.034.202-.034.202-.674.607-.438.708-.741.843-.102 0-.27.506-.843.674-.641.978-.91.203-1.585 1.18-3.035 0 .067.742-3.305.742-3.843 0-2.495-.101-3.742-.404-.034 0-.034.033-.068.033-.202 0-.505-.27-.775-.27 0-.033-.506-.1-.506-.168 0 .034.034.034.034.034 0-.034-.472-.708-.843-.708a.48.48 0 0 0-.202.067zm6.407 1.214c-.034 0-.034.034-.034.067 0 0 0 .034.034.034s.034-.034.034-.034c0-.033 0-.067-.034-.067zm-2.529-.068c-.034 0-.034.034-.034.034 0 .034 0 .034.034.034s.034 0 .034-.034c0 0 0-.034-.034-.034zm3.203 0c-.033 0-.067.034-.067.068s.034.067.067.067.034-.033.034-.067 0-.068-.034-.068zm-.741-.067c-.034 0-.068.034-.068.067s.034.068.068.068.033-.034.033-.068 0-.067-.033-.067zm.741-.067c-.067 0-.1 0-.1.033l.033.034h.067v-.067zm-2.461 0c-.034 0-.034 0-.034.033 0 0 0 .034.034.034s.034-.034.034-.034c0-.033 0-.033-.034-.033zm2.461-.237v.17a.406.406 0 0 0 .169-.17h-.169zm.91-.1c-.303 0-.303.1-.303.202.034 0 .101-.034.169-.068.034 0 .135.034.202.068l.135-.068s0-.135-.202-.135zm-4.012.033v.067h.135v-.067h-.135zm1.686 0c-.034 0-.034.034-.034.067 0 0 0 .034.034.034s.034-.034.034-.034c0-.033 0-.067-.034-.067zm.944 0a.073.073 0 0 0-.067.067s.034.034.067.034.034-.034.034-.034c0-.033 0-.067-.034-.067zm-3.102-.202c-.033 0-.067 0-.067.033h.1c0-.033 0-.033-.033-.033zm-1.045-.101c-.034 0-.067 0-.101.033zm-.101-.135c-.034 0-.068.033-.068.067s.034.068.068.068.034-.034.034-.068 0-.067-.034-.067zm.101-.034c-.034 0-.034.034-.034.067 0 0 0 .034.034.034s.034-.034.034-.034c0-.033 0-.067-.034-.067zm-4.822-.067a.073.073 0 0 0-.067.067s.034.034.067.034l.034-.034c0-.034-.034-.067-.034-.067zm4.72 0a.073.073 0 0 0-.067.067s.034.034.068.034.034-.034.034-.034c0-.034 0-.067-.034-.067zm-5.192-.102c-.033 0-.067.034-.067.034 0 .034.034.068.067.068 0 0 .034-.034.034-.068zm5.463.034h-.068c0 .034 0 .068.034.068 0 0 .034-.034.034-.068zm6.608-.034c-.033 0-.033.034-.033.034h.067c0 .034 0-.034-.034-.034zm-12.07-.573v-.135.135zm13.621-.067a.073.073 0 0 0-.067.067h.101c0-.034-.034-.067-.034-.067zm.472-.405v.068h.034zm-.1-.101a.073.073 0 0 0-.068.067s.033.034.067.034.034-.034.034-.034c0-.033 0-.067-.034-.067zm.201.034.068-.034zm.203-.203-.068.068c.034-.034.034-.068.068-.068zm-14.297-.033c-.033 0-.067 0-.067.033 0 0 .067 0 .067-.033zm-.1-.337v.202h.033c0-.034 0-.169-.034-.202zm15.442-.742c-.034 0-.034.033-.034.033s0 .034.034.034.034-.034.034-.034 0-.033-.034-.033zm-1.045-2.765.067.034.068-.034h-.135zm-14.398-.54h-.067c0 .034 0 .068.034.068 0 0 .033-.034.033-.068zm16.792-.573v-.034c-.034 0-.034 0-.034.034s0 .068.034.068v-.068zm-14.162-5.698c-.033 0-.067.034-.067.067s.034.068.067.068.034-.034.034-.068 0-.067-.034-.067zm-1.382-1.45a.073.073 0 0 0-.068.067s.034.034.068.034l.034-.034c0-.033-.034-.067-.034-.067zm10.823-.337c-.033 0-.033.034-.033.067 0 0 0 .034.033.034s.034-.034.034-.034c0-.033 0-.067-.034-.067zm-11.228-.135v.067l.068-.067h-.068zm3.203-.303s-.033 0-.033.033h.067c0-.033-.034-.033-.034-.033zm3.338-.439c-.067 0-.236.068-.236.101s.034.034.034.034c.068 0 .135-.067.202-.135zm-7.181-.978c-.034 0-.068-.033-.068.169a.34.34 0 0 0 .034.101c.034 0 .067-.067.067-.101 0-.067-.033-.135-.033-.169zm-.102-.337c-.033 0-.067.034-.067.068s.034.067.067.067v-.135zm14.432-5.934a.073.073 0 0 0-.068.067s.034.034.068.034.033-.034.033-.034c0-.033 0-.067-.033-.067zm.472 0c-.034 0-.034.034-.034.067 0 0 0 .034.034.034s.033-.034.033-.034c0-.033 0-.067-.033-.067zm.135 0a.073.073 0 0 0-.068.067s.034.034.068.034l.033-.034c0-.033-.033-.067-.033-.067zm-7.553-.742v-.37c.033-.035.1-.068.135-.102l.067.067c0 .102-.135.27-.135.472zm7.418-.135c-.034 0-.034.034-.034.068 0 0 0 .033.034.033s.033-.033.033-.033c0-.034 0-.068-.033-.068zm-11.06-.168c-.168.033-.168.168-.168.168.033-.034.168-.101.168-.135v-.033zm-.809-.169c0 .067.101.101.169.101-.034-.101-.169-.101-.203-.101h.034zm11.734.067c.034.034.067.034.101.034.135 0 .169-.101.169-.202zm-11.194-.27c-.102 0-.068.102-.068.203h.068v-.202zm6.676-.303c-.102.169-.068.304-.068.439.135-.034.169-.203.169-.371-.034-.034-.034-.068-.101-.068zm-6.676.135c-.034 0-.068 0-.068.034h.101c0-.034 0-.034-.033-.034zm10.857-.067c0-.034-.034-.034-.102-.034-.033 0-.067 0-.067.034s.034.067.067.067c.068 0 .102-.034.102-.067zm.135-.101c-.034 0-.068.033-.068.033h.068v-.033zm-3.339 0-.033-.034zm-2.09-.034c0-.034-.034-.034-.034-.034s-.033 0-.033.034.033.034.033.034.034 0 .034-.034zm4.586 0c0-.034-.034-.034-.034-.034-.034 0-.034 0-.034.034s0 .034.034.034c0 0 .034 0 .034-.034zm.438-.068a.073.073 0 0 0-.068.068s.034.034.068.034.034-.034.034-.034c0-.034 0-.068-.034-.068zm.742-.067v.135l.067-.068zm-10.25-.27c0 .101.067.236.067.337l.067-.168s-.033-.135-.067-.236zm5.934.135c-.034 0-.068.034-.068.034s.034.033.068.033.034-.033.034-.033 0-.034-.034-.034zm3.675-.202c-.101.033-.135.135-.169.236.203 0 .17-.101.17-.236zm.64.202v.034h.068zm0-.202c-.033 0-.033.033-.033.033 0 .034 0 .034.034.034s.033 0 .033-.034c0 0 0-.033-.033-.033zm-7.046-.135c-.034.101.168.135.168.135.068-.101.405.033.371-.135h-.54zm2.124.067h-.068c0 .034 0 .068.034.068 0 0 .034-.034.034-.068zm-4.013-.135v.068h.135v-.068h-.135zm.641-.067c-.101 0-.236.101-.27.135h.27v-.135zm2.529.067v.068h.202zm30.095 25.289c-1.248 0-3.27.034-3.372.034-1.079 0-1.113-.068-1.113-.405 0-.607.708-.607.708-.776h.607l.135.068h1.383s.168-.135.168-.169c0-.64-.506-.607-.506-.978l-.404-.438v-.135c-.135-.067-.506-.404-.573-.506 0-.539-.675-.337-.675-.944-.573-.741-.472-.472-1.584-1.922 0-.236-.843-1.112-1.046-1.247 0-.101-.37-.978-1.011-1.315.033-.034.033-.068.033-.068 0-.27-1.787-2.326-2.056-2.46 0-.102-.675-1.046-.81-1.114l-.033.034c-.135 0-.27-.64-.506-.64-.101 0-.169 3-.169 3.304 0 .135.034.742.034 1.112v6.17c0 .102.068.776.068.911-.034 0-.034.034-.034.034 0 .135.337.472.438.472h1.45l.101-.034.169.034c.067 0 .135 0 .202-.034.91 0 .944.405.944.91-.067.068-.438.237-.843.237-.067 0-.067-.101-.37-.101-.81 0-1.62.067-2.53.067-.472 0-2.562-.067-4.551-.067l.067-.034h-.236l.034.034c-.236 0-.607.1-.843.1-.068 0-.169 0-.169-.067 0-.033.101-.067.169-.1 0 0-.068-.136-.068-.203-.202.236-.674.236-.876.236h.27a4.474 4.474 0 0 1-.709.101h-.067c.034-.067.135-.067.202-.101h-.404l-.102.101s-.54 0-.54-.135v-.607c.035 0 .507-.337.911-.37 0 .033.034.033.068.033.1 0 .303-.067.438-.067.202 0 .337.067.472.067.304 0 .371-.034.54-.034.1.034.303.101.404.101.304 0 .405-.472.506-.607 0-.134 0-.37-.034-.505 0-.034.034-.304.034-.371 0-.034-.034-.64-.034-.81 0-.134.034-.404.034-.707 0-.439-.067-1.754-.067-5.26 0-.304.033-.776.033-1.046 0-.54-.033-1.382-.033-2.056 0-.27.033-2.26.033-2.327 0-.135-.033-.438-.033-.54 0-.236.033-1.146.033-1.348v-7.35c0-.439-.337-.338-.37-.54-.405 0-.372.067-.574.067h-2.191c-.068-.033-.27-.135-.27-.236v-.404c0-.068.404-.405.607-.405h1.55c.17 0 .304.135.54.135.068 0 1.248-.034 1.754-.135.1 0 .438.067.539.067.135 0 .438.034.674.034.203 0 .405-.034.439-.101 0 0 .54.067.775.067.978 0 2.26-.168 3.406-.168.573 0 1.247.067 1.382.37 0 .743-.236.776-.607.776-.708 0-.742-.067-1.079-.067-.033.034-.1.034-.135.034-.202 0-.54-.068-.843-.068-.64 0-.708.64-.708 1.383 0 .337.034.842.034 1.753 0 .236-.101 1.888-.101 2.798 0 .304 0 .574.067.675a.362.362 0 0 1-.067.202c0 .405 0 .472.067.64 0 .203-.067 3.642.236 3.642.102-.1 1.518-1.382 1.518-1.652.775-.067-.371-.405 1.348-1.517 0-.607.91-.337.91-1.113 2.26-2.293.608-.81 1.855-2.057.742-.236-.708.338 1.518-1.584.134 0 .472-.877.977-1.18.371 0 .843-1.012 1.417-1.45v-.405c-.034-.034-.135-.067-.17-.101h-2.562c-.27 0-.607 0-.607-.337v.033-.033c0-.169.068-.843.81-.843.168 0 .573.1.54.1.201 0 .134 0 .235-.033l1.214.034.067-.101c.135 0 .338.1.675.1.034-.067 2.596-.1 3.034-.1.304 0 .641-.034 1.012-.034.708 0 1.416.101 1.45.64 0 .372-.068.675-.81.675-.471 0-.91-.101-1.483-.101l.101-.034c0-.067 0-.135-.101-.135-.034 0-.034.034-.101.135h-1.147c-.404.135-.404.438-.775.64 0 .54-.607.338-.91 1.147-.203 0-1.147 1.113-1.214 1.349.033 0 .033 0 .033.034 0 .1-1.213.708-1.213 1.247-2.63 2.63-2.36 2.226-2.462 2.563.034.135-1.214.876-1.214 1.416 0 .202.304.506.304.742.101.135.843.708.843 1.011 0 0 .573 1.012 1.45 1.888 0 .034-.034.034-.034.068 0 .202.64.472.843 1.045-.135.101.775.674.843.91 0 .034.202.338.202.338.202 0 1.753 2.191 1.855 2.259 0 .236 1.18 1.146 1.18 1.618 0 .101.64.573.708.776 0 .202.91.775.91 1.18.742.809.405.607.978 1.18.742.236.674 1.753 1.72 1.753h1.989c.303.27.472.337.54.776 0 .573-.506.64-.776.64 0 0-.506-.134-1.012-.134-2.292 0-2.866-.034-5.9-.034zm-11.498-.034-.034.034.034.034c.034 0 .034-.034.034-.034s0-.034-.034-.034zm3.642.034h-.304c0 .034.068.034.135.034.101 0 .169 0 .169-.034zm14.06 0h-.101c0 .034.033.034.033.034.034 0 .068 0 .068-.034zm-24.985-.236c0 .135-.034.202.135.202.067 0 .135-.101.135-.236 0 0-.101-.27-.203-.337-.033 0-.067.202-.067.37zm15.173.135.034.067.135-.067h-.169zm-.236-.068c-.034 0-.034.034-.034.068s0 .067.034.067.034-.034.034-.067 0-.068-.034-.068zm8.8-.1a.073.073 0 0 0-.067.066s.034.034.067.034.034-.034.034-.034c0-.033 0-.067-.034-.067zm-13.622-.102a.073.073 0 0 0-.067.067s.034.034.067.034.034-.034.034-.034c0-.033 0-.067-.034-.067zm-7.418-.101c-.033 0-.067 0-.067.033h.101c0-.033 0-.033-.034-.033zm7.823-.135.101.135c0-.034.034-.068.034-.135h-.135zm-10.25 0v.067l.033-.067h-.033zm.404 0h-.1c0 .034.033.067.033.067a.073.073 0 0 0 .067-.067zm.843 0h-.067c0 .034 0 .067.034.067 0 0 .033-.033.033-.067zm22.288-.101.067.067c.101 0 .101-.034.135-.067h-.202zm1.247-.169c-.033 0-.067.034-.067.068s.034.067.067.067.034-.034.034-.067 0-.068-.034-.068zm-2.562-.37c0 .168.236.202.27.235 0-.236-.17-.236-.27-.236zm-6.002-1.518v.034l.034-.034h-.034zm-13.15-5.934-.034.033c0 .034.034.034.034.034s.034 0 .034-.034zm10.756-3.035v.067h.101v-.067h-.101zm-.27-6.609-.067.068h.337zm.607-.64.034-.068zm.506-.405c-.034 0-.034.034-.034.068s0 .067.034.067.034-.034.034-.067 0-.068-.034-.068zm-.067-.607c-.034 0-.068.034-.068.068s.034.067.068.067v-.135zm1.112-.64c-.034 0-.034.033-.034.033 0 .034 0 .034.034.034s.034 0 .034-.034c0 0 0-.033-.034-.033zm.776-.742a.073.073 0 0 0-.068.067s.034.034.068.034l.033-.034c0-.034-.033-.067-.033-.067zm-.101-.068c-.034 0-.068.034-.068.068s.034.067.068.067.033-.034.033-.067 0-.068-.033-.068zm.876-.742c-.034 0-.067.034-.067.034h.1zm-.775-.168a.073.073 0 0 0-.068.067s.034.034.068.034l.033-.034c0-.033-.033-.067-.033-.067zm-16.455-2.124v.067h.102v-.067h-.102zm1.282-.405c-.068 0-.068.067-.135.135 0 .034.034.034.034.067 0 .102-.54.135-.54.27h.506c.101 0 .135-.202.135-.472zm19.994.405c.034.033.304.067.371.067.304 0 .405-.067.54-.067 0-.068-.068-.169-.135-.169-.169.101-.472.169-.776.169zm-11.261-.068v.068l.067-.068h-.067zm.741-.1c-.067-.035-.168.1-.168.168.202.033.168-.068.168-.169zm12.105-.17c0 .034-.168.203-.168.27v.068c.202-.101.168-.101.168-.338zm-23.299-.067c.068.101.068.169.068.304h.1c0-.338.27-.371.54-.371v-.135c-.27 0-.674-.034-.708.202zm20.905.236c-.034 0-.067.034-.067.034 0 .034.033.034.067.034s.034 0 .034-.034c0 0 0-.034-.034-.034zm-6.07-.37c0 .168-.033.336.102.471 0 0 .135-.472.101-.472h-.202zm5.733-.068c.236 0 .135.067.27.337.1 0 .1-.068.168-.135l.236-.135v-.067c-.135 0-.202 0-.27.067l-.134-.067.135-.068c-.203 0-.27 0-.405.068zm-19.354.067v.202h.034c0-.067 0-.168-.034-.202zm.775 0c0 .068 0 .101.068.135.202 0 .202-.135.202-.135h-.27zm1.383.135h.101v-.067c-.034 0-.067.033-.101.067zm.607-.135c0 .068 0 .101.067.135v-.135h-.067zm17.904-.067.101.202.034-.067c0-.068 0-.135-.034-.203zm-19.152.067c-.033 0-.067.034-.067.068s.034.067.067.067c0 0 .034-.034.034-.067s-.034-.068-.034-.068zm6.98 0c0 .068.135.135.168.135.203-.034.27-.101.27-.135s0-.067-.034-.067c-.1 0-.303.067-.404.067zm-5.024 0c-.034 0-.068.034-.068.068s.034.067.068.067v-.135zm5.9 0 .068.068c.101 0 .169-.068.27-.135-.203 0-.203 0-.338.067zm.607 0c-.033 0-.067.034-.067.068s.034.067.067.067c0 0 .034-.034.034-.067s-.034-.068-.034-.068zm5.699 0c-.034 0-.068.034-.068.034 0 .034.034.034.068.034 0 0 .033 0 .033-.034zm5.867-.135c0 .135.067.203.1.203l.338-.203-.135-.033c-.202 0-.27.033-.303.033zm-5.429.135c0-.034-.034-.034-.034-.034-.033 0-.033 0-.033.034s0 .068.033.068c0 0 .034-.034.034-.068zm.472-.067c-.034 0-.067.033-.067.067s.033.068.067.068.034-.034.034-.068 0-.067-.034-.067zm-1.787 0c0-.034-.034-.034-.101-.034 0 0-.034 0-.034.034s.034.067.034.067c.067 0 .101-.034.101-.067zm3.17-.068c-.034 0-.068.034-.068.068s.034.067.068.067c0 0 .033-.034.033-.067s-.033-.068-.033-.068zm.539 0c-.034 0-.067.034-.067.068s.033.067.067.067c0 0 .034-.034.034-.067s-.034-.068-.034-.068zm.573 0-.067.068h.135zm1.922 0v.068h.202c-.1-.068-.134-.068-.202-.068zm8.684 1.214c-.168 0-.27.101-.404.101-.473 0-1.046-.303-1.046-.505v.033c0-.033 0-.775.843-.775 0 0 1.416.067 1.686.067.776 0 3.507-.067 4.215-.067.27 0 2.495.067 2.765.067.337 0 .741-.034 1.079-.034.607 0 .91.102.91.641 0 .304-.202.337-.303.472-1.35 0-1.585-.067-2.057-.067-.068 0-.607.067-.607.067l-.101.101v.371c.135.169-.135.607.337 1.18-.034.068-.034.101-.034.169 0 .438.776.708.776 1.922-.034 0-.034.034-.034.034 0 .1.303.404.506 1.315.202 0-.135.236.472.977-.034.034-.034.034-.034.068 0 .135.337.472.337.775 0 .068 0 .135-.033.135 0 .068.539.708.539 1.484 0 1.011.91 1.618.91 2.529.135.91.641 1.18.641 1.753.337.067.101.573.472.91a.073.073 0 0 0-.067.068c0 .135.37.472.37.944-.033 0-.067 0-.067.034 0 .134.506.606.506.977.202.607.236.708.303 1.046.135-.034.607.337 1.113-2.057v.034c.034 0 .067-.978.438-1.214.135 0-.236-.27.574-1.855.438-.64.337-1.55.674-1.99 0 .035.169-1.146.472-1.382 0-.168.202-.944.573-1.854 0-.135.573-1.214.573-1.484.068-.033.068-.033.068-.067s-.068-.101-.068-.236c0-.169.068-.371.338-.776.27-.236.27-1.28.539-1.416.169-.809.303-1.011.337-1.146.101.067.068-.843.337-1.248-.1-.202-.303-.236-.472-.236-.337 0-.337 0-.438.068-.236-.101-.472-.101-.742-.101v-.034c-.472 0-.573.135-.876.135-.034-.034-.068-.068-.102-.068-.067 0-.168.034-.27.034-.134 0-.303-.067-.471-.37 0-.776.067-.304.64-.675h6.508c.168 0 .438.067.472.168h-.169c0 .034.068.169.068.169.067 0 .1-.034.168-.068 0 1.012-.708.607-.809.81-.27 0-.944.033-1.045-.135h-.81s-.134.135-.202.27c0 0-.607.674-.607 1.382-.1-.034 0 .506-.438 1.146 0 0 .034.034.034.068 0 .135-.337.573-.337.843 0 .067 0 .101.033.135 0 .067-.27.741-.404.843.033 0 .067.033.067.1 0 .405-.877 2.058-.877 2.462-.033 0-.134.675-.303.81-.135.067 0 .775-.472 1.483 0 .405-.742 1.18-.742 2.225-.034 0-.236.641-.37.742-.068 0-.136-.034-.136-.034 0 .338.034.27.034.54 0 .067-.37.674-.37 1.281v-.034c-.237 0-1.417 3.81-1.383 3.844.067.101-.337.506-.337.978 0 .64-.405.068-.405 1.281 0 .034.034.068.034.102 0 .202-.371.337-.371.843-.135 1.72-.708.708-.708 1.888-.101.404.1 1.146-.877 1.922-.674 0-1.011-1.214-1.011-1.315-.102-.034.067-.439-.506-1.315 0-.034.033-.034.033-.068 0-.168-.337-.472-.337-.876 0-.506-.742-.877-.742-2.091 0-.37-.573-.877-.573-1.281-.067 0-.033-.607-.472-1.315l.034.033c0-.033-.405-.674-.472-1.28 0-.237-.573-.54-.573-1.518a.073.073 0 0 0 .067-.068c0-.236-.607-.708-.607-1.45 0-.438-.708-.944-.708-1.584-.27-.54-.337-.978-.472-1.551.034 0 .034 0 .034-.034 0-.135-.843-2.158-.843-2.326v-.135c0 .033-.405-1.012-.506-1.046-.168 0 .101-.606-.54-1.416 0 0 .034-.033.034-.067 0-.236-.505-.776-.505-1.113 0-.573-.338-1.011-.439-1.517-.135.27.034-.405-.27-.776-.168-.775-.505-.573-.708-.809h-1.28zm11.363 24.412v.101c.067 0 .101 0 .135-.101h-.135zm-.708-.64-.034.033h.068s0-.034-.034-.034zm1.214-.27c-.135 0-.135.235-.169.27.169-.035.169.033.169-.27zm-1.517-1.248c-.034.034-.034.067-.034.101.034 0 .034-.034.067-.067zm5.158-9.441.101.067v-.236c-.067.068-.1.068-.1.169zm.101-.708c-.033 0-.067.034-.067.034 0 .033.034.033.067.033s.034 0 .034-.033c0 0 0-.034-.034-.034zm.17-.405c-.17 0-.17.27-.17.27l.203-.202zm-5.53.135a.073.073 0 0 0-.068.068s.034.033.067.033.034-.033.034-.033c0-.034 0-.068-.034-.068zm-4.89-2.664.068.102.067-.034c-.067-.068-.101-.068-.135-.068zm12.172-2.124c-.033 0-.067.034-.067.034 0 .034.034.034.067.034 0 0 .034 0 .034-.034zm-13.25-.54a.073.073 0 0 0-.068.068s.034.034.067.034v-.101zm13.453-1.483c0-.034-.034-.034-.068-.034s-.033 0-.033.034 0 .068.033.068.068-.034.068-.068zm.708-.674v.033l.067-.033h-.067zm-15.578-2.023c.034 0 .101.1.101.168l.068-.067c0-.135 0-.371-.169-.371 0 .034-.168.135-.168.27l.067.067zm16.218-1.012v.034h.068zm-15.577-1.585c0 .102 0 .135.067.135.034 0 .068-.033.068-.033 0-.034-.068-.102-.135-.169v.067zm-4.62-.202c.034.034.102.135.169.202l.067-.067h-.033s.033 0 .033-.034c0-.067-.033-.1-.236-.1zm18.174.135c-.033 0-.033.034-.033.034 0 .033 0 .033.033.033s.034 0 .034-.033c0 0 0-.034-.034-.034zm-.843-.067c-.033 0-.067.033-.067.067s.034.067.067.067c0 0 .034-.033.034-.067s-.034-.067-.034-.067zm.708 0v.067l.034.034c.034 0 .034-.034.068-.101h-.102zm5.564 0-.034.033c0 .034.034.034.034.034.034 0 .034 0 .034-.034 0 0 0-.033-.034-.033zm-1.08 0s-.033-.034-.066-.034l-.034.034c0 .033.034.067.034.067a.073.073 0 0 0 .067-.067zm-17.97-.068c-.034 0-.068 0-.068.034 0 0 .034.034.067.034s.034-.034.034-.034c0-.034 0-.034-.034-.034zm-.978-.135c-.034.034-.068.068-.068.101l.034.034c.034 0 .101-.034.168-.067zm-1.821 0 .033.068c.068 0 .102.033.135-.068l-.135-.067zm1.45 0c-.034 0-.034.034-.034.068s0 .067.034.067.033-.034.033-.067 0-.068-.033-.068zm3.81 0 .067.068v-.068h-.067zm2.765.068c0-.034-.034-.034-.068-.034s-.067 0-.067.034.033.067.067.067.068-.034.068-.067zm1.079-.169c-.034.135.067.202.1.169 0-.101.034-.169-.1-.169zm10.047-.101c-.168 0-.168.169-.168.27h.54c-.135 0-.237-.203-.372-.27zm1.754-.068c0 .034-.034.135-.034.237 0 .067.034.1.068.1l.1-.134v.034c0-.034-.067-.237-.134-.237zm-21.68.27c0-.033-.034-.033-.068-.033 0 0-.034 0-.034.033s.034.068.034.068a.073.073 0 0 0 .067-.068zm9.508-.168c-.068.067-.068.1-.068.168.068-.033.068-.1.068-.168zm12.509-.034s0 .101.067.101c.169-.034.135-.135.135-.27-.168.034-.202 0-.202.169zm-6.002-.068c-.067.068-.067.135-.067.135 0-.033.067 0 .067-.135zm10.202 24.277c.168-.472.27-.573.64-.573 1.113 0 1.349.101 2.158.101.304 0 .438-.27.573-.438l-.067-5.193c0-.067.067-.168.067-.236 0 .034-.067-.472-.067-.607 0-.033-.034-.674.067-.977 0-.034-.067-.135-.067-.203v-2.394c.067-.067.067-.168.067-.236 0-.202-.067-.303-.067-.472 0 0-.101-8.092-.101-10.722l.067-.135v-1.585c-.236-.337-1.011-.1-1.113-.27l-.202.068v.034c-.067 0-.27-.101-.64-.101-.068 0-.405.067-.473.135-.539 0-.91.1-.91-.607 0-.27.169-.641 1.281-.641.135 0 .439.067.641.067.135 0 1.888-.067 1.922-.067.236 0 .64.101.775.101.135.034 1.889-.135 2.698-.135.101 0 .067.304.303.304 0 0 .034 0 .034-.034s-.034-.101-.034-.169c.371 0 .742-.1 1.282-.202.033.034.168.068.134.101.034 0 .102-.067.102-.135.033 0 .202.034.27.102.168-.034.606-.135.64-.135 1.315 0 1.382.607 1.382.944 0 .168-.236.506-.404.506-.675 0-1.956-.169-2.26-.169-.269 0-.404.438-.438.64l.034 11.296c0 .169-.034.64-.034.708 0 .034.034-.034.034.506 0 1.18-.034 1.652-.034 2.293 0 .91.034.809.034 1.045v3.911c0 .169-.101 2.833.405 2.934.067 0 1.281.033 1.854-.034l.068-.067h.607c.37.168.438.505.438.64 0 .169-.27.573-.371.573-1.585 0-4.012.102-4.35.102 0 0-1.011-.068-1.517-.068-1.483 0-3.372.101-4.45.101-.877 0-.978-.27-.978-.607zm.708.405c0-.034-.034-.034-.068-.034s-.067 0-.067.034.033.067.067.067.068-.033.068-.067zm.202-.068c.135 0 .202.068.337.068.068 0 .169 0 .27-.068-.236 0-.304-.236-.405-.27-.033 0-.202 0-.202.203v.067zm.674 0c-.033 0-.067.034-.067.068s.034.067.067.067c0 0 .034-.033.034-.067s-.034-.068-.034-.068zm.843-.067.068.067c.168 0 .202 0 .27-.067l-.068-.034c-.303 0-.202 0-.27.034zm7.25-.27c-.203.068-.169.135-.169.337.169-.067.135-.168.202-.337h-.033zm1.146 0c-.236 0-.236.236-.27.337h.405c0-.236-.068-.337-.135-.337zm-2.529.236-.101.034c0 .034 0 .034.034.034zm.405.034-.068-.034zm2.529-.337v.202c.1.034.168-.135.168-.202h-.168zm-10.723-.202c-.236 0-.236.236-.236.337.135-.101.337-.068.371-.135 0-.034.034-.202-.135-.202zm2.53.236.067.1v-.1h-.068zm-1.99-.169v.067l.067-.067h-.067zm9.44-.067c0 .033-.033.033-.033.067s.034.034.101.067l.068-.067-.068-.135a.073.073 0 0 0-.067.068zm.54.067c.034.067.101.067.169.067 0-.033-.034-.1-.034-.168zm-7.283-.438c-.033.033-.033.033-.033.067s.1.034.168.034v-.101h-.135zm3.979-21.748c-.034 0-.068 0-.068.033h.102c0-.033 0-.033-.034-.033zm1.72-1.821c-.034 0-.068.034-.068.067s.034.068.068.068.033-.034.033-.068 0-.067-.033-.067zm-9.273-.304a.073.073 0 0 0-.067.068s.033.034.067.034.034-.034.034-.034c0-.034 0-.068-.034-.068zm1.922-.168a.073.073 0 0 0-.067.067s.033.034.067.034v-.101zm.472 0c0 .034-.034.034-.034.034 0 .033.034.033.102.067v-.101h-.068zm-2.124-.034c-.135 0-.101.034-.101.101.067 0 .135 0 .168-.067zm14.652 24.951v-.168c.067-.068-.034-.64.708-.64.573 0 .674.033.978.033.674 0 1.18-.034 1.281-.202v-2.866c0-.068-.034-.304-.034-.338l-.033.034c-.068-.067.067.304.067-.91 0-2.53-.034-3.473-.034-4.316 0-.54 0-1.585.068-2.462 0-.067-.135-.505-.135-1.348 0-.405.101-.405.101-.607 0-.54-.034-1.045-.034-1.45 0-.708.034-1.248.034-2.023 0-.202.506-.169.607-.27 0 0 0-.169-.303-.169 0 0-.102 0-.203.135-.033 0-.067-.033-.1-.135v-5.698c0-.438-.102-.708-.54-.708-.641 0-.776.101-1.922.101-.91 0-.371-.135-.877-.438 0-.81 2.529-.573 3.237-.674h-.101c0 .033 1.955.134 1.955.134.068 0 .135.034.203.034.404 0 .573-.168.876-.168.135 0 .27.033.439.033.1 0 .37-.033.54-.033.404 0 1.618.033 1.989.033.27 0 .472-.1 1.011-.1.169 0 3.102.067 3.473.067.674 0 1.787.337 2.697.337 1.282.135.506.303 1.788.607-.034 0-.068-.034-.068-.034 0 .034.944.54.944.64.405.102 1.012.945 1.315 1.214l-.034-.033s.91 1.281.91 2.427c0 1.248 0 1.315-.269 2.158 0 .574-.775 1.585-2.124 2.731-.169-.067-.371.574-.978.574.101-.337-.169.438-1.113.505-.033-.033-.067-.033-.067-.033-.169 0-.405.303-.54.303-1.28.337-1.854.203-1.854.708 0 0-.067.27.202.27.371-.067.978.54 1.18.54.708 0 .843.64 1.417.64.606.27.842.472 1.584 1.248.742 2.191 1.315 1.011 1.315 2.663 0 .91.304 1.551.304 2.462 0 .135-.068.708-.068 1.888.068.438.101 1.315.236 1.45v-.068c0 .034-.1 1.113 1.08 1.113.809 0 1.18-.101 1.415-.101 0 0 .034.034.068.034.067 0 .236-.068.37-.068s.27.034.338.169h-.236c0 .168.101.168.101.236.068-.034.101-.101.135-.101h.034v.438c-.101 0-.101-.101-.101-.236-.068.034-.102.034-.27.101 0 .068.033.135.27.236-.135.068-.17.236-.338.236v-.034s-.168.338-1.18.338c-.37 0-2.663-.135-3.27-.169 0 .034 0 .034-.034.034-.27 0-.91-.675-1.45-.675h.034c0-.134-1.518-.843-1.551-1.483l.033.034c0-.034-.337-.338-.337-.439 0-.067.034-.27.034-.472 0-.101-.101-.101-.27-.168-.236-5.496-.742-7.014-1.247-7.755-.101.37.135-.405-.641-.776 0-.236-1.045-.607-1.012-.742-.067 0-.134.034-.168.034-.708 0-.674-.674-1.82-.674h-1.822c-.37.775-.37 1.753-.37 2.225 0 .101 0 .877.067.944 0 .034-.034.135-.101.472 0 .101.067.506.067.776v-.034c0 .202-.034.944-.034 1.18 0 .438.034.54.034.843v3.911c0 .068.068.27.068.337 0 .102-.068.304-.068.439 0 .438.068.505.068.674-.034.034-.068.034-.068.068 0 .1.472.168 1.383.168.033 0 .708-.067.741-.067.945 0 .945.067 1.147.337 0 .607-.135.708-.236.708-.034 0-.068-.034-.135-.169-.169 0-.202 0-.202.034.27.304-3.271.304-3.642.304h.068s-1.147-.034-1.585-.135c-1.349.135-3.675 0-4.62.337-.404 0-.775 0-.775-.54zm20.804.203c-.034 0-.068.033-.068.067s.034.068.068.068c0 0 .034-.034.034-.068s-.034-.067-.034-.067zm.91-.304c-.236 0-.168.135-.27.304 0 0 .034.033.068.033.101 0 .202-.168.202-.337zm-19.96.202c-.068 0-.17 0-.237.034.068 0 .169 0 .236-.034zm.067 0v.034h.067zm1.214.034-.034-.034c-.034 0-.034.034-.034.034 0 .034 0 .068.034.068 0 0 .034-.034.034-.068zm.64-.067c-.034.033-.067.033-.067.067.033 0 .1 0 .135-.034zm5.226-.068v.101h.203c-.068-.067-.101-.1-.203-.1zm1.315.068c-.033 0-.067.033-.067.033s.034.034.067.034.034-.034.034-.034 0-.033-.034-.033zm11.633-.27c-.034.101.135.27.135.303.169 0 .169 0 .27-.033-.101-.304 0-.371-.27-.506-.101.067-.135.034-.135.236zm-13.42.202-.067.068h.067v-.068zm2.26-.607c0 .304.202.304.202.54h.067v-.371c-.033-.067-.1-.135-.27-.169zm-10.116.068v.101c0-.034.034.303.236.303.034 0 .101-.067.169-.134-.034.033-.27-.27-.371-.27h-.034zm.573.337c0-.034-.033-.034-.033-.034-.034 0-.034 0-.034.034 0 0 0 .034.034.034zm7.35-.067c-.033 0-.033.033-.033.033 0 .034 0 .034.034.034s.034 0 .034-.034c0 0 0-.033-.034-.033zm1.046-.102v.169c.068-.034.135-.067.169-.135-.068-.034-.101-.034-.169-.034zm-8.969-.404c-.034 0-.034.034-.034.067s0 .068.034.068.034-.034.034-.068 0-.067-.034-.067zm15.544-.877c.034.068.067.169.067.169.034 0 .034 0 .034-.034v-.135h-.1zm-9.407-.91.135.067c.067-.033.067-.1.067-.168-.101 0-.135.033-.202.1zm7.99-1.349c.035 0 .035.034.035.068 0 0 0 .033-.034.033s-.034-.033-.034-.033c0-.034 0-.068.034-.068zm.406-.034c.033.034.067.034.134.034-.067-.034-.1-.034-.134-.034zm-11.7-3.506c-.034 0-.068.033-.068.067s.034.068.067.068.034-.034.034-.068 0-.067-.034-.067zm-.27-.877c-.034 0-.068.034-.068.067s.034.068.068.068.033-.034.033-.068 0-.067-.033-.067zm11.261-4.046c-.033 0-.067.034-.067.034 0 .033.034.067.067.067 0 0 .034-.034.034-.067zm-8.058-.573v.135l.034.033c.1 0 .236-.135.236-.168h-.27zm.067-.337c0 .033-.033.033-.033.033 0 .034.033.034.134.034 0 0 .034 0 .102-.034-.034-.1 0-.135-.102-.27-.033 0-.134.203-.1.237zm1.416-2.9v1.72c0 .573.338.674.641.842 5.361-.135 5.361-.876 5.867-1.382-.034 0-.034-.034-.034-.034 0-.168.506-.506.506-.742h-.034c0-.134.708-1.247.708-2.697 0-3.44-.944-4.08-1.079-4.788 0-.034-1.011-.91-2.191-.91-.742 0-.91.067-1.18.067h-2.53c-.707 0-.438.337-.64.708v2.664l.068.168c0 1.315-.135 2.53-.135 3.71 0 .067 0 .168.1.27 0 .067-.067.168-.067.404zm-4.417-.742c-.033 0-.067.034-.067.034h.101s0-.034-.034-.034zm-.1-.169c-.034 0-.034.034-.034.068 0 0 0 .034.033.034l.034-.034c0-.034-.034-.068-.034-.068zm.1-.168a.073.073 0 0 0-.067.067s.034.034.067.034.034-.034.034-.034c0-.033 0-.067-.034-.067zm-.27-1.956v.169h.068c0-.068 0-.135-.067-.169zm15.207-3.911c.034.067.135.067.169.067v-.202c-.101 0-.169 0-.169.135zm-2.562-1.146c-.034 0-.068.033-.068.067s.034.034.068.034.034 0 .034-.034 0-.067-.034-.067zm-13.96-.237a.428.428 0 0 0 .203.034l-.135-.1zm3.271 0v-.033c-.033 0-.033 0-.033.033s0 .034.033.034v-.034zm7.89-.067.135.067c.169 0 .169-.067.169-.236 0-.033-.034-.033-.169-.033-.067 0-.135 0-.135.202zm-3.439-.202c0 .067-.034.202.068.202.033-.034.067-.135.1-.202h-.168zm4.72.135c-.033 0-.067.033-.067.033 0 .034.034.034.068.034s.033 0 .033-.034c0 0 0-.033-.033-.033zm-11.936-.135v.067c0-.034.102.068.17-.067h-.17zm8.7 0c-.068 0-.101.033-.135.067h.135v-.067zm-11.026 0h.843-.843zm27.161 25.22c-.37 0-.37.034-.607.034-.067 0-.37-.27-.472-.37 0 0 .068-.506.068-.607 1.214-.102 2.09-.135 3.034-.236.102 0 0-.641.371-.641v-.54a.104.104 0 0 0 .068.034c.202 0 .168-.944.438-1.011 0-.068.135-1.214.472-1.484l.169-.64s1.146-3.912 1.584-3.912c.034 0 .102.034.135.034.169 0 .203-.068.203-.135 0-.303-.27-.169-.27-.405 0-.607.607-1.753.674-1.82.034-1.383.54-1.046.54-1.922v.033c.033 0 .303-.843.438-.944 0 .068.034.068.034.068s-.034 0-.034-.034c0-.202.674-1.585.674-1.956.169 0 .203-.033.203-.1s-.034-.136-.034-.237c0-.202.067-.404.303-.674v.034c.068 0 .034-.742.304-.742l.135-.64.202-.17v-.539l.27-.202v-.573s.202-.068.202-.135c-.034 0-.067-.068-.067-.101 0-.439.843-1.72.843-2.597l.168-.135v-.54c0 .035.034.035.034.035.472 0-.169-1.956 1.585-1.956.135 0 .741.37.741.877.135.135-.134.472.473 1.584.033 0 .842 2.192.842 2.765.304 0 .102.675.877 2.293.202.91.573.877.573 1.281v-.033s.169 1.079.304 1.079h-.034c0 .134.81 1.011.81 2.056.202.978.539.574.539 1.417l-.034-.034c0 .067.54.775.54 1.214-.034 0-.068 0-.068.033 0 .135.371.607.371.776 0 .034-.034.034-.034.067 0 .068.337.337.337.944.135 1.18.709 1.248.709 1.99-.034.067-.068.1-.068.135 0 .168.54.168.54.944 0 1.922 1.315 2.36 1.315 3.709.134 1.079.775 1.45.876 1.517h2.192c.135 0 .337.101.438.169v.606c-.135.068-.236.203-.775.203-.068 0-1.686-.068-2.36-.068-.304 0-.574.068-.843.068-.034 0-.574-.068-.641-.068-1.82 0-2.967.102-3.675.102-.034 0-.034-.102-.574-.102-.27 0-.337 0-.472.068-.168 0-.303-.068-.37-.169-.068 0-.203.034-.203.034l.068.067-.068.068c-1.112 0-1.214 0-1.45-.203l.068-.573c0-.067.236-.202.37-.202h2.53c.033.034.27-.169.27-.337 0-.068-.54-.776-.54-1.18.067-.034.067-.034.067-.101 0-.17-.573-.607-.573-1.484.034 0 .034 0 .034-.034 0-.067-.371-.337-.371-.607 0-1.214-.54-1.214-.54-2.124v.034c-.067 0-.37-.843-.674-.843-2.26 0-4.653.067-7.384.067 0 .135-.27.203-.27.573-.506 1.113-.573.945-.573 1.484-.405.27.034.472-.438 1.045-.27 1.855-.641.81-.641 2.057v-.034c-.068 0-.371.877-.405.877 0 .54.135.54.337.674h2.698c.168 0 .506.034.506.439s-.102.607-.708.607c-.102 0-.236-.068-.405-.068-.371 0-.506.068-.674.068-.068 0-.236-.068-.27-.068h-2.394c-.068.068-.135.068-.202.068a.718.718 0 0 1-.405-.135s.067-.068.067-.135h-.1c-.068 0-.102 0-.102.067l.034.068c-.034.135-.068.135-.27.135 0-.439 0-.338.101-.472-.034-.135.034-.304-.067-.371 0 .236-.101.404-.304.54 0 .067.101.134.169.168-.135 0-.506.168-.573.27-.607 0-.54-.135-.91-.135zm-.27-.27v.068h.17c-.102-.067-.136-.067-.17-.067zm.574.068c0-.033-.034-.033-.068-.033s-.067 0-.067.033.034.068.067.068.068-.034.068-.068zm.202-.067c-.034 0-.067.034-.067.067s.033.068.067.068.034-.034.034-.068 0-.067-.034-.067zm.742-.068c-.202 0-.472.068-.54.135.574 0 .405-.033.54-.135zm1.113.034c0 .034.27.068.303.101l.067-.067c-.168-.034-.337-.034-.37-.034zm2.495.034c.438 0 1.112.067 1.281.067-.37 0-.37-.37-.405-.54.034 0-.27.068-.27.27-.067 0-.033-.202-.303-.202 0 .236-.135.304-.303.405zm1.55 0 .068.067c.034 0 .236-.067.304-.067h-.371zm-4.652-.034a.073.073 0 0 0-.068.068s.034.033.068.033.033-.033.033-.033c0-.034 0-.068-.033-.068zm2.663.034s-.067-.034-.1-.034c-.068 0-.068.034-.068.034 0 .034 0 .067.067.067.034 0 .101-.033.101-.067zm8.295-.068c.034.034.135.068.169.068s.202-.034.27-.068v-.404s-.068-.034-.102-.034c-.303 0-.337.068-.337.202v.236zm9.137.034c.102 0 .135.034.304.034.034 0 .202-.034.303-.034h-.607zm1.619 0v.034l.034-.034h-.034zm-9.812-.034-.067.034.1.034zm2.529 0c-.034 0-.068.034-.068.034s.034.034.068.034.034-.034.034-.034 0-.034-.034-.034zm4.62 0c.033.034.067.034.168.034h.64a.737.737 0 0 0-.168-.1c-.068.066-.169.066-.202.066-.304 0-.236-.236-.304-.236zm-21.614-.236c0 .203 0 .17.068.236h.438v-.573c-.472.236-.506.135-.506.337zm7.115.068v.168c.067 0 .1-.067.1-.067-.033-.202-.134-.202-.134-.37-.135 0-.202.067-.202.1.033.068.067.169.236.169zm16.488.101c-.034 0-.034.034-.034.067s0 .034.034.034.033 0 .033-.034 0-.067-.033-.067zm-22.693-.37c0 .269-.033.336-.1.37.202 0 .37 0 .37-.202s-.034-.169-.27-.169zm3.575.303v.067h.067zm.606-.135.068.033v-.1zm2.192-.236c0 .033 0 .1.034.1 0 0 .135 0 .135-.1 0-.068-.068-.068-.135-.101-.034.033-.034.067-.034.1zm15.41.067c0 .034.067.034.1.034 0-.169 0-.169-.067-.202 0 0-.034.1-.034.168zm1.483-.236c-.169.034-.135.101-.135.27l.27-.169c0-.033-.102-.067-.135-.1zm-2.563.101c-.034 0-.067.034-.067.034 0 .034.033.034.067.034s.034 0 .034-.034c0 0 0-.034-.034-.034zm-18.51-.1v.1l.067-.1h-.068zm.1-.507c0 .034.034.506.337.506-.067-.034-.168-.337-.168-.506l.067-.202-.067-.067c-.135 0-.169.202-.169.27zm1.248-1.584c-.101.067-.236.27-.236.54a.104.104 0 0 0 .067.033c.135 0 .169-.202.203-.304 0-.033-.034-.303-.034-.27zm-.169-.877c0-.034-.033-.034-.033-.034-.034 0-.034 0-.034.034s0 .034.034.034c0 0 .033 0 .033-.034zm.944-2.428c-.033 0-.067.034-.067.034s.034.034.067.034l.034-.034zm9.576-.472c-.034 0-.034.034-.034.068s0 .067.034.067.034-.034.034-.067 0-.068-.034-.068zm-9.272-.27c-.034 0-.034.034-.034.068s0 .067.034.067.034-.033.034-.067 0-.068-.034-.068zm0-.708c-.034 0-.034.034-.034.034 0 .034 0 .034.034.034s.034 0 .034-.034c0 0 0-.034-.034-.034zm1.55-1.382c.102.405.136.438.372.573.404 0 1.517-.067 4.585-.067.27 0 .405.1 1.08.1.336 0 .674-.1.674-.471 0-.169-.439-.81-.439-1.147h.034c0-.067-.37-.37-.37-.741 0-1.248-.641-1.113-.641-1.889a.104.104 0 0 1 .033.068c-.033 0-.64-1.113-.64-1.753 0-.439-.607-1.08-.607-1.821h.033c0-.068-.37-.405-.37-.81-.304-.707-.338-.64-.607-.64-.978 2.326-.91 2.36-1.214 2.933 0-.067-.034 1.08-.472 1.248v-.067c-.034 0-.371 1.921-.708 2.225 0 .438-.742 1.011-.742 2.259zm-.674-.944c-.033 0-.067.034-.067.067s.034.068.067.068.034-.034.034-.068 0-.067-.034-.067zm.776-2.225a.073.073 0 0 0-.067.067s.033.034.067.034v-.101zm1.416-1.99v.034h.034zm-.135-.54a.073.073 0 0 0-.067.068h.101c0-.034 0-.067-.034-.067zm.135-.876c-.034 0-.067.034-.067.034 0 .033.033.067.067.067 0 0 .034-.034.034-.067zm.91-2.293c0-.034-.033-.034-.033-.034-.034 0-.034 0-.034.034s0 .068.034.068c0 0 .034-.034.034-.068zm.102-.1h-.034c0 .033.034.033.034.033s.033 0 .033-.034h-.033zm3.675-2.361c-.034 0-.034.034-.034.067s0 .068.034.068.034-.034.034-.068 0-.067-.034-.067zm-.64-4.687s-.034.034-.034.067h.067c0-.033 0-.067-.034-.067zm-.877-.067c-.034 0-.034.033-.034.067s0 .067.034.067.033-.033.033-.067 0-.067-.033-.067zm.27 0 .134.067c.27 0 .169 0 .27-.067l-.101-.135c-.135 0-.203.135-.304.135z" fill="#850105"/>
</svg>
