<svg width="318" height="68" viewBox="0 0 318 68" fill="none" xmlns="http://www.w3.org/2000/svg">
<path d="M19.0768 15.1383C19.0647 15.3828 19.0537 15.6261 19.0427 15.8706C19.0437 15.9458 19.0317 16.0207 19.0074 16.0919C18.9471 16.2041 18.8592 16.2989 18.752 16.3673C18.4115 16.6222 18.1652 16.9838 18.0519 17.395C17.9572 17.8076 18.0706 18.2799 18.3976 18.5476C18.515 18.6376 18.6452 18.7092 18.784 18.76C19.2518 18.9458 19.789 19.0188 20.2547 18.8275C20.7204 18.6361 21.077 18.1317 20.9835 17.635C20.969 17.5662 20.9506 17.4982 20.9284 17.4315L20.7864 16.9746C20.7766 16.9173 20.7548 16.8628 20.7226 16.8146C20.6903 16.7664 20.6483 16.7255 20.5993 16.6947C20.4606 16.635 20.2987 16.7567 20.2547 16.9027C20.2263 17.0528 20.2362 17.2077 20.2833 17.3529C20.3319 17.4964 20.3319 17.6519 20.2833 17.7954C20.24 17.882 20.1707 17.9528 20.0852 17.9978C19.9715 18.0606 19.8409 18.0854 19.7123 18.0685C19.5837 18.0516 19.4638 17.9939 19.3701 17.9039C19.2763 17.8138 19.2135 17.6961 19.1909 17.5678C19.1682 17.4395 19.1869 17.3072 19.2441 17.1903C19.3542 16.9569 19.6063 16.8186 19.7417 16.5963C19.833 16.428 19.8828 16.2403 19.887 16.0487C19.9079 15.7899 19.8969 15.5122 19.7527 15.2965C19.69 15.2046 19.602 15.1331 19.4995 15.0907V14.583L19.7571 14.5963L42.9644 5.69028L42.6815 18.6737L45.0197 18.2091L46.9704 17.8341V0.356192L45.0164 0L17.6875 12.6626V14.4978L19.0768 14.5675V15.1383Z" fill="#FFD412"/>
<path d="M45.1919 19.3352L40.9646 20.3507C40.304 20.5144 39.8461 26.1771 40.1235 26.1859L43.3865 26.4337C46.2014 26.7445 45.7258 28.8817 46.7386 28.9304H47.2406C47.4193 28.9364 47.5944 28.8791 47.7353 28.7685C47.8761 28.6579 47.9738 28.501 48.0112 28.3253C48.4967 25.4558 48.1213 22.6339 46.5613 19.8751C46.3048 19.4215 45.7313 19.1981 45.1919 19.3352Z" fill="#FFD412"/>
<path d="M51.5606 39.3055L55.7362 39.0843C55.8392 39.0783 55.94 39.0513 56.0324 39.005C56.1248 38.9587 56.2069 38.894 56.2737 38.8149C56.3405 38.7358 56.3906 38.6438 56.421 38.5447C56.4515 38.4455 56.4615 38.3412 56.4506 38.238L56.3405 37.1186C56.3225 36.9299 56.2354 36.7547 56.096 36.6269C55.9567 36.4991 55.7751 36.428 55.5864 36.4272H51.5232C51.4231 36.4276 51.3241 36.4478 51.2319 36.4867C51.1396 36.5256 51.0559 36.5823 50.9854 36.6537C50.915 36.7251 50.8593 36.8098 50.8214 36.9028C50.7835 36.9958 50.7642 37.0955 50.7647 37.196V38.5411C50.7647 38.6445 50.7856 38.7468 50.8261 38.8419C50.8665 38.9369 50.9257 39.0228 51.0001 39.0942C51.0745 39.1656 51.1625 39.2212 51.2588 39.2575C51.3551 39.2938 51.4578 39.3101 51.5606 39.3055Z" fill="#FFD412"/>
<path d="M67.9463 38.4072C68.0564 38.3929 68.1478 38.0754 68.1533 37.7103L68.1676 36.7756C68.1676 36.4437 68.1038 36.1959 68.0091 36.1915L67.0183 36.1517C66.9159 36.1517 66.8191 36.4305 66.8036 36.7844L66.753 37.9039C66.7365 38.2701 66.8235 38.4648 66.9302 38.4493L67.9463 38.4072Z" fill="#FFD412"/>
<path d="M69.0078 21.8375C67.9751 20.7579 65.4112 20.0776 62.2837 20.0455C62.1353 19.9436 61.9702 19.8687 61.796 19.8243C57.8681 18.811 54.1142 18.2922 50.4395 18.0023C50.9954 18.2331 51.5007 18.5713 51.9268 18.9979C52.5014 19.5886 52.8075 20.3055 52.7943 21.0156C52.7932 21.0439 52.7899 21.072 52.7844 21.0997C52.9247 21.1793 53.0421 21.2941 53.1251 21.4329C53.2081 21.5718 53.2538 21.7298 53.2577 21.8917V24.8353C53.2577 25.3674 52.7667 25.7988 52.1569 25.7988C51.547 25.7988 51.056 25.3674 51.056 24.8353V21.8884C51.0629 21.6967 51.1265 21.5114 51.2387 21.3562C51.3508 21.2009 51.5064 21.0828 51.6857 21.0167C51.6857 21.0068 51.6857 20.9979 51.6857 20.988C51.6956 20.572 51.504 20.1495 51.1352 19.7712C50.3977 19.0145 49.124 18.5776 47.6367 18.5709C48.8263 21.955 50.307 25.2284 52.0622 28.3541C52.4387 28.9537 53.174 29.3597 54.0151 29.4316C59.5888 29.9017 63.2623 30.1329 66.7664 29.8918C67.1253 29.8674 67.3873 29.6075 67.33 29.3265C66.1103 26.3707 65.0656 23.6296 63.0433 20.9548C66.0277 21.0886 67.7704 21.8198 68.3769 22.4559C68.4122 22.4904 68.4449 22.5274 68.4749 22.5665C68.3844 22.7181 68.3375 22.892 68.3395 23.0687V25.4493C68.3395 25.8796 68.596 26.2236 68.912 26.2236C69.2279 26.2236 69.4844 25.8752 69.4844 25.4493V23.0732C69.4935 23.0418 69.4987 23.0095 69.4998 22.9769C69.5064 22.7037 69.4305 22.28 69.0078 21.8375Z" fill="#FFD412"/>
<path d="M66.2536 35.6293C66.2657 35.4235 66.0334 35.2521 65.7527 35.2532L57.8628 35.2764C57.57 35.2764 57.3355 35.4512 57.3399 35.6636V35.6713C57.3399 35.8793 57.5821 36.0463 57.8705 36.0441L65.7604 35.9822C66.0257 35.9822 66.2415 35.8284 66.2536 35.6359V35.6293Z" fill="#FFD412"/>
<path d="M66.2014 36.8815C66.2146 36.6602 65.9603 36.4689 65.651 36.4744L57.957 36.6237C57.6411 36.6293 57.3901 36.8195 57.3956 37.0485V37.0574C57.3956 37.2908 57.6708 37.4766 57.9945 37.4678L65.684 37.2631C65.9658 37.2554 66.1915 37.0927 66.2036 36.8892L66.2014 36.8815Z" fill="#FFD412"/>
<path d="M65.7582 34.0401L57.8672 34.0125C57.5743 34.0125 57.3377 34.1839 57.3399 34.3952V34.403C57.3399 34.612 57.5765 34.7802 57.865 34.7802L65.756 34.7702C66.0213 34.7702 66.2392 34.6187 66.2524 34.4273V34.4196C66.2635 34.2138 66.0433 34.0412 65.7582 34.0401Z" fill="#FFD412"/>
<path d="M65.6317 37.728L57.9443 37.9957C57.6284 38.0067 57.3829 38.2003 57.3939 38.4293V38.4381C57.4071 38.6715 57.6823 38.853 58.0049 38.8397L65.6878 38.5156C65.9685 38.5034 66.1898 38.3375 66.1953 38.1339V38.1262C66.203 37.8994 65.9443 37.7169 65.6317 37.728Z" fill="#FFD412"/>
<path d="M67.1835 40.1659L68.2282 40.1117C68.2088 39.8016 68.122 39.4995 67.9739 39.2267L49.3022 40.2223C48.4215 40.2223 46.3365 40.2223 45.5879 39.177C45.0991 37.4801 44.498 35.6637 43.2761 35.6637L39.3845 35.7345C39.2654 35.7367 39.147 35.715 39.0363 35.6706C38.9256 35.6263 38.8248 35.5602 38.7398 35.4763C38.6548 35.3923 38.5874 35.2922 38.5414 35.1817C38.4954 35.0713 38.4718 34.9527 38.4719 34.8329L38.4785 33.9579L38.4653 27.0442H34.707L34.7785 21.7267C34.784 21.401 34.8994 21.0868 35.1058 20.8356C35.3122 20.5844 35.5974 20.4111 35.9146 20.3439L39.1247 20.1061C39.2612 19.3539 39.4418 19.4114 41.8868 18.9413L35.3091 19.1625C34.8159 19.2267 34.3107 19.563 33.9342 20.0032L33.9881 16.8517C33.9887 16.8298 33.9849 16.8081 33.9771 16.7878C33.9693 16.7674 33.9575 16.7488 33.9424 16.733C33.9274 16.7173 33.9093 16.7047 33.8894 16.696C33.8695 16.6873 33.848 16.6827 33.8263 16.6824C33.7826 16.6818 33.7404 16.6986 33.7089 16.729C33.6773 16.7594 33.659 16.8011 33.6578 16.845L33.5951 20.4955C33.4557 20.743 33.3705 21.0176 33.3452 21.3008L32.3764 33.8152L5.5 36.5398V38.4513H10.4891L10.106 39.8528L11.7045 39.7887C11.5713 40.1084 11.4953 41.0309 11.4953 42.0509C11.4953 43.761 12.2152 45.979 13.1697 45.979L43.155 47.8739C50.2754 48.2788 57.6544 47.6914 65.2262 46.3639C65.2553 46.3599 65.2819 46.3449 65.3005 46.3221C65.3192 46.2992 65.3285 46.2701 65.3267 46.2406C65.3249 46.211 65.3121 46.1833 65.2908 46.1629C65.2695 46.1425 65.2413 46.1309 65.2118 46.1305L59.8066 45.8208C61.0374 45.8208 62.1283 43.5597 62.1724 42.1261L67.9717 41.6681C68.0786 41.3644 68.156 41.051 68.2029 40.7323L67.2121 40.7843C67.1707 40.7865 67.1293 40.7802 67.0904 40.7658C67.0515 40.7513 67.016 40.7289 66.9861 40.7001C66.9562 40.6713 66.9324 40.6366 66.9164 40.5981C66.9004 40.5597 66.8924 40.5184 66.8929 40.4767V40.4701C66.8933 40.3916 66.9238 40.3164 66.9778 40.2598C67.0319 40.2032 67.1055 40.1696 67.1835 40.1659ZM13.2225 44.3152C12.715 44.3152 12.3044 43.3009 12.3044 42.0497C12.3044 40.7986 12.715 39.7843 13.2225 39.7843C13.4427 39.7843 13.6497 39.9812 13.8093 40.3086C13.5363 40.365 13.3194 41.1217 13.3194 42.0497C13.3194 42.9778 13.5396 43.7345 13.8093 43.7909C13.6497 44.1183 13.446 44.3152 13.2225 44.3152ZM17.5324 44.7577C17.9023 44.3274 18.1236 42.7555 18.1236 42.1748H23.2822C23.2547 43.1427 23.6334 43.7776 24.1343 44.3119L17.5324 44.7577ZM28.5499 44.4956C29.1564 44.4956 29.5869 42.9303 29.5869 41.8683L38.6668 41.9048C38.5247 42.8805 38.6381 43.6559 38.8528 44.7577L28.5499 44.4956ZM51.0526 41.5088C51.0524 41.4306 51.0822 41.3554 51.1356 41.2986C51.1891 41.2418 51.2622 41.2078 51.3399 41.2035L55.8446 40.9679C55.8858 40.9656 55.9271 40.9719 55.9658 40.9862C56.0045 41.0005 56.0399 41.0227 56.0698 41.0513C56.0997 41.0799 56.1235 41.1143 56.1397 41.1525C56.1558 41.1906 56.1641 41.2317 56.1639 41.2732V41.3329C56.1638 41.4104 56.1343 41.4849 56.0816 41.5414C56.0289 41.5979 55.9568 41.6321 55.8799 41.6371L51.3762 41.9314C51.3348 41.9341 51.2932 41.9283 51.2541 41.9142C51.215 41.9002 51.1792 41.8782 51.1488 41.8497C51.1185 41.8212 51.0943 41.7867 51.0778 41.7485C51.0612 41.7102 51.0526 41.6689 51.0526 41.6272V41.5088ZM42.0916 46.4115C40.7947 46.4115 39.7445 44.6869 39.7445 42.5586C39.7445 40.4303 40.7947 38.7057 42.0916 38.7057C43.3884 38.7057 44.4375 40.4303 44.4375 42.5586C44.4375 44.6869 43.3873 46.4192 42.0916 46.4192V46.4115ZM55.2028 45.6183L47.8568 44.8628C48.0175 44.5099 48.0769 43.9126 48.1078 43.2267L53.7387 42.7843C53.9335 44.0719 54.5423 45.5033 55.2028 45.6261V45.6183Z" fill="#FFD412"/>
<path d="M11.3595 29.781C16.5413 29.0365 20.6067 28.5808 20.8192 27.9491C16.4719 28.4746 11.3298 29.5885 11.3595 29.781Z" fill="#FFD412"/>
<path d="M29.9678 29.4583L30.8408 29.3609C30.3377 28.9184 29.784 28.2005 29.6926 27.7293C28.4497 27.476 27.5096 27.3487 26.7379 27.3897C26.1412 27.4206 25.7625 27.5501 25.7757 27.7359C25.8517 28.2636 26.8238 29.6375 29.9678 29.4583Z" fill="#FFD412"/>
<path d="M38.1908 30.7147C37.9222 30.3054 37.6217 29.9403 37.0547 29.9923L33.6046 30.2257C32.2319 30.3176 31.8807 31.1892 31.2862 31.6439C31.2724 31.6601 31.2636 31.68 31.2607 31.7011C31.2579 31.7223 31.2613 31.7438 31.2703 31.7631C31.2794 31.7824 31.2938 31.7986 31.3119 31.8099C31.33 31.8211 31.3509 31.8268 31.3721 31.8264L37.9706 31.3961C38.6906 31.28 38.5211 31.4016 38.1908 30.7147Z" fill="#FFD412"/>
<path d="M29.769 31.9104C30.478 31.8628 30.8149 31.2589 31.3102 30.8042C31.3237 30.7913 31.3327 30.7743 31.3359 30.7559C31.3391 30.7374 31.3363 30.7184 31.3279 30.7017C31.3195 30.6849 31.306 30.6714 31.2893 30.6629C31.2727 30.6545 31.2537 30.6517 31.2354 30.6549L29.8813 30.7456C28.9742 30.8164 28.7342 31.3131 28.754 31.896C28.7595 32.0376 29.1878 31.9867 29.769 31.9104Z" fill="#FFD412"/>
<path d="M30.7329 27.6403L30.7428 27.6625L30.8012 27.7864C30.8639 27.9058 30.941 28.0264 31.0114 28.137L31.1072 28.2875C31.1877 28.409 31.2751 28.5257 31.3692 28.637L31.5024 28.7775C32.0528 29.3007 32.7134 29.2532 34.6278 29.3217H34.7213C36.3396 29.1558 36.9737 29.2443 36.9715 28.1348C36.9998 27.8972 36.9676 27.6563 36.8779 27.4346L34.3239 27.335H34.2138C33.0888 27.3428 30.8991 27.3793 30.668 27.4456C30.6818 27.5129 30.7036 27.5783 30.7329 27.6403Z" fill="#FFD412"/>
<path d="M10.1982 27.8562C13.7683 26.7821 16.9487 26.2865 19.4455 26.281C16.4544 19.625 10.7795 25.8131 10.1982 27.8562Z" fill="#FFD412"/>
<path d="M25.1188 33.231L24.8381 32.4566C24.8879 32.7969 24.8422 33.1444 24.706 33.46L23.1098 31.3693L22.7718 28.8062C22.909 28.7806 23.0483 28.768 23.1879 28.7686C23.5407 28.7771 23.8774 28.9185 24.1314 29.1646C23.9112 28.6381 23.3365 28.356 22.9997 28.356C22.9044 28.356 22.8092 28.3611 22.7146 28.3715L22.3843 25.8892L32.4021 25.7199C31.6007 24.5507 28.744 22.9013 26.561 22.4179C24.8777 22.3217 23.3013 22.2962 21.912 22.3338L21.3484 17.9787L27.4405 17.1236H33.8255C33.8985 17.1236 33.9685 17.0945 34.0202 17.0426C34.0718 16.9908 34.1008 16.9204 34.1008 16.8471C34.1008 16.7738 34.0718 16.7034 34.0202 16.6516C33.9685 16.5997 33.8985 16.5705 33.8255 16.5705H21.039C21.0251 16.5689 21.0111 16.5689 20.9972 16.5705C20.991 16.5695 20.9847 16.5695 20.9785 16.5705C20.9203 16.5788 20.8662 16.6057 20.8245 16.6472C20.7827 16.6888 20.7554 16.7428 20.7466 16.8012C20.7378 16.8597 20.748 16.9194 20.7757 16.9715C20.8034 17.0236 20.8471 17.0653 20.9003 17.0905L20.9499 17.471L12.4732 18.6602H6.68049C6.61298 18.6589 6.54739 18.6828 6.49629 18.7271C6.4452 18.7715 6.41219 18.8332 6.4036 18.9005C6.395 18.9678 6.41143 19.0359 6.44973 19.0918C6.48803 19.1477 6.5455 19.1874 6.61114 19.2033L8.40884 30.8726C8.08629 31.2542 8.00813 31.8847 7.9685 32.2398C7.5942 32.5164 7.28706 32.1292 7.07239 31.5263C7.07239 33.4423 7.0647 34.273 7.86943 34.6746C7.96851 35.1237 8.27564 36.3261 9.2499 36.3261C9.25981 36.3261 9.33907 36.335 9.34898 36.3328H10.8902C11.4659 36.3328 11.7577 35.1945 11.7577 34.9135L14.0805 34.3095L16.1919 34.2266C16.1919 34.9699 16.7765 35.6491 17.4271 35.6491H19.4934C20.2772 35.6491 20.7363 34.7033 20.8046 34.0463L21.3286 34.0263C21.6984 34.7819 22.2357 35.2797 22.8345 35.2797C23.222 35.2797 23.5831 35.0927 23.8903 34.7686L26.2142 34.5894L26.4608 33.7609L34.4101 33.0828L34.2615 32.6779L25.1188 33.231ZM23.4609 17.1248L21.2768 17.4312L21.2372 17.1248H23.4609ZM21.0181 18.0241L21.5862 22.3438C20.5233 22.3715 19.4633 22.4665 18.4124 22.6281V19.1989C18.4702 19.1734 18.5176 19.1287 18.5466 19.0723C18.5755 19.0159 18.5843 18.9512 18.5714 18.889C18.5585 18.8269 18.5247 18.7711 18.4757 18.7311C18.4267 18.691 18.3655 18.6691 18.3023 18.669H16.4528L21.0181 18.0241ZM8.55637 31.8416L8.81727 33.5319L8.42536 35.1082C8.11491 34.1569 8.13803 32.5363 8.55966 31.8416H8.55637ZM9.81685 34.6536L9.03524 33.5086L8.74461 31.6204C8.80974 31.5662 8.88798 31.5303 8.97138 31.5164C9.72327 31.4013 10.037 33.335 9.82015 34.6536H9.81685ZM9.1255 35.8339C8.89872 35.8682 8.71269 35.7144 8.56737 35.4467L8.97468 33.8106L9.75519 34.9544C9.6374 35.4434 9.42934 35.7885 9.12881 35.8339H9.1255ZM10.6084 32.9268C10.168 31.7597 9.94785 30.4931 9.02093 30.5595C8.87191 30.5692 8.72802 30.618 8.60369 30.7011L6.83351 19.2177H18.1922V22.6469C18.1916 22.6531 18.1916 22.6594 18.1922 22.6657C17.9467 22.7122 17.721 22.7608 17.5185 22.815C19.0322 23.4965 19.6751 24.7265 20.307 25.9234L22.0485 25.8947L22.3788 28.4312C21.213 28.742 20.8013 29.992 20.8013 31.6392C20.8003 31.8635 20.8128 32.0878 20.8387 32.3106L10.6084 32.9268ZM21.7414 33.6558C21.4363 33.063 21.2816 32.4038 21.2911 31.7365C21.2911 30.5949 21.4408 29.3029 22.4481 28.9002L22.7784 31.3958L21.7414 33.6558ZM24.3724 34.0551C24.3724 34.0451 24.3824 34.0374 24.3868 34.0275C24.2944 34.1488 24.1897 34.26 24.0741 34.3593C23.8278 34.5772 23.5127 34.7002 23.1846 34.7067C22.7135 34.7067 22.2841 34.4367 21.9527 33.9921L22.9777 31.7509L24.5431 33.8018C24.4927 33.8897 24.4368 33.9743 24.3757 34.0551H24.3724Z" fill="#FFD412"/>
<path d="M115.87 34.4772H97.4336L93.9165 42.8786H84.5L102.199 3.67211H111.275L129.03 42.8786H119.387L115.87 34.4772ZM112.977 27.5881L106.68 12.5776L100.383 27.5881H112.977Z" fill="#FFD412"/>
<path d="M138.62 43.3267C137.069 43.3267 135.765 42.804 134.706 41.7585C133.647 40.713 133.117 39.4061 133.117 37.8378C133.117 36.2322 133.647 34.944 134.706 33.9732C135.765 32.965 137.069 32.4609 138.62 32.4609C140.17 32.4609 141.475 32.965 142.534 33.9732C143.593 34.944 144.122 36.2322 144.122 37.8378C144.122 39.4061 143.593 40.713 142.534 41.7585C141.475 42.804 140.17 43.3267 138.62 43.3267Z" fill="#FFD412"/>
<path d="M193.034 35.4854V45H184.525V42.8786H156.503V45H147.994L148.051 35.4854H149.639C152.021 35.4107 153.704 33.6931 154.687 30.3326C155.671 26.972 156.276 22.1739 156.503 15.9382L156.957 3.67211H187.475V35.4854H193.034ZM164.615 16.7783C164.425 21.4457 164.028 25.3664 163.423 28.5403C162.818 31.6768 161.892 33.9918 160.644 35.4854H178.399V11.0653H164.785L164.615 16.7783Z" fill="#FFD412"/>
<path d="M202.271 43.3267C200.72 43.3267 199.415 42.804 198.356 41.7585C197.298 40.713 196.768 39.4061 196.768 37.8378C196.768 36.2322 197.298 34.944 198.356 33.9732C199.415 32.965 200.72 32.4609 202.271 32.4609C203.821 32.4609 205.126 32.965 206.185 33.9732C207.244 34.944 207.773 36.2322 207.773 37.8378C207.773 39.4061 207.244 40.713 206.185 41.7585C205.126 42.804 203.821 43.3267 202.271 43.3267Z" fill="#FFD412"/>
<path d="M243.337 34.4772H224.901L221.384 42.8786H211.968L229.666 3.67211H238.742L256.498 42.8786H246.854L243.337 34.4772ZM240.444 27.5881L234.147 12.5776L227.851 27.5881H240.444Z" fill="#FFD412"/>
<path d="M266.087 43.3267C264.537 43.3267 263.232 42.804 262.173 41.7585C261.114 40.713 260.585 39.4061 260.585 37.8378C260.585 36.2322 261.114 34.944 262.173 33.9732C263.232 32.965 264.537 32.4609 266.087 32.4609C267.638 32.4609 268.943 32.965 270.002 33.9732C271.06 34.944 271.59 36.2322 271.59 37.8378C271.59 39.4061 271.06 40.713 270.002 41.7585C268.943 42.804 267.638 43.3267 266.087 43.3267Z" fill="#FFD412"/>
<path d="M296.106 43.5508C292.06 43.5508 288.391 42.6919 285.101 40.9743C281.849 39.2194 279.277 36.811 277.387 33.7491C275.533 30.6499 274.607 27.1587 274.607 23.2754C274.607 19.3921 275.533 15.9195 277.387 12.8576C279.277 9.75846 281.849 7.35006 285.101 5.63244C288.391 3.87748 292.079 3 296.163 3C299.604 3 302.705 3.59743 305.466 4.7923C308.264 5.98716 310.609 7.70478 312.5 9.94516L306.6 15.3221C303.915 12.2602 300.588 10.7293 296.617 10.7293C294.159 10.7293 291.965 11.2707 290.036 12.3536C288.108 13.3991 286.595 14.874 285.498 16.7783C284.439 18.6826 283.91 20.8483 283.91 23.2754C283.91 25.7024 284.439 27.8681 285.498 29.7725C286.595 31.6768 288.108 33.1704 290.036 34.2532C291.965 35.2987 294.159 35.8215 296.617 35.8215C300.588 35.8215 303.915 34.2719 306.6 31.1727L312.5 36.5496C310.609 38.8273 308.264 40.5636 305.466 41.7585C302.667 42.9533 299.548 43.5508 296.106 43.5508Z" fill="#FFD412"/>
<path d="M6.732 63.2H2.832L2.088 65H0.096L3.84 56.6H5.76L9.516 65H7.476L6.732 63.2ZM6.12 61.724L4.788 58.508L3.456 61.724H6.12ZM16.4499 60.62C16.9619 60.772 17.3539 61.02 17.6259 61.364C17.8979 61.708 18.0339 62.132 18.0339 62.636C18.0339 63.38 17.7499 63.96 17.1819 64.376C16.6219 64.792 15.8179 65 14.7699 65H10.6299V56.6H14.5419C15.5179 56.6 16.2779 56.788 16.8219 57.164C17.3659 57.54 17.6379 58.076 17.6379 58.772C17.6379 59.188 17.5339 59.556 17.3259 59.876C17.1179 60.188 16.8259 60.436 16.4499 60.62ZM12.5619 60.08H14.3739C14.7979 60.08 15.1179 59.996 15.3339 59.828C15.5499 59.652 15.6579 59.396 15.6579 59.06C15.6579 58.732 15.5459 58.48 15.3219 58.304C15.1059 58.128 14.7899 58.04 14.3739 58.04H12.5619V60.08ZM14.6979 63.56C15.6099 63.56 16.0659 63.2 16.0659 62.48C16.0659 61.784 15.6099 61.436 14.6979 61.436H12.5619V63.56H14.6979ZM25.8742 58.184H23.1862V65H21.2662V58.184H18.5902V56.6H25.8742V58.184ZM30.9856 65.144C30.1136 65.144 29.3256 64.956 28.6216 64.58C27.9256 64.204 27.3776 63.688 26.9776 63.032C26.5856 62.368 26.3896 61.624 26.3896 60.8C26.3896 59.976 26.5856 59.236 26.9776 58.58C27.3776 57.916 27.9256 57.396 28.6216 57.02C29.3256 56.644 30.1136 56.456 30.9856 56.456C31.8576 56.456 32.6416 56.644 33.3376 57.02C34.0336 57.396 34.5816 57.916 34.9816 58.58C35.3816 59.236 35.5816 59.976 35.5816 60.8C35.5816 61.624 35.3816 62.368 34.9816 63.032C34.5816 63.688 34.0336 64.204 33.3376 64.58C32.6416 64.956 31.8576 65.144 30.9856 65.144ZM30.9856 63.488C31.4816 63.488 31.9296 63.376 32.3296 63.152C32.7296 62.92 33.0416 62.6 33.2656 62.192C33.4976 61.784 33.6136 61.32 33.6136 60.8C33.6136 60.28 33.4976 59.816 33.2656 59.408C33.0416 59 32.7296 58.684 32.3296 58.46C31.9296 58.228 31.4816 58.112 30.9856 58.112C30.4896 58.112 30.0416 58.228 29.6416 58.46C29.2416 58.684 28.9256 59 28.6936 59.408C28.4696 59.816 28.3576 60.28 28.3576 60.8C28.3576 61.32 28.4696 61.784 28.6936 62.192C28.9256 62.6 29.2416 62.92 29.6416 63.152C30.0416 63.376 30.4896 63.488 30.9856 63.488ZM44.7232 65L44.7112 59.972L42.2392 64.112H41.3752L38.9032 60.068V65H37.0792V56.6H38.6872L41.8312 61.82L44.9272 56.6H46.5352L46.5472 65H44.7232ZM52.6418 65.144C51.7698 65.144 50.9818 64.956 50.2778 64.58C49.5818 64.204 49.0338 63.688 48.6338 63.032C48.2418 62.368 48.0458 61.624 48.0458 60.8C48.0458 59.976 48.2418 59.236 48.6338 58.58C49.0338 57.916 49.5818 57.396 50.2778 57.02C50.9818 56.644 51.7698 56.456 52.6418 56.456C53.5138 56.456 54.2978 56.644 54.9938 57.02C55.6898 57.396 56.2378 57.916 56.6378 58.58C57.0378 59.236 57.2378 59.976 57.2378 60.8C57.2378 61.624 57.0378 62.368 56.6378 63.032C56.2378 63.688 55.6898 64.204 54.9938 64.58C54.2978 64.956 53.5138 65.144 52.6418 65.144ZM52.6418 63.488C53.1378 63.488 53.5858 63.376 53.9858 63.152C54.3858 62.92 54.6978 62.6 54.9218 62.192C55.1538 61.784 55.2698 61.32 55.2698 60.8C55.2698 60.28 55.1538 59.816 54.9218 59.408C54.6978 59 54.3858 58.684 53.9858 58.46C53.5858 58.228 53.1378 58.112 52.6418 58.112C52.1458 58.112 51.6978 58.228 51.2978 58.46C50.8978 58.684 50.5818 59 50.3498 59.408C50.1258 59.816 50.0138 60.28 50.0138 60.8C50.0138 61.32 50.1258 61.784 50.3498 62.192C50.5818 62.6 50.8978 62.92 51.2978 63.152C51.6978 63.376 52.1458 63.488 52.6418 63.488ZM58.7354 56.6H65.5154V58.148H60.6674V59.876H62.9954C64.0114 59.876 64.7834 60.088 65.3114 60.512C65.8474 60.936 66.1154 61.548 66.1154 62.348C66.1154 63.188 65.8194 63.84 65.2274 64.304C64.6354 64.768 63.7994 65 62.7194 65H58.7354V56.6ZM62.6114 63.56C63.1074 63.56 63.4874 63.464 63.7514 63.272C64.0154 63.072 64.1474 62.784 64.1474 62.408C64.1474 61.672 63.6354 61.304 62.6114 61.304H60.6674V63.56H62.6114ZM67.5948 56.6H69.5268V65H67.5948V56.6ZM79.0437 56.6V65H77.1237V58.184H74.2437L74.1837 59.936C74.1437 61.128 74.0477 62.096 73.8957 62.84C73.7437 63.576 73.4877 64.144 73.1277 64.544C72.7757 64.936 72.2797 65.132 71.6397 65.132C71.3757 65.132 71.0557 65.088 70.6797 65L70.7997 63.356C70.9037 63.388 71.0197 63.404 71.1477 63.404C71.6117 63.404 71.9357 63.132 72.1197 62.588C72.3037 62.036 72.4197 61.176 72.4677 60.008L72.5877 56.6H79.0437ZM85.2097 59.36C86.2337 59.36 87.0177 59.588 87.5617 60.044C88.1137 60.5 88.3897 61.176 88.3897 62.072C88.3897 63.024 88.0857 63.752 87.4777 64.256C86.8777 64.752 86.0297 65 84.9337 65H81.1417V56.6H83.0737V59.36H85.2097ZM84.8257 63.56C85.3297 63.56 85.7217 63.436 86.0017 63.188C86.2897 62.94 86.4337 62.58 86.4337 62.108C86.4337 61.236 85.8977 60.8 84.8257 60.8H83.0737V63.56H84.8257ZM97.4941 56.6V65H95.5501V61.556H91.7341V65H89.7901V56.6H91.7341V59.912H95.5501V56.6H97.4941ZM105.287 63.2H101.387L100.643 65H98.6507L102.395 56.6H104.315L108.071 65H106.031L105.287 63.2ZM104.675 61.724L103.343 58.508L102.011 61.724H104.675ZM121.247 63.416V66.74H119.447V65H113.519V66.74H111.719L111.731 63.416H112.067C112.571 63.4 112.927 63.032 113.135 62.312C113.343 61.592 113.471 60.564 113.519 59.228L113.615 56.6H120.071V63.416H121.247ZM115.235 59.408C115.195 60.408 115.111 61.248 114.983 61.928C114.855 62.6 114.659 63.096 114.395 63.416H118.151V58.184H115.271L115.235 59.408ZM126.564 65.144C125.692 65.144 124.904 64.956 124.2 64.58C123.504 64.204 122.956 63.688 122.556 63.032C122.164 62.368 121.968 61.624 121.968 60.8C121.968 59.976 122.164 59.236 122.556 58.58C122.956 57.916 123.504 57.396 124.2 57.02C124.904 56.644 125.692 56.456 126.564 56.456C127.436 56.456 128.22 56.644 128.916 57.02C129.612 57.396 130.16 57.916 130.56 58.58C130.96 59.236 131.16 59.976 131.16 60.8C131.16 61.624 130.96 62.368 130.56 63.032C130.16 63.688 129.612 64.204 128.916 64.58C128.22 64.956 127.436 65.144 126.564 65.144ZM126.564 63.488C127.06 63.488 127.508 63.376 127.908 63.152C128.308 62.92 128.62 62.6 128.844 62.192C129.076 61.784 129.192 61.32 129.192 60.8C129.192 60.28 129.076 59.816 128.844 59.408C128.62 59 128.308 58.684 127.908 58.46C127.508 58.228 127.06 58.112 126.564 58.112C126.068 58.112 125.62 58.228 125.22 58.46C124.82 58.684 124.504 59 124.272 59.408C124.048 59.816 123.936 60.28 123.936 60.8C123.936 61.32 124.048 61.784 124.272 62.192C124.504 62.6 124.82 62.92 125.22 63.152C125.62 63.376 126.068 63.488 126.564 63.488ZM136.293 56.6C137.037 56.6 137.681 56.724 138.225 56.972C138.777 57.22 139.201 57.572 139.497 58.028C139.793 58.484 139.941 59.024 139.941 59.648C139.941 60.264 139.793 60.804 139.497 61.268C139.201 61.724 138.777 62.076 138.225 62.324C137.681 62.564 137.037 62.684 136.293 62.684H134.601V65H132.657V56.6H136.293ZM136.185 61.1C136.769 61.1 137.213 60.976 137.517 60.728C137.821 60.472 137.973 60.112 137.973 59.648C137.973 59.176 137.821 58.816 137.517 58.568C137.213 58.312 136.769 58.184 136.185 58.184H134.601V61.1H136.185ZM145.349 65.144C144.477 65.144 143.689 64.956 142.985 64.58C142.289 64.204 141.741 63.688 141.341 63.032C140.949 62.368 140.753 61.624 140.753 60.8C140.753 59.976 140.949 59.236 141.341 58.58C141.741 57.916 142.289 57.396 142.985 57.02C143.689 56.644 144.477 56.456 145.349 56.456C146.221 56.456 147.005 56.644 147.701 57.02C148.397 57.396 148.945 57.916 149.345 58.58C149.745 59.236 149.945 59.976 149.945 60.8C149.945 61.624 149.745 62.368 149.345 63.032C148.945 63.688 148.397 64.204 147.701 64.58C147.005 64.956 146.221 65.144 145.349 65.144ZM145.349 63.488C145.845 63.488 146.293 63.376 146.693 63.152C147.093 62.92 147.405 62.6 147.629 62.192C147.861 61.784 147.977 61.32 147.977 60.8C147.977 60.28 147.861 59.816 147.629 59.408C147.405 59 147.093 58.684 146.693 58.46C146.293 58.228 145.845 58.112 145.349 58.112C144.853 58.112 144.405 58.228 144.005 58.46C143.605 58.684 143.289 59 143.057 59.408C142.833 59.816 142.721 60.28 142.721 60.8C142.721 61.32 142.833 61.784 143.057 62.192C143.289 62.6 143.605 62.92 144.005 63.152C144.405 63.376 144.853 63.488 145.349 63.488ZM158.758 61.616H157.534V65H155.626V61.616H154.378L152.494 65H150.25L152.77 60.608L150.406 56.6H152.458L154.342 59.996H155.626V56.6H157.534V59.996H158.782L160.678 56.6H162.73L160.378 60.608L162.886 65H160.642L158.758 61.616ZM171.521 56.6V65H169.577V61.556H165.761V65H163.817V56.6H165.761V59.912H169.577V56.6H171.521ZM177.634 65.144C176.762 65.144 175.974 64.956 175.27 64.58C174.574 64.204 174.026 63.688 173.626 63.032C173.234 62.368 173.038 61.624 173.038 60.8C173.038 59.976 173.234 59.236 173.626 58.58C174.026 57.916 174.574 57.396 175.27 57.02C175.974 56.644 176.762 56.456 177.634 56.456C178.506 56.456 179.29 56.644 179.986 57.02C180.682 57.396 181.23 57.916 181.63 58.58C182.03 59.236 182.23 59.976 182.23 60.8C182.23 61.624 182.03 62.368 181.63 63.032C181.23 63.688 180.682 64.204 179.986 64.58C179.29 64.956 178.506 65.144 177.634 65.144ZM177.634 63.488C178.13 63.488 178.578 63.376 178.978 63.152C179.378 62.92 179.69 62.6 179.914 62.192C180.146 61.784 180.262 61.32 180.262 60.8C180.262 60.28 180.146 59.816 179.914 59.408C179.69 59 179.378 58.684 178.978 58.46C178.578 58.228 178.13 58.112 177.634 58.112C177.138 58.112 176.69 58.228 176.29 58.46C175.89 58.684 175.574 59 175.342 59.408C175.118 59.816 175.006 60.28 175.006 60.8C175.006 61.32 175.118 61.784 175.342 62.192C175.574 62.6 175.89 62.92 176.29 63.152C176.69 63.376 177.138 63.488 177.634 63.488ZM183.354 60.872H186.75V62.372H183.354V60.872ZM193.81 63.2H189.91L189.166 65H187.174L190.918 56.6H192.838L196.594 65H194.554L193.81 63.2ZM193.198 61.724L191.866 58.508L190.534 61.724H193.198ZM203.528 60.62C204.04 60.772 204.432 61.02 204.704 61.364C204.976 61.708 205.112 62.132 205.112 62.636C205.112 63.38 204.828 63.96 204.26 64.376C203.7 64.792 202.896 65 201.848 65H197.708V56.6H201.62C202.596 56.6 203.356 56.788 203.9 57.164C204.444 57.54 204.716 58.076 204.716 58.772C204.716 59.188 204.612 59.556 204.404 59.876C204.196 60.188 203.904 60.436 203.528 60.62ZM199.64 60.08H201.452C201.876 60.08 202.196 59.996 202.412 59.828C202.628 59.652 202.736 59.396 202.736 59.06C202.736 58.732 202.624 58.48 202.4 58.304C202.184 58.128 201.868 58.04 201.452 58.04H199.64V60.08ZM201.776 63.56C202.688 63.56 203.144 63.2 203.144 62.48C203.144 61.784 202.688 61.436 201.776 61.436H199.64V63.56H201.776ZM212.337 63.2H208.437L207.693 65H205.701L209.445 56.6H211.365L215.121 65H213.081L212.337 63.2ZM211.725 61.724L210.393 58.508L209.061 61.724H211.725ZM219.871 56.6C220.615 56.6 221.259 56.724 221.803 56.972C222.355 57.22 222.779 57.572 223.075 58.028C223.371 58.484 223.519 59.024 223.519 59.648C223.519 60.264 223.371 60.804 223.075 61.268C222.779 61.724 222.355 62.076 221.803 62.324C221.259 62.564 220.615 62.684 219.871 62.684H218.179V65H216.235V56.6H219.871ZM219.763 61.1C220.347 61.1 220.791 60.976 221.095 60.728C221.399 60.472 221.551 60.112 221.551 59.648C221.551 59.176 221.399 58.816 221.095 58.568C220.791 58.312 220.347 58.184 219.763 58.184H218.179V61.1H219.763ZM224.802 56.6H226.734V65H224.802V56.6ZM228.821 56.6H230.753V62.072L234.761 56.6H236.585V65H234.665V59.54L230.657 65H228.821V56.6ZM232.697 56.06C231.161 56.06 230.385 55.448 230.369 54.224H231.701C231.717 54.808 232.049 55.1 232.697 55.1C233.017 55.1 233.261 55.028 233.429 54.884C233.597 54.732 233.685 54.512 233.693 54.224H235.025C235.017 54.824 234.821 55.28 234.437 55.592C234.053 55.904 233.473 56.06 232.697 56.06ZM246.381 56.6V65H244.437V61.556H240.621V65H238.677V56.6H240.621V59.912H244.437V56.6H246.381ZM254.173 63.2H250.273L249.529 65H247.537L251.281 56.6H253.201L256.957 65H254.917L254.173 63.2ZM253.561 61.724L252.229 58.508L250.897 61.724H253.561ZM265.442 65.144C264.586 65.144 263.81 64.96 263.114 64.592C262.426 64.216 261.882 63.7 261.482 63.044C261.09 62.38 260.894 61.632 260.894 60.8C260.894 59.968 261.09 59.224 261.482 58.568C261.882 57.904 262.426 57.388 263.114 57.02C263.81 56.644 264.59 56.456 265.454 56.456C266.182 56.456 266.838 56.584 267.422 56.84C268.014 57.096 268.51 57.464 268.91 57.944L267.662 59.096C267.094 58.44 266.39 58.112 265.55 58.112C265.03 58.112 264.566 58.228 264.158 58.46C263.75 58.684 263.43 59 263.198 59.408C262.974 59.816 262.862 60.28 262.862 60.8C262.862 61.32 262.974 61.784 263.198 62.192C263.43 62.6 263.75 62.92 264.158 63.152C264.566 63.376 265.03 63.488 265.55 63.488C266.39 63.488 267.094 63.156 267.662 62.492L268.91 63.644C268.51 64.132 268.014 64.504 267.422 64.76C266.83 65.016 266.17 65.144 265.442 65.144ZM277.466 56.6V65H275.546V58.184H272.666L272.606 59.936C272.566 61.128 272.47 62.096 272.318 62.84C272.166 63.576 271.91 64.144 271.55 64.544C271.198 64.936 270.702 65.132 270.062 65.132C269.798 65.132 269.478 65.088 269.102 65L269.222 63.356C269.326 63.388 269.442 63.404 269.57 63.404C270.034 63.404 270.358 63.132 270.542 62.588C270.726 62.036 270.842 61.176 270.89 60.008L271.01 56.6H277.466ZM287.148 56.6L283.572 63.248C283.228 63.888 282.812 64.372 282.324 64.7C281.844 65.028 281.32 65.192 280.752 65.192C280.312 65.192 279.856 65.096 279.384 64.904L279.852 63.428C280.188 63.532 280.468 63.584 280.692 63.584C280.932 63.584 281.148 63.528 281.34 63.416C281.532 63.296 281.708 63.112 281.868 62.864L281.94 62.768L278.628 56.6H280.704L282.936 61.112L285.24 56.6H287.148ZM295.551 61.616H294.327V65H292.419V61.616H291.171L289.287 65H287.043L289.563 60.608L287.199 56.6H289.251L291.135 59.996H292.419V56.6H294.327V59.996H295.575L297.471 56.6H299.523L297.171 60.608L299.679 65H297.435L295.551 61.616ZM300.61 56.6H307.39V58.148H302.542V59.876H304.87C305.886 59.876 306.658 60.088 307.186 60.512C307.722 60.936 307.99 61.548 307.99 62.348C307.99 63.188 307.694 63.84 307.102 64.304C306.51 64.768 305.674 65 304.594 65H300.61V56.6ZM304.486 63.56C304.982 63.56 305.362 63.464 305.626 63.272C305.89 63.072 306.022 62.784 306.022 62.408C306.022 61.672 305.51 61.304 304.486 61.304H302.542V63.56H304.486ZM315.087 63.2H311.187L310.443 65H308.451L312.195 56.6H314.115L317.871 65H315.831L315.087 63.2ZM314.475 61.724L313.143 58.508L311.811 61.724H314.475Z" fill="white"/>
</svg>
