<svg width="40" height="40" viewBox="0 0 40 40" fill="none" xmlns="http://www.w3.org/2000/svg">
<path d="M32.736 26.6809H28.7275V28.0171H32.736V26.6809Z" fill="#FFD412"/>
<path d="M27.3913 26.6809H23.3828V28.0171H27.3913V26.6809Z" fill="#FFD412"/>
<path d="M22.0466 26.6809H18.0381V28.0171H22.0466V26.6809Z" fill="#FFD412"/>
<path d="M39.4081 13.8558L26.1888 0.634466C25.8134 0.255497 25.3019 0.0425464 24.7684 0.0432145H24.7624C24.2324 0.043465 23.7249 0.256499 23.3534 0.634466L9.33041 14.6555H2.00424C0.897315 14.6555 0 15.5528 0 16.6597V35.366C0 36.4729 0.897315 37.3702 2.00424 37.3702H11.9025L13.8961 39.3658C14.2714 39.7448 14.7829 39.9577 15.3164 39.957H15.3218C15.8519 39.9569 16.3598 39.7438 16.7314 39.3658L18.729 37.3702H34.0721C35.179 37.3702 36.0763 36.4729 36.0763 35.366V20.0228L39.4047 16.6945C39.7846 16.3226 39.9991 15.8137 40 15.2821C40.002 14.7465 39.7887 14.2326 39.4081 13.8558ZM30.9094 7.24646L23.5004 14.6555H17.8271L28.0727 4.40979L30.9094 7.24646ZM24.2994 1.57646C24.5535 1.31616 24.9706 1.31115 25.231 1.56535C25.2347 1.56903 25.2385 1.5727 25.2421 1.57646L27.1281 3.46512L15.9371 14.6555H11.2197L24.2994 1.57646ZM15.7854 38.4238C15.6632 38.5514 15.4944 38.6237 15.3177 38.6242C15.1387 38.6238 14.9673 38.5516 14.8421 38.4238L13.7925 37.3702H16.8396L15.7854 38.4238ZM34.7402 35.366C34.7402 35.7349 34.441 36.0341 34.0721 36.0341H2.00424C1.63529 36.0341 1.33616 35.7349 1.33616 35.366V26.0129H34.7402V35.366ZM34.7402 24.6767H1.33616V20.6682H34.7402V24.6767ZM34.7402 19.332H1.33616V16.6597C1.33616 16.2908 1.63529 15.9916 2.00424 15.9916H34.0721C34.441 15.9916 34.7402 16.2908 34.7402 16.6597V19.332ZM38.4634 15.7465L36.0763 18.1335V16.6597C36.0763 15.5528 35.179 14.6555 34.0721 14.6555H25.3871L31.8514 8.19113L38.4607 14.8005C38.5891 14.9262 38.6613 15.0984 38.6611 15.2781C38.661 15.4545 38.5897 15.6234 38.4634 15.7465Z" fill="white"/>
<path d="M6.40771 34.7158C6.50525 34.6315 6.59661 34.5401 6.68096 34.4426C7.56441 35.4716 9.08237 35.6671 10.1977 34.8955C10.9176 34.3922 11.3497 33.5719 11.3575 32.6935C11.3575 31.2176 10.1611 30.0212 8.6852 30.0212C8.55259 30.0194 8.42014 30.0305 8.2897 30.0546L8.27233 30.0593C8.26564 30.0593 8.25896 30.0593 8.25295 30.0593C7.64091 30.161 7.08431 30.4751 6.68096 30.9465C5.71558 29.8301 4.02793 29.7078 2.91165 30.6732C1.79529 31.6386 1.67294 33.3263 2.6384 34.4426C3.60378 35.5589 5.29135 35.6813 6.40771 34.7158ZM8.51617 31.3714C8.57188 31.3608 8.6285 31.3561 8.6852 31.3574C9.42318 31.3574 10.0214 31.9555 10.0214 32.6935C10.0207 32.9762 9.92858 33.2511 9.7588 33.4772C9.73475 33.5099 9.71605 33.544 9.68866 33.5781C9.68398 33.5834 9.6773 33.5867 9.67195 33.5921C9.41959 33.8708 9.06116 34.0298 8.6852 34.0297C7.94739 34.0171 7.35939 33.4088 7.372 32.671C7.38319 32.0158 7.86772 31.4654 8.51617 31.3714ZM4.67672 31.3574C5.41469 31.3574 6.01288 31.9555 6.01288 32.6935C6.01288 33.4315 5.41469 34.0297 4.67672 34.0297C3.93874 34.0297 3.34056 33.4315 3.34056 32.6935C3.34056 31.9555 3.93874 31.3574 4.67672 31.3574Z" fill="#FFD412"/>
</svg>
