<svg width="136" height="136" viewBox="0 0 136 136" fill="none" xmlns="http://www.w3.org/2000/svg">
<circle opacity="0.2" cx="66.903" cy="67.2778" r="54.1667" fill="#292929" stroke="white"/>
<circle opacity="0.2" cx="68" cy="68" r="65" fill="#292929" stroke="white"/>
<path d="M68 3C76.5359 3 84.9883 4.68128 92.8744 7.94783C100.761 11.2144 107.926 16.0023 113.962 22.0381C119.998 28.0739 124.786 35.2394 128.052 43.1256C131.319 51.0117 133 59.4641 133 68C133 76.5359 131.319 84.9883 128.052 92.8744C124.786 100.761 119.998 107.926 113.962 113.962C107.926 119.998 100.761 124.786 92.8744 128.052C84.9882 131.319 76.5359 133 68 133C59.4641 133 51.0117 131.319 43.1256 128.052C35.2394 124.786 28.0738 119.998 22.038 113.962C16.0022 107.926 11.2144 100.761 7.94782 92.8744C4.68127 84.9882 3 76.5359 3 68C3 59.464 4.68128 51.0117 7.94784 43.1255C11.2144 35.2394 16.0023 28.0738 22.0381 22.038C28.0739 16.0022 35.2394 11.2144 43.1256 7.94781C51.0118 4.68126 59.4641 2.99999 68 3L68 3Z" stroke="#FFD412" stroke-width="6" stroke-linecap="round"/>
<path d="M91.9532 82.96C91.9532 81.4932 90.7284 80.2984 89.0354 79.9791V56.0209C90.7284 55.7016 91.9532 54.5067 91.9532 53.0401C91.9532 51.5734 90.7284 50.3785 89.0354 50.0592V43.1317H89.625C90.462 43.1317 91.143 42.4507 91.143 41.6137V37.518C91.143 36.681 90.4622 36 89.625 36H79.0762C78.5732 36 78.1653 36.4077 78.1653 36.9109C78.1653 37.414 78.573 37.8217 79.0762 37.8217H89.3215V41.3102H46.6776V37.8216H74.5307C75.0337 37.8216 75.4415 37.4139 75.4415 36.9107C75.4415 36.4076 75.0335 36 74.5305 36H46.374C45.537 36 44.856 36.681 44.856 37.518V41.6137C44.856 42.4507 45.537 43.1317 46.374 43.1317H46.9636V50.0591C45.2706 50.3784 44.0459 51.5732 44.0459 53.04C44.0459 54.5066 45.2706 55.7015 46.9636 56.0207V79.9819C45.2791 80.3057 44.0623 81.4977 44.0623 82.9599C44.0623 84.4219 45.2791 85.6139 46.9636 85.9377V92.8681H46.374C45.537 92.8681 44.856 93.5491 44.856 94.3861V98.4819C44.856 99.3189 45.537 99.9999 46.374 99.9999H89.6252C90.4622 99.9999 91.1432 99.3189 91.1432 98.4819V94.3862C91.1432 93.5492 90.4622 92.8682 89.6252 92.8682H89.0355V85.9409C90.7284 85.6215 91.9532 84.4267 91.9532 82.96ZM90.1315 82.96C90.1315 83.5484 89.3074 84.2039 88.1247 84.2039C86.9419 84.2039 86.1178 83.5484 86.1178 82.96C86.1178 82.3716 86.9419 81.716 88.1247 81.716C89.3073 81.7161 90.1315 82.3716 90.1315 82.96ZM82.403 88.796H80.6763C84.4623 85.0924 84.4749 78.4934 80.6635 74.7971L71.9707 65.9974C71.8544 65.8797 71.8545 65.6884 71.9707 65.5706L80.6635 56.7711C82.5192 54.8926 83.5412 52.4041 83.5412 49.7636C83.5412 48.8722 83.4237 47.996 83.1932 47.1472C84.9018 46.9045 86.3757 45.8854 87.2139 44.4262V50.0589C85.5209 50.3781 84.2962 51.573 84.2962 53.0397C84.2962 54.5064 85.5209 55.7012 87.2139 56.0205V79.9787C85.5209 80.298 84.2962 81.4929 84.2962 82.9596C84.2962 84.4262 85.5209 85.6211 87.2139 85.9404V91.5796C86.2497 89.9057 84.4418 88.796 82.403 88.796ZM58.241 88.796C57.0518 88.0817 56.0825 87.0841 55.4006 85.919H59.0306C60.9005 85.919 62.6992 85.1299 63.9653 83.754L67.7759 79.6131C67.8554 79.5267 67.9519 79.5139 68.0023 79.5139C68.0527 79.5139 68.1492 79.5267 68.2288 79.6132L72.0393 83.754C73.3055 85.1299 75.1042 85.919 76.974 85.919H80.6024C79.9209 87.084 78.9508 88.0804 77.759 88.796H58.241ZM48.7853 91.5801V85.9437C50.4866 85.6291 51.7193 84.4314 51.7193 82.96C51.7193 81.4885 50.4866 80.2907 48.7853 79.9761V56.0209C50.4783 55.7016 51.703 54.5067 51.703 53.0401C51.703 51.5734 50.4783 50.3785 48.7853 50.0592V44.4257C49.6236 45.885 51.0979 46.9045 52.8061 47.1475C52.5756 47.9962 52.458 48.8725 52.458 49.7639C52.458 52.4042 53.48 54.8929 55.3355 56.7714L64.0284 65.5709C64.1447 65.6885 64.1447 65.88 64.0284 65.9977L55.3355 74.7974C51.5211 78.4956 51.5416 85.0884 55.3241 88.7962H53.596C51.5573 88.796 49.7494 89.9057 48.7853 91.5801ZM70.6748 67.2777L79.3677 76.0774C80.8843 77.6126 81.7195 79.6466 81.7195 81.8047C81.7195 82.5915 81.6044 83.3622 81.3883 84.0975H76.9742C75.6122 84.0975 74.3022 83.5227 73.3799 82.5205L69.5694 78.3799C69.1674 77.943 68.5963 77.6924 68.0025 77.6924C67.4088 77.6924 66.8377 77.943 66.4356 78.3797L62.625 82.5205C61.7028 83.5227 60.3928 84.0975 59.0308 84.0975H54.6126C54.3954 83.3612 54.2798 82.5902 54.2798 81.8047C54.2798 79.6466 55.115 77.6126 56.6317 76.0774L65.3245 67.2779C65.9823 66.612 66.1077 65.6087 65.7018 64.8135C66.4533 64.9806 67.2237 65.0701 67.9997 65.0701C68.7757 65.0701 69.546 64.9806 70.2975 64.8135C69.8915 65.6087 70.0169 66.612 70.6748 67.2777ZM74.3083 60.6126C74.3082 60.6127 74.308 60.6129 74.3079 60.6129C72.6533 62.2877 70.354 63.2484 67.9995 63.2484C65.645 63.2484 63.3458 62.2877 61.6913 60.6129C61.6909 60.6125 61.6905 60.6121 61.69 60.6117L56.6314 55.4911C55.6155 54.4627 54.9073 53.21 54.549 51.8466H60.6788C61.1818 51.8466 61.5896 51.4389 61.5896 50.9357C61.5896 50.4326 61.1819 50.0249 60.6788 50.0249H54.2858C54.2498 49.0642 54.392 48.1064 54.6898 47.2037H81.3089C81.6067 48.1065 81.749 49.0644 81.713 50.0249H65.0268C64.5238 50.0249 64.1159 50.4326 64.1159 50.9357C64.1159 51.4389 64.5237 51.8466 65.0268 51.8466H81.4499C81.0917 53.2099 80.3834 54.4626 79.3675 55.4911L74.3083 60.6126ZM82.403 45.3824H53.596C52.077 45.3824 50.7479 44.4742 50.1723 43.1317H85.8269C85.2514 44.4744 83.9228 45.3824 82.403 45.3824ZM90.1315 53.0401C90.1315 53.6285 89.3074 54.284 88.1247 54.284C86.9419 54.284 86.1178 53.6285 86.1178 53.0401C86.1178 52.4517 86.9419 51.7961 88.1247 51.7961C89.3073 51.7961 90.1315 52.4517 90.1315 53.0401ZM45.8675 53.0401C45.8675 52.4517 46.6916 51.7961 47.8744 51.7961C49.0571 51.7961 49.8813 52.4517 49.8813 53.0401C49.8813 53.6285 49.0571 54.284 47.8744 54.284C46.6916 54.284 45.8675 53.6285 45.8675 53.0401ZM45.8839 82.96C45.8839 82.3716 46.708 81.716 47.8908 81.716C49.0735 81.716 49.8976 82.3716 49.8976 82.96C49.8976 83.5484 49.0735 84.2039 47.8908 84.2039C46.708 84.2039 45.8839 83.5484 45.8839 82.96ZM89.3214 98.1784H46.6776V94.6899H68.0025C68.5055 94.6899 68.9134 94.2821 68.9134 93.779C68.9134 93.2759 68.5056 92.8681 68.0025 92.8681H50.1731C50.7483 91.5341 52.0768 90.6175 53.596 90.6175H82.4029C83.9222 90.6175 85.2505 91.534 85.8258 92.8681H72.5563C72.0533 92.8681 71.6454 93.2759 71.6454 93.779C71.6454 94.2821 72.0532 94.6899 72.5563 94.6899H89.3215V98.1784H89.3214Z" fill="white"/>
<path d="M68.9407 69.5098C69.4785 69.5098 69.9145 69.0737 69.9145 68.5359C69.9145 67.998 69.4785 67.562 68.9407 67.562C68.4028 67.562 67.9668 67.998 67.9668 68.5359C67.9668 69.0737 68.4028 69.5098 68.9407 69.5098Z" fill="#FFD412"/>
<path d="M68.9407 76.4004C69.4785 76.4004 69.9145 75.9644 69.9145 75.4265C69.9145 74.8887 69.4785 74.4526 68.9407 74.4526C68.4028 74.4526 67.9668 74.8887 67.9668 75.4265C67.9668 75.9644 68.4028 76.4004 68.9407 76.4004Z" fill="#FFD412"/>
<path d="M62.9709 56.8921C63.5088 56.8921 63.9448 56.4561 63.9448 55.9182C63.9448 55.3804 63.5088 54.9443 62.9709 54.9443C62.4331 54.9443 61.9971 55.3804 61.9971 55.9182C61.9971 56.4561 62.4331 56.8921 62.9709 56.8921Z" fill="#FFD412"/>
<path d="M66.8772 60.147C67.415 60.147 67.8511 59.711 67.8511 59.1731C67.8511 58.6352 67.415 58.1992 66.8772 58.1992C66.3393 58.1992 65.9033 58.6352 65.9033 59.1731C65.9033 59.711 66.3393 60.147 66.8772 60.147Z" fill="#FFD412"/>
<path d="M66.8772 71.7643C67.415 71.7643 67.8511 71.3283 67.8511 70.7904C67.8511 70.2525 67.415 69.8165 66.8772 69.8165C66.3393 69.8165 65.9033 70.2525 65.9033 70.7904C65.9033 71.3283 66.3393 71.7643 66.8772 71.7643Z" fill="#FFD412"/>
<path d="M66.8772 84.8422C67.415 84.8422 67.8511 84.4061 67.8511 83.8683C67.8511 83.3304 67.415 82.8944 66.8772 82.8944C66.3393 82.8944 65.9033 83.3304 65.9033 83.8683C65.9033 84.4061 66.3393 84.8422 66.8772 84.8422Z" fill="#FFD412"/>
</svg>
