<svg width="60" height="60" viewBox="0 0 60 60" fill="none" xmlns="http://www.w3.org/2000/svg">
<rect width="60" height="60" fill="white" fill-opacity="0.1"/>
<path d="M36.6511 32.0629C36.5913 31.9631 36.4514 31.8955 36.2441 31.7953C36.1938 31.771 36.1396 31.7448 36.0816 31.7158C35.7844 31.567 34.3235 30.8482 34.051 30.749C33.7787 30.6498 33.5805 30.6003 33.3825 30.8977C33.1844 31.1951 32.6149 31.8645 32.4416 32.0629C32.2682 32.2611 32.0949 32.286 31.7978 32.1372C31.7493 32.1129 31.6831 32.0842 31.6014 32.0488C31.1831 31.8673 30.3577 31.5093 29.4081 30.6623C28.5247 29.8744 27.9284 28.9013 27.755 28.6038C27.5817 28.3063 27.7365 28.1455 27.8853 27.9974C27.9743 27.9087 28.0765 27.7842 28.1788 27.6597C28.2301 27.5972 28.2814 27.5347 28.3311 27.4767C28.4573 27.3293 28.512 27.2176 28.5864 27.0657C28.5996 27.0389 28.6134 27.0107 28.6282 26.9811C28.7272 26.7826 28.6777 26.6092 28.6034 26.4604C28.5537 26.3609 28.2712 25.6732 28.0156 25.0507C27.8891 24.7429 27.7692 24.4509 27.6872 24.254C27.4743 23.7424 27.2584 23.7437 27.0852 23.7447C27.0622 23.7449 27.04 23.745 27.0187 23.7439C26.8455 23.7352 26.6472 23.7334 26.4491 23.7334C26.251 23.7334 25.9291 23.8078 25.6567 24.1053C25.6392 24.1243 25.6197 24.1451 25.5985 24.1678C25.2891 24.498 24.6167 25.2155 24.6167 26.5842C24.6167 28.0393 25.6704 29.4452 25.8277 29.655L25.8301 29.6582C25.8398 29.6712 25.8572 29.6962 25.8821 29.7319C26.2379 30.2422 28.1206 32.9423 30.9064 34.1452C31.6153 34.4513 32.1688 34.6342 32.6004 34.7711C33.3122 34.9973 33.9601 34.9654 34.472 34.8889C35.043 34.8036 36.2301 34.1701 36.4778 33.476C36.7253 32.7817 36.7253 32.1868 36.6511 32.0629Z" fill="white"/>
<path fill-rule="evenodd" clip-rule="evenodd" d="M30.6546 41.1273H30.6596C37.2166 41.1246 42.5495 35.7904 42.5521 29.2347C42.5534 26.0571 41.3175 23.0692 39.0722 20.8213C36.8268 18.5734 33.8409 17.3349 30.6594 17.3335C24.1043 17.3335 18.7693 22.6682 18.7667 29.2254C18.7658 31.3214 19.3134 33.3673 20.3542 35.1709L18.667 41.3335L24.9714 39.6797C26.7085 40.6272 28.6642 41.1266 30.6546 41.1273ZM25.2636 37.5268L25.6246 37.7411C27.1422 38.6417 28.8819 39.1182 30.6557 39.1189H30.6597C36.1078 39.1189 40.542 34.6845 40.5442 29.2342C40.5452 26.5929 39.5181 24.1095 37.6518 22.2411C35.7856 20.3727 33.3037 19.3432 30.6635 19.3423C25.2112 19.3423 20.7769 23.7762 20.7747 29.2261C20.774 31.0939 21.2966 32.9129 22.286 34.4866L22.5211 34.8606L21.5225 38.5082L25.2636 37.5268Z" fill="white"/>
</svg>
