<svg version="1.0" xmlns="http://www.w3.org/2000/svg" width="890.667" height="890.667" viewBox="0 0 668 668"><path d="M317 11.5c-9.1 6.2-20.7 14.2-25.8 17.7-5.1 3.5-12.2 8.3-15.7 10.8s-11.4 7.9-17.5 12-14.5 9.9-18.8 12.8c-7.3 5.1-24.4 16.8-69.6 47.7-11.3 7.6-20.3 14.1-20.1 14.3.2.2 2-.8 4.2-2.1 2.1-1.4 33.9-19.9 70.8-41.3 36.9-21.3 76.5-44.3 88.2-51L333.9 20l21.8 12.6c12 7 27.4 15.9 34.3 19.9 49.3 28.4 58.8 34 61.2 35.6 1.4 1.1 2.8 1.9 3.1 1.9.3 0 14.5 8.1 31.7 18.1 17.1 9.9 31.3 17.9 31.5 17.7.3-.2-19.5-14-27.1-18.8-1.3-.8-12.5-8.5-25-17-12.4-8.5-28.1-19.3-35-24-6.8-4.7-31.1-21.3-54-37S334.5.4 334.2.3c-.4-.1-8.1 5-17.2 11.2zm2.5 159.9c-26.5 6.2-45.7 23.6-54.2 49.1-2.3 6.9-2.6 9.7-2.7 21-.1 10.9.3 14.2 2.2 20.5 7.6 24.3 25.4 42.1 49.9 49.6 8 2.5 28.3 2.5 37.3.1 24-6.4 42.7-24.2 50.7-48.2 2.3-7.1 2.6-9.6 2.7-21.5 0-11.9-.3-14.4-2.6-21.2-4-11.9-9.2-20.4-18.2-29.4-13.9-13.9-28.6-20.3-48.1-21-7.2-.2-13 .1-17 1zm17 17.1c.1 10.5-.1 11.4-2.3 11-.9-.2-1.9-.4-2.2-.4-.4-.1-.5-15-.1-18.9 0-.8 1-1.2 2.3-1 2.2.3 2.3.8 2.3 9.3zm-10.1-2.3c.5 2.3 1.6 10.4 1.7 12.3 0 .5-.4 1.1-.9 1.3-1 .3-1.7-2-2.8-9.8-.3-2.4-.8-4.8-1-5.2-.3-.5.2-.8 1-.8.9 0 1.8 1 2 2.2zm17.6.1c0 3.6-2.2 13.7-3 13.7-1.8 0-1.6-2.7.8-13.3.1-.4.2-1.2.2-1.7 0-.6.5-1 1-1 .6 0 1 1 1 2.3zm-24.3 7.2c1.5 4.5 2 7.2 1.3 7.9-1 1-.9 1.3-4-7.8-2.3-6.8-2.4-7.9-.8-7.4.6.2 2.2 3.5 3.5 7.3zm33.3-6.8c0 2.6-4.6 14.3-5.7 14.3-.7 0-1.3-.2-1.3-.3 0-.3 3.3-10.3 4.5-13.5.5-1.2 2.5-1.7 2.5-.5zm-41.2 8.8c3.4 6.9 3.8 8.5 2.2 8.5-1.2 0-8.1-13.5-7.3-14.4 1.3-1.2 1.9-.5 5.1 5.9zm49.5-5.8c.3.5-1.2 4.1-3.2 8.2-2.5 4.9-4 7-4.6 6.1-.5-.7.6-4 2.6-8.1 3.1-6.6 4.2-7.8 5.2-6.2zm-55.9 10.5c2.7 3.9 4.1 6.7 3.6 7.2-.6.5-1.1.8-1.3.5-.1-.2-2.2-3-4.5-6.1-2.3-3.1-4.2-6.2-4.2-6.8 0-2.4 2.2-.6 6.4 5.2zM369 195c0 .6-1.9 3.7-4.2 6.8-2.3 3.1-4.4 5.9-4.5 6.1-.2.3-.7 0-1.2-.5-.6-.5.9-3.4 3.6-7.2 4.2-5.8 6.3-7.5 6.3-5.2zm-70.1 10.3c4.7 4.5 6.2 6.7 4.4 6.7-1.2 0-11.3-10-11.3-11.1 0-1.7 1.5-.7 6.9 4.4zm77.1-4.4c0 1.2-9.9 11.1-11.1 11.1-1.8 0-.8-1.7 4.2-6.8 5-5 6.9-6.2 6.9-4.3zm-39.5 18.7c0 13.9.3 16.3 1.8 17.8 3.6 3.7 1 10.6-4.1 10.6-5.5 0-8.3-6.9-4.4-10.7 1.6-1.6 1.8-3.6 1.7-18.1v-16.3l2.5.3 2.5.3v16.1zm-42.7-8.4c3.1 2.3 5.9 4.4 6.1 4.5.3.2 0 .7-.5 1.3-1 .9-13.4-7.4-13.4-9.1 0-1.8 2.1-.9 7.8 3.3zm88-3.1c-.7 2.1-12.6 10-13.3 8.8-.4-.6.1-1.7 1.1-2.4 1.1-.7 3.7-2.7 5.9-4.3 4.1-3.1 7-4.1 6.3-2.1zm-86.1 14.2c-.4 1.3-1.1 1.1-8-2.4-7.4-3.7-7.1-3.5-6.2-4.8.7-1.3 14.7 5.8 14.2 7.2zm91.2-5.9c-1 .9-12.9 6.6-13.9 6.6-.5 0-1-.4-1-1 0-1.5 13.4-8 14.4-6.9.5.5.8 1 .5 1.3zm-102.9 8c8.2 2.6 10.4 3.6 9.4 4.6-1.2 1.2-14.6-3.1-15.2-4.8-.5-1.5.3-1.5 5.8.2zm105.8-.2c-.5 1.4-13.8 5.9-15.1 5.1-1.5-.9.9-2.4 6.9-4.3 7.2-2.2 8.7-2.4 8.2-.8zm-102.5 9.1c2.1.3 4.1.7 4.4 1 .7.8-.7 2.8-1.6 2.3-.4-.3-3-.8-5.7-1.1-6.8-.9-8.4-1.4-8.4-3 0-1 .9-1.1 3.8-.5 2 .5 5.4 1 7.5 1.3zm104.7-.4c0 1.1-.9 1.4-10.2 2.8-4.5.8-5.8.7-5.8-.3 0-.7 1.7-1.6 3.8-1.9 2-.4 4.1-.8 4.6-.9 3-.7 7.6-.5 7.6.3zm-101.7 7c.5 0 .7 1.1.5 2.3-.3 2.1-.8 2.3-9.1 2.3-8.9.1-11.5-.9-10.4-3.8.3-.9 2.9-1.2 9.3-1.1 4.9.1 9.3.2 9.7.3zm106.2 2.1c0 2.5 0 2.5-10 2.5-8.2 0-10-.3-10.1-1.5-.1-3 1.6-3.5 10.8-3.5 9.2 0 9.3.1 9.3 2.5zm-82 24.1c.5.5 1.7.9 2.6.9.9 0 2 .7 2.3 1.6.4 1 1.5 1.4 3.3 1.2 2.7-.3 3.6-2.3 1.1-2.3-.6 0-1.3-.6-1.5-1.3-.6-1.5 8.3-1.7 9.2-.2.3.5-.3 1-1.4 1-1.2 0-2.1.6-2.1 1.4 0 1 1 1.4 3 1.4 1.6-.1 3.6.5 4.4 1.1 1.2 1 3.1.9 9.3-.5 9-2.1 13.5-2.4 14-.8.2.7-.8.9-2.8.6-2.9-.4-3.8.2-9.4 6.2l-6.2 6.6h-11.1c-11.7 0-12-.1-11.7-5.3.1-1.5-.2-2.7-.7-2.7-.5 0-3.1-.9-5.8-2.1l-4.9-2.1 1.7-3.4c1.2-2.7 2-3.3 3.6-2.8 1.2.3 2.5 1 3.1 1.5zM361 281c-.8.6-1.9 1-2.3 1-1.5 0-1.9-3.2-.7-5.8l1.2-2.7 1.6 3.3c1.4 2.9 1.4 3.4.2 4.2zm-227 86.8v3.7h15c11.1 0 15.1-.3 15.5-1.2.5-1.3-2.8-1.6-19.7-1.5-4.3 0-8-.4-8.3-.9-.4-.5 5.6-.9 14.9-.9H167v6h-17l-.1 3.2c-.4 11.9-.1 32 .5 32.6 1.6 1.6 2.1-2.5 2-17.2l-.1-15.6h17.2l-.3-6-.4-6H134v3.8zm59.6-2.2c-6.2 2-13.7 9.3-15.4 15-6.4 21.7 15 40.5 34.6 30.5 8.3-4.3 14.6-15.3 13.7-24.3-.8-8.2-6.8-16.8-14.2-20.3-4.9-2.4-12.9-2.8-18.7-.9zm18.2 3.5c13.4 6.5 16.4 24.4 5.7 35.3-13.1 13.5-36.3 5.2-37.8-13.6-.9-11.1 5.4-20 16.7-23.3 5-1.5 9.9-1 15.4 1.6z"/><path d="M192.5 371.4c-5.4 2.5-10.4 8.9-10.7 13.6-.7 11.6 3.2 18.6 12.6 22.4 9.8 4 20.2 0 25.1-9.8 8.8-17.6-8.9-34.8-27-26.2zm16.1 1.7c9 2.8 13.2 14.6 8.5 23.7-8.3 16.2-32.3 10.4-32.5-7.8-.1-7.5 3-12.4 9.8-15.6 5.1-2.4 7.7-2.4 14.2-.3z"/><path d="M198.3 374c-11.8 2.7-16.1 17.1-7.6 25.6 3.2 3.2 6.8 4.6 11.5 4.6 14.3-.2 20.2-19.8 8.1-27.5-4.6-3-7.7-3.7-12-2.7zm12.4 6.4c8.2 8.9.9 22.6-11.1 20.9-12-1.8-14.5-19.1-3.3-23.8 5.5-2.3 10.6-1.3 14.4 2.9zm18.8-14.4c.2.8 2.7 8.9 5.6 18 2.8 9.1 5.2 16.9 5.3 17.5.1.5 1 3.5 2 6.6 1.5 4.9 2.1 5.6 4.3 5.6 1.9 0 2.9-.8 4.1-3.6 6-14 8-19.6 7.5-20.8-.8-2.2-1.7-.8-6.3 10.9-2.4 6-4.7 10.8-5.1 10.8-.4 0-2.6-6-4.9-13.3-2.3-7.2-4.4-14.1-4.8-15.2-.3-1.1-.6-2.2-.7-2.5-.1-.3-.9-3.1-1.9-6.4-1.5-5-1.6-8-.2-6.5.3.4 6 18.5 10.4 33.1.9 3.2 2 5.8 2.4 5.8 1.4 0 1.3-3.7-.3-8.5-1.8-5.4-7-22.3-9-29.2-1.1-4-1.3-4.2-5-4-3 .1-3.8.5-3.4 1.7z"/><path d="M239.6 364.9c-.3.4.8 4.8 2.4 9.7 2.4 7.6 3.3 10.7 5.6 18.9 2.1 7.4 1.7 7.6 6.1-2.3l4-9.3 6.9 16.1c3.8 8.8 7.5 16 8.2 16 1.3 0 1.7-2.2.5-3.3-.3-.4-3.8-8.1-7.8-17.3-3.9-9.1-7.5-16.6-8-16.5-.5 0-2.3 3.4-4.1 7.7l-3.2 7.7-4.1-13.1c-2.2-7.1-4.1-13.5-4.1-14.1 0-1.3-1.7-1.5-2.4-.2z"/><path d="M278.5 365.4c-4.9 15.1-5.7 19.6-3.6 19.6.3 0 1.7-4.1 3-9l2.5-9h7.5l-1.5 4.7c-1.9 6.3-3.7 12.7-3.8 13.3-.1.3-.4.9-.7 1.5-.3.5-1.6 4.7-2.9 9.2-1.2 4.6-2.6 8.3-3 8.3-.4 0-4.3-8.2-8.5-18.3-4.3-10-8.4-18.8-9.1-19.6-1.1-1.2-1.7-.7-3.5 3.5-4.6 10.6-5.7 14.1-5 15.3.5.8 2.1-1.8 4.3-6.9l3.5-8.1 8.3 19.3c11.6 27.1 10.2 25.4 13 16.1 1.2-4.3 4.5-14.9 7.1-23.6 2.7-8.7 4.9-16.2 4.9-16.7 0-1.2-12.1-.9-12.5.4zm22.4 2.4l-.4 3.7h15.2c11.8 0 15.3-.2 15.3-1.2 0-1.4.1-1.4-16.7-1.5-6.2 0-11.3-.5-11.3-.9 0-.5 6.7-.9 14.9-.9 13.7 0 14.9.1 15.4 1.9.8 3.3-.7 4-8.8 4.3l-8 .3v17.7c0 12.8.3 17.8 1.1 17.8 1.7 0 2-2.1 1.8-18.3V376H336v-12h-34.8l-.3 3.8zm45.6 20.9v24.8h12l.3-8.5c.2-4.7.7-8.9 1.1-9.3.5-.5 3.2 3.4 6 8.7l5.1 9.5h13.9l-4-7.7c-2.2-4.2-4.7-8.3-5.4-9.1-3-3-2.5-.1.9 6.3 2 3.7 3.6 6.9 3.6 7.1 0 .3-1.7.5-3.8.5-3.7 0-3.8-.1-8.4-8.8-4.4-8.2-4.8-8.7-8.2-9l-3.6-.3v8.9c0 8.5-.1 9-2.3 9.4-4.7.9-4.7 1-4.7-23.8 0-18.1-.3-23.4-1.3-23.4-.9 0-1.2 5.5-1.2 24.7z"/><path d="M351.6 364.8c-.9 1.6 0 43.7.9 44 .6.1 1.1-7 1.2-19.5.1-10.9.2-20.4.2-21.1.1-1.7 14.2-1.6 18.6.2 7.6 3.2 9.7 14.3 3.8 20.5-2.3 2.3-6.1 4.3-7.1 3.7-.4-.3-1.4-.1-2.2.4-1.2.8-1.3 1.3-.2 3 .6 1.1 2.6 4.7 4.3 7.9 2 3.8 3.6 5.8 4.4 5.4 1-.3.4-2.1-2.2-6.9-1.9-3.6-3.4-6.6-3.2-6.7l4.4-2.2c5.3-2.7 7.8-7.2 7.7-14 0-6.3-2.5-10.6-7.5-13.2-3.3-1.7-22.2-2.9-23.1-1.5zm44.3-.1c-.1.4-.1 8.5-.1 17.9 0 14.2.3 17.7 1.7 20.5 3.8 7.5 8.1 10.1 17.3 10.5 9.6.4 15.8-2.4 19.8-8.9 1.7-2.8 1.9-5.6 2.2-22.1.3-15.3.1-18.7-.9-18.4-1.1.4-1.4 4.4-1.5 18.1-.1 17.4-.1 17.6-2.8 21.7-3.3 5-7.6 7-15 7s-12.5-2.2-15.6-6.6c-2.3-3.4-2.4-4.4-2.6-20.4l-.3-16.8 3-.4c1.7-.3 3.3 0 3.5.6.2.6.5 8 .6 16.4l.3 15.4 2.8 2.4c5.3 4.6 16.9 2.3 18.5-3.6.3-1.4.6-8.9.6-16.8 0-9 .4-14.2 1.1-14.2 1.2 0 1.3 29.2.1 32.7-2.3 6.9-15.6 8.9-21.8 3.4l-3.3-2.9-.3-15.6c-.3-11.4-.7-15.6-1.6-15.6-.9 0-1.2 3.9-1.1 15.4.1 14.5.3 15.7 2.5 18.9 2.8 4 6.8 5.7 13.6 5.7 6.2 0 11.2-2.6 13.7-7.1 1.7-2.9 1.9-5.5 1.9-18.9 0-8.5 0-16.3-.1-17.3-.1-1.3-1-1.7-3.6-1.7-4 0-3.7-1.6-3.7 18.5 0 15.3-.9 17.9-6.4 19-4.6.8-9.2-1-10-4-.3-1.3-.6-9.2-.7-17.6l-.2-15.4-5.7-.3c-3.2-.2-5.8 0-5.9.5zm66.6.3c-7.4 1.8-11.4 4.7-16.1 11.9-2.6 3.9-2.9 5.3-2.9 12 0 8.7 1.5 12.2 7.4 18 7.7 7.5 19.6 8.9 29.1 3.4 2.5-1.4 4.7-2.7 4.8-2.9.2-.1-1.1-2.5-2.9-5.2l-3.3-5.1-3.9 2.1c-5.2 2.6-9.8 2.5-13.7-.2-12.9-9.2-1-27.7 13.2-20.4 2.9 1.5 3.1 1.4 5.5-.8l2.4-2.3-2.5-2.2c-7-6-19.9-5.1-26.2 1.9-12.8 14-1.9 35.7 16.8 33.5 2.8-.4 5.9-1.3 6.7-2.2 2.2-2.2 1-2.6-3.3-1.1-16.7 5.7-30.3-13.9-18.9-27.5 3.5-4.1 7.4-5.9 12.8-5.9 4.8 0 11 2.4 10 4-.3.5-2.2.2-4.2-.6-11.4-4.8-23.1 5.9-19.6 17.9 2.5 8.5 12.7 13.2 20.5 9.3 3.2-1.6 3.4-1.6 5.1.5 2.5 3.1 2.2 3.8-2.9 5.9-14.9 6.4-30.6-4.2-30.6-20.7-.1-5.9 3.1-12.4 8.2-16.7 7.4-6.1 19.2-5.9 28.2.6 2.1 1.5 3.5.4 1.9-1.6-3.5-4.3-14.9-7.2-21.6-5.6zm29.6 24v25h6.5c4.6 0 6.4-.4 6.3-1.3-.1-.6-.1-5.3 0-10.3l.1-9.1 9.4-11.9c6.4-8.2 8.9-12 7.9-12.2-.8-.2-2.1.4-2.8 1.5-.7 1-5 6.3-9.4 11.8l-8.1 10v9.1c0 9.7-.5 10.6-5.2 9.6-1.7-.3-1.8-2.3-1.8-23.8 0-19.5-.2-23.4-1.4-23.4s-1.4 4.1-1.5 25z"/><path d="M497.5 364.9c-.3.5-.4 5.5-.4 11 .2 8 .5 9.9 1.5 9 .8-.6 1.2-3.6 1.2-8.2 0-9.5 0-9.7 1.2-9.7.6 0 1 2.9 1 6.6 0 5.9.2 6.5 1.5 5.4 1.2-1 1.5-3 1.4-8l-.2-6.7-3.3-.1c-1.8-.1-3.6.3-3.9.7zm19.9.5c-.5.6-5.4 6.7-10.7 13.5l-9.8 12.5.3 9c.4 11.6 2.3 11.7 2.4.2l.1-8.4 9.8-12.6 9.8-12.6h4.5c3.4 0 4.2.3 3.5 1.2-9.9 12.6-18.3 23.8-18.3 24.3 0 .7 8.2 11.7 11.3 15.2 1.1 1.2 2.4 2 2.9 1.7.8-.5-1.3-3.7-8.9-14l-2.3-3.1 10.5-13.4c5.7-7.4 10.5-13.7 10.5-14.1 0-1.1-14.5-.6-15.6.6zm-255.6.2c-.4.3.5 3.2 1.8 6.3 1.4 3.1 4.6 10.4 7.2 16.3 2.5 6 4.7 10.6 4.9 10.4.5-.4 9.3-28.8 9.3-29.9 0-.4-.6-.6-1.2-.5-.7.2-2.9 5.6-4.8 12.1l-3.6 11.9-5.4-12.4c-5.3-12.4-7.1-15.4-8.2-14.2zm94.2 7.1v3.9h5.7c10.3-.2 11.6 5.8 1.5 6.8-3.9.4-4.2.2-4.2-2 0-1.5-.6-2.4-1.5-2.4-1 0-1.5 1.1-1.5 3.5v3.5h5.3c9.2 0 13.6-4.3 9.6-9.4-1.7-2.2-2.9-2.6-7-2.6-2.7 0-4.9-.5-4.9-1 0-.6 2.4-1 5.4-1 4.3 0 5.8.5 8 2.5 2.8 2.6 3.2 4.8 1.6 9-1.2 3.2-4.9 4.7-12.2 4.7-4.3.1-5.8.4-5.8 1.5 0 2 14 1.2 17.4-1.1 5.2-3.3 5.2-13.9 0-17.3-1.6-1-5.4-1.8-10-2.1l-7.4-.4v3.9zm-222 1.8c0 1.2 1.2 1.5 5.5 1.5h5.5v37.8l6 .1h6l.1-3.2c.3-8.5-.2-32.1-.6-32.5-1.4-1.4-1.7 2-1.7 16.5 0 9.8-.4 16-1 16.4-.6.4-2.2.3-3.7 0l-2.6-.7v-36.9l-6.7-.3c-5.6-.2-6.8 0-6.8 1.3zm167 0c0 1.2 1.2 1.5 5.3 1.5h5.4l.1 17.2c0 9.5.1 18.1.1 19.1.1 1.4 1 1.7 6.1 1.6l6-.2v-17.8c0-10.4-.4-17.9-.9-17.9-1.6 0-1.8 2.9-1.6 17 .1 7.4-.2 14.2-.6 15.1-.5 1-1.7 1.4-3.6 1.2l-2.8-.5v-37.3l-6.7-.3c-5.6-.2-6.8 0-6.8 1.3z"/><path d="M515.6 391.9c-.3.4 2.4 4.8 5.9 9.7 3.6 4.9 6.5 9.1 6.5 9.4 0 .3-1.9.4-4.3.2-4.1-.4-4.5-.8-10.2-8.5-4.1-5.5-6.1-7.6-6.3-6.4-.2 1 2.3 5.3 5.5 9.7l5.8 7.9 7.8.1h7.8l-5.6-7.6c-3.1-4.2-6.8-9.3-8.3-11.4-2.8-4-3.7-4.6-4.6-3.1zm-318.2 44.6c-9.3 5.6-9.2 19.5.2 24.5 1.6.8 3.4 1.6 3.9 1.7.6.1 3 .4 5.4.8 8.5 1.2 12.1 4.1 12.1 9.7 0 6.4-4.2 10.7-10.9 11-5.1.2-8.3-2-12.4-8.2-4.6-7.1-5.8-6.6-5.5 2.1.1 3.9.5 7.2 1 7.5.4.3 1.5 0 2.5-.7 1.4-.8 2.9-.8 6.1.3 11.4 3.8 23.2-2.2 24.7-12.6.9-5.5 0-9.7-2.6-13.1-2.9-3.5-4.7-4.3-14-6-9.1-1.5-11.9-3.5-11.9-8.3 0-5.7 7.1-11 11.9-8.9 3 1.3 6.7 4.8 10 9.5 1.2 1.8 2.7 3 3.2 2.7.5-.4.8-3.5.7-7l-.3-6.4h-4c-2.2 0-6.7-.3-10-.6-5.2-.5-6.5-.2-10.1 2zm45.1-1.7c-5.5.1-10.4.7-10.9 1.2-.7.7.3 1 2.7 1h3.7v47l-2.3-.4c-2.8-.5-5.7.8-3.5 1.6 2.6 1.1 21.6.9 22.3-.2.6-1-.6-1.4-3.8-1.1-2.5.3-2.8-1.3-2.5-13.3l.3-10.9 8.8 11.2c8.3 10.5 9.7 13.5 6 12.9-.9-.2-1.8.2-1.9.7-.3.7 4 1.1 11.6 1.2 8.8.1 12-.2 11.7-1-.2-.7-1.5-1.3-3-1.5-1.7-.2-3.8-1.8-5.9-4.5-1.8-2.3-4-5.1-4.8-6.1-.8-1.1-2.9-3.5-4.6-5.5-1.7-2-4.7-5.8-6.7-8.5l-3.7-4.9 4.2-4.6c11.5-12.6 11.4-12.5 15.2-12.3 2 .2 3.6-.2 3.6-.8 0-1.1-1-1.2-11.2-1.4-4.8-.1-6.8.3-6.8 1.1s1.4 1.3 3.6 1.3h3.5l-8.7 9.7c-4.8 5.4-9.3 10.5-10 11.3-1.2 1.2-1.4-.3-1.4-9.8V437h3c2.7 0 4.1-1.4 2.3-2.2-.5-.2-5.3-.2-10.8 0zm103.5.9c0 .8 1.3 1.3 3 1.3h3l.1 8.2c.2 30.5.1 36.9-.4 37.4-.4.4-1.6.7-2.8.8-1.2 0-2.4.6-2.6 1.2-.2.6 3.5 1 10.9.9 8 0 11.3-.4 11.6-1.3.2-.8-.8-1.2-3.1-1.2h-3.4v-22.3c0-12.2.2-22.7.4-23.3.2-.6 1.5-.9 2.9-.6 1.7.3 2.4 0 2.4-1.1 0-1.4-1.6-1.6-11-1.4-8 .1-11 .5-11 1.4zm32-.6c-3.5.6-2.9 1.4 1.5 2.1 1.9.3 2 1.1 2.1 22.3.1 12.1-.1 22.5-.5 23-.3.6-1.5 1.1-2.5 1-1.1 0-2.1.5-2.3 1.1-.3 1 11.8 1.3 20.7.5 2.1-.2-.1-1.9-3-2.3-2.4-.3-2.5-.4-2.6-10.3-.1-11.9.6-13.9 4.4-13 6.8 1.6 8.7 4.5 9.5 14.1.3 3.2.8 6.6 1.2 7.5.9 2.4 7.4 5 11.7 4.7 4.6-.4 5.2-2.8.8-2.8-2.2 0-3-.5-3.1-1.8-.6-13-2.2-17.2-7.1-19.3-4.9-2-5.2-3.5-1-4.7 7.9-2.4 11.8-10.1 8.1-16.1-3.1-5.2-6.6-6.2-21.2-6.4-7.3-.1-14.8.1-16.7.4zm25.6 2.7c2.6 1.8 3.9 9.1 2.4 13.7-1.5 4.4-2.8 5.4-8.4 5.9-3.6.4-4.8.1-5.4-1.2-.7-1.4-.9-12.5-.3-18 .1-1.3 9.8-1.7 11.7-.4zm48.8-3c-.6.4-1.7 2.5-2.4 4.7s-3 8.7-5.2 14.5c-2.2 5.8-4.2 11.2-4.4 12-1 4.3-5.9 16.6-6.8 17.2-.6.4-1.7.6-2.4.3-.8-.3-1 0-.6.7.5.8.2.9-.9.5-1-.3-1.7-.2-1.7.3s3.6.8 8 .7c4.4-.1 8-.5 8-1 0-.7-2.3-1.1-4.7-.8-.6.1-1.4-.2-1.7-.7-.6-1.1 3.2-11.4 4.5-12.3 1.4-.8 13.3-.9 14.5-.1 1.2.8 4.4 9.6 4.4 12 0 1-.8 1.3-2.5 1-1.4-.3-2.8-.1-3.1.3-.6 1-.1 1.1 12.4 1.3 5.1.1 9.6-.2 9.8-.6.3-.4-.2-.9-1-.9-5.2-.4-3.6 3-18.5-38.6-4-11.2-4.2-11.5-5.7-10.5zm.5 24.1c1.7 4.7 2.9 8.7 2.6 8.9-.3.3-3 .6-6.1.7-3.9.1-5.8-.3-6.1-1.2-.6-1.6 5.4-17.9 6.3-17 .1.1 1.6 4 3.3 8.6zm-161.5-23c-1.1 1.1-.1 2 2.7 2.3 3.4.3 2.6-1.2 10.4 20.8 6.9 19.2 10.3 27.5 11.5 27.5.6 0 3.3-6.3 5.9-14 2.7-7.7 6.5-18.7 8.5-24.4 2-5.7 3.6-10.6 3.6-10.8 0-.3 1.1-.3 2.5-.1 1.3.2 2.3-.2 2.2-.7-.2-1-10-1.5-12.4-.7-2.4.8-1.3 2.2 1.2 1.8 1.3-.3 2.7-.1 3 .4.3.4-1.3 6.1-3.6 12.7-2.2 6.5-4.5 13.3-4.9 15.2-1.5 6.1-2.6 5.5-5.9-3.6-1.8-4.8-4.5-12-6-15.8-1.5-3.9-2.6-7.5-2.4-8.1.2-.6 1.5-.9 2.8-.6 1.7.3 2.5 0 2.5-1 0-1.1-2.1-1.4-10.6-1.3-5.8 0-10.8.2-11 .4zm222.7 69.5c-.6.7-8 6.6-16.3 13.2-8.4 6.5-15.8 12.3-16.4 12.9-.6.5-4.6 3.7-8.9 7-4.3 3.3-8.6 6.7-9.5 7.6-1 .9-4.4 3.6-7.6 6-6.4 4.8-9 6.9-10.8 8.4-.6.6-9.6 7.8-20.1 16-10.4 8.2-25.7 20.3-34 26.8-8.2 6.5-15.7 12.4-16.5 13-.8.7-2.9 2.3-4.6 3.7-1.7 1.4-4.6 3.7-6.5 5.2-6.4 4.9-25.4 19.9-27.1 21.3-1.4 1.2-2.4.8-7.9-3.1-3.5-2.4-7.6-5.4-9.2-6.6-1.6-1.3-10.4-7.8-19.6-14.6-9.1-6.7-17.3-12.8-18.2-13.5-.8-.6-2.3-1.7-3.1-2.2-1.6-1-52.8-38.8-55.8-41.2-5.8-4.5-19.3-14.3-19.8-14.3-.4 0-2.1-1.3-3.9-2.8-1.7-1.5-7.1-5.6-12-9.1-4.8-3.6-13.1-9.6-18.3-13.5-5.2-3.9-11.1-8.1-13-9.4l-3.5-2.3 3 2.8c1.7 1.5 5.5 4.8 8.5 7.3s7.2 6.1 9.4 8c2.3 1.9 4.7 3.9 5.4 4.5.7.5 2.1 1.7 3 2.6.9.8 4.4 3.8 7.7 6.5s7.1 5.9 8.5 7.1c1.4 1.2 5.9 5 10.1 8.5 18.5 15.5 31.4 26.3 31.9 26.8.3.3 9.1 7.7 19.5 16.5 10.5 8.7 19.2 16.1 19.5 16.5.3.3 3 2.5 6 5s5.7 4.7 6 5c.3.3 4.8 4.1 10 8.5 5.2 4.3 9.7 8.1 10 8.4.3.3 2.6 2.3 5.2 4.4 2.6 2.1 5.3 4.3 6 5 .7.7 3.9 3.3 7 6l5.6 4.7 4.4-3.7c5.5-4.9 9.9-8.8 20.3-18.2 2.2-2 7.8-7 12.5-11.1 4.6-4.1 9.1-8.2 10-9 .9-.8 4.8-4.3 8.7-7.8 4-3.5 8.3-7.3 9.6-8.5 8.2-7.5 19.9-17.9 23.7-21.3 2.5-2.1 4.7-4.1 5-4.4.3-.3 4.5-4.1 9.5-8.5 4.9-4.4 9.9-8.9 11.1-10 1.1-1.1 4.9-4.5 8.4-7.5s7.5-6.6 8.9-8c1.5-1.4 6.5-5.9 11.1-10 4.7-4.1 9-7.9 9.6-8.5 5.1-4.6 18-16.1 22.6-20.1 3.1-2.7 5.9-5.5 6.2-6.2.7-1.6.1-1.5-1.3.2z"/></svg>