<svg width="273.5597826086956" height="471.890625" viewBox="0 0 199.99999999999997 345" class="css-1j8o68f">
  <defs id="SvgjsDefs2023"/>
  <g id="SvgjsG2024" featurekey="rootContainer" transform="matrix(1,0,0,1,0,0)" fill="#111111">
    <path xmlns="http://www.w3.org/2000/svg" fill-rule="evenodd" d="M5,65 L100,0 L195, 65 L100, 10 z M5,265 L100,345 L195,260 L100, 335 z"/>
  </g>
  <g id="SvgjsG2025" featurekey="symbolFeature-0" transform="matrix(0.7306306333508071,0,0,0.7306306333508071,63.4688322277312,84.46737028849398)" fill="#0f81c7">
    <path xmlns="http://www.w3.org/2000/svg" d="M95.398,30.821c-2.482-5.867-6.034-11.137-10.559-15.661c-4.524-4.525-9.793-8.076-15.661-10.56  C63.104,2.032,56.65,0.729,50,0.729c-6.651,0-13.104,1.304-19.18,3.872c-5.867,2.483-11.137,6.034-15.661,10.56  c-4.524,4.524-8.077,9.794-10.56,15.661c-2.568,6.076-3.872,12.528-3.872,19.18c0,6.65,1.304,13.104,3.872,19.179  c2.482,5.868,6.035,11.137,10.56,15.661c4.524,4.525,9.794,8.077,15.661,10.56c6.075,2.569,12.528,3.872,19.18,3.872  c6.65,0,13.104-1.303,19.179-3.872c5.868-2.482,11.137-6.034,15.661-10.56c4.524-4.524,8.076-9.793,10.559-15.661  c2.57-6.075,3.873-12.528,3.873-19.179C99.271,43.35,97.969,36.897,95.398,30.821z M69.113,14.511l-5.044,9.898l-1.636-0.833  l5.045-9.898L69.113,14.511z M61.58,11.391l1.746,0.567l-3.434,10.565l-1.746-0.567L61.58,11.391z M55.397,10.054l1.813,0.287  l-1.738,10.973l-1.814-0.287L55.397,10.054z M48.373,7.062l3.252-0.001v13.796h-3.252V7.062z M48.373,45.899V23.146h3.252v22.752  c1.632,0.647,2.787,2.239,2.787,4.103c0,2.437-1.976,4.412-4.412,4.412c-2.438,0-4.413-1.976-4.413-4.412  C45.587,48.138,46.741,46.547,48.373,45.899z M44.602,10.055l1.738,10.972l-1.813,0.288l-1.737-10.974L44.602,10.055z M38.42,11.391  l3.433,10.565l-1.747,0.568l-3.433-10.566L38.42,11.391z M32.521,13.678l5.043,9.898l-1.635,0.833l-5.044-9.898L32.521,13.678z   M7.014,51.628l0.001-3.252H20.81l0.001,3.252H7.014z M21.025,46.343l-10.973-1.739l0.287-1.813l10.973,1.739L21.025,46.343z   M21.955,41.855l-10.566-3.435l0.567-1.746l10.565,3.434L21.955,41.855z M23.574,37.567l-9.898-5.043l0.834-1.637l9.898,5.044  L23.574,37.567z M25.845,33.587l-8.988-6.53l1.079-1.485l8.988,6.53L25.845,33.587z M28.71,30.011l-7.855-7.856l1.298-1.298  l7.855,7.855L28.71,30.011z M25.569,17.938l1.485-1.078l6.529,8.987L32.1,26.926L25.569,17.938z M54.385,78.025h-15.76v-5.259  l-7.764-2.759l2.258-4.909l6.989,2.408v1.424h-0.001c1.066,0.003,2.585,0.006,4.131,0.009v-1.727h-2.477v-1.483h6.542v1.483h-2.476  v1.73c2.467,0.005,4.617,0.009,4.617,0.009l1.337,1.881l10.374-2.676l3.723-0.65l1.809,1.699l-0.724,0.938l-1.229-1.337  l-3.034,0.461L54.385,78.025z M67.295,77.255c-1.169,0-1.843-0.385-1.843-1.538s1.843-4.248,1.843-4.248s1.843,3.095,1.843,4.248  S68.464,77.255,67.295,77.255z M67.899,26.925l-1.485-1.078l6.531-8.988l1.484,1.079L67.899,26.925z M69.99,28.711l7.856-7.854  l1.298,1.298l-7.855,7.854L69.99,28.711z M73.075,32.101l8.988-6.529l1.079,1.484l-8.988,6.53L73.075,32.101z M75.591,35.931  l9.899-5.043l0.834,1.637l-9.898,5.042L75.591,35.931z M77.477,40.107l10.566-3.433l0.568,1.746l-10.566,3.433L77.477,40.107z   M78.688,44.528L89.66,42.79l0.287,1.813l-10.973,1.737L78.688,44.528z M79.145,51.628l0.001-3.252H92.94v3.252H79.145z"/>
  </g>
  <g id="SvgjsG2026" featurekey="nameFeature-0" transform="matrix(1.156363510604998,0,0,1.156363510604998,-0.3237812674131201,171.3614592313754)" fill="#111111">
    <path d="M6.64 40.2 c-0.6 0 -1.2 -0.32 -1.88 -0.56 l-0.88 -0.88 c-0.04 -0.2 -0.44 -0.84 -0.44 -1.36 c0 -5.48 0.2 -9.92 0.2 -13.36 c0 -0.52 -0.04 -0.8 -0.56 -0.8 c-0.12 0 -0.28 0 -0.44 0.04 c-0.08 0 -0.56 -0.04 -0.64 -0.04 c-0.24 0 -0.52 0.12 -1 0.12 c-0.12 -0.32 -0.72 0.08 -0.72 -0.64 s0.56 -0.68 0.88 -0.8 c0 0 0.12 0 0.28 0.08 l1.12 0 c0.72 -0.16 0.68 0 1 -0.32 c0.12 -4.04 -0.12 -4.36 1.16 -4.36 c0.04 0 1.16 0.04 1.44 0.04 c0.56 0 0.36 -0.24 2.04 -0.24 l-0.04 0 c0.04 0 0.4 0.12 0.44 0.2 c0 3.44 -0.08 3.36 -0.08 4.36 l0.32 0.32 l1.8 0 c0.08 -0.12 1.08 -0.12 1.4 -0.12 l-0.04 0 s0.84 0.16 0.84 0.56 c0 0.52 -0.08 0.84 -1.36 0.84 c-0.68 0 -1.72 -0.04 -2.64 -0.04 c-0.28 0 -0.4 2.4 -0.4 3.4 c0 1.08 0.08 1.6 0.08 2.44 c0 2.28 -0.12 5.32 -0.12 6.16 c0 0.72 0.04 1.4 0.2 1.52 l0 -0.04 c0.08 0 -0.08 1.52 1.52 1.52 c0.88 0 0.92 0 1.56 -0.4 c-0.04 0 0.64 -0.64 0.64 -0.8 l0 -0.04 s0.2 -1.28 1.08 -1.28 c0.52 0 0.72 0.56 0.72 0.92 c0 0.16 -0.44 0.44 -0.44 0.76 c0 0.88 -1.64 1.64 -1.8 2.08 c-0.12 -0.08 -0.36 0.32 -0.52 0.32 c-0.92 0 -1.08 0.4 -2.08 0.4 l-0.04 0 c-0.84 0 -1.6 0.16 -1.6 0.16 l0 0 c-0.32 0 -0.72 -0.08 -1 -0.16 z M6.2 39.72 c0 -0.04 -0.04 -0.04 -0.04 -0.04 l0 0.12 s0.04 -0.04 0.04 -0.08 z M10.84 39.6 c-0.04 0 -0.04 0.04 -0.04 0.08 c0 0 0 0.04 0.04 0.04 l0 -0.12 z M6 39.52 c-0.04 0 -0.08 0.04 -0.08 0.08 c0 0 0.04 0.04 0.08 0.04 s0.04 -0.04 0.04 -0.04 c0 -0.04 0 -0.08 -0.04 -0.08 z M5.32 39.2 c-0.04 0 -0.08 0.04 -0.08 0.08 c0 0 0.04 0.04 0.08 0.04 l0.04 -0.04 c0 -0.04 -0.04 -0.08 -0.04 -0.08 z M4.68 39.08 c-0.04 0 -0.08 0.04 -0.08 0.04 l0.12 0 z M12.2 38.32 l0 0.24 l0.08 -0.08 c0 -0.08 -0.08 -0.16 -0.08 -0.16 z M4 38.24 l-0.04 0.04 c0 0.04 0.04 0.04 0.04 0.04 c0.04 0 0.04 0 0.04 -0.04 c0 0 0 -0.04 -0.04 -0.04 z M4.12 37.68 c0 0.08 0 0.08 0.04 0.08 l0.04 0 l0 0 z M13.56 37.08 c-0.04 0 -0.08 0.04 -0.08 0.04 c0 0.04 0.04 0.04 0.08 0.04 c0 0 0.04 0 0.04 -0.04 z M3.76 36.28 l0 0.08 l0.12 0 z M13.28 36.12 c-0.04 0 -0.04 0.04 -0.04 0.04 c0 0.04 0 0.04 0.04 0.04 s0.04 0 0.04 -0.04 c0 0 0 -0.04 -0.04 -0.04 z M13.6 36.12 l-0.04 0.08 l0.16 0 z M3.76 31.96 l0 -0.08 l0 0.08 z M0.68 22.96 c0 0.04 -0.04 0.04 -0.04 0.08 s0.04 0.04 0.12 0.08 l0 -0.16 l-0.08 0 z M0.52 22.64 l0 0 l-0.04 0 c0 0 -0.04 0.04 -0.04 0.16 c0 0.04 0.04 0.12 0.04 0.12 c0.08 0 0.08 -0.08 0.08 -0.12 c0 -0.08 0 -0.12 -0.04 -0.16 z M10.96 22.72 l0 0.12 c0.08 0 0.08 -0.04 0.08 -0.12 l-0.08 0 z M1.16 22.52 l0 0.12 c0.04 -0.04 0.08 -0.08 0.08 -0.12 l-0.08 0 z M0.76 22.32 c-0.08 0 -0.24 0.16 -0.24 0.2 l0.4 0 c-0.04 -0.08 -0.12 -0.16 -0.16 -0.2 z M7.04 18.72 l0 0.2 c0.2 0 0.2 -0.04 0.24 -0.2 l-0.24 0 z M4 18.64 c0 0 -0.04 0.04 -0.04 0.08 s0.04 0.08 0.04 0.08 c0.04 0 0.04 -0.04 0.04 -0.08 s0 -0.08 -0.04 -0.08 z M4 18.32 l0 0.24 c0.08 -0.04 0.08 -0.12 0.08 -0.24 l-0.08 0 z M5 18.16 c0 0.04 -0.04 0.08 0.08 0.08 c0 -0.08 -0.08 -0.08 -0.08 -0.08 z M4 17.88 l0 0.2 l0.2 0 c0 -0.12 -0.12 -0.16 -0.2 -0.2 z M7.04 17.84 l0 0.16 c0.08 -0.04 0.08 -0.12 0.08 -0.16 l-0.08 0 z M7.96 17.52 c0 0 0 0.24 0.16 0.32 l0.08 -0.08 c0 -0.04 -0.04 -0.32 -0.2 -0.32 z M23.228 39.52 c-0.04 0 0 -0.04 0.08 -0.24 c-0.24 -0.16 -0.28 -0.52 -0.32 -0.52 c-0.24 0 -0.32 0.76 -0.28 0.84 c-0.2 0 -0.88 -0.36 -0.88 -0.44 c0 -0.04 0.04 0.12 -0.12 0.12 s-0.6 -0.24 -1.84 -1.48 c-0.2 -0.24 -0.48 -0.48 -0.48 -0.56 c0.04 -0.12 -0.72 -0.56 -0.72 -1 c-0.48 -0.24 -0.64 -1.24 -1.08 -1.6 l0.04 0 s-0.84 -1.44 -0.84 -3.04 c0 -0.16 0.08 -1.08 0.08 -1.28 c0 -1.8 1.12 -2.68 1.12 -3.36 c0 -0.44 1.12 -1.16 1.56 -2.28 c0 -0.16 1.64 -1.48 1.72 -1.56 c0.6 0 0.92 -0.92 1.76 -0.92 c0.32 0.08 1.76 -0.64 2.56 -0.64 l1.88 0 c0.28 0 0.68 0.2 1.16 0.2 c-0.04 0 -0.04 -0.04 -0.04 -0.04 c0.08 0 0.6 0.32 1.32 0.44 c0 -0.04 0.04 -0.04 0.08 -0.04 c0.24 0 0.72 0.48 0.92 0.52 l0 0 s0.24 0.2 1.64 1.24 l-0.04 0.04 s0.36 -0.04 1.92 1.88 c0.36 0.76 0.76 1.24 1.04 1.96 c0.08 0.08 0.68 1.24 0.68 2.32 c0 3 -1 3.64 -1.08 5.08 c0.04 0.28 -0.56 0.44 -0.64 1.04 c0 0.2 -0.64 0.52 -1.48 1.72 l0 0 c-0.16 0 -1.52 1.36 -1.8 1.36 c0 -0.04 -0.04 -0.08 -0.08 -0.08 c-0.16 0 -0.68 0.72 -1.48 0.72 l-0.16 -0.08 c-0.32 0 -0.24 0.4 -0.72 0.4 c-0.52 0 -0.44 -0.12 -0.72 -0.12 c0 0.4 -0.36 0.08 -0.52 0.4 l-2.04 0 c-0.68 -0.24 -2.24 0 -2.2 -1 z M27.068 40.32 l0.08 0.04 l0.08 -0.04 l-0.08 -0.08 z M28.948 40 c-0.08 0 -0.12 0.04 -0.2 0.04 l0.04 0.04 c0.04 0 0.08 -0.04 0.24 -0.08 l-0.08 0 z M30.348 39.36 c-0.04 0 -0.12 0.08 -0.16 0.12 l0.16 0 l0 -0.12 z M25.148000000000003 39.12 c0.4 0 0.6 0.24 1.32 0.28 c0 -0.12 0.04 -0.04 0.84 -0.2 c0.08 0 0.44 0.08 0.48 0.08 c0.32 0 0.08 -0.24 0.76 -0.24 c0.92 -0.64 0.76 -0.28 1.64 -2.04 l0 0.04 c0.04 0 0.36 -3.2 0.36 -3.72 c0 -0.28 -0.2 -0.44 -0.2 -0.68 l0.08 -0.24 c-0.04 -0.16 -0.12 -0.4 -0.12 -0.52 c0 -0.72 0.32 -0.56 0.32 -1.4 c0 -3.24 -0.24 -4.24 -0.56 -5.8 c0 -1.68 -3.16 -1.88 -3.4 -2.04 c-1.36 0.16 -2.24 0.04 -3.12 0.96 c0 0 -0.64 0.48 -0.64 1.24 c0 1.28 -0.48 1.36 -0.48 2.4 s-0.04 2.76 -0.04 3.04 c0 6.08 0.24 5.68 0.64 6.96 c0.04 0 0.4 1.88 2.08 1.88 l0.04 0 z M28.828000000000003 39.28 c-0.04 0 -0.08 0.04 -0.08 0.08 s0.04 0.08 0.08 0.08 c0 0 0.04 -0.04 0.04 -0.08 s-0.04 -0.08 -0.04 -0.08 z M29.828000000000003 39.12 c0 0 -0.04 0.04 -0.04 0.08 s0.04 0.08 0.04 0.08 c0.04 0 0.04 -0.04 0.04 -0.08 s0 -0.08 -0.04 -0.08 z M17.948 34.72 c0 -0.04 -0.04 -0.04 -0.04 -0.04 c-0.04 0 -0.04 0 -0.04 0.04 s0 0.08 0.04 0.08 c0 0 0.04 -0.04 0.04 -0.08 z M17.748 30.84 c-0.04 0 -0.08 0.04 -0.08 0.08 c0 0 0.04 0.04 0.08 0.04 s0.04 -0.04 0.04 -0.04 c0 -0.04 0 -0.08 -0.04 -0.08 z M17.268 30.52 c-0.04 0 -0.04 0.04 -0.04 0.08 c0 0 0 0.04 0.04 0.04 s0.04 -0.04 0.04 -0.04 c0 -0.04 0 -0.08 -0.04 -0.08 z M30.668 23.2 c-0.16 0 -0.16 0.08 -0.24 0.08 c0.12 0 0.24 0.04 0.24 -0.08 z M29.108 22.48 c-0.04 0.08 0.04 0.08 0.16 0.12 c0.04 0 0.12 0 0.16 -0.04 c-0.12 -0.04 -0.24 -0.08 -0.28 -0.08 l-0.04 0 z M23.628 22.4 l0.04 -0.04 z M25.188000000000002 21.96 c0.08 -0.04 -0.24 0.04 -0.32 0.08 l0 0.12 c0.2 0 0.32 0.04 0.32 -0.2 z M25.508000000000003 22.04 l0 0.12 c0.04 0 0.04 -0.04 0.04 -0.04 c0 -0.04 0 -0.08 -0.04 -0.08 z M42.29600000000001 32.04 c0 -0.12 0.08 -0.24 0.2 -0.24 c-0.04 0 0 -0.08 -0.12 -0.16 l-0.16 0.16 c-0.04 0 -0.16 -0.16 -0.16 -0.24 c0 -1.6 -0.92 -1.16 -0.92 -2.16 c0 -0.04 0 -0.08 0.04 -0.12 c0 -0.04 -0.36 -0.6 -0.36 -0.72 c0 -0.08 0.04 -0.52 0.04 -0.6 l-0.16 0.08 c-0.24 -0.28 -0.16 -0.72 -0.48 -0.96 c-0.32 -0.84 -0.28 -0.64 -0.52 -1.4 c0.04 -0.24 -0.4 -0.68 -0.4 -0.92 c0 -0.04 0.04 -0.04 0.04 -0.08 c0 -0.08 -0.4 -0.48 -0.4 -0.8 c0 -0.04 0 -0.12 0.04 -0.16 l-0.4 -0.32 l-2.08 0 c-0.2 0 -0.36 -0.12 -0.4 -0.16 l0 -0.56 l0.48 -0.44 c0.64 0 1.36 -0.04 1.6 -0.04 c0.84 0 1.6 0.12 2.76 0.12 l0.16 -0.08 c0.92 0 0.52 -0.12 4.32 -0.12 c0.4 0 1 0.08 1 0.56 c0 1.24 -2.32 0.12 -2.32 1.12 c0 0.16 0.08 0.88 0.28 1.04 c-0.04 0.04 -0.04 0.04 -0.04 0.08 c0 0.24 0.52 0.6 0.52 1.32 c0.92 1.6 0.2 0.6 1.12 2.52 c0 0.48 0.44 0.76 0.44 1.16 c0 0.16 0.4 1.04 1.36 3.2 c0.16 0 0.48 0.12 0.56 -0.32 c-0.04 0 -0.04 -0.04 -0.04 -0.08 c0 -0.2 0.64 -0.68 0.64 -1.52 c0 -0.2 -0.04 -0.16 -0.04 -0.16 s0.16 -0.12 0.92 -2.48 c0.04 0 0.16 -1.04 0.72 -2.04 c-0.04 -0.04 -0.04 -0.08 -0.04 -0.12 c0 -0.24 0.48 -0.52 0.48 -1.2 c0 -1.04 0.56 -1.12 0.56 -1.8 c0 0.04 0.04 0.04 0.04 0.04 c0.2 0 -0.32 -1.32 1.28 -1.32 c0.16 0 0.28 0 0.4 0.12 l0 -0.04 c0.04 0 0.2 1.04 0.96 2.16 c0 0.4 0.6 0.84 0.6 1.48 c0 1.48 0.96 1.28 0.96 2.48 c-0.04 -0.04 -0.08 -0.04 -0.08 -0.04 c0 0.12 0.52 0.92 0.52 1.08 c0 -0.04 0.08 0.96 1.12 2.48 l0 -0.04 s0.08 1.16 0.6 1.24 c0.48 0 0.4 -0.12 0.52 -0.48 c-0.04 0 -0.04 0 -0.04 -0.04 c0 -0.2 0.8 -1.04 0.8 -2.2 c-0.04 -0.04 -0.04 -0.08 -0.04 -0.12 c0 -0.28 0.6 -0.56 0.6 -1.44 c0 -0.2 0.8 -1.44 0.8 -2.4 c0.08 -2.4 0.84 -0.8 0.84 -2.48 c-0.04 -0.04 -0.04 -0.04 -0.04 -0.08 c0 -0.08 0.04 -0.16 0.04 -0.2 c0 -0.2 -0.12 -0.36 -0.84 -0.36 c-0.48 0 -0.92 0.08 -1.4 0.08 c-0.36 0 -0.64 -0.04 -0.64 -0.12 c0 0 0.28 -0.24 0.28 -0.28 c-0.04 0 -0.16 0 -0.24 -0.08 c-0.12 0.08 -0.12 0.2 -0.16 0.24 c-0.12 -0.16 -0.24 -0.2 -0.24 -0.4 c0 -0.24 0.24 -0.6 0.4 -0.6 c0.32 0 4.6 -0.08 6.84 -0.08 c0.32 0 0.56 0.08 0.56 0.64 c0 0.28 -0.04 0.64 -0.4 0.64 l-2.28 0 c-0.2 0.08 -0.8 0.84 -0.8 1.36 c-0.24 0.08 0.12 0.64 -0.56 1.52 l0 0.04 c0 0.36 -0.96 2.52 -0.96 2.92 c0.12 0 -1.04 2.16 -1.04 3.04 l-0.04 -0.04 c-0.12 0 -0.04 1.16 -0.52 1.16 c0.12 0 0.16 0.16 0.16 0.24 c0 0.28 -0.48 0.36 -0.48 1.24 c0 0 -0.52 1.28 -0.52 1.4 c0 0.04 0.04 0.04 0.04 0.08 c0 0.12 -0.36 0.32 -0.36 0.8 c-1 3.96 -1.16 2.96 -1.52 3.44 c-0.08 0.04 -0.12 0.04 -0.2 0.04 c-0.88 0 -1.36 -1.76 -1.36 -2.04 c0 -0.48 -1.4 -1.88 -1.4 -3.28 c-0.04 0 -0.32 -1.16 -0.72 -1.6 c0 0 -0.08 -0.96 -0.4 -1.12 l0 0.04 s-0.4 -0.68 -1 -2.48 c-0.08 0 -0.32 -0.72 -0.4 -0.76 l-0.4 0 c0.04 0.04 -0.28 0.4 -0.28 0.56 c-0.44 1.64 -1.04 1.88 -1.04 3.04 c0 0.04 -0.44 0.6 -0.44 1.4 c-0.72 2.4 0.24 -0.44 -1.08 3.16 c0 0 0.04 0 0.04 0.04 c0 0.08 -0.44 0.48 -0.44 1.2 c-0.12 1.48 -0.44 1.56 -0.84 1.88 l-0.76 0 c-0.04 0.04 -0.04 0.04 -0.08 0.04 c-0.16 0 -0.16 -0.56 -0.56 -0.96 c0 -1.12 -1.04 -2.08 -1.04 -2.68 c-0.2 -0.64 -0.64 -1.16 -0.64 -1.56 c-0.4 -1.4 -0.48 -1.04 -0.68 -1.68 l0.04 0 c0 -0.04 -0.36 -0.24 -0.4 -0.76 l0.04 0 c0 -0.08 -0.4 -0.64 -0.4 -0.84 c0 -0.04 0 -0.04 0.04 -0.08 z M46.096000000000004 40.28 l-0.08 0.08 l0.16 0 z M56.856 39.12 c0 0.08 0 0.2 0.08 0.2 c0.04 0 0.16 -0.04 0.24 -0.16 c-0.12 -0.04 -0.2 -0.04 -0.32 -0.04 z M47.056000000000004 39 c0.04 0.08 0.04 0.12 0.08 0.12 s0.04 -0.04 0.08 -0.04 l0 -0.08 l-0.16 0 z M55.536 38.48 c0 -0.04 -0.16 0.04 -0.16 0.12 c0.16 0 0.16 0 0.16 -0.12 z M45.456 38.48 c-0.04 0 -0.04 0.04 -0.04 0.08 c0 0 0 0.04 0.04 0.04 l0 -0.12 z M47.216 37.92 c-0.04 0 -0.08 0 -0.08 0.04 l0.12 0 c0 -0.04 -0.04 -0.04 -0.04 -0.04 z M44.176 36.04 c-0.04 0 -0.08 0.04 -0.08 0.04 c0 0.04 0.04 0.04 0.08 0.04 c0 0 0.04 0 0.04 -0.04 z M44.616 36.04 c-0.04 0 -0.08 0.04 -0.08 0.08 c0 0 0.04 0.04 0.08 0.04 s0.04 -0.04 0.04 -0.04 c0 -0.04 0 -0.08 -0.04 -0.08 z M53.376000000000005 33.84 c-0.04 0 -0.04 0.04 -0.04 0.04 c0 0.04 0 0.04 0.04 0.04 l0 -0.08 z M59.136 33.2 l0 0.16 c0.04 0 0.04 0 0.04 -0.04 c0 -0.08 0 -0.12 -0.04 -0.12 z M59.93600000000001 31.08 l-0.08 0.08 l0.08 0 l0 -0.08 z M41.736000000000004 30.04 l0 0.2 c0 -0.08 0.04 -0.16 0.04 -0.2 l-0.04 0 z M60.056000000000004 29.92 c-0.04 0 -0.04 0.04 -0.04 0.08 c0 0 0 0.04 0.04 0.04 s0.04 -0.04 0.04 -0.04 c0 -0.04 0 -0.08 -0.04 -0.08 z M41.256 29.08 c-0.04 0 -0.08 0.04 -0.08 0.08 c0 0 0.04 0.04 0.08 0.04 s0.04 -0.04 0.04 -0.04 c0 -0.04 0 -0.08 -0.04 -0.08 z M40.696000000000005 27.240000000000002 c-0.04 0 -0.08 0 -0.08 0.04 c0 0 0.04 0.04 0.08 0.04 s0.04 -0.04 0.04 -0.04 c0 -0.04 0 -0.04 -0.04 -0.04 z M62.21600000000001 23.88 c-0.04 0 -0.08 0.04 -0.08 0.08 c0 0 0.04 0.04 0.08 0.04 l0.04 -0.04 c0 -0.04 -0.04 -0.08 -0.04 -0.08 z M39.056000000000004 23.28 l0.24 0.04 c0.04 0 0.04 -0.04 0.04 -0.08 c-0.28 0 -0.28 0 -0.28 0.04 z M38.696000000000005 22.68 c0 0.36 -0.16 0.6 -0.44 0.6 c0.52 0 0.6 0 0.72 -0.04 c0 -0.12 -0.04 -0.48 -0.28 -0.56 z M43.376000000000005 22.84 c-0.04 0 -0.04 0.04 -0.04 0.04 c0 0.04 0.28 0.08 0.28 0.36 l0.04 0 c0 -0.08 -0.04 -0.32 0.04 -0.4 l-0.08 -0.16 c-0.2 0 -0.28 0.08 -0.28 0.12 z M53.096000000000004 23.24 c0 -0.04 -0.04 -0.04 -0.04 -0.04 c-0.04 0 -0.04 0 -0.04 0.04 s0 0.04 0.04 0.04 c0 0 0.04 0 0.04 -0.04 z M37.336000000000006 22.84 c0 0.12 0.16 0.28 0.24 0.32 c0 -0.12 0.28 -0.36 0.24 -0.48 c-0.2 0 -0.52 -0.04 -0.48 0.16 z M58.976 22.92 c0.2 0.08 0.08 0.24 0.36 0.24 c0.36 0 0.44 -0.08 0.44 -0.48 c-0.24 0.12 -0.28 0.24 -0.48 0.28 c-0.08 -0.04 -0.16 -0.04 -0.2 -0.04 l-0.12 0 z M60.656000000000006 23 c-0.04 0 -0.08 0.04 -0.08 0.04 c0 0.04 0.04 0.04 0.08 0.04 c0 0 0.04 0 0.04 -0.04 z M64.336 22.84 c-0.12 0 -0.24 0.08 -0.24 0.16 c0 0.04 0.04 0.08 0.04 0.08 l0.2 0 l0 -0.24 z M64.616 23 c0 0 0 -0.04 -0.04 -0.04 l0 0.12 c0.04 0 0.04 -0.04 0.04 -0.08 z M37.816 22.92 c-0.04 0 -0.08 0 -0.08 0.04 c0 0 0.04 0.04 0.08 0.04 l0.04 -0.04 c0 -0.04 -0.04 -0.04 -0.04 -0.04 z M36.576 22.76 l-0.04 0 c-0.12 0 -0.08 0.16 -0.08 0.16 l0.16 -0.16 l-0.04 0 z M41.136 22.84 c0 -0.04 0 -0.04 -0.04 -0.04 s-0.08 0 -0.08 0.04 s0.04 0.08 0.08 0.08 s0.04 -0.04 0.04 -0.08 z M46.016000000000005 22.68 l0 0.16 l0.04 0.04 c0.04 0 0.08 -0.04 0.12 -0.12 c-0.12 -0.12 -0.2 -0.04 -0.16 -0.08 l0 0 z M45.496 22.64 c-0.12 0 -0.16 0.04 -0.16 0.08 s0 0.08 0.04 0.08 c0.16 0 0.12 -0.24 0.12 -0.16 z M58.816 22.56 c-0.04 0.08 -0.04 0.12 -0.04 0.2 c0.04 0 0.08 -0.04 0.12 -0.08 z M39.776 22.64 c-0.04 0 -0.08 0.04 -0.08 0.08 c0 0 0.04 0.04 0.08 0.04 s0.04 -0.04 0.04 -0.04 c0 -0.04 0 -0.08 -0.04 -0.08 z M65.616 22.52 c0 0.16 0 0.2 0.04 0.2 c0 0 0.08 -0.04 0.08 -0.08 c0 -0.12 -0.08 -0.2 -0.08 -0.32 c-0.04 0.08 -0.04 0 -0.04 0.2 z M61.896 22.56 c-0.04 0 -0.08 0.04 -0.08 0.04 c0 0.04 0.04 0.04 0.08 0.04 c0 0 0.04 0 0.04 -0.04 z M63.536 22.52 l0 0.12 c0.04 -0.04 0.08 -0.08 0.08 -0.12 l-0.08 0 z M63.93600000000001 22.56 l-0.2 0 c0 0.04 0.04 0.08 0.08 0.08 s0.12 -0.04 0.12 -0.08 z M64.57600000000001 22.52 c-0.04 0 -0.04 0.04 -0.04 0.04 l0.08 0 z M64.176 22.4 c-0.04 0.04 -0.08 0.04 -0.08 0.08 l0.04 0.04 z M58.816 22.4 c-0.04 0 -0.04 0.04 -0.04 0.08 c0 0 0 0.04 0.04 0.04 s0.04 -0.04 0.04 -0.04 c0 -0.04 0 -0.08 -0.04 -0.08 z M60.21600000000001 22.4 c-0.04 0 -0.08 0 -0.08 0.04 c0 0 0.08 0 0.08 -0.04 l0 0 z M74.764 40.2 c-0.6 0 -1.2 -0.32 -1.88 -0.56 l-0.88 -0.88 c-0.04 -0.2 -0.44 -0.84 -0.44 -1.36 c0 -5.48 0.2 -9.92 0.2 -13.36 c0 -0.52 -0.04 -0.8 -0.56 -0.8 c-0.12 0 -0.28 0 -0.44 0.04 c-0.08 0 -0.56 -0.04 -0.64 -0.04 c-0.24 0 -0.52 0.12 -1 0.12 c-0.12 -0.32 -0.72 0.08 -0.72 -0.64 s0.56 -0.68 0.88 -0.8 c0 0 0.12 0 0.28 0.08 l1.12 0 c0.72 -0.16 0.68 0 1 -0.32 c0.12 -4.04 -0.12 -4.36 1.16 -4.36 c0.04 0 1.16 0.04 1.44 0.04 c0.56 0 0.36 -0.24 2.04 -0.24 l-0.04 0 c0.04 0 0.4 0.12 0.44 0.2 c0 3.44 -0.08 3.36 -0.08 4.36 l0.32 0.32 l1.8 0 c0.08 -0.12 1.08 -0.12 1.4 -0.12 l-0.04 0 s0.84 0.16 0.84 0.56 c0 0.52 -0.08 0.84 -1.36 0.84 c-0.68 0 -1.72 -0.04 -2.64 -0.04 c-0.28 0 -0.4 2.4 -0.4 3.4 c0 1.08 0.08 1.6 0.08 2.44 c0 2.28 -0.12 5.32 -0.12 6.16 c0 0.72 0.04 1.4 0.2 1.52 l0 -0.04 c0.08 0 -0.08 1.52 1.52 1.52 c0.88 0 0.92 0 1.56 -0.4 c-0.04 0 0.64 -0.64 0.64 -0.8 l0 -0.04 s0.2 -1.28 1.08 -1.28 c0.52 0 0.72 0.56 0.72 0.92 c0 0.16 -0.44 0.44 -0.44 0.76 c0 0.88 -1.64 1.64 -1.8 2.08 c-0.12 -0.08 -0.36 0.32 -0.52 0.32 c-0.92 0 -1.08 0.4 -2.08 0.4 l-0.04 0 c-0.84 0 -1.6 0.16 -1.6 0.16 l0 0 c-0.32 0 -0.72 -0.08 -1 -0.16 z M74.324 39.72 c0 -0.04 -0.04 -0.04 -0.04 -0.04 l0 0.12 s0.04 -0.04 0.04 -0.08 z M78.964 39.6 c-0.04 0 -0.04 0.04 -0.04 0.08 c0 0 0 0.04 0.04 0.04 l0 -0.12 z M74.124 39.52 c-0.04 0 -0.08 0.04 -0.08 0.08 c0 0 0.04 0.04 0.08 0.04 s0.04 -0.04 0.04 -0.04 c0 -0.04 0 -0.08 -0.04 -0.08 z M73.44399999999999 39.2 c-0.04 0 -0.08 0.04 -0.08 0.08 c0 0 0.04 0.04 0.08 0.04 l0.04 -0.04 c0 -0.04 -0.04 -0.08 -0.04 -0.08 z M72.804 39.08 c-0.04 0 -0.08 0.04 -0.08 0.04 l0.12 0 z M80.324 38.32 l0 0.24 l0.08 -0.08 c0 -0.08 -0.08 -0.16 -0.08 -0.16 z M72.124 38.24 l-0.04 0.04 c0 0.04 0.04 0.04 0.04 0.04 c0.04 0 0.04 0 0.04 -0.04 c0 0 0 -0.04 -0.04 -0.04 z M72.244 37.68 c0 0.08 0 0.08 0.04 0.08 l0.04 0 l0 0 z M81.684 37.08 c-0.04 0 -0.08 0.04 -0.08 0.04 c0 0.04 0.04 0.04 0.08 0.04 c0 0 0.04 0 0.04 -0.04 z M71.884 36.28 l0 0.08 l0.12 0 z M81.404 36.12 c-0.04 0 -0.04 0.04 -0.04 0.04 c0 0.04 0 0.04 0.04 0.04 s0.04 0 0.04 -0.04 c0 0 0 -0.04 -0.04 -0.04 z M81.72399999999999 36.12 l-0.04 0.08 l0.16 0 z M71.884 31.96 l0 -0.08 l0 0.08 z M68.804 22.96 c0 0.04 -0.04 0.04 -0.04 0.08 s0.04 0.04 0.12 0.08 l0 -0.16 l-0.08 0 z M68.64399999999999 22.64 l0 0 l-0.04 0 c0 0 -0.04 0.04 -0.04 0.16 c0 0.04 0.04 0.12 0.04 0.12 c0.08 0 0.08 -0.08 0.08 -0.12 c0 -0.08 0 -0.12 -0.04 -0.16 z M79.084 22.72 l0 0.12 c0.08 0 0.08 -0.04 0.08 -0.12 l-0.08 0 z M69.28399999999999 22.52 l0 0.12 c0.04 -0.04 0.08 -0.08 0.08 -0.12 l-0.08 0 z M68.884 22.32 c-0.08 0 -0.24 0.16 -0.24 0.2 l0.4 0 c-0.04 -0.08 -0.12 -0.16 -0.16 -0.2 z M75.164 18.72 l0 0.2 c0.2 0 0.2 -0.04 0.24 -0.2 l-0.24 0 z M72.124 18.64 c0 0 -0.04 0.04 -0.04 0.08 s0.04 0.08 0.04 0.08 c0.04 0 0.04 -0.04 0.04 -0.08 s0 -0.08 -0.04 -0.08 z M72.124 18.32 l0 0.24 c0.08 -0.04 0.08 -0.12 0.08 -0.24 l-0.08 0 z M73.124 18.16 c0 0.04 -0.04 0.08 0.08 0.08 c0 -0.08 -0.08 -0.08 -0.08 -0.08 z M72.124 17.88 l0 0.2 l0.2 0 c0 -0.12 -0.12 -0.16 -0.2 -0.2 z M75.164 17.84 l0 0.16 c0.08 -0.04 0.08 -0.12 0.08 -0.16 l-0.08 0 z M76.08399999999999 17.52 c0 0 0 0.24 0.16 0.32 l0.08 -0.08 c0 -0.04 -0.04 -0.32 -0.2 -0.32 z M85.952 40.04 l-0.2 -0.24 l0 -0.68 c0 -0.08 0.28 -0.36 0.32 -0.4 l2.64 0 c0.12 -0.08 0.28 -0.2 0.32 -0.32 l0 -2.28 c0.08 0 0.12 -0.12 0.12 -0.2 s-0.12 -0.6 -0.12 -0.76 l0 -10.88 c0 -0.6 -0.24 -0.68 -0.4 -0.92 l-1.64 0 c-0.16 0.08 -0.28 0.08 -0.36 0.08 c-1.32 0 -1.36 -0.24 -1.36 -0.6 c0 -0.72 1.76 -0.8 2.96 -0.8 c0.88 0 0.92 0.04 1.8 0.04 c2.44 0 2.36 -0.2 2.88 -0.2 c0.4 0 0.96 0 0.96 0.84 c0 0.16 0.16 1.12 0.16 1.24 c0 0 0 0.12 -0.08 0.2 c0 0.6 0.08 0.92 0.28 0.92 c0.24 0 0.56 -0.64 0.72 -0.92 c0 -0.32 1.52 -1.52 1.76 -1.76 c0.32 0 1.28 -0.68 1.92 -0.68 c0.96 0 1.16 0.04 1.6 0.04 s2.4 1 2.4 2.2 l0 1.28 c0 0.88 -0.48 1.08 -0.92 1.56 c-0.28 0.08 -1 0.76 -1.48 0.76 c-1.84 0 -2.88 -1.48 -2.88 -3.08 c0.24 0.12 -0.32 -0.32 -0.32 -0.48 c-0.88 0 -1.28 1.4 -1.76 1.4 c-0.16 0 -0.4 0.84 -0.56 1 c-0.04 1.28 -0.68 0.68 -0.68 2.64 l0 1.84 l0.08 0.24 c0 0.28 -0.08 0.44 -0.08 0.68 c0 0.4 0.16 4.48 0.16 6.24 c0 0.4 0.32 0.36 0.32 0.68 c1.36 0 1.64 -0.08 2 -0.08 c1.32 0 1.48 0.04 1.48 0.8 c-0.04 0.04 0 0.2 -0.12 0.28 l0 -0.04 c-0.08 0 -0.48 0.4 -1 0.4 c-0.92 0 0.04 -0.16 -2.32 -0.16 c-0.52 0 -1.92 0.08 -1.92 0.08 l-0.8 0 s-0.4 -0.08 -0.56 -0.08 c-0.2 0 -1.24 0.08 -1.24 0.08 l-2.28 0.04 c-0.28 0 -0.6 0.2 -0.68 0.2 c-0.36 0 -0.72 -0.2 -1.12 -0.2 z M85.872 39.36 c0 0.16 0.2 0.52 0.2 0.56 l0.2 0 c0 -0.12 -0.24 -0.52 -0.4 -0.56 z M87.032 39.72 c0 0.2 0.2 0.12 0.24 0.2 c0.08 0 0.24 -0.08 0.24 -0.08 c-0.12 0 -0.32 -0.12 -0.48 -0.12 z M88.792 39.8 l0 0.04 l0.04 0 z M88.072 39.72 c-0.04 0 -0.08 0.04 -0.08 0.04 c0 0.04 0.04 0.04 0.08 0.04 s0.04 0 0.04 -0.04 c0 0 0 -0.04 -0.04 -0.04 z M97.032 39.68 c0 0.08 0 0.12 0.12 0.12 s0.2 -0.04 0.24 -0.2 c0 -0.04 0 -0.04 -0.04 -0.12 c-0.08 0.24 -0.12 0.2 -0.32 0.2 z M95.192 39.68 c0.04 0.04 0.12 0.04 0.08 0.08 c0.04 0 0.12 -0.04 0.16 -0.16 l-0.08 -0.12 c-0.12 0.04 -0.04 0.12 -0.16 0.2 z M97.71199999999999 39.2 c-0.08 0.04 -0.08 0.08 -0.08 0.16 l0.08 0 l0 -0.16 z M87.112 39.2 l0 0.08 l0.08 0 l0 -0.08 l-0.08 0 z M86.27199999999999 39.12 c0 -0.04 -0.04 -0.04 -0.04 -0.04 c-0.04 0 -0.04 0 -0.04 0.04 l0.08 0 z M100.752 27.119999999999997 c-0.12 0.04 -0.24 0.08 -0.24 0.12 l0.24 -0.04 l0 -0.08 z M101.592 26.28 l0.04 0.2 l0.08 -0.16 l0 -0.04 l-0.12 0 z M86.832 23.28 c0 -0.04 0 -0.04 -0.04 -0.04 s-0.08 0 -0.08 0.04 l0.08 0 l0.04 0 z M87.192 23.04 c-0.08 0.04 -0.12 0.08 -0.12 0.12 l0.04 0.04 l0.08 0 l0 -0.16 z M87.512 23.04 c0.08 0.08 0.04 0.12 0.08 0.08 l0 -0.08 l-0.08 0 z M87.91199999999999 23.12 c0 -0.04 0 -0.04 -0.04 -0.04 c0 0 -0.04 0 -0.04 0.04 s0.04 0.08 0.04 0.08 c0.04 0 0.04 -0.04 0.04 -0.08 z M86.192 22.56 l0.2 0.24 c0.04 0 0.2 -0.04 0.32 -0.08 c0.24 0 0.52 0.08 0.6 0.08 s0.28 -0.04 0.28 -0.16 c-0.16 -0.12 -0.56 -0.16 -1.32 -0.16 z M85.63199999999999 22.64 l0.08 0.08 c0.04 0 0.04 0 0.08 -0.08 l-0.04 -0.04 z M93.392 22.28 c-0.08 0.04 -0.16 0 -0.16 0.2 l0 0.08 c0.16 0 0.16 -0.24 0.16 -0.28 z M108.61999999999999 35.36 c0 -0.32 -0.04 -1.96 -0.04 -2.28 c0 -0.04 0.04 -0.88 0.04 -1.28 c0 -0.8 -0.04 -4.6 -0.04 -4.84 c0 -0.48 0.04 -1.76 0.04 -2.04 c0 -0.52 0.04 -1.72 -0.36 -1.72 c-0.56 0 -0.6 0.04 -0.84 0.04 l-1.68 0 c-0.04 0 -0.08 0.04 -0.12 0.04 c-0.2 0 -0.28 -0.36 -0.4 -0.48 c0 -0.56 0.12 -0.84 0.84 -0.84 c0.56 0 1.28 0.04 2 0.04 l5 0 c0.16 0.04 0.4 0.2 0.48 0.4 l-0.08 8.4 l0.08 0.08 c0 1.52 -0.12 1.6 -0.12 2.16 c0 0.16 0.04 0.28 0.12 0.32 c0 0 0 0.2 -0.08 0.44 c0 4.4 0.68 4.92 2.64 4.92 c0.08 0 0.44 -0.08 0.52 -0.08 c0.56 -0.28 0.56 -0.24 0.68 -0.32 c0 0.04 0 0.04 0.04 0.04 c0.2 0 1.4 -0.64 1.92 -1.68 c-0.04 0 -0.04 0 -0.04 -0.04 c0 -0.4 0.92 -1.52 0.92 -2.52 c0.04 -0.04 0 -0.36 0.28 -1.2 l0 -3.68 c0 -1.4 -0.12 -2.72 -0.12 -3.64 c0 0 0 -0.16 0.04 -0.36 l0 -1.36 c0 -0.96 -1.08 -0.4 -1.08 -0.84 c-0.04 0.08 -0.08 0.2 -0.16 0.2 c-0.68 0 -0.6 -0.04 -0.88 -0.04 c-0.4 0 -0.48 0.08 -0.76 0.08 c-0.44 0 -0.8 -0.4 -0.8 -0.72 c0 -0.52 0.76 -0.6 1.32 -0.6 c0.96 0 1.24 -0.04 1.44 0.12 l3.96 0 c0.04 -0.04 0.12 -0.08 0.16 -0.08 c0.2 0 0.76 0.16 1.36 0.16 c0.24 0 0.4 0.08 0.4 1.52 c0 0.64 -0.12 9 -0.16 9.24 l0 -0.04 s0.08 4.4 0.08 4.72 l0 -0.04 c0 0 0.04 1.2 1 1.2 c0.32 0 0.76 -0.08 1.16 -0.08 c0.56 0 1.08 0.16 1.08 0.84 c0 0.28 -0.32 0.44 -0.64 0.44 c-0.6 0 -1.36 -0.12 -2 -0.12 c-0.12 0 -1.2 0 -1.48 0.12 l-2.48 0 c0 0.08 -0.16 0.16 -0.16 0.16 c-0.64 0 -1.2 -0.04 -1.2 -0.68 c0 -0.04 0 -0.08 0.04 -0.16 l0 -1.88 c-0.08 -0.12 -0.24 -0.44 -0.4 -0.44 c-0.08 0 -0.12 0.04 -0.16 0.12 c0 0.08 -0.92 1.44 -0.92 1.4 c-0.04 0.32 -1.24 1.04 -1.52 1.12 l0.04 0 c0 0.04 -1.48 0.24 -1.6 0.52 l-3.04 0 c-3.44 0 -4.32 -3.68 -4.32 -4.76 z M120.89999999999999 39.92 l-0.04 -0.08 z M120.82 39.72 c-0.04 0 -0.08 0.04 -0.08 0.08 s0.04 0.04 0.08 0.04 s0.04 0 0.04 -0.04 s0 -0.08 -0.04 -0.08 z M125.69999999999999 39.64 l0.08 -0.04 z M127.74 39.6 c-0.12 0 -0.04 0 -0.08 0.04 l0.16 0 z M125.61999999999999 39.52 c-0.04 0 -0.08 0.04 -0.08 0.08 c0 0 0.04 0.04 0.08 0.04 s0.04 -0.04 0.04 -0.04 c0 -0.04 0 -0.08 -0.04 -0.08 z M126.66 39.52 c-0.04 0 -0.04 0.04 -0.04 0.08 c0 0 0 0.04 0.04 0.04 l0.04 -0.04 c0 -0.04 -0.04 -0.08 -0.04 -0.08 z M117.58 39.12 l-0.12 0.16 l0.12 0 l0 -0.16 z M108.97999999999999 35.480000000000004 c-0.04 0 -0.08 0.04 -0.08 0.04 c0 0.04 0.04 0.08 0.08 0.08 l0 -0.12 z M108.97999999999999 35.08 c-0.04 0 -0.08 0.08 -0.08 0.16 s0.04 0.16 0.04 0.16 c0.04 0 0.04 -0.28 0.04 -0.32 z M109.14 34.16 c-0.04 0 -0.08 0.04 -0.08 0.08 s0.04 0.08 0.08 0.08 s0.04 -0.04 0.04 -0.08 s0 -0.08 -0.04 -0.08 z M109.3 34.08 c-0.04 0 -0.08 0 -0.08 0.04 c0 0 0.04 0.04 0.08 0.04 l0.04 -0.04 c0 -0.04 -0.04 -0.04 -0.04 -0.04 z M121.22 25 c0 0 0 0.08 0.04 0.08 l0 0 c0 -0.04 0 -0.08 -0.04 -0.08 z M120.61999999999999 24.08 c-0.04 0 -0.08 0.04 -0.08 0.08 c0 0 0.04 0.04 0.08 0.04 l0.04 -0.04 c0 -0.04 -0.04 -0.08 -0.04 -0.08 z M105.94 23.04 c0 0.12 0.08 0.08 0.16 0.08 l0 -0.16 c0 0.04 -0.04 -0.04 -0.16 0.08 z M118.02 22.96 c-0.04 0 -0.04 0.04 -0.04 0.08 s0 0.08 0.04 0.08 s0.04 -0.04 0.04 -0.08 s0 -0.08 -0.04 -0.08 z M105.61999999999999 22.88 l0 0.04 l0.08 0 z M124.66 22.72 c0 0.04 -0.04 0.04 -0.04 0.08 s0.04 0.04 0.12 0.08 l0 0.04 z M121.53999999999999 22.72 c-0.04 0 -0.08 0.04 -0.08 0.08 s0.04 0.08 0.08 0.08 c0 0 0.04 -0.04 0.04 -0.08 s-0.04 -0.08 -0.04 -0.08 z M108.38 22.56 c-0.04 0 -0.08 0.04 -0.08 0.08 s0.04 0.08 0.08 0.08 c0 0 0.04 -0.04 0.04 -0.08 s-0.04 -0.08 -0.04 -0.08 z M121.38 22.56 l0 0.08 l0.08 0 c0 -0.08 0 -0.08 -0.08 -0.08 z M117.3 22.4 c0 0.12 0.04 0.12 0.08 0.16 c0 0 0.08 0 0.16 -0.08 c0 0 0 -0.08 -0.08 -0.16 z M118.78 22.56 l-0.04 -0.08 z M105.94 22.4 l0.04 0.08 l0.08 0 z M119.41999999999999 22.48 l0 0.08 l0 -0.12 l0 0.04 z M139.568 40.4 c-0.88 0 -1.68 -0.52 -2.56 -0.6 c-0.24 0 -0.64 -0.64 -1.2 -0.64 c-0.28 0 -0.68 -0.84 -1.12 -0.84 c-0.72 -0.76 -0.48 -0.48 -0.52 -0.6 l0 0.04 c0 -0.04 -0.08 -0.16 -1.04 -1.12 c0 -0.32 -0.44 -0.48 -0.84 -1.48 c0 -0.04 0.04 -0.04 0.04 -0.08 c0 -0.16 -0.96 -1.72 -0.96 -3.96 c0 -1.44 0.44 -2.2 0.44 -3.32 c0.28 -0.32 0.32 -0.44 0.32 -0.52 c0 -0.04 -0.08 -0.04 -0.08 -0.12 c0 -0.12 0.12 -0.4 0.76 -1.24 c0 -0.52 0.48 -0.44 0.64 -0.92 l0 0.04 c-0.2 -0.52 2.48 -2.16 2.76 -2.56 l0.04 0.04 c0.04 0 1 -1 6 -1 c1.36 0 2.28 0.8 2.6 0.84 c0.08 0 0.12 0 0.2 -0.04 c-0.04 0 1.48 0.72 1.6 1.24 c0 0.16 0.76 0.76 0.76 1.04 c0 0.12 0.32 1.08 0.32 1.48 c0 1.28 -0.68 1.32 -0.68 1.88 c0 0 -0.24 0.64 -1.16 0.76 c0 0.12 -1.12 0.12 -1.12 0.2 c-0.04 0 -0.04 0.04 -0.04 0.04 c-0.08 0 -1.08 -0.76 -1.56 -0.76 l0.04 0.04 c-0.2 0 -0.8 -1.04 -0.8 -1.8 c0 -1 0.32 -0.96 0.44 -1.64 c0.96 -0.52 0.32 -0.44 0.8 -1.08 c-0.04 0.04 -0.04 0.04 -0.08 0.04 c0 -0.08 0.04 -0.16 0.04 -0.32 c0 -0.28 -0.16 -0.56 -0.88 -0.56 c0.08 0 -0.96 -0.32 -1.04 -0.56 c-3.64 0 -2.8 0.72 -4 1.48 c-0.56 -0.04 -0.84 5.48 -0.84 7.04 c0 5.4 0.68 7.08 1.04 7.08 c0.08 0 0.04 0 0.04 -0.04 c0 0 0.6 1.2 1.88 1.2 c1.68 0 2.36 -0.04 2.92 -0.04 c0 0 1.36 -0.16 2.04 -1.12 c0.52 0 1.8 -1.6 1.8 -2.28 c0.76 -1.72 0.68 -1.8 1.32 -1.8 c0 0 0 0.04 0.04 0.04 c0 0 0.08 -0.04 0.12 -0.04 c0.16 0 0.32 0.08 0.32 0.44 c0 1.72 -0.64 1.52 -0.88 2.44 l0 -0.04 c-0.08 0 -0.56 1.28 -1.08 1.52 c-0.32 0.32 -0.6 0.24 -1.88 1.52 c-0.96 0.24 -1.24 0.28 -1.36 0.4 l-0.68 0 c-0.04 0 0.04 -0.16 -0.08 -0.16 c-0.04 0 -0.32 0 -0.32 0.04 s0.04 0.08 0.16 0.12 c-0.2 0.28 -0.36 0.36 -0.56 0.4 l0 -0.12 l-0.56 0 l-0.08 0.12 l-0.12 -0.08 l0.08 -0.04 c-0.32 0 -0.36 0 -0.4 0.04 c-0.4 0 -0.32 0 -0.48 -0.04 c0 0 -0.04 0 -0.08 0.04 z M139.488 40.08 c0.12 0 0.24 0.08 0.28 0.04 c0 -0.04 -0.04 -0.08 -0.04 -0.12 c-0.16 0 -0.16 0 -0.24 0.08 z M142.80800000000002 39.96 c-0.04 0 -0.08 0.04 -0.08 0.08 c0 0 0.04 0.04 0.08 0.04 l0.04 -0.04 c0 -0.04 -0.04 -0.08 -0.04 -0.08 z M140.048 39.48 l0 0.24 l0.04 -0.16 z M144.288 39.4 c-0.2 0 -0.24 0.08 -0.24 0.2 c0 0.04 -0.04 0.16 0.04 0.16 c0.04 0 0.2 -0.16 0.2 -0.36 z M143.168 39.24 l0 0.08 s0.2 0.08 0.28 0.08 l0.12 -0.04 c0 -0.16 -0.16 -0.12 -0.4 -0.12 z M142.608 39.32 c-0.04 0 -0.08 0.04 -0.08 0.04 s0.04 0.04 0.08 0.04 l0 -0.08 z M144.40800000000002 39.24 c0.04 0.04 0.12 0.08 0.12 0.08 l0 0 c0.08 0 0.2 -0.08 0.24 -0.16 c-0.32 0 -0.36 -0.04 -0.36 0.08 z M144.048 39.16 l0 0.08 l0 -0.12 l0 0.04 z M143.96800000000002 39.04 c-0.04 0 -0.08 0 -0.08 0.04 l0.08 0 l0.04 0 c0 -0.04 0 -0.04 -0.04 -0.04 z M144.52800000000002 38.64 c-0.04 0 -0.08 0.04 -0.08 0.08 c0 0 0.04 0.04 0.08 0.04 s0.04 -0.04 0.04 -0.04 c0 -0.04 0 -0.08 -0.04 -0.08 z M145.608 37.84 c0.12 0.08 0.2 0.08 0.28 0.08 l-0.12 -0.24 c-0.12 0 -0.16 0.04 -0.16 0.16 z M146.488 36.92 c0 0.04 0.08 0.04 0.08 0.04 z M133.208 35.32 c-0.04 0 -0.08 0.04 -0.08 0.08 l0.08 0 l0.04 0 c0 -0.04 0 -0.08 -0.04 -0.08 z M132.608 34.8 l0 0.04 l0.08 -0.04 l-0.08 0 z M147.888 34.519999999999996 c0 0.08 0.04 0.24 0.08 0.24 s0.04 -0.04 0.04 -0.08 s-0.04 -0.08 -0.12 -0.2 l0 0.04 z M147.40800000000002 34.519999999999996 l0 0.16 c0.04 -0.04 0.08 -0.08 0.08 -0.16 l-0.08 0 z M147.64800000000002 34 l0 0.08 l0.24 0 l0 -0.08 l-0.24 0 z M131.96800000000002 32.8 c-0.04 0 -0.08 0.04 -0.08 0.08 c0 0 0.04 0.04 0.08 0.04 s0.04 -0.04 0.04 -0.04 c0 -0.04 0 -0.08 -0.04 -0.08 z M131.648 31.439999999999998 l0 0.04 l0.08 0 z M131.848 29.92 c-0.04 0.04 -0.08 0.04 -0.08 0.04 c0 0.04 0.04 0.08 0.08 0.08 c0 0 0 -0.04 0.04 -0.08 z M131.848 29.64 l-0.04 0 c0 0.04 0 0.04 0.04 0.04 c0 0 0.04 0 0.04 -0.04 l-0.04 0 z M145.608 28.68 c-0.04 0 -0.04 0.04 -0.04 0.08 c0 0 0 0.04 0.04 0.04 s0.04 -0.04 0.04 -0.04 c0 -0.04 0 -0.08 -0.04 -0.08 z M145.048 28.48 c-0.04 0 -0.08 0.04 -0.08 0.08 c0 0 0.04 0.04 0.08 0.04 s0.04 -0.04 0.04 -0.04 c0 -0.04 0 -0.08 -0.04 -0.08 z M142.728 26.759999999999998 c-0.04 0 -0.08 0 -0.08 0.04 s0.04 0.08 0.08 0.08 s0.04 -0.04 0.04 -0.08 s0 -0.04 -0.04 -0.04 z M147.40800000000002 26.68 c-0.16 0 -0.2 0.08 -0.24 0.2 c0.12 0.04 0.24 -0.12 0.24 -0.2 z M142.728 25.92 c-0.04 0 -0.08 0.04 -0.08 0.08 c0 0 0.04 0.04 0.08 0.04 s0.04 -0.04 0.04 -0.04 c0 -0.04 0 -0.08 -0.04 -0.08 z M147.24800000000002 25.28 c-0.2 0 -0.16 0.08 -0.16 0.16 c0.12 -0.04 0.2 -0.12 0.16 -0.16 z M145.448 23 c-0.04 0 -0.08 0.04 -0.08 0.08 s0.04 0.08 0.08 0.08 s0.04 -0.04 0.04 -0.08 s0 -0.08 -0.04 -0.08 z M144.40800000000002 22.92 c-0.04 0 -0.04 0.04 -0.04 0.04 c0 0.04 0 0.04 0.04 0.04 l0 -0.08 z M136.80800000000002 22.8 l-0.12 0.08 l0.32 0 s-0.16 -0.08 -0.2 -0.08 z M144.52800000000002 22.8 c-0.04 0 -0.08 0.04 -0.08 0.08 c0 0 0.04 0.04 0.08 0.04 s0.04 -0.04 0.04 -0.04 c0 -0.04 0 -0.08 -0.04 -0.08 z M138.488 22.24 c0.16 0.16 0.28 0.32 0.4 0.44 c0 -0.28 0.2 -0.44 0.48 -0.44 l-0.12 -0.16 c-0.48 0 -0.6 0.12 -0.76 0.16 z M144.048 22.48 l0 0.08 c0.04 0 0.04 0 0.04 -0.04 c0 0 0 -0.04 -0.04 -0.04 z M141.368 21.76 c-0.28 0 -0.24 0.24 -0.24 0.32 l0.32 0 c0 -0.04 -0.04 -0.28 -0.08 -0.32 z M149.956 39.32 c0 -0.28 0.28 -0.32 0.4 -0.52 l2.4 0 c0.04 0 0.32 -0.16 0.4 -0.4 l0 -15.24 c0 -0.04 -0.08 -0.2 -0.08 -0.24 c0 -0.08 0.08 -0.2 0.08 -0.2 l0 -3.16 c-0.04 -0.04 -0.08 -0.2 -0.08 -0.2 l0 0 c0 -0.04 0.08 -0.36 0.08 -0.76 c0 -0.08 -0.08 -1.12 -0.08 -3.08 c0 -0.12 0 -0.28 0.08 -0.4 l0 -2 c-0.08 -0.08 -0.08 -0.12 -0.08 -0.24 c0 -0.24 0.08 -0.56 0.08 -0.84 c0 -0.08 -0.08 -0.32 -0.08 -0.4 l0.08 -0.2 c0 -0.16 0 -0.68 -0.36 -0.76 l-2.84 0 c-0.16 0 -0.48 -0.24 -0.48 -0.72 l-0.04 0.08 c0 -0.04 0.4 -0.84 0.52 -0.72 l6.08 0 c0 0.04 0.12 0.2 0.2 0.2 c0.36 0 0.4 -0.08 0.4 -0.12 c0 -0.08 -0.08 -0.16 -0.08 -0.16 l-0.24 0 l1.24 -0.04 c0.44 0.04 0.64 0.2 0.64 1.12 c0 0.72 -0.16 3.04 -0.16 3.6 c0 0.08 0.08 0.4 0.08 0.48 c0 0.92 -0.16 1.84 -0.16 3.12 c0 3.72 0.16 7.48 0.16 11.64 c0 0.28 0 0.28 -0.08 0.44 c0.04 0.04 0.04 0.28 0.16 0.32 c2.68 -2.24 3.36 -3.36 4.56 -4.24 c0 0.04 0.04 0.08 0.04 0.08 c0.08 0 0.08 -0.84 0.8 -0.84 c1.04 -1.2 1.08 -0.96 1.08 -1.44 c-0.12 0.28 0.28 -0.32 -0.76 -0.32 c-0.08 0 -0.32 0.16 -0.44 0.16 c-0.08 0 -0.2 -0.08 -0.28 -0.08 c-0.24 0 -1.36 0.04 -1.4 0.04 c-0.52 0 -0.6 -0.52 -0.6 -0.68 c0 -0.6 4.36 -0.64 6.72 -0.64 c1.48 0 3.04 0.08 3.04 0.52 c0 0.76 -0.8 0.88 -1.36 0.88 c-1 0 -0.96 0 -1.36 -0.2 c-0.6 0.16 -0.96 -0.2 -2.04 0.64 c-0.8 1.24 -1.36 1.08 -1.52 1.36 c0 0.2 -0.44 0.64 -0.44 0.64 s-0.04 -0.08 -0.12 -0.08 c-0.12 0 -0.36 0.16 -0.92 0.92 c0 0.08 -0.64 0.36 -0.76 0.64 l-0.16 0.12 c0 0.92 0.16 0.48 0.52 1.2 l-0.08 0 c0 0.08 0.92 0.52 0.92 0.92 c1.72 2.04 1.16 2 2.08 2.76 c0.04 0.2 0.48 0.4 0.68 0.72 c0.8 1.12 1.2 1.32 1.92 2.48 c2.72 2.72 1.84 3.2 3.64 3.2 c0.24 0 0.4 -0.04 0.6 -0.04 c0.44 0 0.6 0.28 0.6 0.36 c-0.08 0 -0.16 0 -0.2 -0.04 l-0.36 0.6 l0.04 0.08 c0.4 0 0.32 -0.52 0.6 -0.52 c0 0.72 -0.84 0.76 -1.08 0.76 c-0.12 0 -0.16 0 -0.28 -0.04 l-1.08 0 c-0.12 0.04 -0.16 0.08 -0.28 0.08 c-0.16 0 -0.28 -0.04 -0.32 -0.08 l-1.2 0 c-0.12 0.04 -0.16 0.08 -0.4 0.08 s-0.84 -0.12 -1.28 -0.12 c-0.4 0 -1.04 0.04 -1.6 0.04 c-0.08 0 -0.28 -0.04 -0.32 -0.04 c0 0.04 -0.04 0.04 -0.08 0.04 c-0.08 0 -0.24 -0.08 -0.48 -0.08 c-0.16 0 -0.36 0.04 -0.6 0.2 c-0.12 0 -0.64 -0.12 -0.88 -0.16 c-0.16 0.08 -0.32 0.08 -0.4 0.08 c-0.52 0 -0.68 -0.32 -0.76 -0.48 c0 -0.64 0.08 -0.28 0.56 -0.6 l1.24 0 c0.12 0 0.4 -0.16 0.4 -0.48 c0 -0.24 -0.32 -0.4 -0.32 -0.72 c-1.84 -1.84 -0.08 -0.6 -2.2 -2.72 c-0.68 -0.92 -0.04 0.32 -2.76 -3.56 c0 -0.12 -0.6 -0.24 -0.68 -0.44 c-0.36 0.36 -0.4 1.72 -0.4 2.76 c0 5.04 -0.36 5.2 1.92 5.2 c0.24 0 0.4 0 0.44 -0.08 c0.32 0 0.88 0 0.88 0.56 c0 0.2 -0.16 0.56 -0.6 0.56 l-1.32 0 c0 0.16 -0.12 0.16 -0.24 0.16 c-0.08 0 -1.92 -0.16 -3.4 -0.16 c-0.4 0 -2.08 0.08 -2.44 0.08 c-0.16 0.08 -0.28 0.08 -0.36 0.08 c-0.36 0 -0.4 -0.08 -0.6 -0.08 c-0.16 0 -0.36 0.08 -0.56 0.08 l-1.32 0 c-0.44 -0.32 -0.48 -0.24 -0.48 -0.72 z M151.396 39.64 l0 0.16 l0.12 0 l0 -0.04 c0 -0.08 -0.12 -0.12 -0.12 -0.12 z M152.076 39.64 c-0.04 0 -0.08 0.04 -0.08 0.08 s0.04 0.08 0.08 0.08 l0 -0.16 z M152.636 39.28 c0 0.2 -0.12 0.44 -0.32 0.44 c0 0.04 0.04 0.08 0.08 0.08 c0.12 0 0.28 -0.32 0.4 -0.32 c0 -0.24 -0.08 -0.2 -0.16 -0.2 z M150.83599999999998 39.52 c0 0.08 0.08 0.04 0.32 0.04 c-0.08 0 -0.2 -0.12 -0.28 -0.12 c0 0 -0.04 0.04 -0.04 0.08 z M160.99599999999998 39.2 c0 0.12 -0.16 0.24 -0.16 0.32 l0.04 0.04 l0.12 0 l0 -0.36 z M150.516 39.12 c-0.32 0 -0.32 0.32 -0.32 0.44 c0.04 0.04 0.08 0.04 0.12 0.04 c0.08 0 0.36 -0.24 0.36 -0.32 s-0.16 -0.16 -0.16 -0.16 z M172.636 39 c-0.04 0 -0.04 0.04 -0.04 0.04 c0 0.04 0 0.04 0.04 0.04 s0.04 0 0.04 -0.04 c0 0 0 -0.04 -0.04 -0.04 z M170.396 38.88 c-0.04 0 -0.04 0.04 -0.04 0.08 c0 0 0 0.04 0.04 0.04 s0.04 -0.04 0.04 -0.04 c0 -0.04 0 -0.08 -0.04 -0.08 z M170.516 38.88 c-0.04 0 -0.08 0.04 -0.08 0.04 c0 0.04 0.04 0.04 0.08 0.04 s0.04 0 0.04 -0.04 c0 0 0 -0.04 -0.04 -0.04 z M153.396 31.880000000000003 c-0.04 0 -0.08 0.04 -0.08 0.04 l0.08 0 l0.04 0 s0 -0.04 -0.04 -0.04 z M162.756 26.96 c0 0.04 -0.04 0.08 -0.04 0.08 c-0.04 0 -0.04 -0.04 -0.04 -0.08 s0 -0.04 0.04 -0.04 c0 0 0.04 0 0.04 0.04 z M153.396 26.560000000000002 c-0.04 0 -0.08 0.04 -0.08 0.08 s0.04 0.08 0.08 0.08 s0.04 -0.04 0.04 -0.08 s0 -0.08 -0.04 -0.08 z M165.956 23.64 c-0.04 0 -0.08 0 -0.08 0.04 c0 0 0.04 0.04 0.08 0.04 s0.04 -0.04 0.04 -0.04 c0 -0.04 0 -0.04 -0.04 -0.04 z M168.55599999999998 22.32 l0 0.2 c0.04 0 0.08 0 0.08 -0.04 z M168.076 22.4 c-0.04 0 -0.08 0.04 -0.08 0.08 c0 0 0.04 0.04 0.08 0.04 s0.04 -0.04 0.04 -0.04 c0 -0.04 0 -0.08 -0.04 -0.08 z M153.396 13.84 c-0.04 0 -0.08 0.04 -0.08 0.08 l0.08 0 l0.04 0 c0 -0.04 0 -0.08 -0.04 -0.08 z M156.156 10.68 l0.16 0.12 c0 -0.2 0.16 -0.24 0.16 -0.64 c0 -0.12 0 -0.16 -0.08 -0.2 c-0.04 0.04 -0.12 0.04 -0.16 0.12 z M157.796 10.719999999999999 l0 -0.12 l0 0.12 z M150.11599999999999 10.48 c0 -0.04 -0.04 -0.04 -0.04 -0.04 c-0.04 0 -0.04 0 -0.04 0.04 s0 0.08 0.04 0.08 c0 0 0.04 -0.04 0.04 -0.08 z M151.196 10.399999999999999 c-0.04 0 -0.04 0.04 -0.04 0.08 s0 0.08 0.04 0.08 s0.04 -0.04 0.04 -0.08 s0 -0.08 -0.04 -0.08 z M151.396 10.48 c0 -0.04 -0.04 -0.04 -0.04 -0.04 l0 0.12 s0.04 -0.04 0.04 -0.08 z M149.796 10 c-0.04 0 -0.08 0.04 -0.08 0.08 s0.04 0.08 0.08 0.08 s0.04 -0.04 0.04 -0.08 s0 -0.08 -0.04 -0.08 z M153.27599999999998 9.760000000000002 c-0.04 0 -0.08 0.04 -0.08 0.08 s0.04 0.08 0.08 0.08 c0 0 0.04 -0.04 0.04 -0.08 s-0.04 -0.08 -0.04 -0.08 z M150.196 9.64 c-0.32 0 -0.28 0 -0.28 0.2 l-0.04 0 l0.08 -0.08 c0.08 0 0.32 -0.04 0.4 0.08 c0 -0.2 -0.04 -0.2 -0.16 -0.2 z M154.516 9.84 c0 -0.04 -0.04 -0.04 -0.04 -0.04 c-0.04 0 -0.04 0 -0.04 0.04 s0 0.08 0.04 0.08 c0 0 0.04 -0.04 0.04 -0.08 z M156.876 9.64 c-0.04 0 -0.08 0.04 -0.08 0.12 c0 0.04 0.04 0.08 0.08 0.08 s0.04 -0.04 0.04 -0.08 c0 -0.08 0 -0.12 -0.04 -0.12 z M157.316 9.440000000000001 c0 0.36 0.04 0.28 0.2 0.44 l0.2 -0.2 c0 -0.2 -0.32 -0.12 -0.4 -0.24 z M151.596 9.68 l-0.16 0.08 l0.16 0 l0 -0.08 z M154.596 9.68 c0 0 -0.04 0.04 -0.04 0.08 s0.04 0.08 0.04 0.08 c0.04 0 0.04 -0.04 0.04 -0.08 s0 -0.08 -0.04 -0.08 z M155.99599999999998 9.64 c-0.04 0 -0.08 0 -0.08 0.04 l0.12 0 c0 -0.04 -0.04 -0.04 -0.04 -0.04 z"/>
  </g>
  <g id="SvgjsG2027" featurekey="sloganFeature-0" transform="matrix(1.6858859334703464,0,0,1.6858859334703464,27.157057485454672,220.07633723813964)" fill="#0f81c7">
    <path d="M2.44 19.42 c-0.18 0 -0.28 0.04 -0.4 0.06 c-0.18 0 -0.14 0 -0.16 -0.02 l-0.06 0.02 c0 0.06 0.02 0.06 0.06 0.08 c0 -0.02 -0.06 0.04 -0.1 0.12 l0.02 0 c0 0.02 -0.64 0.52 -0.74 0.52 c-0.46 0 -0.46 -0.54 -0.46 -0.62 c0 -0.04 0 -0.04 0.02 -0.1 c0 -2.24 -0.1 -1.9 -0.1 -3.24 c0 0 0.02 -0.02 0.02 -0.04 c0 -0.06 -0.04 -0.16 -0.04 -0.26 c0 -0.18 0.08 -0.3 0.6 -0.3 c0.06 0 0.14 0.06 0.32 0.38 c0 0.1 0.36 0.4 0.4 0.58 c-0.02 0.02 -0.04 0.04 -0.04 0.06 c0 0.08 0.3 0.2 0.3 0.32 c0 0.02 -0.02 0.04 -0.02 0.04 c0 0.12 0.2 0.22 0.2 0.28 c0.24 0.44 0.26 0.42 0.58 0.74 c0.1 0 0.84 1.32 1.4 1.32 c0.72 0.06 0.86 0.32 1.62 0.32 c0.42 0 0.36 -0.02 0.5 -0.1 c-0.04 0.04 -0.02 0.04 -0.04 0.04 c0 0 0.14 -0.2 0.8 -0.2 c0.3 0 0.88 -0.56 1 -0.64 c0.04 -0.04 0.24 -0.12 0.24 -0.16 c0 -0.12 0.42 -0.7 0.48 -0.76 c-0.02 -0.04 -0.02 -0.08 -0.02 -0.1 c0 -0.3 0.32 0.16 0.32 -1.7 c-0.02 -0.06 -0.08 -0.7 -0.22 -0.82 c-0.06 0 -0.06 -0.46 -0.54 -0.78 c0 -0.02 0.02 -0.12 0.02 -0.16 c-0.78 -0.04 -0.38 -0.44 -0.9 -0.44 c-0.98 0 -0.2 -0.3 -1.26 -0.3 c-0.1 -0.1 -0.98 -0.08 -1.18 -0.2 c-0.04 0 -0.18 0.04 -0.22 0.04 c-0.24 0 -0.04 -0.2 -0.58 -0.2 c-1.82 -0.1 -0.84 -0.44 -1.46 -0.44 l0 -0.04 c0.06 0 0.14 -0.02 0.2 0.04 c0 0 0.1 -0.04 0.1 -0.06 c0 0 -0.04 -0.04 -0.04 -0.06 l-0.62 0 c-0.2 -0.18 -0.18 -0.3 -0.34 -0.34 c0 -0.02 -0.22 0.02 -0.56 -0.44 c0 -0.14 -0.44 -0.66 -0.54 -0.74 c-0.18 -0.94 -0.4 -1.5 -0.4 -2.22 c0.04 -0.22 0 -0.5 0.08 -0.64 l0 0.02 c0.02 0 0.1 -0.68 0.16 -0.64 c-0.02 0 -0.04 -0.02 -0.04 -0.04 c0 -0.16 0.42 -0.6 0.42 -0.76 c-0.02 -0.02 -0.02 -0.04 -0.02 -0.04 c0 -0.14 0.32 -0.28 0.32 -0.34 s0.26 -0.48 0.38 -0.56 c-0.02 0.02 -0.02 0.04 -0.02 0.04 c-0.02 0 0.98 -0.66 1 -0.68 c1.22 -0.2 0.16 -0.54 1.52 -0.54 l1.96 0 c0.04 0 0.46 0 0.66 0.16 c0.82 0.04 0.68 0.52 1.04 0.52 c0.66 0 0.48 -0.04 0.68 -0.24 c-0.08 -0.1 0.54 -0.02 0.6 -0.28 l0.26 0 c0.04 0 0.2 0.16 0.22 0.2 c0.06 2.48 0.18 2.42 0.18 3.72 c0 0.1 -0.18 0.16 -0.26 0.32 l-0.28 0 l0 -0.08 c-0.06 0 -0.48 -0.28 -0.48 -0.5 l0 0.02 c-0.02 0 -0.16 -0.5 -0.38 -0.58 l0.02 0 c0 -0.06 -0.26 -0.26 -0.26 -0.4 c-0.3 -0.44 -0.26 -0.42 -0.5 -0.66 l0.02 0 c0 -0.02 -0.5 -0.32 -0.5 -0.46 c0 -0.3 -0.74 -0.66 -0.9 -0.82 c0.06 -0.12 -0.52 -0.28 -1.1 -0.28 c-0.02 0 -0.04 0.02 -0.06 0.02 c-0.2 0 -0.12 -0.34 -0.18 -0.34 c-0.04 0.04 -0.06 0.04 -0.08 0.08 c-0.02 0 -0.1 -0.02 -0.16 -0.04 c-0.12 0.44 -0.32 0.2 -0.38 0.32 c-0.12 -0.06 -0.04 -0.12 -0.12 -0.14 c-0.42 0.2 -0.3 0.18 -1.22 0.64 c-0.6 1.18 -0.28 -0.28 -0.94 1.52 l0 0.88 l0 -0.02 c0.02 0 0.1 0.78 0.28 0.88 c0.04 0.06 0.3 0.26 0.38 0.42 c0.14 0 0.32 0.52 0.9 0.52 c0.24 0.26 1.18 0.2 2.14 0.44 c0.28 0.08 1.74 0.08 2.08 0.48 l-0.02 0 c0 0.04 0.48 0.08 0.56 0.14 c0 -0.04 0.96 0.56 0.96 0.68 c0 0.02 0 0.02 -0.02 0.02 c0.34 0 0.68 0.76 0.82 0.86 c0.1 0.72 0.38 0.5 0.38 1.06 c0.24 0.76 0.2 0.94 0.2 1.88 c-0.06 0.06 -0.1 0.76 -0.2 0.8 c0 1.02 -0.52 0.96 -0.52 1.4 l-0.26 0.24 c0 0.04 -0.02 0.12 -0.02 0.12 c-0.4 0.36 -0.26 0.42 -0.44 0.5 c-0.06 0 -0.16 0.3 -0.5 0.4 c-0.38 0.58 -0.54 0.12 -0.94 0.7 c-1.8 0 0.04 0.44 -1.96 0.44 c-2.28 0 -1.48 -0.06 -2.22 -0.24 c-0.02 0 -0.02 0.02 -0.04 0.02 c-0.12 0 -0.3 -0.16 -0.46 -0.16 c0 -0.02 -0.3 -0.06 -0.3 -0.1 c0 0.02 0.02 0.02 0.02 0.02 c0 -0.02 -0.28 -0.42 -0.5 -0.42 c-0.04 0 -0.08 0.02 -0.12 0.04 z M6.24 20.14 c-0.02 0 -0.02 0.02 -0.02 0.04 c0 0 0 0.02 0.02 0.02 s0.02 -0.02 0.02 -0.02 c0 -0.02 0 -0.04 -0.02 -0.04 z M4.74 20.1 c-0.02 0 -0.02 0.02 -0.02 0.02 c0 0.02 0 0.02 0.02 0.02 s0.02 0 0.02 -0.02 c0 0 0 -0.02 -0.02 -0.02 z M6.64 20.1 c-0.02 0 -0.04 0.02 -0.04 0.04 s0.02 0.04 0.04 0.04 s0.02 -0.02 0.02 -0.04 s0 -0.04 -0.02 -0.04 z M6.2 20.06 c-0.02 0 -0.04 0.02 -0.04 0.04 s0.02 0.04 0.04 0.04 s0.02 -0.02 0.02 -0.04 s0 -0.04 -0.02 -0.04 z M6.64 20.02 c-0.04 0 -0.06 0 -0.06 0.02 l0.02 0.02 l0.04 0 l0 -0.04 z M5.18 20.02 c-0.02 0 -0.02 0 -0.02 0.02 c0 0 0 0.02 0.02 0.02 s0.02 -0.02 0.02 -0.02 c0 -0.02 0 -0.02 -0.02 -0.02 z M6.64 19.88 l0 0.1 c0.04 -0.02 0.08 -0.06 0.1 -0.1 l-0.1 0 z M7.18 19.82 c-0.18 0 -0.18 0.06 -0.18 0.12 c0.02 0 0.06 -0.02 0.1 -0.04 c0.02 0 0.08 0.02 0.12 0.04 l0.08 -0.04 s0 -0.08 -0.12 -0.08 z M4.8 19.84 l0 0.04 l0.08 0 l0 -0.04 l-0.08 0 z M5.8 19.84 c-0.02 0 -0.02 0.02 -0.02 0.04 c0 0 0 0.02 0.02 0.02 s0.02 -0.02 0.02 -0.02 c0 -0.02 0 -0.04 -0.02 -0.04 z M6.36 19.84 c-0.02 0 -0.04 0.02 -0.04 0.04 c0 0 0.02 0.02 0.04 0.02 s0.02 -0.02 0.02 -0.02 c0 -0.02 0 -0.04 -0.02 -0.04 z M4.52 19.72 c-0.02 0 -0.04 0 -0.04 0.02 l0.04 0 l0.02 0 c0 -0.02 0 -0.02 -0.02 -0.02 z M3.9 19.66 c-0.02 0 -0.04 0 -0.06 0.02 z M3.84 19.58 c-0.02 0 -0.04 0.02 -0.04 0.04 s0.02 0.04 0.04 0.04 s0.02 -0.02 0.02 -0.04 s0 -0.04 -0.02 -0.04 z M3.9 19.56 c-0.02 0 -0.02 0.02 -0.02 0.04 c0 0 0 0.02 0.02 0.02 s0.02 -0.02 0.02 -0.02 c0 -0.02 0 -0.04 -0.02 -0.04 z M1.04 19.52 c-0.02 0 -0.04 0.02 -0.04 0.04 c0 0 0.02 0.02 0.04 0.02 l0.02 -0.02 c0 -0.02 -0.02 -0.04 -0.02 -0.04 z M3.84 19.52 c-0.02 0 -0.04 0.02 -0.04 0.04 c0 0 0.02 0.02 0.04 0.02 s0.02 -0.02 0.02 -0.02 c0 -0.02 0 -0.04 -0.02 -0.04 z M0.76 19.46 c-0.02 0 -0.04 0.02 -0.04 0.02 c0 0.02 0.02 0.04 0.04 0.04 c0 0 0.02 -0.02 0.02 -0.04 z M4 19.48 l-0.04 0 c0 0.02 0 0.04 0.02 0.04 c0 0 0.02 -0.02 0.02 -0.04 z M7.92 19.46 c-0.02 0 -0.02 0.02 -0.02 0.02 l0.04 0 c0 0.02 0 -0.02 -0.02 -0.02 z M0.76 19.12 l0 -0.08 l0 0.08 z M8.84 19.08 c-0.02 0 -0.04 0.02 -0.04 0.04 l0.06 0 c0 -0.02 -0.02 -0.04 -0.02 -0.04 z M9.12 18.84 l0 0.04 l0.02 0 z M9.06 18.78 c-0.02 0 -0.04 0.02 -0.04 0.04 c0 0 0.02 0.02 0.04 0.02 s0.02 -0.02 0.02 -0.02 c0 -0.02 0 -0.04 -0.02 -0.04 z M9.18 18.8 l0.04 -0.02 z M9.3 18.68 l0 0 l-0.04 0.04 c0.02 -0.02 0.02 -0.04 0.04 -0.04 z M0.82 18.66 c-0.02 0 -0.04 0 -0.04 0.02 c0 0 0.04 0 0.04 -0.02 l0 0 z M0.76 18.46 l0 0.12 l0.02 0 c0 -0.02 0 -0.1 -0.02 -0.12 z M9.92 18.02 c-0.02 0 -0.02 0.02 -0.02 0.02 s0 0.02 0.02 0.02 s0.02 -0.02 0.02 -0.02 s0 -0.02 -0.02 -0.02 z M9.3 16.38 l0.04 0.02 l0.04 -0.02 l-0.08 0 z M0.76 16.06 l-0.04 0 c0 0.02 0 0.04 0.02 0.04 c0 0 0.02 -0.02 0.02 -0.04 z M10.72 15.719999999999999 l0 -0.02 c-0.02 0 -0.02 0 -0.02 0.02 s0 0.04 0.02 0.04 l0 -0.04 z M2.32 12.34 c-0.02 0 -0.04 0.02 -0.04 0.04 s0.02 0.04 0.04 0.04 s0.02 -0.02 0.02 -0.04 s0 -0.04 -0.02 -0.04 z M1.5 11.48 c-0.02 0 -0.04 0.02 -0.04 0.04 c0 0 0.02 0.02 0.04 0.02 l0.02 -0.02 c0 -0.02 -0.02 -0.04 -0.02 -0.04 z M7.92 11.28 c-0.02 0 -0.02 0.02 -0.02 0.04 c0 0 0 0.02 0.02 0.02 s0.02 -0.02 0.02 -0.02 c0 -0.02 0 -0.04 -0.02 -0.04 z M1.26 11.2 l0 0.04 l0.04 -0.04 l-0.04 0 z M3.16 11.02 c0 0 -0.02 0 -0.02 0.02 l0.04 0 c0 -0.02 -0.02 -0.02 -0.02 -0.02 z M5.14 10.76 c-0.04 0 -0.14 0.04 -0.14 0.06 s0.02 0.02 0.02 0.02 c0.04 0 0.08 -0.04 0.12 -0.08 z M0.88 10.18 c-0.02 0 -0.04 -0.02 -0.04 0.1 c0 0.02 0.02 0.06 0.02 0.06 c0.02 0 0.04 -0.04 0.04 -0.06 c0 -0.04 -0.02 -0.08 -0.02 -0.1 z M0.82 9.98 c-0.02 0 -0.04 0.02 -0.04 0.04 s0.02 0.04 0.04 0.04 l0 -0.08 z M9.38 6.460000000000001 c-0.02 0 -0.04 0.02 -0.04 0.04 c0 0 0.02 0.02 0.04 0.02 s0.02 -0.02 0.02 -0.02 c0 -0.02 0 -0.04 -0.02 -0.04 z M9.66 6.460000000000001 c-0.02 0 -0.02 0.02 -0.02 0.04 c0 0 0 0.02 0.02 0.02 s0.02 -0.02 0.02 -0.02 c0 -0.02 0 -0.04 -0.02 -0.04 z M9.74 6.460000000000001 c-0.02 0 -0.04 0.02 -0.04 0.04 c0 0 0.02 0.02 0.04 0.02 l0.02 -0.02 c0 -0.02 -0.02 -0.04 -0.02 -0.04 z M5.26 6.02 l0 -0.22 c0.02 -0.02 0.06 -0.04 0.08 -0.06 l0.04 0.04 c0 0.06 -0.08 0.16 -0.08 0.28 z M9.66 5.9399999999999995 c-0.02 0 -0.02 0.02 -0.02 0.04 c0 0 0 0.02 0.02 0.02 s0.02 -0.02 0.02 -0.02 c0 -0.02 0 -0.04 -0.02 -0.04 z M3.1 5.84 c-0.1 0.02 -0.1 0.1 -0.1 0.1 c0.02 -0.02 0.1 -0.06 0.1 -0.08 l0 -0.02 z M2.62 5.74 c0 0.04 0.06 0.06 0.1 0.06 c-0.02 -0.06 -0.1 -0.06 -0.12 -0.06 l0.02 0 z M9.58 5.779999999999999 c0.02 0.02 0.04 0.02 0.06 0.02 c0.08 0 0.1 -0.06 0.1 -0.12 z M2.94 5.619999999999999 c-0.06 0 -0.04 0.06 -0.04 0.12 l0.04 0 l0 -0.12 z M6.9 5.4399999999999995 c-0.06 0.1 -0.04 0.18 -0.04 0.26 c0.08 -0.02 0.1 -0.12 0.1 -0.22 c-0.02 -0.02 -0.02 -0.04 -0.06 -0.04 z M2.94 5.52 c-0.02 0 -0.04 0 -0.04 0.02 l0.04 0 l0.02 0 c0 -0.02 0 -0.02 -0.02 -0.02 z M9.38 5.48 c0 -0.02 -0.02 -0.02 -0.06 -0.02 c-0.02 0 -0.04 0 -0.04 0.02 s0.02 0.04 0.04 0.04 c0.04 0 0.06 -0.02 0.06 -0.04 z M9.46 5.42 c-0.02 0 -0.04 0.02 -0.04 0.02 l0.02 0 l0.02 0 l0 -0.02 z M7.48 5.42 l-0.02 -0.02 z M6.24 5.4 c0 -0.02 -0.02 -0.02 -0.02 -0.02 s-0.02 0 -0.02 0.02 s0.02 0.02 0.02 0.02 s0.02 0 0.02 -0.02 z M8.96 5.4 c0 -0.02 -0.02 -0.02 -0.02 -0.02 c-0.02 0 -0.02 0 -0.02 0.02 s0 0.02 0.02 0.02 c0 0 0.02 0 0.02 -0.02 z M9.22 5.359999999999999 c-0.02 0 -0.04 0.02 -0.04 0.04 c0 0 0.02 0.02 0.04 0.02 s0.02 -0.02 0.02 -0.02 c0 -0.02 0 -0.04 -0.02 -0.04 z M9.66 5.32 l0 0.08 l0.04 -0.04 z M3.58 5.16 c0 0.06 0.04 0.14 0.04 0.2 l0.04 -0.1 s-0.02 -0.08 -0.04 -0.14 z M7.1 5.24 c-0.02 0 -0.04 0.02 -0.04 0.02 s0.02 0.02 0.04 0.02 s0.02 -0.02 0.02 -0.02 s0 -0.02 -0.02 -0.02 z M9.28 5.119999999999999 c-0.06 0.02 -0.08 0.08 -0.1 0.14 c0.12 0 0.1 -0.06 0.1 -0.14 z M9.66 5.24 l0 0.02 l0.04 0 z M9.66 5.119999999999999 c-0.02 0 -0.02 0.02 -0.02 0.02 c0 0.02 0 0.02 0.02 0.02 s0.02 0 0.02 -0.02 c0 0 0 -0.02 -0.02 -0.02 z M5.48 5.039999999999999 c-0.02 0.06 0.1 0.08 0.1 0.08 c0.04 -0.06 0.24 0.02 0.22 -0.08 l-0.32 0 z M6.74 5.08 l-0.04 0 c0 0.02 0 0.04 0.02 0.04 c0 0 0.02 -0.02 0.02 -0.04 z M4.36 5 l0 0.04 l0.08 0 l0 -0.04 l-0.08 0 z M4.74 4.960000000000001 c-0.06 0 -0.14 0.06 -0.16 0.08 l0.16 0 l0 -0.08 z M6.24 5 l0 0.04 l0.12 0 z M24.091 20 c-0.74 0 -1.94 0.02 -2 0.02 c-0.64 0 -0.66 -0.04 -0.66 -0.24 c0 -0.36 0.42 -0.36 0.42 -0.46 l0.36 0 l0.08 0.04 l0.82 0 s0.1 -0.08 0.1 -0.1 c0 -0.38 -0.3 -0.36 -0.3 -0.58 l-0.24 -0.26 l0 -0.08 c-0.08 -0.04 -0.3 -0.24 -0.34 -0.3 c0 -0.32 -0.4 -0.2 -0.4 -0.56 c-0.34 -0.44 -0.28 -0.28 -0.94 -1.14 c0 -0.14 -0.5 -0.66 -0.62 -0.74 c0 -0.06 -0.22 -0.58 -0.6 -0.78 c0.02 -0.02 0.02 -0.04 0.02 -0.04 c0 -0.16 -1.06 -1.38 -1.22 -1.46 c0 -0.06 -0.4 -0.62 -0.48 -0.66 l-0.02 0.02 c-0.08 0 -0.16 -0.38 -0.3 -0.38 c-0.06 0 -0.1 1.78 -0.1 1.96 c0 0.08 0.02 0.44 0.02 0.66 l0 3.66 c0 0.06 0.04 0.46 0.04 0.54 c-0.02 0 -0.02 0.02 -0.02 0.02 c0 0.08 0.2 0.28 0.26 0.28 l0.86 0 l0.06 -0.02 l0.1 0.02 c0.04 0 0.08 0 0.12 -0.02 c0.54 0 0.56 0.24 0.56 0.54 c-0.04 0.04 -0.26 0.14 -0.5 0.14 c-0.04 0 -0.04 -0.06 -0.22 -0.06 c-0.48 0 -0.96 0.04 -1.5 0.04 c-0.28 0 -1.52 -0.04 -2.7 -0.04 l0.04 -0.02 l-0.14 0 l0.02 0.02 c-0.14 0 -0.36 0.06 -0.5 0.06 c-0.04 0 -0.1 0 -0.1 -0.04 c0 -0.02 0.06 -0.04 0.1 -0.06 c0 0 -0.04 -0.08 -0.04 -0.12 c-0.12 0.14 -0.4 0.14 -0.52 0.14 l0.16 0 c-0.06 0.02 -0.34 0.06 -0.42 0.06 l-0.04 0 c0.02 -0.04 0.08 -0.04 0.12 -0.06 l-0.24 0 l-0.06 0.06 s-0.32 0 -0.32 -0.08 l0 -0.36 c0.02 0 0.3 -0.2 0.54 -0.22 c0 0.02 0.02 0.02 0.04 0.02 c0.06 0 0.18 -0.04 0.26 -0.04 c0.12 0 0.2 0.04 0.28 0.04 c0.18 0 0.22 -0.02 0.32 -0.02 c0.06 0.02 0.18 0.06 0.24 0.06 c0.18 0 0.24 -0.28 0.3 -0.36 c0 -0.08 0 -0.22 -0.02 -0.3 c0 -0.02 0.02 -0.18 0.02 -0.22 c0 -0.02 -0.02 -0.38 -0.02 -0.48 c0 -0.08 0.02 -0.24 0.02 -0.42 c0 -0.26 -0.04 -1.04 -0.04 -3.12 c0 -0.18 0.02 -0.46 0.02 -0.62 c0 -0.32 -0.02 -0.82 -0.02 -1.22 c0 -0.16 0.02 -1.34 0.02 -1.38 c0 -0.08 -0.02 -0.26 -0.02 -0.32 c0 -0.14 0.02 -0.68 0.02 -0.8 l0 -4.36 c0 -0.26 -0.2 -0.2 -0.22 -0.32 c-0.24 0 -0.22 0.04 -0.34 0.04 l-1.3 0 c-0.04 -0.02 -0.16 -0.08 -0.16 -0.14 l0 -0.24 c0 -0.04 0.24 -0.24 0.36 -0.24 l0.92 0 c0.1 0 0.18 0.08 0.32 0.08 c0.04 0 0.74 -0.02 1.04 -0.08 c0.06 0 0.26 0.04 0.32 0.04 c0.08 0 0.26 0.02 0.4 0.02 c0.12 0 0.24 -0.02 0.26 -0.06 c0 0 0.32 0.04 0.46 0.04 c0.58 0 1.34 -0.1 2.02 -0.1 c0.34 0 0.74 0.04 0.82 0.22 c0 0.44 -0.14 0.46 -0.36 0.46 c-0.42 0 -0.44 -0.04 -0.64 -0.04 c-0.02 0.02 -0.06 0.02 -0.08 0.02 c-0.12 0 -0.32 -0.04 -0.5 -0.04 c-0.38 0 -0.42 0.38 -0.42 0.82 c0 0.2 0.02 0.5 0.02 1.04 c0 0.14 -0.06 1.12 -0.06 1.66 c0 0.18 0 0.34 0.04 0.4 c0 0.04 -0.02 0.1 -0.04 0.12 c0 0.24 0 0.28 0.04 0.38 c0 0.12 -0.04 2.16 0.14 2.16 c0.06 -0.06 0.9 -0.82 0.9 -0.98 c0.46 -0.04 -0.22 -0.24 0.8 -0.9 c0 -0.36 0.54 -0.2 0.54 -0.66 c1.34 -1.36 0.36 -0.48 1.1 -1.22 c0.44 -0.14 -0.42 0.2 0.9 -0.94 c0.08 0 0.28 -0.52 0.58 -0.7 c0.22 0 0.5 -0.6 0.84 -0.86 l0 -0.24 c-0.02 -0.02 -0.08 -0.04 -0.1 -0.06 l-1.52 0 c-0.16 0 -0.36 0 -0.36 -0.2 l0 0.02 l0 -0.02 c0 -0.1 0.04 -0.5 0.48 -0.5 c0.1 0 0.34 0.06 0.32 0.06 c0.12 0 0.08 0 0.14 -0.02 l0.72 0.02 l0.04 -0.06 c0.08 0 0.2 0.06 0.4 0.06 c0.02 -0.04 1.54 -0.06 1.8 -0.06 c0.18 0 0.38 -0.02 0.6 -0.02 c0.42 0 0.84 0.06 0.86 0.38 c0 0.22 -0.04 0.4 -0.48 0.4 c-0.28 0 -0.54 -0.06 -0.88 -0.06 l0.06 -0.02 c0 -0.04 0 -0.08 -0.06 -0.08 c-0.02 0 -0.02 0.02 -0.06 0.08 l-0.68 0 c-0.24 0.08 -0.24 0.26 -0.46 0.38 c0 0.32 -0.36 0.2 -0.54 0.68 c-0.12 0 -0.68 0.66 -0.72 0.8 c0.02 0 0.02 0 0.02 0.02 c0 0.06 -0.72 0.42 -0.72 0.74 c-1.56 1.56 -1.4 1.32 -1.46 1.52 c0.02 0.08 -0.72 0.52 -0.72 0.84 c0 0.12 0.18 0.3 0.18 0.44 c0.06 0.08 0.5 0.42 0.5 0.6 c0 0 0.34 0.6 0.86 1.12 c0 0.02 -0.02 0.02 -0.02 0.04 c0 0.12 0.38 0.28 0.5 0.62 c-0.08 0.06 0.46 0.4 0.5 0.54 c0 0.02 0.12 0.2 0.12 0.2 c0.12 0 1.04 1.3 1.1 1.34 c0 0.14 0.7 0.68 0.7 0.96 c0 0.06 0.38 0.34 0.42 0.46 c0 0.12 0.54 0.46 0.54 0.7 c0.44 0.48 0.24 0.36 0.58 0.7 c0.44 0.14 0.4 1.04 1.02 1.04 l1.18 0 c0.18 0.16 0.28 0.2 0.32 0.46 c0 0.34 -0.3 0.38 -0.46 0.38 c0 0 -0.3 -0.08 -0.6 -0.08 c-1.36 0 -1.7 -0.02 -3.5 -0.02 z M17.271 19.98 l-0.02 0.02 l0.02 0.02 c0.02 0 0.02 -0.02 0.02 -0.02 s0 -0.02 -0.02 -0.02 z M19.431 20 c0 0 -0.2 0 -0.18 0 c0 0.02 0.04 0.02 0.08 0.02 c0.06 0 0.1 0 0.1 -0.02 z M27.771 20 l-0.06 0 c0 0.02 0.02 0.02 0.02 0.02 c0.02 0 0.04 0 0.04 -0.02 z M12.951 19.86 c0 0.08 -0.02 0.12 0.08 0.12 c0.04 0 0.08 -0.06 0.08 -0.14 c0 0 -0.06 -0.16 -0.12 -0.2 c-0.02 0 -0.04 0.12 -0.04 0.22 z M21.951 19.94 l0.02 0.04 l0.08 -0.04 l-0.1 0 z M21.811 19.9 c-0.02 0 -0.02 0.02 -0.02 0.04 s0 0.04 0.02 0.04 s0.02 -0.02 0.02 -0.04 s0 -0.04 -0.02 -0.04 z M27.031 19.84 c-0.02 0 -0.04 0.02 -0.04 0.04 c0 0 0.02 0.02 0.04 0.02 s0.02 -0.02 0.02 -0.02 c0 -0.02 0 -0.04 -0.02 -0.04 z M18.951 19.78 c-0.02 0 -0.04 0.02 -0.04 0.04 c0 0 0.02 0.02 0.04 0.02 s0.02 -0.02 0.02 -0.02 c0 -0.02 0 -0.04 -0.02 -0.04 z M14.551000000000002 19.72 c-0.02 0 -0.04 0 -0.04 0.02 l0.04 0 l0.02 0 c0 -0.02 0 -0.02 -0.02 -0.02 z M19.191000000000003 19.64 l0.06 0.08 c0 -0.02 0.02 -0.04 0.02 -0.08 l-0.08 0 z M13.111 19.64 l0 0.04 l0.02 -0.04 l-0.02 0 z M13.351 19.64 l-0.06 0 c0 0.02 0.02 0.04 0.02 0.04 c0.02 0 0.04 -0.02 0.04 -0.04 z M13.851 19.64 l-0.04 0 c0 0.02 0 0.04 0.02 0.04 c0 0 0.02 -0.02 0.02 -0.04 z M27.071 19.58 l0.04 0.04 c0.06 0 0.06 -0.02 0.08 -0.04 l-0.12 0 z M27.811 19.48 c-0.02 0 -0.04 0.02 -0.04 0.04 s0.02 0.04 0.04 0.04 s0.02 -0.02 0.02 -0.04 s0 -0.04 -0.02 -0.04 z M26.291 19.26 c0 0.1 0.14 0.12 0.16 0.14 c0 -0.14 -0.1 -0.14 -0.16 -0.14 z M22.731 18.36 l0 0.02 l0.02 -0.02 l-0.02 0 z M14.931000000000001 14.84 l-0.02 0.02 c0 0.02 0.02 0.02 0.02 0.02 s0.02 0 0.02 -0.02 z M21.311 13.04 l0 0.04 l0.06 0 l0 -0.04 l-0.06 0 z M21.151000000000003 9.12 l-0.04 0.04 l0.2 0 z M21.511000000000003 8.74 l0.02 -0.04 z M21.811 8.5 c-0.02 0 -0.02 0.02 -0.02 0.04 s0 0.04 0.02 0.04 s0.02 -0.02 0.02 -0.04 s0 -0.04 -0.02 -0.04 z M21.771 8.14 c-0.02 0 -0.04 0.02 -0.04 0.04 s0.02 0.04 0.04 0.04 l0 -0.08 z M22.431 7.76 c-0.02 0 -0.02 0.02 -0.02 0.02 c0 0.02 0 0.02 0.02 0.02 s0.02 0 0.02 -0.02 c0 0 0 -0.02 -0.02 -0.02 z M22.891000000000002 7.32 c-0.02 0 -0.04 0.02 -0.04 0.04 c0 0 0.02 0.02 0.04 0.02 l0.02 -0.02 c0 -0.02 -0.02 -0.04 -0.02 -0.04 z M22.831000000000003 7.279999999999999 c-0.02 0 -0.04 0.02 -0.04 0.04 s0.02 0.04 0.04 0.04 s0.02 -0.02 0.02 -0.04 s0 -0.04 -0.02 -0.04 z M23.351 6.84 c-0.02 0 -0.04 0.02 -0.04 0.02 l0.06 0 z M22.891000000000002 6.74 c-0.02 0 -0.04 0.02 -0.04 0.04 c0 0 0.02 0.02 0.04 0.02 l0.02 -0.02 c0 -0.02 -0.02 -0.04 -0.02 -0.04 z M13.131 5.48 l0 0.04 l0.06 0 l0 -0.04 l-0.06 0 z M13.891000000000002 5.24 c-0.04 0 -0.04 0.04 -0.08 0.08 c0 0.02 0.02 0.02 0.02 0.04 c0 0.06 -0.32 0.08 -0.32 0.16 l0.3 0 c0.06 0 0.08 -0.12 0.08 -0.28 z M25.751 5.48 c0.02 0.02 0.18 0.04 0.22 0.04 c0.18 0 0.24 -0.04 0.32 -0.04 c0 -0.04 -0.04 -0.1 -0.08 -0.1 c-0.1 0.06 -0.28 0.1 -0.46 0.1 z M19.071 5.4399999999999995 l0 0.04 l0.04 -0.04 l-0.04 0 z M19.511000000000003 5.380000000000001 c-0.04 -0.02 -0.1 0.06 -0.1 0.1 c0.12 0.02 0.1 -0.04 0.1 -0.1 z M26.691000000000003 5.279999999999999 c0 0.02 -0.1 0.12 -0.1 0.16 l0 0.04 c0.12 -0.06 0.1 -0.06 0.1 -0.2 z M12.871 5.24 c0.04 0.06 0.04 0.1 0.04 0.18 l0.06 0 c0 -0.2 0.16 -0.22 0.32 -0.22 l0 -0.08 c-0.16 0 -0.4 -0.02 -0.42 0.12 z M25.271 5.380000000000001 c-0.02 0 -0.04 0.02 -0.04 0.02 c0 0.02 0.02 0.02 0.04 0.02 s0.02 0 0.02 -0.02 c0 0 0 -0.02 -0.02 -0.02 z M21.671 5.16 c0 0.1 -0.02 0.2 0.06 0.28 c0 0 0.08 -0.28 0.06 -0.28 l-0.12 0 z M25.071 5.119999999999999 c0.14 0 0.08 0.04 0.16 0.2 c0.06 0 0.06 -0.04 0.1 -0.08 l0.14 -0.08 l0 -0.04 c-0.08 0 -0.12 0 -0.16 0.04 l-0.08 -0.04 l0.08 -0.04 c-0.12 0 -0.16 0 -0.24 0.04 z M13.591000000000001 5.16 l0 0.12 l0.02 0 c0 -0.04 0 -0.1 -0.02 -0.12 z M14.051000000000002 5.16 c0 0.04 0 0.06 0.04 0.08 c0.12 0 0.12 -0.08 0.12 -0.08 l-0.16 0 z M14.871 5.24 l0.06 0 l0 -0.04 c-0.02 0 -0.04 0.02 -0.06 0.04 z M15.231000000000002 5.16 c0 0.04 0 0.06 0.04 0.08 l0 -0.08 l-0.04 0 z M25.851 5.119999999999999 l0.06 0.12 l0.02 -0.04 c0 -0.04 0 -0.08 -0.02 -0.12 z M14.491000000000001 5.16 c-0.02 0 -0.04 0.02 -0.04 0.04 s0.02 0.04 0.04 0.04 c0 0 0.02 -0.02 0.02 -0.04 s-0.02 -0.04 -0.02 -0.04 z M18.631 5.16 c0 0.04 0.08 0.08 0.1 0.08 c0.12 -0.02 0.16 -0.06 0.16 -0.08 s0 -0.04 -0.02 -0.04 c-0.06 0 -0.18 0.04 -0.24 0.04 z M15.651000000000002 5.16 c-0.02 0 -0.04 0.02 -0.04 0.04 s0.02 0.04 0.04 0.04 l0 -0.08 z M19.151 5.16 l0.04 0.04 c0.06 0 0.1 -0.04 0.16 -0.08 c-0.12 0 -0.12 0 -0.2 0.04 z M19.511000000000003 5.16 c-0.02 0 -0.04 0.02 -0.04 0.04 s0.02 0.04 0.04 0.04 c0 0 0.02 -0.02 0.02 -0.04 s-0.02 -0.04 -0.02 -0.04 z M22.891000000000002 5.16 c-0.02 0 -0.04 0.02 -0.04 0.02 c0 0.02 0.02 0.02 0.04 0.02 c0 0 0.02 0 0.02 -0.02 z M26.371000000000002 5.08 c0 0.08 0.04 0.12 0.06 0.12 l0.2 -0.12 l-0.08 -0.02 c-0.12 0 -0.16 0.02 -0.18 0.02 z M23.151000000000003 5.16 c0 -0.02 -0.02 -0.02 -0.02 -0.02 c-0.02 0 -0.02 0 -0.02 0.02 s0 0.04 0.02 0.04 c0 0 0.02 -0.02 0.02 -0.04 z M23.431 5.119999999999999 c-0.02 0 -0.04 0.02 -0.04 0.04 s0.02 0.04 0.04 0.04 s0.02 -0.02 0.02 -0.04 s0 -0.04 -0.02 -0.04 z M22.371000000000002 5.119999999999999 c0 -0.02 -0.02 -0.02 -0.06 -0.02 c0 0 -0.02 0 -0.02 0.02 s0.02 0.04 0.02 0.04 c0.04 0 0.06 -0.02 0.06 -0.04 z M24.251 5.08 c-0.02 0 -0.04 0.02 -0.04 0.04 s0.02 0.04 0.04 0.04 c0 0 0.02 -0.02 0.02 -0.04 s-0.02 -0.04 -0.02 -0.04 z M24.571 5.08 c-0.02 0 -0.04 0.02 -0.04 0.04 s0.02 0.04 0.04 0.04 c0 0 0.02 -0.02 0.02 -0.04 s-0.02 -0.04 -0.02 -0.04 z M24.911 5.08 l-0.04 0.04 l0.08 0 z M26.051000000000002 5.08 l0 0.04 l0.12 0 c-0.06 -0.04 -0.08 -0.04 -0.12 -0.04 z M31.202 5.800000000000001 c-0.1 0 -0.16 0.06 -0.24 0.06 c-0.28 0 -0.62 -0.18 -0.62 -0.3 l0 0.02 c0 -0.02 0 -0.46 0.5 -0.46 c0 0 0.84 0.04 1 0.04 c0.46 0 2.08 -0.04 2.5 -0.04 c0.16 0 1.48 0.04 1.64 0.04 c0.2 0 0.44 -0.02 0.64 -0.02 c0.36 0 0.54 0.06 0.54 0.38 c0 0.18 -0.12 0.2 -0.18 0.28 c-0.8 0 -0.94 -0.04 -1.22 -0.04 c-0.04 0 -0.36 0.04 -0.36 0.04 l-0.06 0.06 l0 0.22 c0.08 0.1 -0.08 0.36 0.2 0.7 c-0.02 0.04 -0.02 0.06 -0.02 0.1 c0 0.26 0.46 0.42 0.46 1.14 c-0.02 0 -0.02 0.02 -0.02 0.02 c0 0.06 0.18 0.24 0.3 0.78 c0.12 0 -0.08 0.14 0.28 0.58 c-0.02 0.02 -0.02 0.02 -0.02 0.04 c0 0.08 0.2 0.28 0.2 0.46 c0 0.04 0 0.08 -0.02 0.08 c0 0.04 0.32 0.42 0.32 0.88 c0 0.6 0.54 0.96 0.54 1.5 c0.08 0.54 0.38 0.7 0.38 1.04 c0.2 0.04 0.06 0.34 0.28 0.54 c-0.02 0 -0.04 0.02 -0.04 0.04 c0 0.08 0.22 0.28 0.22 0.56 c-0.02 0 -0.04 0 -0.04 0.02 c0 0.08 0.3 0.36 0.3 0.58 c0.12 0.36 0.14 0.42 0.18 0.62 c0.08 -0.02 0.36 0.2 0.66 -1.22 l0 0.02 c0.02 0 0.04 -0.58 0.26 -0.72 c0.08 0 -0.14 -0.16 0.34 -1.1 c0.26 -0.38 0.2 -0.92 0.4 -1.18 c0 0.02 0.1 -0.68 0.28 -0.82 c0 -0.1 0.12 -0.56 0.34 -1.1 c0 -0.08 0.34 -0.72 0.34 -0.88 c0.04 -0.02 0.04 -0.02 0.04 -0.04 s-0.04 -0.06 -0.04 -0.14 c0 -0.1 0.04 -0.22 0.2 -0.46 c0.16 -0.14 0.16 -0.76 0.32 -0.84 c0.1 -0.48 0.18 -0.6 0.2 -0.68 c0.06 0.04 0.04 -0.5 0.2 -0.74 c-0.06 -0.12 -0.18 -0.14 -0.28 -0.14 c-0.2 0 -0.2 0 -0.26 0.04 c-0.14 -0.06 -0.28 -0.06 -0.44 -0.06 l0 -0.02 c-0.28 0 -0.34 0.08 -0.52 0.08 c-0.02 -0.02 -0.04 -0.04 -0.06 -0.04 c-0.04 0 -0.1 0.02 -0.16 0.02 c-0.08 0 -0.18 -0.04 -0.28 -0.22 c0 -0.46 0.04 -0.18 0.38 -0.4 l3.86 0 c0.1 0 0.26 0.04 0.28 0.1 l-0.1 0 c0 0.02 0.04 0.1 0.04 0.1 c0.04 0 0.06 -0.02 0.1 -0.04 c0 0.6 -0.42 0.36 -0.48 0.48 c-0.16 0 -0.56 0.02 -0.62 -0.08 l-0.48 0 s-0.08 0.08 -0.12 0.16 c0 0 -0.36 0.4 -0.36 0.82 c-0.06 -0.02 0 0.3 -0.26 0.68 c0 0 0.02 0.02 0.02 0.04 c0 0.08 -0.2 0.34 -0.2 0.5 c0 0.04 0 0.06 0.02 0.08 c0 0.04 -0.16 0.44 -0.24 0.5 c0.02 0 0.04 0.02 0.04 0.06 c0 0.24 -0.52 1.22 -0.52 1.46 c-0.02 0 -0.08 0.4 -0.18 0.48 c-0.08 0.04 0 0.46 -0.28 0.88 c0 0.24 -0.44 0.7 -0.44 1.32 c-0.02 0 -0.14 0.38 -0.22 0.44 c-0.04 0 -0.08 -0.02 -0.08 -0.02 c0 0.2 0.02 0.16 0.02 0.32 c0 0.04 -0.22 0.4 -0.22 0.76 l0 -0.02 c-0.14 0 -0.84 2.26 -0.82 2.28 l0 0 c0.04 0.06 -0.2 0.3 -0.2 0.58 c0 0.38 -0.24 0.04 -0.24 0.76 c0 0.02 0.02 0.04 0.02 0.06 c0 0.12 -0.22 0.2 -0.22 0.5 c-0.08 1.02 -0.42 0.42 -0.42 1.12 c-0.06 0.24 0.06 0.68 -0.52 1.14 c-0.4 0 -0.6 -0.72 -0.6 -0.78 c-0.06 -0.02 0.04 -0.26 -0.3 -0.78 c0 -0.02 0.02 -0.02 0.02 -0.04 c0 -0.1 -0.2 -0.28 -0.2 -0.52 c0 -0.3 -0.44 -0.52 -0.44 -1.24 c0 -0.22 -0.34 -0.52 -0.34 -0.76 l0 0 c-0.04 0 -0.02 -0.36 -0.28 -0.78 l0.02 0.02 c0 -0.02 -0.24 -0.4 -0.28 -0.76 c0 -0.14 -0.34 -0.32 -0.34 -0.9 c0.02 0 0.04 -0.02 0.04 -0.04 c0 -0.14 -0.36 -0.42 -0.36 -0.86 c0 -0.26 -0.42 -0.56 -0.42 -0.94 c-0.16 -0.32 -0.2 -0.58 -0.28 -0.92 c0.02 0 0.02 0 0.02 -0.02 c0 -0.08 -0.5 -1.28 -0.5 -1.38 l0 -0.08 c0 0.02 -0.24 -0.6 -0.3 -0.62 c-0.1 0 0.06 -0.36 -0.32 -0.84 c0 0 0.02 -0.02 0.02 -0.04 c0 -0.14 -0.3 -0.46 -0.3 -0.66 c0 -0.34 -0.2 -0.6 -0.26 -0.9 c-0.08 0.16 0.02 -0.24 -0.16 -0.46 c-0.1 -0.46 -0.3 -0.34 -0.42 -0.48 l-0.76 0 z M37.942 20.28 l0 0.06 c0.04 0 0.06 0 0.08 -0.06 l-0.08 0 z M37.522000000000006 19.9 l-0.02 0.02 l0.04 0 s0 -0.02 -0.02 -0.02 z M38.242000000000004 19.74 c-0.08 0 -0.08 0.14 -0.1 0.16 c0.1 -0.02 0.1 0.02 0.1 -0.16 z M37.342000000000006 19 c-0.02 0.02 -0.02 0.04 -0.02 0.06 c0.02 0 0.02 -0.02 0.04 -0.04 z M40.402 13.4 l0.06 0.04 l0 -0.14 c-0.04 0.04 -0.06 0.04 -0.06 0.1 z M40.462 12.98 c-0.02 0 -0.04 0.02 -0.04 0.02 c0 0.02 0.02 0.02 0.04 0.02 s0.02 0 0.02 -0.02 c0 0 0 -0.02 -0.02 -0.02 z M40.562000000000005 12.74 c-0.1 0 -0.1 0.16 -0.1 0.16 l0.12 -0.12 z M37.282000000000004 12.82 c-0.02 0 -0.04 0.02 -0.04 0.04 c0 0 0.02 0.02 0.04 0.02 s0.02 -0.02 0.02 -0.02 c0 -0.02 0 -0.04 -0.02 -0.04 z M34.382000000000005 11.24 l0.04 0.06 l0.04 -0.02 c-0.04 -0.04 -0.06 -0.04 -0.08 -0.04 l0 0 z M41.602000000000004 9.98 c-0.02 0 -0.04 0.02 -0.04 0.02 c0 0.02 0.02 0.02 0.04 0.02 c0 0 0.02 0 0.02 -0.02 z M33.742000000000004 9.66 c-0.02 0 -0.04 0.02 -0.04 0.04 c0 0 0.02 0.02 0.04 0.02 l0 -0.06 z M41.722 8.78 c0 -0.02 -0.02 -0.02 -0.04 -0.02 s-0.02 0 -0.02 0.02 s0 0.04 0.02 0.04 s0.04 -0.02 0.04 -0.04 z M42.142 8.38 l0 0.02 l0.04 -0.02 l-0.04 0 z M32.902 7.18 c0.02 0 0.06 0.06 0.06 0.1 l0.04 -0.04 c0 -0.08 0 -0.22 -0.1 -0.22 c0 0.02 -0.1 0.08 -0.1 0.16 l0.04 0.04 z M42.522000000000006 6.58 l0 0.02 l0.04 0 z M33.282000000000004 5.640000000000001 c0 0.06 0 0.08 0.04 0.08 c0.02 0 0.04 -0.02 0.04 -0.02 c0 -0.02 -0.04 -0.06 -0.08 -0.1 l0 0.04 z M30.542 5.52 c0.02 0.02 0.06 0.08 0.1 0.12 l0.04 -0.04 l-0.02 0 s0.02 0 0.02 -0.02 c0 -0.04 -0.02 -0.06 -0.14 -0.06 z M41.322 5.6 c-0.02 0 -0.02 0.02 -0.02 0.02 c0 0.02 0 0.02 0.02 0.02 s0.02 0 0.02 -0.02 c0 0 0 -0.02 -0.02 -0.02 z M40.822 5.5600000000000005 c-0.02 0 -0.04 0.02 -0.04 0.04 s0.02 0.04 0.04 0.04 c0 0 0.02 -0.02 0.02 -0.04 s-0.02 -0.04 -0.02 -0.04 z M41.242000000000004 5.5600000000000005 l0 0.04 l0.02 0.02 c0.02 0 0.02 -0.02 0.04 -0.06 l-0.06 0 z M44.542 5.5600000000000005 l-0.02 0.02 c0 0.02 0.02 0.02 0.02 0.02 c0.02 0 0.02 0 0.02 -0.02 c0 0 0 -0.02 -0.02 -0.02 z M43.902 5.5600000000000005 c0 0 -0.02 -0.02 -0.04 -0.02 l-0.02 0.02 c0 0.02 0.02 0.04 0.02 0.04 c0.02 0 0.04 -0.02 0.04 -0.04 z M33.242000000000004 5.52 c-0.02 0 -0.04 0 -0.04 0.02 c0 0 0.02 0.02 0.04 0.02 s0.02 -0.02 0.02 -0.02 c0 -0.02 0 -0.02 -0.02 -0.02 z M32.662000000000006 5.4399999999999995 c-0.02 0.02 -0.04 0.04 -0.04 0.06 l0.02 0.02 c0.02 0 0.06 -0.02 0.1 -0.04 z M31.582000000000004 5.4399999999999995 l0.02 0.04 c0.04 0 0.06 0.02 0.08 -0.04 l-0.08 -0.04 z M32.442 5.4399999999999995 c-0.02 0 -0.02 0.02 -0.02 0.04 s0 0.04 0.02 0.04 s0.02 -0.02 0.02 -0.04 s0 -0.04 -0.02 -0.04 z M34.702000000000005 5.4399999999999995 l0.04 0.04 l0 -0.04 l-0.04 0 z M36.342000000000006 5.48 c0 -0.02 -0.02 -0.02 -0.04 -0.02 s-0.04 0 -0.04 0.02 s0.02 0.04 0.04 0.04 s0.04 -0.02 0.04 -0.04 z M36.982 5.380000000000001 c-0.02 0.08 0.04 0.12 0.06 0.1 c0 -0.06 0.02 -0.1 -0.06 -0.1 z M42.94200000000001 5.32 c-0.1 0 -0.1 0.1 -0.1 0.16 l0.32 0 c-0.08 0 -0.14 -0.12 -0.22 -0.16 z M43.982 5.279999999999999 c0 0.02 -0.02 0.08 -0.02 0.14 c0 0.04 0.02 0.06 0.04 0.06 l0.06 -0.08 l0 0.02 c0 -0.02 -0.04 -0.14 -0.08 -0.14 z M31.122000000000003 5.4399999999999995 c0 -0.02 -0.02 -0.02 -0.04 -0.02 c0 0 -0.02 0 -0.02 0.02 s0.02 0.04 0.02 0.04 c0.02 0 0.04 -0.02 0.04 -0.04 z M36.762 5.34 c-0.04 0.04 -0.04 0.06 -0.04 0.1 c0.04 -0.02 0.04 -0.06 0.04 -0.1 z M44.182 5.32 c0 0 0 0.06 0.04 0.06 c0.1 -0.02 0.08 -0.08 0.08 -0.16 c-0.1 0.02 -0.12 0 -0.12 0.1 z M40.622 5.279999999999999 c-0.04 0.04 -0.04 0.08 -0.04 0.08 c0 -0.02 0.04 0 0.04 -0.08 z M46.673 19.68 c0.1 -0.28 0.16 -0.34 0.38 -0.34 c0.66 0 0.8 0.06 1.28 0.06 c0.18 0 0.26 -0.16 0.34 -0.26 l-0.04 -3.08 c0 -0.04 0.04 -0.1 0.04 -0.14 c0 0.02 -0.04 -0.28 -0.04 -0.36 c0 -0.02 -0.02 -0.4 0.04 -0.58 c0 -0.02 -0.04 -0.08 -0.04 -0.12 l0 -1.42 c0.04 -0.04 0.04 -0.1 0.04 -0.14 c0 -0.12 -0.04 -0.18 -0.04 -0.28 c0 0 -0.06 -4.8 -0.06 -6.36 l0.04 -0.08 l0 -0.94 c-0.14 -0.2 -0.6 -0.06 -0.66 -0.16 l-0.12 0.04 l0 0.02 c-0.04 0 -0.16 -0.06 -0.38 -0.06 c-0.04 0 -0.24 0.04 -0.28 0.08 c-0.32 0 -0.54 0.06 -0.54 -0.36 c0 -0.16 0.1 -0.38 0.76 -0.38 c0.08 0 0.26 0.04 0.38 0.04 c0.08 0 1.12 -0.04 1.14 -0.04 c0.14 0 0.38 0.06 0.46 0.06 c0.08 0.02 1.12 -0.08 1.6 -0.08 c0.06 0 0.04 0.18 0.18 0.18 c0 0 0.02 0 0.02 -0.02 s-0.02 -0.06 -0.02 -0.1 c0.22 0 0.44 -0.06 0.76 -0.12 c0.02 0.02 0.1 0.04 0.08 0.06 c0.02 0 0.06 -0.04 0.06 -0.08 c0.02 0 0.12 0.02 0.16 0.06 c0.1 -0.02 0.36 -0.08 0.38 -0.08 c0.78 0 0.82 0.36 0.82 0.56 c0 0.1 -0.14 0.3 -0.24 0.3 c-0.4 0 -1.16 -0.1 -1.34 -0.1 c-0.16 0 -0.24 0.26 -0.26 0.38 l0.02 6.7 c0 0.1 -0.02 0.38 -0.02 0.42 c0 0.02 0.02 -0.02 0.02 0.3 c0 0.7 -0.02 0.98 -0.02 1.36 c0 0.54 0.02 0.48 0.02 0.62 l0 2.32 c0 0.1 -0.06 1.68 0.24 1.74 c0.04 0 0.76 0.02 1.1 -0.02 l0.04 -0.04 l0.36 0 c0.22 0.1 0.26 0.3 0.26 0.38 c0 0.1 -0.16 0.34 -0.22 0.34 c-0.94 0 -2.38 0.06 -2.58 0.06 c0 0 -0.6 -0.04 -0.9 -0.04 c-0.88 0 -2 0.06 -2.64 0.06 c-0.52 0 -0.58 -0.16 -0.58 -0.36 z M47.093 19.92 c0 -0.02 -0.02 -0.02 -0.04 -0.02 s-0.04 0 -0.04 0.02 s0.02 0.04 0.04 0.04 s0.04 -0.02 0.04 -0.04 z M47.213 19.88 c0.08 0 0.12 0.04 0.2 0.04 c0.04 0 0.1 0 0.16 -0.04 c-0.14 0 -0.18 -0.14 -0.24 -0.16 c-0.02 0 -0.12 0 -0.12 0.12 l0 0.04 z M47.613 19.88 c-0.02 0 -0.04 0.02 -0.04 0.04 s0.02 0.04 0.04 0.04 c0 0 0.02 -0.02 0.02 -0.04 s-0.02 -0.04 -0.02 -0.04 z M48.113 19.84 l0.04 0.04 c0.1 0 0.12 0 0.16 -0.04 l-0.04 -0.02 c-0.18 0 -0.12 0 -0.16 0.02 z M52.413000000000004 19.68 c-0.12 0.04 -0.1 0.08 -0.1 0.2 c0.1 -0.04 0.08 -0.1 0.12 -0.2 l-0.02 0 z M53.093 19.68 c-0.14 0 -0.14 0.14 -0.16 0.2 l0.24 0 c0 -0.14 -0.04 -0.2 -0.08 -0.2 z M51.593 19.82 l-0.06 0.02 c0 0.02 0 0.02 0.02 0.02 z M51.833 19.84 l-0.04 -0.02 z M53.333 19.64 l0 0.12 c0.06 0.02 0.1 -0.08 0.1 -0.12 l-0.1 0 z M46.973 19.52 c-0.14 0 -0.14 0.14 -0.14 0.2 c0.08 -0.06 0.2 -0.04 0.22 -0.08 c0 -0.02 0.02 -0.12 -0.08 -0.12 z M48.473 19.66 l0.04 0.06 l0 -0.06 l-0.04 0 z M47.293 19.56 l0 0.04 l0.04 -0.04 l-0.04 0 z M52.893 19.52 c0 0.02 -0.02 0.02 -0.02 0.04 s0.02 0.02 0.06 0.04 l0.04 -0.04 l-0.04 -0.08 c-0.02 0 -0.04 0.02 -0.04 0.04 z M53.213 19.56 c0.02 0.04 0.06 0.04 0.1 0.04 c0 -0.02 -0.02 -0.06 -0.02 -0.1 z M48.893 19.3 c-0.02 0.02 -0.02 0.02 -0.02 0.04 s0.06 0.02 0.1 0.02 l0 -0.06 l-0.08 0 z M51.253 6.4 c-0.02 0 -0.04 0 -0.04 0.02 l0.04 0 l0.02 0 c0 -0.02 0 -0.02 -0.02 -0.02 z M52.273 5.32 c-0.02 0 -0.04 0.02 -0.04 0.04 s0.02 0.04 0.04 0.04 s0.02 -0.02 0.02 -0.04 s0 -0.04 -0.02 -0.04 z M46.773 5.140000000000001 c-0.02 0 -0.04 0.02 -0.04 0.04 c0 0 0.02 0.02 0.04 0.02 s0.02 -0.02 0.02 -0.02 c0 -0.02 0 -0.04 -0.02 -0.04 z M47.913000000000004 5.039999999999999 c-0.02 0 -0.04 0.02 -0.04 0.04 c0 0 0.02 0.02 0.04 0.02 l0 -0.06 z M48.193000000000005 5.039999999999999 c0 0.02 -0.02 0.02 -0.02 0.02 c0 0.02 0.02 0.02 0.06 0.04 l0 -0.06 l-0.04 0 z M46.933 5.02 c-0.08 0 -0.06 0.02 -0.06 0.06 c0.04 0 0.08 0 0.1 -0.04 z M55.624 19.82 l0 -0.1 c0.04 -0.04 -0.02 -0.38 0.42 -0.38 c0.34 0 0.4 0.02 0.58 0.02 c0.4 0 0.7 -0.02 0.76 -0.12 l0 -1.7 c0 -0.04 -0.02 -0.18 -0.02 -0.2 l-0.02 0.02 c-0.04 -0.04 0.04 0.18 0.04 -0.54 c0 -1.5 -0.02 -2.06 -0.02 -2.56 c0 -0.32 0 -0.94 0.04 -1.46 c0 -0.04 -0.08 -0.3 -0.08 -0.8 c0 -0.24 0.06 -0.24 0.06 -0.36 c0 -0.32 -0.02 -0.62 -0.02 -0.86 c0 -0.42 0.02 -0.74 0.02 -1.2 c0 -0.12 0.3 -0.1 0.36 -0.16 c0 0 0 -0.1 -0.18 -0.1 c0 0 -0.06 0 -0.12 0.08 c-0.02 0 -0.04 -0.02 -0.06 -0.08 l0 -3.38 c0 -0.26 -0.06 -0.42 -0.32 -0.42 c-0.38 0 -0.46 0.06 -1.14 0.06 c-0.54 0 -0.22 -0.08 -0.52 -0.26 c0 -0.48 1.5 -0.34 1.92 -0.4 l-0.06 0 c0 0.02 1.16 0.08 1.16 0.08 c0.04 0 0.08 0.02 0.12 0.02 c0.24 0 0.34 -0.1 0.52 -0.1 c0.08 0 0.16 0.02 0.26 0.02 c0.06 0 0.22 -0.02 0.32 -0.02 c0.24 0 0.96 0.02 1.18 0.02 c0.16 0 0.28 -0.06 0.6 -0.06 c0.1 0 1.84 0.04 2.06 0.04 c0.4 0 1.06 0.2 1.6 0.2 c0.76 0.08 0.3 0.18 1.06 0.36 c-0.02 0 -0.04 -0.02 -0.04 -0.02 c0 0.02 0.56 0.32 0.56 0.38 c0.24 0.06 0.6 0.56 0.78 0.72 l-0.02 -0.02 s0.54 0.76 0.54 1.44 c0 0.74 0 0.78 -0.16 1.28 c0 0.34 -0.46 0.94 -1.26 1.62 c-0.1 -0.04 -0.22 0.34 -0.58 0.34 c0.06 -0.2 -0.1 0.26 -0.66 0.3 c-0.02 -0.02 -0.04 -0.02 -0.04 -0.02 c-0.1 0 -0.24 0.18 -0.32 0.18 c-0.76 0.2 -1.1 0.12 -1.1 0.42 c0 0 -0.04 0.16 0.12 0.16 c0.22 -0.04 0.58 0.32 0.7 0.32 c0.42 0 0.5 0.38 0.84 0.38 c0.36 0.16 0.5 0.28 0.94 0.74 c0.44 1.3 0.78 0.6 0.78 1.58 c0 0.54 0.18 0.92 0.18 1.46 c0 0.08 -0.04 0.42 -0.04 1.12 c0.04 0.26 0.06 0.78 0.14 0.86 l0 -0.04 c0 0.02 -0.06 0.66 0.64 0.66 c0.48 0 0.7 -0.06 0.84 -0.06 c0 0 0.02 0.02 0.04 0.02 c0.04 0 0.14 -0.04 0.22 -0.04 s0.16 0.02 0.2 0.1 l-0.14 0 c0 0.1 0.06 0.1 0.06 0.14 c0.04 -0.02 0.06 -0.06 0.08 -0.06 l0.02 0 l0 0.26 c-0.06 0 -0.06 -0.06 -0.06 -0.14 c-0.04 0.02 -0.06 0.02 -0.16 0.06 c0 0.04 0.02 0.08 0.16 0.14 c-0.08 0.04 -0.1 0.14 -0.2 0.14 l0 -0.02 s-0.1 0.2 -0.7 0.2 c-0.22 0 -1.58 -0.08 -1.94 -0.1 c0 0.02 0 0.02 -0.02 0.02 c-0.16 0 -0.54 -0.4 -0.86 -0.4 l0.02 0 c0 -0.08 -0.9 -0.5 -0.92 -0.88 l0.02 0.02 c0 -0.02 -0.2 -0.2 -0.2 -0.26 c0 -0.04 0.02 -0.16 0.02 -0.28 c0 -0.06 -0.06 -0.06 -0.16 -0.1 c-0.14 -3.26 -0.44 -4.16 -0.74 -4.6 c-0.06 0.22 0.08 -0.24 -0.38 -0.46 c0 -0.14 -0.62 -0.36 -0.6 -0.44 c-0.04 0 -0.08 0.02 -0.1 0.02 c-0.42 0 -0.4 -0.4 -1.08 -0.4 l-1.08 0 c-0.22 0.46 -0.22 1.04 -0.22 1.32 c0 0.06 0 0.52 0.04 0.56 c0 0.02 -0.02 0.08 -0.06 0.28 c0 0.06 0.04 0.3 0.04 0.46 l0 -0.02 c0 0.12 -0.02 0.56 -0.02 0.7 c0 0.26 0.02 0.32 0.02 0.5 l0 2.32 c0 0.04 0.04 0.16 0.04 0.2 c0 0.06 -0.04 0.18 -0.04 0.26 c0 0.26 0.04 0.3 0.04 0.4 c-0.02 0.02 -0.04 0.02 -0.04 0.04 c0 0.06 0.28 0.1 0.82 0.1 c0.02 0 0.42 -0.04 0.44 -0.04 c0.56 0 0.56 0.04 0.68 0.2 c0 0.36 -0.08 0.42 -0.14 0.42 c-0.02 0 -0.04 -0.02 -0.08 -0.1 c-0.1 0 -0.12 0 -0.12 0.02 c0.16 0.18 -1.94 0.18 -2.16 0.18 l0.04 0 s-0.68 -0.02 -0.94 -0.08 c-0.8 0.08 -2.18 0 -2.74 0.2 c-0.24 0 -0.46 0 -0.46 -0.32 z M67.964 19.94 c-0.02 0 -0.04 0.02 -0.04 0.04 s0.02 0.04 0.04 0.04 c0 0 0.02 -0.02 0.02 -0.04 s-0.02 -0.04 -0.02 -0.04 z M68.504 19.76 c-0.14 0 -0.1 0.08 -0.16 0.18 c0 0 0.02 0.02 0.04 0.02 c0.06 0 0.12 -0.1 0.12 -0.2 z M56.664 19.88 c-0.04 0 -0.1 0 -0.14 0.02 c0.04 0 0.1 0 0.14 -0.02 z M56.704 19.88 l0 0.02 l0.04 0 z M57.424 19.9 l-0.02 -0.02 c-0.02 0 -0.02 0.02 -0.02 0.02 c0 0.02 0 0.04 0.02 0.04 c0 0 0.02 -0.02 0.02 -0.04 z M57.804 19.86 c-0.02 0.02 -0.04 0.02 -0.04 0.04 c0.02 0 0.06 0 0.08 -0.02 z M60.904 19.82 l0 0.06 l0.12 0 c-0.04 -0.04 -0.06 -0.06 -0.12 -0.06 z M61.684000000000005 19.86 c-0.02 0 -0.04 0.02 -0.04 0.02 s0.02 0.02 0.04 0.02 s0.02 -0.02 0.02 -0.02 s0 -0.02 -0.02 -0.02 z M68.584 19.7 c-0.02 0.06 0.08 0.16 0.08 0.18 c0.1 0 0.1 0 0.16 -0.02 c-0.06 -0.18 0 -0.22 -0.16 -0.3 c-0.06 0.04 -0.08 0.02 -0.08 0.14 z M60.624 19.82 l-0.04 0.04 l0.04 0 l0 -0.04 z M61.964 19.46 c0 0.18 0.12 0.18 0.12 0.32 l0.04 0 l0 -0.22 c-0.02 -0.04 -0.06 -0.08 -0.16 -0.1 z M55.964000000000006 19.5 l0 0.06 c0 -0.02 0.02 0.18 0.14 0.18 c0.02 0 0.06 -0.04 0.1 -0.08 c-0.02 0.02 -0.16 -0.16 -0.22 -0.16 l-0.02 0 z M56.304 19.7 c0 -0.02 -0.02 -0.02 -0.02 -0.02 c-0.02 0 -0.02 0 -0.02 0.02 c0 0 0 0.02 0.02 0.02 z M60.664 19.66 c-0.02 0 -0.02 0.02 -0.02 0.02 c0 0.02 0 0.02 0.02 0.02 s0.02 0 0.02 -0.02 c0 0 0 -0.02 -0.02 -0.02 z M61.284000000000006 19.6 l0 0.1 c0.04 -0.02 0.08 -0.04 0.1 -0.08 c-0.04 -0.02 -0.06 -0.02 -0.1 -0.02 z M55.964000000000006 19.36 c-0.02 0 -0.02 0.02 -0.02 0.04 s0 0.04 0.02 0.04 s0.02 -0.02 0.02 -0.04 s0 -0.04 -0.02 -0.04 z M65.184 18.84 c0.02 0.04 0.04 0.1 0.04 0.1 c0.02 0 0.02 0 0.02 -0.02 l0 -0.08 l-0.06 0 z M59.604 18.3 l0.08 0.04 c0.04 -0.02 0.04 -0.06 0.04 -0.1 c-0.06 0 -0.08 0.02 -0.12 0.06 z M64.34400000000001 17.5 c0.02 0 0.02 0.02 0.02 0.04 c0 0 0 0.02 -0.02 0.02 s-0.02 -0.02 -0.02 -0.02 c0 -0.02 0 -0.04 0.02 -0.04 z M64.584 17.48 c0.02 0.02 0.04 0.02 0.08 0.02 c-0.04 -0.02 -0.06 -0.02 -0.08 -0.02 z M57.644000000000005 15.4 c-0.02 0 -0.04 0.02 -0.04 0.04 s0.02 0.04 0.04 0.04 s0.02 -0.02 0.02 -0.04 s0 -0.04 -0.02 -0.04 z M57.484 14.879999999999999 c-0.02 0 -0.04 0.02 -0.04 0.04 s0.02 0.04 0.04 0.04 s0.02 -0.02 0.02 -0.04 s0 -0.04 -0.02 -0.04 z M64.164 12.48 c-0.02 0 -0.04 0.02 -0.04 0.02 c0 0.02 0.02 0.04 0.04 0.04 c0 0 0.02 -0.02 0.02 -0.04 z M59.384 12.14 l0 0.08 l0.02 0.02 c0.06 0 0.14 -0.08 0.14 -0.1 l-0.16 0 z M59.424 11.94 c0 0.02 -0.02 0.02 -0.02 0.02 c0 0.02 0.02 0.02 0.08 0.02 c0 0 0.02 0 0.06 -0.02 c-0.02 -0.06 0 -0.08 -0.06 -0.16 c-0.02 0 -0.08 0.12 -0.06 0.14 z M60.264 10.22 l0 1.02 c0 0.34 0.2 0.4 0.38 0.5 c3.18 -0.08 3.18 -0.52 3.48 -0.82 c-0.02 0 -0.02 -0.02 -0.02 -0.02 c0 -0.1 0.3 -0.3 0.3 -0.44 l-0.02 0 c0 -0.08 0.42 -0.74 0.42 -1.6 c0 -2.04 -0.56 -2.42 -0.64 -2.84 c0 -0.02 -0.6 -0.54 -1.3 -0.54 c-0.44 0 -0.54 0.04 -0.7 0.04 l-1.5 0 c-0.42 0 -0.26 0.2 -0.38 0.42 l0 1.58 l0.04 0.1 c0 0.78 -0.08 1.5 -0.08 2.2 c0 0.04 0 0.1 0.06 0.16 c0 0.04 -0.04 0.1 -0.04 0.24 z M57.644000000000005 9.78 c-0.02 0 -0.04 0.02 -0.04 0.02 l0.04 0 l0.02 0 s0 -0.02 -0.02 -0.02 z M57.584 9.68 c-0.02 0 -0.02 0.02 -0.02 0.04 c0 0 0 0.02 0.02 0.02 l0.02 -0.02 c0 -0.02 -0.02 -0.04 -0.02 -0.04 z M57.644000000000005 9.58 c-0.02 0 -0.04 0.02 -0.04 0.04 c0 0 0.02 0.02 0.04 0.02 s0.02 -0.02 0.02 -0.02 c0 -0.02 0 -0.04 -0.02 -0.04 z M57.484 8.42 l0 0.1 l0.04 0 c0 -0.04 0 -0.08 -0.04 -0.1 z M66.504 6.1 c0.02 0.04 0.08 0.04 0.1 0.04 l0 -0.12 c-0.06 0 -0.1 0 -0.1 0.08 z M64.98400000000001 5.42 c-0.02 0 -0.04 0.02 -0.04 0.04 s0.02 0.02 0.04 0.02 s0.02 0 0.02 -0.02 s0 -0.04 -0.02 -0.04 z M56.704 5.279999999999999 c0.04 0.02 0.08 0.02 0.12 0.02 l-0.08 -0.06 z M58.644000000000005 5.279999999999999 l0 -0.02 c-0.02 0 -0.02 0 -0.02 0.02 s0 0.02 0.02 0.02 l0 -0.02 z M63.324 5.24 l0.08 0.04 c0.1 0 0.1 -0.04 0.1 -0.14 c0 -0.02 -0.02 -0.02 -0.1 -0.02 c-0.04 0 -0.08 0 -0.08 0.12 z M61.284000000000006 5.119999999999999 c0 0.04 -0.02 0.12 0.04 0.12 c0.02 -0.02 0.04 -0.08 0.06 -0.12 l-0.1 0 z M64.084 5.199999999999999 c-0.02 0 -0.04 0.02 -0.04 0.02 c0 0.02 0.02 0.02 0.04 0.02 s0.02 0 0.02 -0.02 c0 0 0 -0.02 -0.02 -0.02 z M57.004000000000005 5.119999999999999 l0 0.04 c0 -0.02 0.06 0.04 0.1 -0.04 l-0.1 0 z M62.164 5.119999999999999 c-0.04 0 -0.06 0.02 -0.08 0.04 l0.08 0 l0 -0.04 z M55.624 5.119999999999999 l0.02 0 l0.48 0 l-0.5 0 z M71.735 20.08 c-0.22 0 -0.22 0.02 -0.36 0.02 c-0.04 0 -0.22 -0.16 -0.28 -0.22 c0 0 0.04 -0.3 0.04 -0.36 c0.72 -0.06 1.24 -0.08 1.8 -0.14 c0.06 0 0 -0.38 0.22 -0.38 l0 -0.32 c0.02 0.02 0.04 0.02 0.04 0.02 c0.12 0 0.1 -0.56 0.26 -0.6 c0 -0.04 0.08 -0.72 0.28 -0.88 l0.1 -0.38 s0.68 -2.32 0.94 -2.32 c0.02 0 0.06 0.02 0.08 0.02 c0.1 0 0.12 -0.04 0.12 -0.08 c0 -0.18 -0.16 -0.1 -0.16 -0.24 c0 -0.36 0.36 -1.04 0.4 -1.08 c0.02 -0.82 0.32 -0.62 0.32 -1.14 l0 0.02 c0.02 0 0.18 -0.5 0.26 -0.56 c0 0.04 0.02 0.04 0.02 0.04 s-0.02 0 -0.02 -0.02 c0 -0.12 0.4 -0.94 0.4 -1.16 c0.1 0 0.12 -0.02 0.12 -0.06 s-0.02 -0.08 -0.02 -0.14 c0 -0.12 0.04 -0.24 0.18 -0.4 l0 0.02 c0.04 0 0.02 -0.44 0.18 -0.44 l0.08 -0.38 l0.12 -0.1 l0 -0.32 l0.16 -0.12 l0 -0.34 s0.12 -0.04 0.12 -0.08 c-0.02 0 -0.04 -0.04 -0.04 -0.06 c0 -0.26 0.5 -1.02 0.5 -1.54 l0.1 -0.08 l0 -0.32 c0 0.02 0.02 0.02 0.02 0.02 c0.28 0 -0.1 -1.16 0.94 -1.16 c0.08 0 0.44 0.22 0.44 0.52 c0.08 0.08 -0.08 0.28 0.28 0.94 c0.02 0 0.5 1.3 0.5 1.64 c0.18 0 0.06 0.4 0.52 1.36 c0.12 0.54 0.34 0.52 0.34 0.76 l0 -0.02 s0.1 0.64 0.18 0.64 l-0.02 0 c0 0.08 0.48 0.6 0.48 1.22 c0.12 0.58 0.32 0.34 0.32 0.84 l-0.02 -0.02 c0 0.04 0.32 0.46 0.32 0.72 c-0.02 0 -0.04 0 -0.04 0.02 c0 0.08 0.22 0.36 0.22 0.46 c0 0.02 -0.02 0.02 -0.02 0.04 c0 0.04 0.2 0.2 0.2 0.56 c0.08 0.7 0.42 0.74 0.42 1.18 c-0.02 0.04 -0.04 0.06 -0.04 0.08 c0 0.1 0.32 0.1 0.32 0.56 c0 1.14 0.78 1.4 0.78 2.2 c0.08 0.64 0.46 0.86 0.52 0.9 l1.3 0 c0.08 0 0.2 0.06 0.26 0.1 l0 0.36 c-0.08 0.04 -0.14 0.12 -0.46 0.12 c-0.04 0 -1 -0.04 -1.4 -0.04 c-0.18 0 -0.34 0.04 -0.5 0.04 c-0.02 0 -0.34 -0.04 -0.38 -0.04 c-1.08 0 -1.76 0.06 -2.18 0.06 c-0.02 0 -0.02 -0.06 -0.34 -0.06 c-0.16 0 -0.2 0 -0.28 0.04 c-0.1 0 -0.18 -0.04 -0.22 -0.1 c-0.04 0 -0.12 0.02 -0.12 0.02 l0.04 0.04 l-0.04 0.04 c-0.66 0 -0.72 0 -0.86 -0.12 l0.04 -0.34 c0 -0.04 0.14 -0.12 0.22 -0.12 l1.5 0 c0.02 0.02 0.16 -0.1 0.16 -0.2 c0 -0.04 -0.32 -0.46 -0.32 -0.7 c0.04 -0.02 0.04 -0.02 0.04 -0.06 c0 -0.1 -0.34 -0.36 -0.34 -0.88 c0.02 0 0.02 0 0.02 -0.02 c0 -0.04 -0.22 -0.2 -0.22 -0.36 c0 -0.72 -0.32 -0.72 -0.32 -1.26 l0 0.02 c-0.04 0 -0.22 -0.5 -0.4 -0.5 c-1.34 0 -2.76 0.04 -4.38 0.04 c0 0.08 -0.16 0.12 -0.16 0.34 c-0.3 0.66 -0.34 0.56 -0.34 0.88 c-0.24 0.16 0.02 0.28 -0.26 0.62 c-0.16 1.1 -0.38 0.48 -0.38 1.22 l0 -0.02 c-0.04 0 -0.22 0.52 -0.24 0.52 c0 0.32 0.08 0.32 0.2 0.4 l1.6 0 c0.1 0 0.3 0.02 0.3 0.26 s-0.06 0.36 -0.42 0.36 c-0.06 0 -0.14 -0.04 -0.24 -0.04 c-0.22 0 -0.3 0.04 -0.4 0.04 c-0.04 0 -0.14 -0.04 -0.16 -0.04 l-1.42 0 c-0.04 0.04 -0.08 0.04 -0.12 0.04 c-0.06 0 -0.16 -0.02 -0.24 -0.08 c0 0 0.04 -0.04 0.04 -0.08 l-0.06 0 c-0.04 0 -0.06 0 -0.06 0.04 l0.02 0.04 c-0.02 0.08 -0.04 0.08 -0.16 0.08 c0 -0.26 0 -0.2 0.06 -0.28 c-0.02 -0.08 0.02 -0.18 -0.04 -0.22 c0 0.14 -0.06 0.24 -0.18 0.32 c0 0.04 0.06 0.08 0.1 0.1 c-0.08 0 -0.3 0.1 -0.34 0.16 c-0.36 0 -0.32 -0.08 -0.54 -0.08 z M71.575 19.92 l0 0.04 l0.1 0 c-0.06 -0.04 -0.08 -0.04 -0.1 -0.04 z M71.915 19.96 c0 -0.02 -0.02 -0.02 -0.04 -0.02 s-0.04 0 -0.04 0.02 s0.02 0.04 0.04 0.04 s0.04 -0.02 0.04 -0.04 z M72.03500000000001 19.92 c-0.02 0 -0.04 0.02 -0.04 0.04 s0.02 0.04 0.04 0.04 s0.02 -0.02 0.02 -0.04 s0 -0.04 -0.02 -0.04 z M72.47500000000001 19.88 c-0.12 0 -0.28 0.04 -0.32 0.08 c0.34 0 0.24 -0.02 0.32 -0.08 z M73.135 19.9 c0 0.02 0.16 0.04 0.18 0.06 l0.04 -0.04 c-0.1 -0.02 -0.2 -0.02 -0.22 -0.02 z M74.61500000000001 19.92 c0.26 0 0.66 0.04 0.76 0.04 c-0.22 0 -0.22 -0.22 -0.24 -0.32 c0.02 0 -0.16 0.04 -0.16 0.16 c-0.04 0 -0.02 -0.12 -0.18 -0.12 c0 0.14 -0.08 0.18 -0.18 0.24 z M75.53500000000001 19.92 l0.04 0.04 c0.02 0 0.14 -0.04 0.18 -0.04 l-0.22 0 z M72.775 19.9 c-0.02 0 -0.04 0.02 -0.04 0.04 c0 0 0.02 0.02 0.04 0.02 s0.02 -0.02 0.02 -0.02 c0 -0.02 0 -0.04 -0.02 -0.04 z M74.355 19.92 c0 0 -0.04 -0.02 -0.06 -0.02 c-0.04 0 -0.04 0.02 -0.04 0.02 c0 0.02 0 0.04 0.04 0.04 c0.02 0 0.06 -0.02 0.06 -0.04 z M79.275 19.88 c0.02 0.02 0.08 0.04 0.1 0.04 s0.12 -0.02 0.16 -0.04 l0 -0.24 s-0.04 -0.02 -0.06 -0.02 c-0.18 0 -0.2 0.04 -0.2 0.12 l0 0.14 z M84.69500000000001 19.9 c0.06 0 0.08 0.02 0.18 0.02 c0.02 0 0.12 -0.02 0.18 -0.02 l-0.36 0 z M85.655 19.9 l0 0.02 l0.02 -0.02 l-0.02 0 z M79.83500000000001 19.88 l-0.04 0.02 l0.06 0.02 z M81.33500000000001 19.88 c-0.02 0 -0.04 0.02 -0.04 0.02 s0.02 0.02 0.04 0.02 s0.02 -0.02 0.02 -0.02 s0 -0.02 -0.02 -0.02 z M84.075 19.88 c0.02 0.02 0.04 0.02 0.1 0.02 l0.38 0 c-0.02 -0.02 -0.06 -0.04 -0.1 -0.06 c-0.04 0.04 -0.1 0.04 -0.12 0.04 c-0.18 0 -0.14 -0.14 -0.18 -0.14 z M71.25500000000001 19.74 c0 0.12 0 0.1 0.04 0.14 l0.26 0 l0 -0.34 c-0.28 0.14 -0.3 0.08 -0.3 0.2 z M75.47500000000001 19.78 l0 0.1 c0.04 0 0.06 -0.04 0.06 -0.04 c-0.02 -0.12 -0.08 -0.12 -0.08 -0.22 c-0.08 0 -0.12 0.04 -0.12 0.06 c0.02 0.04 0.04 0.1 0.14 0.1 z M85.25500000000001 19.84 c-0.02 0 -0.02 0.02 -0.02 0.04 s0 0.02 0.02 0.02 s0.02 0 0.02 -0.02 s0 -0.04 -0.02 -0.04 z M71.795 19.62 c0 0.16 -0.02 0.2 -0.06 0.22 c0.12 0 0.22 0 0.22 -0.12 s-0.02 -0.1 -0.16 -0.1 z M73.915 19.8 l0 0.04 l0.04 0 z M74.275 19.72 l0.04 0.02 l0 -0.06 z M75.575 19.58 c0 0.02 0 0.06 0.02 0.06 c0 0 0.08 0 0.08 -0.06 c0 -0.04 -0.04 -0.04 -0.08 -0.06 c-0.02 0.02 -0.02 0.04 -0.02 0.06 z M84.715 19.62 c0 0.02 0.04 0.02 0.06 0.02 c0 -0.1 0 -0.1 -0.04 -0.12 c0 0 -0.02 0.06 -0.02 0.1 z M85.595 19.48 c-0.1 0.02 -0.08 0.06 -0.08 0.16 l0.16 -0.1 c0 -0.02 -0.06 -0.04 -0.08 -0.06 z M84.075 19.54 c-0.02 0 -0.04 0.02 -0.04 0.02 c0 0.02 0.02 0.02 0.04 0.02 s0.02 0 0.02 -0.02 c0 0 0 -0.02 -0.02 -0.02 z M73.095 19.48 l0 0.06 l0.04 -0.06 l-0.04 0 z M73.155 19.18 c0 0.02 0.02 0.3 0.2 0.3 c-0.04 -0.02 -0.1 -0.2 -0.1 -0.3 l0.04 -0.12 l-0.04 -0.04 c-0.08 0 -0.1 0.12 -0.1 0.16 z M73.89500000000001 18.24 c-0.06 0.04 -0.14 0.16 -0.14 0.32 c0.02 0.02 0.04 0.02 0.04 0.02 c0.08 0 0.1 -0.12 0.12 -0.18 c0 -0.02 -0.02 -0.18 -0.02 -0.16 z M73.795 17.72 c0 -0.02 -0.02 -0.02 -0.02 -0.02 c-0.02 0 -0.02 0 -0.02 0.02 s0 0.02 0.02 0.02 c0 0 0.02 0 0.02 -0.02 z M74.355 16.28 c-0.02 0 -0.04 0.02 -0.04 0.02 s0.02 0.02 0.04 0.02 l0.02 -0.02 z M80.035 16 c-0.02 0 -0.02 0.02 -0.02 0.04 s0 0.04 0.02 0.04 s0.02 -0.02 0.02 -0.04 s0 -0.04 -0.02 -0.04 z M74.53500000000001 15.84 c-0.02 0 -0.02 0.02 -0.02 0.04 s0 0.04 0.02 0.04 s0.02 -0.02 0.02 -0.04 s0 -0.04 -0.02 -0.04 z M74.53500000000001 15.42 c-0.02 0 -0.02 0.02 -0.02 0.02 c0 0.02 0 0.02 0.02 0.02 s0.02 0 0.02 -0.02 c0 0 0 -0.02 -0.02 -0.02 z M75.455 14.6 c0.06 0.24 0.08 0.26 0.22 0.34 c0.24 0 0.9 -0.04 2.72 -0.04 c0.16 0 0.24 0.06 0.64 0.06 c0.2 0 0.4 -0.06 0.4 -0.28 c0 -0.1 -0.26 -0.48 -0.26 -0.68 l0.02 0 c0 -0.04 -0.22 -0.22 -0.22 -0.44 c0 -0.74 -0.38 -0.66 -0.38 -1.12 c0.02 0.02 0.02 0.04 0.02 0.04 c-0.02 0 -0.38 -0.66 -0.38 -1.04 c0 -0.26 -0.36 -0.64 -0.36 -1.08 l0.02 0 c0 -0.04 -0.22 -0.24 -0.22 -0.48 c-0.18 -0.42 -0.2 -0.38 -0.36 -0.38 c-0.58 1.38 -0.54 1.4 -0.72 1.74 c0 -0.04 -0.02 0.64 -0.28 0.74 l0 -0.04 c-0.02 0 -0.22 1.14 -0.42 1.32 c0 0.26 -0.44 0.6 -0.44 1.34 z M75.055 14.04 c-0.02 0 -0.04 0.02 -0.04 0.04 s0.02 0.04 0.04 0.04 s0.02 -0.02 0.02 -0.04 s0 -0.04 -0.02 -0.04 z M75.515 12.719999999999999 c-0.02 0 -0.04 0.02 -0.04 0.04 c0 0 0.02 0.02 0.04 0.02 l0 -0.06 z M76.355 11.54 l0 0.02 l0.02 0 z M76.275 11.22 c-0.02 0 -0.04 0.02 -0.04 0.04 l0.04 0 l0.02 0 c0 -0.02 0 -0.04 -0.02 -0.04 z M76.355 10.7 c-0.02 0 -0.04 0.02 -0.04 0.02 c0 0.02 0.02 0.04 0.04 0.04 c0 0 0.02 -0.02 0.02 -0.04 z M76.89500000000001 9.34 c0 -0.02 -0.02 -0.02 -0.02 -0.02 c-0.02 0 -0.02 0 -0.02 0.02 s0 0.04 0.02 0.04 c0 0 0.02 -0.02 0.02 -0.04 z M76.955 9.28 l-0.02 0 c0 0.02 0.02 0.02 0.02 0.02 s0.02 0 0.02 -0.02 l-0.02 0 z M79.135 7.880000000000001 c-0.02 0 -0.02 0.02 -0.02 0.04 s0 0.04 0.02 0.04 s0.02 -0.02 0.02 -0.04 s0 -0.04 -0.02 -0.04 z M78.75500000000001 5.1 c0 0 -0.02 0.02 -0.02 0.04 l0.04 0 c0 -0.02 0 -0.04 -0.02 -0.04 z M78.235 5.0600000000000005 c-0.02 0 -0.02 0.02 -0.02 0.04 s0 0.04 0.02 0.04 s0.02 -0.02 0.02 -0.04 s0 -0.04 -0.02 -0.04 z M78.39500000000001 5.0600000000000005 l0.08 0.04 c0.16 0 0.1 0 0.16 -0.04 l-0.06 -0.08 c-0.08 0 -0.12 0.08 -0.18 0.08 z"/>
  </g>
</svg>
