<svg width="134" height="134" viewBox="0 0 134 134" fill="none" xmlns="http://www.w3.org/2000/svg">
<circle opacity="0.2" cx="65.278" cy="67.2778" r="54.1667" fill="#292929" stroke="white"/>
<circle opacity="0.2" cx="66" cy="68" r="65" fill="#292929" stroke="white"/>
<path d="M66 3C77.3986 3 88.5968 5.99747 98.4712 11.6917C108.346 17.386 116.549 25.5767 122.258 35.4424C127.968 45.308 130.982 56.5016 131 67.9002C131.017 79.2987 128.037 90.5015 122.358 100.385" stroke="#FFD412" stroke-width="6" stroke-linecap="round"/>
<g clip-path="url(#clip0)">
<path d="M74.797 51.4414C75.0368 51.4414 75.2768 51.3499 75.46 51.1668L80.0981 46.5287C80.4642 46.1626 80.4642 45.5689 80.0981 45.2029C79.7319 44.8368 79.1384 44.8368 78.7722 45.2029L74.134 49.8411C73.7678 50.2072 73.7678 50.8008 74.134 51.1668C74.3171 51.3499 74.5571 51.4414 74.797 51.4414Z" fill="#FFD412"/>
<path d="M71.6953 48.3396C72.2132 48.3396 72.6328 47.9198 72.6328 47.4021V43.1272C72.6328 42.6094 72.2132 42.1897 71.6953 42.1897C71.1774 42.1897 70.7578 42.6094 70.7578 43.1272V47.4019C70.7578 47.9198 71.1776 48.3396 71.6953 48.3396Z" fill="#FFD412"/>
<path d="M76.9619 53.6061C76.9619 54.1238 77.3815 54.5436 77.8994 54.5436H82.1743C82.6922 54.5436 83.1118 54.1238 83.1118 53.6061C83.1118 53.0883 82.6922 52.6686 82.1743 52.6686H77.8994C77.3817 52.6686 76.9619 53.0883 76.9619 53.6061Z" fill="#FFD412"/>
<path d="M90.3891 73.4236C90.3007 72.3923 89.7634 71.4577 88.9151 70.8591C85.8359 68.687 83.1087 65.9423 80.8086 62.7008C80.2117 61.8594 79.2803 61.3272 78.2538 61.2406C77.2299 61.1546 76.2262 61.5214 75.4994 62.2482L72.1327 65.6149L72.1325 65.6151L72.1324 65.6152L70.7747 66.9729C70.3468 67.4009 69.7083 67.5437 69.1482 67.3366C65.1574 65.8606 60.5397 61.2431 59.0648 57.2533C58.8578 56.6934 59.0007 56.0552 59.4285 55.6272L64.1535 50.9022C64.8802 50.1756 65.2474 49.1716 65.1612 48.1478C65.0747 47.1212 64.5424 46.1899 63.7009 45.5929C62.3584 44.6403 61.0852 43.6013 59.9164 42.5047C59.5389 42.1504 58.9457 42.1693 58.5913 42.5468C58.237 42.9244 58.2559 43.5177 58.6334 43.8719C59.8642 45.0267 61.2039 46.1202 62.6158 47.1219C63.0059 47.3987 63.2526 47.8301 63.2927 48.3052C63.3326 48.7776 63.163 49.2408 62.8277 49.5762L60.1237 52.2802L48.8679 41.0246L51.548 38.3444C51.8883 38.0043 52.3397 37.8398 52.818 37.8806C53.2969 37.9217 53.7314 38.1719 54.0104 38.5673C54.6157 39.4253 55.2755 40.2731 55.9717 41.0872C56.3082 41.4808 56.9 41.5269 57.2934 41.1904C57.6869 40.8539 57.7332 40.2622 57.3967 39.8687C56.7381 39.0986 56.1143 38.2971 55.5424 37.4864C54.9439 36.6381 54.0093 36.1008 52.978 36.0124C51.9547 35.9252 50.9494 36.2914 50.2222 37.0187L44.3624 42.8786C42.4129 44.8282 41.416 47.5228 41.6275 50.2718C41.7478 51.8341 42.2647 53.3612 43.1223 54.6883C49.8592 65.1114 57.8426 73.6544 66.9062 80.1554L62.3588 81.9657C60.4315 82.7329 59.1862 84.5691 59.1862 86.6434C59.1862 89.4196 61.4447 91.6781 64.2209 91.6781H80.3963C82.1386 91.6781 83.556 93.0956 83.556 94.8378V94.9651C83.556 96.7073 82.1386 98.1248 80.3963 98.1248H44.3195C43.8018 98.1248 43.382 98.5444 43.382 99.0623C43.382 99.5802 43.8018 99.9998 44.3195 99.9998H80.3963C83.1726 99.9998 85.431 97.7413 85.431 94.9651V94.8378C85.431 92.0616 83.1726 89.8031 80.3963 89.8031H64.2209C62.4787 89.8031 61.0612 88.3857 61.0612 86.6434C61.0612 85.3416 61.8427 84.1892 63.0523 83.7077L68.7486 81.4401C69.7507 82.1176 70.7653 82.7711 71.7926 83.3997C73.0481 84.1679 74.4851 84.6381 75.9479 84.7594C75.9743 84.7617 76.0005 84.7626 76.0266 84.7626C76.5092 84.7626 76.9192 84.3922 76.9598 83.9026C77.0026 83.3866 76.6189 82.9336 76.1031 82.8907C74.9303 82.7936 73.7782 82.4164 72.7713 81.8002C61.9118 75.1549 52.4663 65.6908 44.697 53.6704C44.0083 52.6048 43.5933 51.3798 43.497 50.1279C43.3277 47.9254 44.1263 45.7663 45.6883 44.2043L47.5422 42.3504L58.7979 53.6061L58.1027 54.3013C57.1588 55.2453 56.8462 56.6592 57.306 57.9034C58.9714 62.4081 63.9919 67.4287 68.4978 69.0951C69.7424 69.5553 71.1566 69.2429 72.1006 68.2987L72.7956 67.6038L84.0512 78.8594L82.1973 80.7132C81.4154 81.4951 80.4917 82.0847 79.4517 82.4654C78.9654 82.6434 78.7156 83.1818 78.8936 83.6681C79.0327 84.0479 79.3917 84.2836 79.7741 84.2836C79.8809 84.2836 79.9899 84.2652 80.0962 84.2262C81.3942 83.7509 82.5471 83.0152 83.5232 82.0392L86.0388 79.5236C86.0392 79.5232 86.0397 79.5228 86.0401 79.5224C86.0404 79.5221 86.0408 79.5216 86.0412 79.5212L89.3831 76.1793C90.1102 75.4522 90.4768 74.4477 90.3891 73.4236ZM88.0571 74.8536L85.3769 77.5336L74.1213 66.2779L76.8253 63.5739C77.1608 63.2386 77.6244 63.0696 78.0962 63.1089C78.5714 63.1491 79.0027 63.3957 79.2794 63.7858C81.7028 67.2011 84.5811 70.0963 87.8342 72.3912C88.2294 72.6701 88.4798 73.1048 88.5208 73.5836C88.5619 74.0624 88.3973 74.5136 88.0571 74.8536Z" fill="white"/>
</g>
<defs>
<clipPath id="clip0">
<rect width="64" height="64" fill="white" transform="translate(34 36)"/>
</clipPath>
</defs>
</svg>
