<svg width="60" height="60" viewBox="0 0 60 60" fill="none" xmlns="http://www.w3.org/2000/svg">
<rect width="60" height="60" fill="white" fill-opacity="0.1"/>
<path d="M41.2311 24.9716L41.2241 24.9433C40.6568 22.6308 38.0994 20.1494 35.7508 19.6332L35.7243 19.6277C31.9256 18.8969 28.0739 18.8969 24.2759 19.6277L24.2487 19.6332C21.9008 20.1494 19.3434 22.6308 18.7754 24.9433L18.7691 24.9716C18.0678 28.2011 18.0678 31.4761 18.7691 34.7056L18.7754 34.7339C19.3192 36.9477 21.6862 39.3151 23.9471 39.9662V42.5476C23.9471 43.4819 25.0762 43.9407 25.7183 43.2666L28.3119 40.5479C28.8744 40.5797 29.4373 40.5973 30.0001 40.5973C31.9123 40.5973 33.8253 40.415 35.7243 40.0497L35.7508 40.0442C38.0994 39.5279 40.6568 37.0465 41.2241 34.734L41.2311 34.7057C41.9324 31.4761 41.9324 28.2011 41.2311 24.9716ZM39.1786 34.2373C38.7999 35.746 36.8581 37.6216 35.3152 37.9681C33.2954 38.3554 31.2596 38.521 29.2258 38.4641C29.1854 38.463 29.1465 38.4788 29.1183 38.5081C28.8296 38.8068 27.2245 40.4684 27.2245 40.4684L25.2102 42.553C25.0629 42.7078 24.8042 42.6025 24.8042 42.3888V38.1125C24.8042 38.0419 24.7542 37.9818 24.6854 37.9683L24.6842 37.968C23.1414 37.6215 21.2003 35.7459 20.8208 34.2372C20.1897 31.3181 20.1897 28.359 20.8208 25.4399C21.2003 23.9312 23.1414 22.0556 24.6842 21.7091C28.2118 21.0325 31.7884 21.0325 35.3152 21.7091C36.8589 22.0556 38.7999 23.9312 39.1786 25.4399C39.8105 28.359 39.8105 31.3182 39.1786 34.2373Z" fill="white"/>
<path d="M33.3564 36.2111C33.1192 36.1384 32.8932 36.0897 32.6832 36.0018C30.5079 35.0917 28.506 33.9177 26.9202 32.1179C26.0184 31.0944 25.3125 29.939 24.7159 28.7162C24.4329 28.1363 24.1945 27.5337 23.9515 26.935C23.7299 26.389 24.0563 25.825 24.4 25.4137C24.7225 25.0276 25.1375 24.7322 25.587 24.5145C25.9378 24.3445 26.2838 24.4425 26.5401 24.7423C27.0939 25.3906 27.6027 26.072 28.0147 26.8234C28.268 27.2856 28.1985 27.8506 27.7394 28.1651C27.6278 28.2416 27.5261 28.3313 27.4221 28.4176C27.331 28.4933 27.2452 28.5698 27.1827 28.6722C27.0684 28.8597 27.063 29.0808 27.1365 29.2846C27.7027 30.8537 28.657 32.0737 30.2231 32.7308C30.4737 32.836 30.7254 32.9584 31.0141 32.9244C31.4976 32.8675 31.6542 32.3327 31.993 32.0533C32.3242 31.7802 32.7474 31.7766 33.1041 32.0042C33.4609 32.232 33.8068 32.4764 34.1506 32.7235C34.4881 32.9659 34.8241 33.2032 35.1354 33.4796C35.4347 33.7454 35.5378 34.0941 35.3692 34.4549C35.0606 35.1155 34.6117 35.6652 33.964 36.016C33.7811 36.115 33.5627 36.147 33.3564 36.2111C33.5627 36.147 33.1192 36.1384 33.3564 36.2111ZM30.0061 23.759C32.8515 23.8394 35.1884 25.7435 35.6892 28.5801C35.7746 29.0635 35.805 29.5576 35.8429 30.0482C35.8589 30.2545 35.743 30.4506 35.5222 30.4532C35.2941 30.456 35.1915 30.2635 35.1767 30.0573C35.1474 29.649 35.127 29.2389 35.0712 28.834C34.7767 26.6967 33.0866 24.9284 30.9768 24.5489C30.6593 24.4918 30.3344 24.4768 30.0128 24.4428C29.8095 24.4213 29.5433 24.4088 29.4982 24.154C29.4604 23.9404 29.6393 23.7703 29.841 23.7593C29.8959 23.7563 29.951 23.7588 30.0061 23.759C29.951 23.7588 32.8515 23.8394 30.0061 23.759Z" fill="white"/>
<path d="M34.3302 29.4114C34.3255 29.4473 34.323 29.5315 34.3022 29.6109C34.2267 29.8989 33.7936 29.935 33.6939 29.6443C33.6643 29.558 33.6599 29.4598 33.6597 29.367C33.6587 28.7593 33.5277 28.1522 33.2238 27.6234C32.9114 27.08 32.4342 26.6232 31.8744 26.3467C31.5359 26.1796 31.1698 26.0757 30.7988 26.0138C30.6366 25.9868 30.4728 25.9704 30.3098 25.9475C30.1124 25.9198 30.0069 25.7929 30.0163 25.5967C30.025 25.4129 30.1583 25.2806 30.357 25.2919C31.01 25.3293 31.6407 25.4716 32.2212 25.7816C33.4017 26.412 34.0761 27.4071 34.2729 28.7358C34.2818 28.796 34.2961 28.8557 34.3006 28.9161C34.3118 29.0653 34.3188 29.2147 34.3302 29.4114C34.3188 29.2147 34.3255 29.4473 34.3302 29.4114Z" fill="white"/>
<path d="M32.5604 29.342C32.3223 29.3464 32.1949 29.2135 32.1704 28.9934C32.1533 28.8399 32.1398 28.6844 32.1035 28.5351C32.032 28.2411 31.877 27.9686 31.6317 27.7884C31.5159 27.7033 31.3847 27.6413 31.2472 27.6013C31.0726 27.5505 30.8913 27.5645 30.717 27.5214C30.5278 27.4747 30.4232 27.3202 30.4529 27.1412C30.48 26.9783 30.6372 26.8512 30.8136 26.8641C31.9168 26.9444 32.7052 27.5195 32.8177 28.829C32.8257 28.9214 32.835 29.0191 32.8147 29.1075C32.7799 29.2588 32.6687 29.3347 32.5604 29.342C32.6687 29.3347 32.3223 29.3464 32.5604 29.342Z" fill="white"/>
</svg>
