<svg width="16" height="16" fill="none" xmlns="http://www.w3.org/2000/svg"><path d="M8.593 15.186l6.585-6.428A1.07 1.07 0 0015.5 8a1.049 1.049 0 00-.322-.758L8.593.814A1.111 1.111 0 007.817.5c-.291 0-.57.113-.776.314a1.059 1.059 0 00-.238 1.167c.055.13.136.249.238.348L12.851 8l-5.81 5.67a1.059 1.059 0 00-.322.758c0 .285.116.557.322.758.206.201.485.314.776.314.291 0 .57-.113.776-.314zm-6.22 0L8.96 8.758A1.07 1.07 0 009.281 8a1.05 1.05 0 00-.322-.758L2.374.814A1.111 1.111 0 001.598.5c-.292 0-.57.113-.777.314-.205.2-.321.473-.321.757 0 .285.116.557.321.758L6.631 8 .82 13.67a1.059 1.059 0 00-.321.758c0 .285.116.557.321.758a1.113 1.113 0 001.553 0z" fill="#FFD412"/></svg>