<svg width="40" height="40" viewBox="0 0 40 40" fill="none" xmlns="http://www.w3.org/2000/svg">
<g clip-path="url(#clip0)">
<path d="M10.1331 19.8405L7.42586 22.5477L6.57686 21.6984C6.27168 21.3935 5.7773 21.3935 5.47182 21.6984C5.16695 22.0035 5.16695 22.4982 5.47182 22.8034L6.87349 24.2048C7.01997 24.3513 7.21864 24.4337 7.42586 24.4337C7.63307 24.4337 7.83174 24.3513 7.97823 24.2048L11.2378 20.9452C11.543 20.6403 11.543 20.1456 11.2378 19.8405C10.9326 19.5353 10.4382 19.5353 10.1331 19.8405V19.8405Z" fill="#FFD412"/>
<path d="M14.6562 24.4226H18.3373C18.7688 24.4226 19.1185 24.0729 19.1185 23.6414C19.1185 23.2101 18.7688 22.8601 18.3373 22.8601H14.6562C14.2247 22.8601 13.875 23.2101 13.875 23.6414C13.875 24.0729 14.2247 24.4226 14.6562 24.4226Z" fill="white"/>
<path d="M10.1331 28.361L7.42586 31.0682L6.57686 30.2189C6.27168 29.9137 5.7773 29.9137 5.47182 30.2189C5.16695 30.524 5.16695 31.0187 5.47182 31.3236L6.87349 32.7253C7.01997 32.8718 7.21864 32.9542 7.42586 32.9542C7.63307 32.9542 7.83174 32.8718 7.97823 32.7253L11.2378 29.4657C11.543 29.1608 11.543 28.6661 11.2378 28.361C10.9326 28.0558 10.4382 28.0558 10.1331 28.361V28.361Z" fill="#FFD412"/>
<path d="M20.7918 32.1619C20.7918 31.7303 20.4418 31.3806 20.0106 31.3806H14.6562C14.2247 31.3806 13.875 31.7303 13.875 32.1619C13.875 32.5934 14.2247 32.9431 14.6562 32.9431H20.0106C20.4418 32.9431 20.7918 32.5934 20.7918 32.1619Z" fill="white"/>
<path d="M14.6562 29.5166H21.6835C22.1151 29.5166 22.4648 29.1669 22.4648 28.7354C22.4648 28.3038 22.1151 27.9541 21.6835 27.9541H14.6562C14.2247 27.9541 13.875 28.3038 13.875 28.7354C13.875 29.1669 14.2247 29.5166 14.6562 29.5166V29.5166Z" fill="white"/>
<path d="M10.1331 11.3248L7.42586 14.032L6.57686 13.1827C6.27168 12.8779 5.7773 12.8779 5.47182 13.1827C5.16695 13.4879 5.16695 13.9826 5.47182 14.2878L6.87349 15.6891C7.01997 15.8356 7.21864 15.918 7.42586 15.918C7.63307 15.918 7.83174 15.8356 7.97823 15.6891L11.2378 12.4296C11.543 12.1247 11.543 11.63 11.2378 11.3248C10.9326 11.0197 10.4382 11.0197 10.1331 11.3248Z" fill="#FFD412"/>
<path d="M14.6562 15.907H18.17C18.6013 15.907 18.9513 15.5573 18.9513 15.1257C18.9513 14.6945 18.6013 14.3445 18.17 14.3445H14.6562C14.2247 14.3445 13.875 14.6945 13.875 15.1257C13.875 15.5573 14.2247 15.907 14.6562 15.907Z" fill="white"/>
<path d="M12.3603 38.4375C12.154 38.4375 11.9532 38.5211 11.807 38.6664C11.6617 38.8116 11.5781 39.0134 11.5781 39.2188C11.5781 39.4241 11.6617 39.6259 11.807 39.7711C11.9532 39.9164 12.154 40 12.3603 40C12.5657 40 12.7665 39.9164 12.9117 39.7711C13.0579 39.6259 13.1406 39.4241 13.1406 39.2188C13.1406 39.0134 13.0579 38.8116 12.9117 38.6664C12.7665 38.5211 12.5657 38.4375 12.3603 38.4375Z" fill="#FFD412"/>
<path d="M30.2359 12.2157L24.6109 13.9719C24.2847 14.0739 24.0625 14.3757 24.0625 14.7175V19.7263C24.0625 23.513 26.6119 26.8577 30.2618 27.8599C30.3296 27.8785 30.3992 27.8876 30.4688 27.8876C30.5383 27.8876 30.6079 27.8785 30.6757 27.8599C34.3256 26.8577 36.875 23.513 36.875 19.7266V14.7178C36.875 14.376 36.6528 14.0739 36.3266 13.9719L30.7016 12.2157C30.5499 12.1684 30.3876 12.1684 30.2359 12.2157V12.2157ZM35.3125 15.2921V19.7263C35.3125 22.7393 33.3313 25.409 30.4688 26.2928C27.6062 25.409 25.625 22.7393 25.625 19.7263V15.2921L30.4688 13.78L35.3125 15.2921Z" fill="white"/>
<path d="M39.4516 11.6736L30.7202 8.94775C30.6403 8.92059 30.5557 8.90594 30.4694 8.90594H30.4681C30.3821 8.90594 30.2972 8.92059 30.2176 8.94745L29.375 9.21051V4.21387C29.375 2.92145 28.3237 1.87012 27.0312 1.87012H21.3412V0.78125C21.3412 0.349731 20.9912 0 20.56 0H8.815C8.38379 0 8.03375 0.349731 8.03375 0.78125V1.87012H2.34375C1.05133 1.87012 0 2.92145 0 4.21387V37.6562C0 38.9487 1.05133 40 2.34375 40H8.84399C9.27551 40 9.62524 39.6503 9.62524 39.2188C9.62524 38.7872 9.27551 38.4375 8.84399 38.4375H2.34375C1.91284 38.4375 1.5625 38.0872 1.5625 37.6562V4.21387C1.5625 3.78326 1.91284 3.43262 2.34375 3.43262H8.03375V4.2514C8.03375 5.18097 8.79028 5.9375 9.72015 5.9375H19.6548C20.5847 5.9375 21.3412 5.18097 21.3412 4.2514V3.43262H27.0312C27.4622 3.43262 27.8125 3.78326 27.8125 4.21387V9.69849L23.9062 10.918H14.6558C14.2242 10.918 13.8745 11.2677 13.8745 11.6992C13.8745 12.1307 14.2242 12.4805 14.6558 12.4805H20.9375V19.4336H14.6558C14.2242 19.4336 13.8745 19.7833 13.8745 20.2148C13.8745 20.6464 14.2242 20.9961 14.6558 20.9961H21.0074C21.4609 25.1062 24.09 28.6417 27.8125 30.2939V33.5156H25.2344C23.942 33.5156 22.8906 34.567 22.8906 35.8594V38.4375H15.8759C15.4443 38.4375 15.0946 38.7872 15.0946 39.2188C15.0946 39.6503 15.4443 40 15.8759 40H23.6719C23.8791 40 24.0778 39.9176 24.2242 39.7711L29.1461 34.8492C29.2926 34.7028 29.375 34.5041 29.375 34.2969V30.8563C29.6851 30.9433 30.0006 31.0184 30.3217 31.0797C30.3702 31.0892 30.4196 31.0938 30.4688 31.0938C30.5179 31.0938 30.5673 31.0892 30.6158 31.0797C36.0535 30.0378 40 25.2631 40 19.7266V12.4194C40 12.0776 39.7778 11.7755 39.4516 11.6736ZM19.7787 4.2514C19.7787 4.31946 19.7232 4.375 19.6548 4.375H9.72015C9.65179 4.375 9.59625 4.31946 9.59625 4.2514V1.5625H19.7787V4.2514ZM25.2344 35.0781H26.7078L24.4531 37.3328V35.8594C24.4531 35.4285 24.8035 35.0781 25.2344 35.0781ZM38.4375 19.7266C38.4375 24.4647 35.0955 28.5577 30.4688 29.516C25.842 28.5577 22.5 24.4647 22.5 19.7266V12.9941L28.7314 11.0486C28.797 11.037 28.8593 11.0172 28.9182 10.9903L30.4688 10.506L38.4375 12.9938V19.7266Z" fill="white"/>
<path d="M29.7687 22.3812C29.5688 22.3812 29.3689 22.3049 29.2163 22.1523L27.4164 20.3524C27.1112 20.0472 27.1112 19.5526 27.4164 19.2474C27.7216 18.9425 28.2159 18.9425 28.5211 19.2474L29.7687 20.4949L32.4164 17.8475C32.7216 17.5424 33.2159 17.5424 33.5214 17.8475C33.8263 18.1524 33.8263 18.6471 33.5214 18.9523L30.3214 22.1523C30.1685 22.3049 29.9689 22.3812 29.7687 22.3812V22.3812Z" fill="#FFD412"/>
</g>
<defs>
<clipPath id="clip0">
<rect width="40" height="40" fill="white"/>
</clipPath>
</defs>
</svg>
