<svg width="40" height="40" fill="none" xmlns="http://www.w3.org/2000/svg"><g clip-path="url(#clip0)"><path d="M10.133 19.84l-2.707 2.708-.85-.85a.782.782 0 00-1.104 1.105l1.401 1.402a.781.781 0 001.105 0l3.26-3.26a.78.78 0 10-1.105-1.105z" fill="#FFD412"/><path d="M14.656 24.423h3.681a.781.781 0 100-1.563h-3.68a.781.781 0 000 1.563z" fill="#fff"/><path d="M10.133 28.361l-2.707 2.707-.85-.85a.781.781 0 00-1.104 1.106l1.401 1.401a.781.781 0 001.105 0l3.26-3.26a.78.78 0 10-1.105-1.104z" fill="#FFD412"/><path d="M20.792 32.162a.781.781 0 00-.781-.781h-5.355a.781.781 0 100 1.562h5.355c.43 0 .78-.35.78-.781zm-6.136-2.645h7.027a.781.781 0 100-1.563h-7.027a.781.781 0 100 1.563z" fill="#fff"/><path d="M10.133 11.325l-2.707 2.707-.85-.85a.782.782 0 00-1.104 1.106l1.401 1.401a.781.781 0 001.105 0l3.26-3.26a.781.781 0 10-1.105-1.104z" fill="#FFD412"/><path d="M14.656 15.907h3.514a.781.781 0 000-1.563h-3.514a.781.781 0 000 1.563z" fill="#fff"/><path d="M12.36 38.438a.79.79 0 00-.553.228.787.787 0 00-.229.553c0 .205.084.407.229.552a.785.785 0 001.334-.552.783.783 0 00-.78-.782z" fill="#FFD412"/><path d="M30.236 12.216l-5.625 1.756a.781.781 0 00-.549.745v5.01a8.455 8.455 0 006.2 8.133.782.782 0 00.414 0 8.455 8.455 0 006.199-8.133v-5.01a.782.782 0 00-.548-.745l-5.625-1.756a.782.782 0 00-.466 0zm5.076 3.076v4.434a6.89 6.89 0 01-4.843 6.567 6.89 6.89 0 01-4.844-6.567v-4.434l4.844-1.512 4.843 1.512z" fill="#fff"/><path d="M39.452 11.674L30.72 8.948a.78.78 0 00-.25-.042h-.002a.785.785 0 00-.25.041l-.843.264V4.214a2.346 2.346 0 00-2.344-2.344h-5.69V.781A.781.781 0 0020.56 0H8.815a.781.781 0 00-.781.781v1.09h-5.69A2.346 2.346 0 000 4.213v33.442A2.346 2.346 0 002.344 40h6.5a.781.781 0 100-1.563h-6.5a.782.782 0 01-.781-.78V4.213c0-.43.35-.781.78-.781h5.69v.818c0 .93.757 1.686 1.687 1.686h9.935c.93 0 1.686-.756 1.686-1.686v-.818h5.69c.431 0 .782.35.782.78v5.485l-3.907 1.22h-9.25a.781.781 0 100 1.563h6.281v6.953h-6.281a.781.781 0 100 1.562h6.351a11.588 11.588 0 006.805 9.298v3.222h-2.578a2.346 2.346 0 00-2.343 2.343v2.578h-7.015a.781.781 0 100 1.563h7.796a.78.78 0 00.552-.229l4.922-4.922a.78.78 0 00.229-.552v-3.44c.31.086.626.161.947.223a.766.766 0 00.294 0A11.574 11.574 0 0040 19.727v-7.308a.781.781 0 00-.548-.745zM19.779 4.25a.124.124 0 01-.124.124H9.72a.124.124 0 01-.124-.124V1.562H19.78v2.69zm5.455 30.827h1.474l-2.255 2.255v-1.474c0-.43.35-.78.781-.78zm13.203-15.351a10.01 10.01 0 01-7.968 9.789 10.01 10.01 0 01-7.969-9.79v-6.732l6.231-1.945a.772.772 0 00.187-.059l1.55-.484 7.97 2.488v6.733z" fill="#fff"/><path d="M29.769 22.381a.78.78 0 01-.553-.229l-1.8-1.8a.781.781 0 111.105-1.105l1.248 1.248 2.647-2.648a.781.781 0 011.105 1.105l-3.2 3.2a.78.78 0 01-.552.23z" fill="#FFD412"/></g><defs><clipPath id="clip0"><path fill="#fff" d="M0 0h40v40H0z"/></clipPath></defs></svg>