<svg width="40" height="40" fill="none" xmlns="http://www.w3.org/2000/svg"><path d="M3.594 20c0 9.046 7.36 16.406 16.406 16.406S36.406 29.046 36.406 20c0-9.047-7.36-16.406-16.406-16.406S3.594 10.954 3.594 20zm31.25 0c0 8.185-6.66 14.843-14.844 14.843-8.185 0-14.844-6.658-14.844-14.843 0-8.185 6.66-14.844 14.844-14.844 8.185 0 14.844 6.659 14.844 14.844z" fill="#fff"/><path d="M20.125 10.667c.166 0 .325.066.442.184a.632.632 0 01.183.445v7.042a1.87 1.87 0 011.203 1.36 1.896 1.896 0 01-.5 1.75 1.868 1.868 0 01-1.738.505 1.865 1.865 0 01-1.35-1.212h-5.74a.631.631 0 010-1.26h5.74a1.887 1.887 0 011.135-1.143v-7.042c0-.167.066-.327.183-.445a.623.623 0 01.442-.184zm0 10.074a.622.622 0 00.577-.389.633.633 0 00-.455-.858.621.621 0 00-.642.267.633.633 0 00.078.795.624.624 0 00.442.185z" fill="#fff"/><path d="M35.452 7.3A20.057 20.057 0 0024.092.42a.782.782 0 00-.319 1.53C32.27 3.716 38.438 11.308 38.438 20c0 10.167-8.271 18.438-18.438 18.438-10.167 0-18.438-8.27-18.438-18.437C1.563 11.072 7.93 3.44 16.7 1.857a.781.781 0 00-.277-1.538A20.028 20.028 0 004.709 7.108 20.013 20.013 0 000 20a19.87 19.87 0 005.858 14.142A19.869 19.869 0 0020 40a19.87 19.87 0 0014.142-5.858A19.87 19.87 0 0040 20c0-4.624-1.615-9.134-4.548-12.7z" fill="#fff"/><path d="M20.095 1.563h.062A.781.781 0 0020.163 0h-.061a.781.781 0 00-.007 1.563z" fill="#fff"/><path d="M19.23 7.474c0 .205.083.406.228.552a.79.79 0 00.553.23.786.786 0 00.782-.782.784.784 0 00-1.335-.552.786.786 0 00-.228.552zm.76 24.27a.785.785 0 00-.782.781.782.782 0 10.781-.78zm12.536-10.953a.786.786 0 00.553-.228.786.786 0 000-1.105.785.785 0 00-1.105 0 .787.787 0 00-.229.552.79.79 0 00.23.553.787.787 0 00.551.228zM7.474 19.209a.785.785 0 00-.782.78.784.784 0 00.782.782.787.787 0 00.552-.229.788.788 0 00.229-.552.785.785 0 00-.781-.781zm6.272-10.844a.788.788 0 00-.552.23.788.788 0 00-.23.551.788.788 0 00.781.781.788.788 0 00.553-.228.788.788 0 00.23-.553.788.788 0 00-.23-.552.788.788 0 00-.552-.229zm12.508 21.707a.788.788 0 00-.553.228.787.787 0 00-.228.553c0 .205.083.407.229.552a.788.788 0 00.552.229.788.788 0 00.552-.229.788.788 0 00.23-.552.787.787 0 00-.23-.553.788.788 0 00-.552-.229zm4.598-15.545a.786.786 0 00.782-.78.786.786 0 00-.782-.782.786.786 0 00-.552.229.787.787 0 00-.229.552.785.785 0 00.781.781zM9.147 25.473a.787.787 0 00-.552.229.787.787 0 00-.229.552.787.787 0 00.781.781.787.787 0 00.553-.229.788.788 0 00.229-.552.786.786 0 00-.23-.553.786.786 0 00-.552-.228zm.01-12.526a.786.786 0 00-.781.781.786.786 0 00.781.782.783.783 0 00.781-.782.782.782 0 00-.78-.781zm21.686 14.106a.786.786 0 00.552-.229.787.787 0 00.229-.552.787.787 0 00-.229-.553.786.786 0 00-.552-.229.784.784 0 00-.552 1.334.785.785 0 00.552.229zM26.271 9.938a.786.786 0 00.553-.228.784.784 0 00-.552-1.334.787.787 0 00-.553.229.788.788 0 00-.229.552.785.785 0 00.781.781zM13.729 30.061a.783.783 0 00-.553 1.334.79.79 0 00.553.229.786.786 0 00.78-.781.783.783 0 00-.781-.781zm9.675-3.499h-6.789a.781.781 0 000 1.563h6.789a.781.781 0 000-1.563z" fill="#FFD412"/></svg>