<svg width="40" height="40" fill="none" xmlns="http://www.w3.org/2000/svg"><path d="M20 1.875A18.125 18.125 0 1038.125 20 18.145 18.145 0 0020 1.875zm0 35A16.875 16.875 0 1136.875 20 16.894 16.894 0 0120 36.875z" fill="#fff"/><path d="M31.908 13.125a13.75 13.75 0 00-18.783-5.033.626.626 0 00-.229.854l.625 1.082a.625.625 0 101.083-.625l-.305-.527a12.393 12.393 0 015.076-1.354v.603a.625.625 0 101.25 0v-.603c1.77.081 3.5.544 5.074 1.356l-.303.525a.624.624 0 101.082.626l.304-.526c1.486.961 2.75 2.23 3.704 3.72l-.515.298a.625.625 0 10.625 1.083l.515-.297a12.4 12.4 0 011.371 5.068h-.607a.625.625 0 100 1.25h.606a12.36 12.36 0 01-1.36 5.074l-.525-.303a.624.624 0 00-.916.703c.043.16.148.297.291.38l.526.303a12.401 12.401 0 01-3.721 3.704l-.297-.515a.625.625 0 10-1.083.626l.297.514a12.39 12.39 0 01-5.068 1.371v-.607a.625.625 0 00-1.25 0v.606a12.36 12.36 0 01-5.074-1.36l.303-.524a.624.624 0 10-1.083-.625l-.303.525a12.4 12.4 0 01-3.704-3.72l.515-.298a.626.626 0 00-.626-1.083l-.523.302a12.511 12.511 0 01-1.278-4.087l.706.706a.625.625 0 00.884-.884l-1.875-1.875a.625.625 0 00-.884 0l-1.875 1.875a.624.624 0 10.884.884l.887-.887a13.748 13.748 0 1025.579-8.305z" fill="#fff"/><path d="M8.125 18.125h2.5a.624.624 0 100-1.25H8.75v-1.25H10a1.25 1.25 0 001.25-1.25v-1.25a1.25 1.25 0 00-1.25-1.25H8.75a1.25 1.25 0 00-1.25 1.25.625.625 0 101.25 0H10v1.25H8.75a1.25 1.25 0 00-1.25 1.25V17.5a.625.625 0 00.625.625zm4.688-2.5h1.874V17.5a.624.624 0 101.25 0v-5a.624.624 0 10-1.25 0v1.875h-1.25V12.5a.624.624 0 10-1.25 0V15a.624.624 0 00.626.625z" fill="#FFD412"/><path d="M20 10.625a.625.625 0 00-.625.625v6.99a1.87 1.87 0 102.385 2.385h5.74a.625.625 0 100-1.25h-5.74a1.873 1.873 0 00-1.135-1.135v-6.99a.625.625 0 00-.625-.625zm0 10a.625.625 0 110-1.25.625.625 0 010 1.25z" fill="#fff"/></svg>