<svg width="40" height="40" viewBox="0 0 40 40" fill="none" xmlns="http://www.w3.org/2000/svg">
<path d="M3.59375 19.9998C3.59375 29.0464 10.9537 36.406 20 36.406C29.0463 36.406 36.4062 29.0464 36.4062 19.9998C36.4062 10.9534 29.0463 3.59351 20 3.59351C10.9537 3.59351 3.59375 10.9534 3.59375 19.9998ZM34.8438 19.9998C34.8438 28.1849 28.1848 34.8435 20 34.8435C11.8152 34.8435 5.15625 28.1849 5.15625 19.9998C5.15625 11.8149 11.8152 5.15601 20 5.15601C28.1848 5.15601 34.8438 11.8149 34.8438 19.9998Z" fill="white"/>
<path d="M20.1249 10.6667C20.2907 10.6667 20.4497 10.7331 20.5669 10.8512C20.6841 10.9692 20.7499 11.1294 20.7499 11.2964V18.3383C21.0483 18.4439 21.3151 18.6241 21.5256 18.8618C21.7361 19.0996 21.8833 19.3873 21.9534 19.6979C22.0236 20.0086 22.0144 20.332 21.9267 20.6381C21.8391 20.9442 21.6758 21.2229 21.4522 21.4482C21.2286 21.6735 20.9519 21.8379 20.6481 21.9263C20.3442 22.0146 20.0231 22.0238 19.7148 21.9531C19.4064 21.8825 19.1209 21.7342 18.8848 21.5222C18.6488 21.3101 18.47 21.0413 18.3651 20.7407H12.625C12.4592 20.7407 12.3003 20.6744 12.1831 20.5563C12.0658 20.4383 12 20.2781 12 20.1111C12 19.9441 12.0658 19.784 12.1831 19.6659C12.3003 19.5478 12.4592 19.4815 12.625 19.4815H18.3651C18.4583 19.2181 18.6085 18.9789 18.8048 18.7812C19.001 18.5834 19.2385 18.4322 19.4999 18.3383V11.2964C19.4999 11.1294 19.5658 10.9692 19.683 10.8512C19.8002 10.7331 19.9592 10.6667 20.1249 10.6667ZM20.1249 20.7407C20.2485 20.7407 20.3694 20.7038 20.4722 20.6346C20.5749 20.5654 20.655 20.4671 20.7023 20.3521C20.7497 20.237 20.762 20.1104 20.7379 19.9883C20.7138 19.8661 20.6543 19.754 20.5669 19.6659C20.4795 19.5779 20.3681 19.5179 20.2469 19.4936C20.1256 19.4693 20 19.4818 19.8858 19.5294C19.7716 19.5771 19.6739 19.6578 19.6053 19.7613C19.5366 19.8649 19.4999 19.9866 19.4999 20.1111C19.5001 20.278 19.5661 20.4381 19.6832 20.5561C19.8004 20.6741 19.9592 20.7405 20.1249 20.7407Z" fill="white"/>
<path d="M35.4517 7.30078C32.5589 3.78454 28.5242 1.34039 24.0912 0.418757C23.6697 0.331477 23.255 0.602168 23.1671 1.02484C23.0792 1.4472 23.3508 1.86071 23.7732 1.9486C32.2702 3.71527 38.4375 11.3068 38.4375 19.9997C38.4375 30.1664 30.1666 38.4372 20 38.4372C9.83337 38.4372 1.5625 30.1664 1.5625 19.9997C1.5625 11.0715 7.92877 3.44122 16.7004 1.85675C17.1249 1.78015 17.4069 1.37365 17.3303 0.949153C17.2534 0.524653 16.8472 0.242365 16.4227 0.31927C11.8698 1.14141 7.70996 3.5523 4.70917 7.1076C1.67236 10.7059 0 15.2845 0 19.9997C0 25.3422 2.08038 30.3644 5.85785 34.1422C9.63531 37.9197 14.6579 39.9997 20 39.9997C25.3421 39.9997 30.3647 37.9194 34.1422 34.1422C37.9196 30.3644 40 25.3422 40 19.9997C40 15.3757 38.3847 10.8655 35.4517 7.30078Z" fill="white"/>
<path d="M20.0952 1.5625L20.1501 1.56281H20.1568C20.585 1.56281 20.9341 1.21735 20.9378 0.788269C20.9414 0.35675 20.5944 0.00396728 20.1632 0.000305176L20.1083 0C20.1059 0 20.1037 0 20.1016 0C19.6731 0 19.324 0.345459 19.3203 0.774841C19.317 1.20636 19.6637 1.55884 20.0952 1.5625Z" fill="white"/>
<path d="M19.2295 7.47388C19.2295 7.67926 19.3131 7.88007 19.4584 8.02625C19.6046 8.17151 19.8054 8.25513 20.0107 8.25513C20.217 8.25513 20.4178 8.17151 20.5631 8.02625C20.7093 7.88007 20.7929 7.67926 20.7929 7.47388C20.7929 7.26819 20.7093 7.06677 20.5631 6.92151C20.4185 6.77625 20.217 6.69263 20.0107 6.69263C19.8054 6.69263 19.6039 6.77533 19.4584 6.92151C19.3131 7.06677 19.2295 7.26758 19.2295 7.47388Z" fill="#FFD412"/>
<path d="M19.9893 31.7441C19.783 31.7441 19.5812 31.8278 19.4369 31.973C19.2907 32.1183 19.208 32.32 19.208 32.5254C19.208 32.7317 19.2907 32.9325 19.4369 33.0778C19.5822 33.2236 19.783 33.3066 19.9893 33.3066C20.1946 33.3066 20.3954 33.2236 20.5413 33.0778C20.6869 32.9325 20.7705 32.7308 20.7705 32.5254C20.7705 32.32 20.6869 32.1192 20.5413 31.973C20.3961 31.8278 20.1946 31.7441 19.9893 31.7441Z" fill="#FFD412"/>
<path d="M32.5264 20.7914C32.7321 20.7914 32.9335 20.7084 33.0787 20.5631C33.2249 20.4169 33.3076 20.2161 33.3076 20.0101C33.3076 19.8044 33.2249 19.603 33.0787 19.4578C32.9335 19.3125 32.7327 19.2295 32.5264 19.2295C32.321 19.2295 32.1196 19.3125 31.9743 19.4578C31.8287 19.6036 31.7451 19.8044 31.7451 20.0101C31.7451 20.2155 31.8287 20.4169 31.9743 20.5631C32.1202 20.7084 32.321 20.7914 32.5264 20.7914Z" fill="#FFD412"/>
<path d="M7.47363 19.2085C7.26703 19.2085 7.06653 19.2915 6.92126 19.4368C6.77509 19.582 6.69238 19.7834 6.69238 19.9897C6.69238 20.1951 6.77509 20.3969 6.92126 20.5421C7.06653 20.6874 7.26733 20.771 7.47363 20.771C7.67902 20.771 7.88043 20.6874 8.0257 20.5421C8.17096 20.3969 8.25488 20.1951 8.25488 19.9897C8.25488 19.7834 8.17126 19.582 8.0257 19.4368C7.88043 19.2912 7.67902 19.2085 7.47363 19.2085Z" fill="#FFD412"/>
<path d="M13.7461 8.36523C13.5407 8.36523 13.339 8.44885 13.1937 8.59412C13.0485 8.73938 12.9648 8.9411 12.9648 9.14648C12.9648 9.35187 13.0485 9.55359 13.1937 9.69885C13.339 9.84412 13.5407 9.92773 13.7461 9.92773C13.9515 9.92773 14.1532 9.84412 14.2985 9.69885C14.4437 9.55359 14.5273 9.35187 14.5273 9.14648C14.5273 8.9411 14.4437 8.73938 14.2985 8.59412C14.1532 8.44885 13.9515 8.36523 13.7461 8.36523Z" fill="#FFD412"/>
<path d="M26.2539 30.0715C26.0485 30.0715 25.8468 30.1552 25.7015 30.3004C25.5563 30.4457 25.4727 30.6471 25.4727 30.8528C25.4727 31.0582 25.5563 31.2599 25.7015 31.4052C25.8468 31.5504 26.0485 31.634 26.2539 31.634C26.4593 31.634 26.661 31.5504 26.8063 31.4052C26.9515 31.2599 27.0352 31.0582 27.0352 30.8528C27.0352 30.6471 26.9515 30.4457 26.8063 30.3004C26.661 30.1552 26.4593 30.0715 26.2539 30.0715Z" fill="#FFD412"/>
<path d="M30.8525 14.5273C31.0579 14.5273 31.2593 14.4437 31.4046 14.2982C31.5499 14.1529 31.6338 13.9515 31.6338 13.7461C31.6338 13.5404 31.5502 13.339 31.4046 13.1937C31.2593 13.0485 31.0579 12.9648 30.8525 12.9648C30.6469 12.9648 30.4454 13.0482 30.3002 13.1937C30.1549 13.339 30.0713 13.5404 30.0713 13.7461C30.0713 13.9515 30.1546 14.1529 30.3002 14.2982C30.4454 14.4437 30.6469 14.5273 30.8525 14.5273Z" fill="#FFD412"/>
<path d="M9.14746 25.4727C8.94208 25.4727 8.74066 25.5563 8.5954 25.7015C8.44983 25.8468 8.36621 26.0485 8.36621 26.2539C8.36621 26.4593 8.44983 26.661 8.5954 26.8063C8.74066 26.9515 8.94208 27.0352 9.14746 27.0352C9.35315 27.0352 9.55457 26.9515 9.69983 26.8063C9.84509 26.661 9.92871 26.4593 9.92871 26.2539C9.92871 26.0485 9.8454 25.8468 9.69983 25.7015C9.55457 25.5563 9.35376 25.4727 9.14746 25.4727Z" fill="#FFD412"/>
<path d="M9.15723 12.9468C8.95154 12.9468 8.75012 13.0301 8.60486 13.1757C8.45959 13.3209 8.37598 13.5217 8.37598 13.728C8.37598 13.9334 8.45929 14.1342 8.60486 14.2801C8.75104 14.4254 8.95154 14.5093 9.15723 14.5093C9.36353 14.5093 9.56433 14.4257 9.70929 14.2801C9.85547 14.1342 9.93848 13.9334 9.93848 13.728C9.93848 13.5217 9.85547 13.3209 9.70929 13.1757C9.56433 13.0304 9.36353 12.9468 9.15723 12.9468Z" fill="#FFD412"/>
<path d="M30.8428 27.053C31.0485 27.053 31.2499 26.9694 31.3951 26.8241C31.5404 26.6788 31.624 26.4771 31.624 26.2717C31.624 26.0663 31.5404 25.8646 31.3951 25.7194C31.2499 25.5741 31.0485 25.4905 30.8428 25.4905C30.6365 25.4905 30.4357 25.5741 30.2904 25.7194C30.1445 25.8646 30.0615 26.0663 30.0615 26.2717C30.0615 26.4771 30.1445 26.6788 30.2904 26.8241C30.4351 26.9694 30.6365 27.053 30.8428 27.053Z" fill="#FFD412"/>
<path d="M26.2715 9.93823C26.4772 9.93823 26.6786 9.85522 26.8239 9.70996C26.97 9.56409 27.0527 9.36237 27.0527 9.15698C27.0527 8.9516 26.97 8.74988 26.8239 8.60461C26.6786 8.45935 26.4772 8.37573 26.2715 8.37573C26.0661 8.37573 25.8647 8.45935 25.7194 8.60461C25.5742 8.74988 25.4902 8.9516 25.4902 9.15698C25.4902 9.36237 25.5739 9.56409 25.7194 9.70996C25.8647 9.85553 26.0661 9.93823 26.2715 9.93823Z" fill="#FFD412"/>
<path d="M13.7285 30.0615C13.5222 30.0615 13.3217 30.1442 13.1761 30.2904C13.0309 30.4357 12.9473 30.6365 12.9473 30.8428C12.9473 31.0482 13.0309 31.2496 13.1761 31.3948C13.3217 31.5404 13.5225 31.624 13.7285 31.624C13.9342 31.624 14.1356 31.5404 14.2809 31.3948C14.4261 31.249 14.5098 31.0482 14.5098 30.8428C14.5098 30.6371 14.4261 30.4357 14.2809 30.2904C14.1356 30.1442 13.9342 30.0615 13.7285 30.0615Z" fill="#FFD412"/>
<path d="M23.4039 26.5623H16.6152C16.1837 26.5623 15.834 26.9123 15.834 27.3435C15.834 27.775 16.1837 28.1248 16.6152 28.1248H23.4039C23.8354 28.1248 24.1851 27.775 24.1851 27.3435C24.1851 26.9123 23.8354 26.5623 23.4039 26.5623Z" fill="#FFD412"/>
</svg>
