<svg width="60" height="60" fill="none" xmlns="http://www.w3.org/2000/svg"><path fill="#fff" fill-opacity=".1" d="M0 0h60v60H0z"/><path fill-rule="evenodd" clip-rule="evenodd" d="M24.523 30a5.478 5.478 0 1110.956 0 5.478 5.478 0 01-10.956 0zm9.033 0a3.556 3.556 0 10-7.11 0 3.556 3.556 0 007.11 0z" fill="#fff"/><path d="M34.414 24.306a1.28 1.28 0 112.56.001 1.28 1.28 0 01-2.56 0z" fill="#fff"/><path fill-rule="evenodd" clip-rule="evenodd" d="M25.602 19.398c1.138-.052 1.502-.064 4.399-.064h-.004c2.898 0 3.26.012 4.398.064 1.136.052 1.911.232 2.591.495a5.213 5.213 0 011.89 1.23 5.235 5.235 0 011.23 1.89c.263.678.443 1.453.496 2.589.051 1.138.064 1.501.064 4.398s-.013 3.26-.064 4.398c-.053 1.135-.233 1.91-.496 2.589a5.236 5.236 0 01-1.23 1.889 5.218 5.218 0 01-1.889 1.231c-.679.264-1.455.444-2.59.496-1.138.051-1.5.064-4.398.064-2.896 0-3.26-.013-4.397-.064-1.136-.052-1.911-.232-2.59-.496a5.221 5.221 0 01-1.889-1.231 5.227 5.227 0 01-1.23-1.89c-.264-.678-.443-1.453-.495-2.589-.052-1.137-.065-1.5-.065-4.397 0-2.897.013-3.26.064-4.398.051-1.135.231-1.91.496-2.59a5.236 5.236 0 011.23-1.889 5.223 5.223 0 011.89-1.23c.679-.263 1.454-.443 2.59-.495zm4.043 1.858h-.601v-.003c-1.988.002-2.37.016-3.354.06-1.04.048-1.604.221-1.98.368a3.31 3.31 0 00-1.227.798 3.303 3.303 0 00-.798 1.227c-.146.376-.32.94-.367 1.98-.052 1.125-.062 1.46-.062 4.31 0 2.848.01 3.185.061 4.31.048 1.04.222 1.604.368 1.98.194.498.425.853.798 1.226.373.373.729.604 1.227.798.376.146.94.32 1.98.367 1.125.052 1.462.063 4.31.063 2.849 0 3.187-.011 4.311-.063 1.04-.047 1.605-.22 1.98-.367a3.297 3.297 0 001.226-.798c.374-.373.605-.727.798-1.225.147-.376.32-.94.368-1.98.05-1.125.062-1.463.062-4.31 0-2.846-.011-3.184-.062-4.308-.047-1.04-.221-1.605-.367-1.98a3.31 3.31 0 00-.799-1.227 3.3 3.3 0 00-1.226-.798c-.376-.146-.94-.32-1.98-.367-1.125-.051-1.462-.061-4.31-.061h-.356z" fill="#fff"/></svg>