<svg width="273.56" height="471.891" viewBox="0 0 200 345" class="css-1j8o68f"><path xmlns="http://www.w3.org/2000/svg" fill-rule="evenodd" d="M5 65l95-65 95 65-95-55zm0 200l95 80 95-85-95 75z" fill="#111"/><path xmlns="http://www.w3.org/2000/svg" d="M133.17 106.986a35.875 35.875 0 00-7.715-11.443 35.893 35.893 0 00-11.442-7.715A35.79 35.79 0 00100 85a35.8 35.8 0 00-14.013 2.829 35.878 35.878 0 00-11.442 7.715 35.901 35.901 0 00-7.716 11.442A35.798 35.798 0 0064 121c0 4.859.953 9.574 2.83 14.013a35.87 35.87 0 007.715 11.442A35.89 35.89 0 00100 157c4.858 0 9.574-.952 14.012-2.83a35.857 35.857 0 0011.443-7.715 35.89 35.89 0 007.714-11.442A35.77 35.77 0 00136 121c0-4.86-.952-9.575-2.83-14.014zm-19.205-11.917l-3.685 7.232-1.196-.609 3.686-7.231 1.195.608zm-5.504-2.28l1.276.415-2.51 7.719-1.275-.414 2.51-7.72zm-4.517-.976l1.324.21-1.27 8.017-1.325-.21 1.27-8.017zm-5.132-2.186l2.376-.001v10.08h-2.376v-10.08zm0 28.375v-16.624h2.376v16.623a3.224 3.224 0 11-2.376.001zm-2.755-26.189l1.27 8.017-1.325.21-1.27-8.018 1.325-.209zm-4.517.977l2.508 7.719-1.276.415-2.509-7.72 1.277-.414zm-4.31 1.67l3.684 7.232-1.194.609-3.685-7.232 1.195-.608zm-18.636 27.728v-2.376h10.08v2.376h-10.08zm10.236-3.861l-8.017-1.271.21-1.325 8.017 1.271-.21 1.325zm.68-3.28l-7.72-2.51.414-1.275 7.72 2.51-.414 1.276zm1.183-3.132l-7.232-3.685.61-1.196 7.231 3.685-.61 1.196zm1.66-2.908l-6.568-4.771.789-1.085 6.566 4.77-.788 1.086zm2.092-2.613l-5.739-5.74.949-.948 5.739 5.739-.949.949zm-2.295-8.821l1.085-.788 4.77 6.567-1.083.788-4.772-6.567zm21.054 43.901H91.69v-3.842l-5.673-2.016 1.65-3.586 5.106 1.759v1.04l3.018.007v-1.262h-1.81v-1.083h4.78v1.083h-1.81v1.264l3.374.007.977 1.374 7.58-1.955 2.72-.475 1.321 1.241-.529.686-.898-.977-2.216.337-6.076 6.398zm9.433-.562c-.854 0-1.347-.281-1.347-1.124s1.347-3.104 1.347-3.104 1.346 2.262 1.346 3.104-.492 1.124-1.346 1.124zm.441-36.773l-1.085-.787 4.772-6.567 1.084.788-4.771 6.566zm1.528 1.305l5.74-5.738.948.948-5.74 5.738-.948-.948zm2.254 2.477l6.567-4.77.788 1.084-6.567 4.77-.788-1.084zm1.838 2.798l7.233-3.684.609 1.196-7.232 3.684-.61-1.196zm1.378 3.051l7.72-2.508.415 1.276-7.72 2.508-.415-1.276zm.885 3.23l8.016-1.27.21 1.325-8.017 1.27-.21-1.325zm.334 5.188v-2.376h10.079v2.376h-10.08z" fill="#0f81c7"/><path d="M7.354 217.847c-.694 0-1.387-.37-2.174-.648l-1.017-1.017c-.047-.232-.51-.972-.51-1.573 0-6.337.232-11.471.232-15.45 0-.6-.046-.924-.647-.924-.14 0-.324 0-.51.046-.092 0-.647-.046-.74-.046-.277 0-.6.139-1.156.139-.138-.37-.832.092-.832-.74s.647-.787 1.017-.926c0 0 .14 0 .324.093h1.295c.833-.185.787 0 1.157-.37.138-4.672-.14-5.042 1.341-5.042.046 0 1.341.046 1.665.046.648 0 .416-.277 2.36-.277h-.047c.046 0 .462.139.509.231 0 3.978-.093 3.886-.093 5.042l.37.37h2.082c.092-.139 1.249-.139 1.619-.139h-.047s.972.185.972.648c0 .601-.093.971-1.573.971-.786 0-1.989-.046-3.053-.046-.324 0-.462 2.775-.462 3.931 0 1.25.092 1.85.092 2.822 0 2.636-.139 6.152-.139 7.123 0 .833.047 1.619.232 1.758v-.046c.092 0-.093 1.757 1.757 1.757 1.018 0 1.064 0 1.804-.462-.046 0 .74-.74.74-.925v-.047s.232-1.48 1.25-1.48c.6 0 .832.648.832 1.064 0 .185-.509.509-.509.879 0 1.017-1.896 1.896-2.081 2.405-.14-.092-.417.37-.602.37-1.064 0-1.249.463-2.405.463h-.046c-.972 0-1.85.185-1.85.185-.37 0-.833-.093-1.157-.185zm-.509-.555c0-.047-.046-.047-.046-.047v.14s.046-.047.046-.093zm5.366-.14c-.046 0-.046.047-.046.093 0 0 0 .047.046.047v-.14zm-5.597-.092a.1.1 0 00-.092.093s.046.046.092.046.046-.046.046-.046c0-.046 0-.093-.046-.093zm-.786-.37a.1.1 0 00-.093.093s.047.046.093.046l.046-.046c0-.046-.046-.093-.046-.093zm-.74-.138c-.046 0-.093.046-.093.046h.139zm8.696-.88v.278l.092-.092c0-.093-.092-.185-.092-.185zM4.3 215.58l-.046.046c0 .047.046.047.046.047.047 0 .047 0 .047-.047 0 0 0-.046-.047-.046zm.14-.647c0 .092 0 .092.045.092h.047zm10.915-.694c-.046 0-.092.046-.092.046 0 .046.046.046.092.046 0 0 .046 0 .046-.046zm-11.332-.925v.092h.139zm11.008-.185c-.046 0-.046.046-.046.046 0 .046 0 .046.046.046s.047 0 .047-.046c0 0 0-.046-.047-.046zm.37 0l-.046.092h.185zm-11.378-4.81v-.093.092zM.462 197.91c0 .046-.046.046-.046.093s.046.046.139.092v-.185H.462zm-.185-.37H.231s-.046.046-.046.185c0 .046.046.139.046.139.093 0 .093-.093.093-.139 0-.093 0-.139-.047-.185zm12.073.092v.14c.092 0 .092-.047.092-.14h-.092zm-11.333-.23v.138c.047-.046.093-.093.093-.139h-.093zm-.462-.232c-.093 0-.278.185-.278.231H.74c-.046-.092-.139-.185-.185-.231zm7.262-4.163v.231c.231 0 .231-.046.277-.23h-.277zm-3.516-.092s-.046.046-.046.092.046.093.046.093c.047 0 .047-.047.047-.093s0-.092-.047-.092zm0-.37v.277c.093-.046.093-.139.093-.277H4.3zm1.157-.186c0 .047-.046.093.092.093 0-.093-.092-.093-.092-.093zm-1.157-.323v.231h.232c0-.139-.14-.185-.232-.231zm3.516-.047v.185c.092-.046.092-.138.092-.185h-.092zm1.064-.37s0 .278.185.37l.092-.092c0-.046-.046-.37-.231-.37zm17.655 25.44c-.046 0 0-.046.092-.277-.277-.185-.323-.601-.37-.601-.277 0-.37.878-.323.97-.232 0-1.018-.415-1.018-.508 0-.046.046.139-.139.139s-.694-.278-2.127-1.712c-.232-.277-.555-.555-.555-.647.046-.139-.833-.648-.833-1.157-.555-.277-.74-1.433-1.249-1.85h.046s-.971-1.665-.971-3.515c0-.185.092-1.249.092-1.48 0-2.082 1.296-3.1 1.296-3.886 0-.508 1.295-1.34 1.804-2.636 0-.185 1.896-1.711 1.988-1.804.694 0 1.064-1.064 2.036-1.064.37.093 2.035-.74 2.96-.74h2.174c.324 0 .786.231 1.341.231-.046 0-.046-.046-.046-.046.093 0 .694.37 1.526.509 0-.046.047-.046.093-.046.277 0 .833.555 1.064.601s.277.231 1.896 1.434l-.046.046s.416-.046 2.22 2.174c.416.879.879 1.434 1.203 2.267.092.092.786 1.433.786 2.682 0 3.47-1.156 4.21-1.249 5.875.046.323-.647.508-.74 1.202 0 .232-.74.602-1.711 1.99-.185 0-1.758 1.572-2.082 1.572a.1.1 0 00-.092-.093c-.185 0-.787.833-1.712.833l-.185-.093c-.37 0-.277.463-.832.463-.602 0-.509-.139-.833-.139 0 .463-.416.093-.601.463h-2.36c-.785-.278-2.59 0-2.543-1.157zm4.44.925l.093.047.092-.047-.092-.092zm2.174-.37c-.092 0-.138.047-.231.047l.046.046c.047 0 .093-.046.278-.093h-.093zm1.62-.74c-.047 0-.14.093-.186.14h.185v-.14zm-6.014-.277c.463 0 .694.277 1.527.324 0-.14.046-.047.97-.232.093 0 .51.093.556.093.37 0 .092-.278.879-.278 1.064-.74.879-.323 1.896-2.359v.047c.046 0 .416-3.7.416-4.302 0-.324-.23-.509-.23-.786l.092-.278c-.047-.185-.139-.462-.139-.601 0-.833.37-.648.37-1.62 0-3.746-.278-4.902-.648-6.706 0-1.943-3.654-2.174-3.931-2.359-1.573.185-2.59.046-3.608 1.11 0 0-.74.555-.74 1.434 0 1.48-.555 1.573-.555 2.775s-.046 3.192-.046 3.516c0 7.03.277 6.568.74 8.048.046 0 .462 2.174 2.405 2.174h.046zm4.256.185c-.047 0-.093.046-.093.092s.046.093.093.093c0 0 .046-.046.046-.093s-.046-.092-.046-.092zm1.156-.185s-.046.046-.046.092.046.093.046.093c.046 0 .046-.046.046-.093s0-.092-.046-.092zM20.43 211.51c0-.046-.046-.046-.046-.046-.046 0-.046 0-.046.046s0 .092.046.092c0 0 .046-.046.046-.092zm-.23-4.487a.1.1 0 00-.093.093s.046.046.092.046.046-.046.046-.046c0-.047 0-.093-.046-.093zm-.556-.37c-.046 0-.046.046-.046.093 0 0 0 .046.046.046s.046-.046.046-.046c0-.047 0-.093-.046-.093zm15.495-8.464c-.185 0-.185.092-.277.092.138 0 .277.046.277-.092zm-1.804-.833c-.046.092.047.092.185.139.047 0 .14 0 .185-.047a1.885 1.885 0 00-.323-.092h-.047zm-6.337-.093l.047-.046zm1.804-.508c.093-.047-.277.046-.37.092v.139c.232 0 .37.046.37-.231zm.37.092v.139c.047 0 .047-.046.047-.046 0-.047 0-.093-.047-.093zm19.413 11.564c0-.139.093-.278.232-.278-.047 0 0-.092-.14-.185l-.184.185c-.046 0-.185-.185-.185-.277 0-1.85-1.064-1.342-1.064-2.498 0-.046 0-.093.046-.139 0-.046-.416-.694-.416-.832 0-.093.046-.602.046-.694l-.185.092c-.277-.323-.185-.832-.555-1.11-.37-.971-.324-.74-.601-1.619.046-.277-.463-.786-.463-1.064 0-.046.047-.046.047-.092 0-.093-.463-.555-.463-.925 0-.046 0-.139.046-.185l-.462-.37h-2.405a.724.724 0 01-.463-.185v-.648l.555-.509c.74 0 1.573-.046 1.85-.046.972 0 1.85.139 3.192.139l.185-.093c1.064 0 .601-.138 4.995-.138.463 0 1.157.092 1.157.647 0 1.434-2.683.139-2.683 1.295 0 .185.092 1.018.324 1.203-.047.046-.047.046-.047.092 0 .278.602.694.602 1.527 1.064 1.85.231.694 1.295 2.914 0 .555.509.879.509 1.341 0 .185.462 1.203 1.572 3.7.185 0 .555.14.648-.37-.046 0-.046-.046-.046-.092 0-.231.74-.786.74-1.758 0-.23-.047-.185-.047-.185s.185-.138 1.064-2.867c.046 0 .185-1.203.833-2.36-.046-.046-.046-.092-.046-.138 0-.278.555-.601.555-1.388 0-1.202.647-1.295.647-2.081 0 .046.046.046.046.046.232 0-.37-1.526 1.48-1.526.186 0 .324 0 .463.138v-.046c.046 0 .231 1.203 1.11 2.498 0 .462.694.971.694 1.711 0 1.712 1.11 1.48 1.11 2.868-.046-.046-.092-.046-.092-.046 0 .139.6 1.064.6 1.249 0-.047.093 1.11 1.296 2.868v-.047s.093 1.342.694 1.434c.555 0 .462-.139.601-.555-.046 0-.046 0-.046-.046 0-.231.925-1.203.925-2.544-.046-.046-.046-.093-.046-.139 0-.324.694-.647.694-1.665 0-.231.925-1.665.925-2.775.092-2.776.971-.925.971-2.868-.046-.046-.046-.046-.046-.093 0-.092.046-.185.046-.23 0-.232-.139-.417-.971-.417-.555 0-1.064.092-1.62.092-.416 0-.74-.046-.74-.138 0 0 .324-.278.324-.324-.046 0-.185 0-.277-.093-.139.093-.139.232-.185.278-.139-.185-.278-.231-.278-.463 0-.277.278-.694.463-.694.37 0 5.32-.092 7.91-.092.37 0 .647.092.647.74 0 .324-.046.74-.463.74H72.87c-.231.093-.925.971-.925 1.573-.278.092.139.74-.648 1.757v.047c0 .416-1.11 2.914-1.11 3.376.139 0-1.202 2.498-1.202 3.516l-.047-.047c-.138 0-.046 1.342-.601 1.342.139 0 .185.185.185.277 0 .324-.555.416-.555 1.434 0 0-.601 1.48-.601 1.619 0 .046.046.046.046.092 0 .14-.416.37-.416.926-1.157 4.579-1.342 3.422-1.758 3.977-.093.047-.139.047-.231.047-1.018 0-1.573-2.035-1.573-2.36 0-.554-1.619-2.173-1.619-3.792-.046 0-.37-1.342-.832-1.85 0 0-.093-1.11-.463-1.295v.046s-.463-.786-1.156-2.868c-.093 0-.37-.833-.463-.879h-.462c.046.046-.324.463-.324.648-.509 1.896-1.203 2.174-1.203 3.515 0 .046-.509.694-.509 1.619-.832 2.775.278-.509-1.248 3.654 0 0 .046 0 .046.046 0 .093-.509.555-.509 1.388-.139 1.711-.509 1.804-.971 2.174h-.88c-.045.046-.045.046-.092.046-.185 0-.185-.647-.647-1.11 0-1.295-1.203-2.405-1.203-3.099-.231-.74-.74-1.341-.74-1.804-.462-1.619-.555-1.202-.786-1.943h.046c0-.046-.416-.277-.463-.878h.047c0-.093-.463-.74-.463-.972 0-.046 0-.046.046-.092zm4.395 9.528l-.093.093h.185zm12.442-1.341c0 .092 0 .231.093.231a.404.404 0 00.277-.185c-.139-.046-.231-.046-.37-.046zm-11.332-.139c.046.093.046.139.092.139s.046-.046.093-.046v-.093h-.185zm9.806-.601c0-.047-.185.046-.185.138.185 0 .185 0 .185-.138zm-11.656 0c-.047 0-.047.046-.047.092 0 0 0 .046.047.046v-.138zm2.035-.648c-.047 0-.093 0-.093.046h.139c0-.046-.046-.046-.046-.046zm-3.516-2.174c-.046 0-.092.046-.092.046 0 .047.046.047.092.047 0 0 .047 0 .047-.047zm.51 0a.1.1 0 00-.093.093s.046.046.092.046.046-.046.046-.046c0-.047 0-.093-.046-.093zm10.129-2.544c-.046 0-.046.046-.046.046 0 .047 0 .047.046.047v-.093zm6.66-.74v.185c.047 0 .047 0 .047-.046 0-.093 0-.139-.046-.139zm.926-2.451l-.093.092h.093v-.092zm-21.046-1.203v.231c0-.092.046-.185.046-.23h-.046zm21.184-.139c-.046 0-.046.047-.046.093 0 0 0 .046.046.046s.047-.046.047-.046c0-.046 0-.093-.047-.093zm-21.74-.971a.1.1 0 00-.092.092s.047.047.093.047.046-.047.046-.047c0-.046 0-.092-.046-.092zm-.647-2.128c-.046 0-.092 0-.092.047 0 0 .046.046.092.046s.046-.046.046-.046c0-.047 0-.047-.046-.047zm24.885-3.885a.1.1 0 00-.092.092s.046.047.092.047l.046-.047c0-.046-.046-.092-.046-.092zm-26.781-.694l.277.046c.047 0 .047-.046.047-.092-.324 0-.324 0-.324.046zm-.416-.694c0 .417-.186.694-.51.694.602 0 .695 0 .833-.046 0-.139-.046-.555-.323-.648zm5.411.185c-.046 0-.046.047-.046.047 0 .046.324.092.324.416h.046c0-.093-.046-.37.046-.463l-.092-.185c-.231 0-.324.093-.324.139zm11.24.463c0-.046-.046-.046-.046-.046-.046 0-.046 0-.046.046s0 .046.046.046c0 0 .046 0 .046-.046zm-18.224-.463c0 .139.185.324.277.37 0-.138.324-.416.278-.555-.231 0-.601-.046-.555.185zm25.023.093c.232.092.093.277.417.277.416 0 .509-.092.509-.555-.278.139-.324.278-.555.324-.093-.046-.185-.046-.232-.046h-.139zm1.943.092c-.046 0-.092.047-.092.047 0 .046.046.046.092.046 0 0 .046 0 .046-.046zm4.256-.185c-.14 0-.278.093-.278.185 0 .047.046.093.046.093h.232v-.278zm.323.185s0-.046-.046-.046v.139c.046 0 .046-.046.046-.093zm-30.99-.092c-.046 0-.093 0-.093.046 0 0 .047.046.093.046l.046-.046c0-.046-.046-.046-.046-.046zm-1.434-.185h-.046c-.139 0-.093.185-.093.185l.185-.185h-.046zm5.273.092c0-.046 0-.046-.046-.046s-.093 0-.093.046.047.093.093.093.046-.046.046-.093zm5.643-.185v.185l.046.047c.047 0 .093-.047.14-.14-.14-.138-.232-.046-.186-.092zm-.601-.046c-.139 0-.185.046-.185.092s0 .093.046.093c.185 0 .139-.278.139-.185zm15.402-.093c-.046.093-.046.14-.046.232.046 0 .093-.047.139-.093zm-22.017.093a.1.1 0 00-.092.092s.046.047.092.047.047-.047.047-.047c0-.046 0-.092-.047-.092zm29.88-.139c0 .185 0 .231.047.231 0 0 .092-.046.092-.092 0-.139-.092-.231-.092-.37-.046.092-.046 0-.046.231zm-4.3.046c-.047 0-.093.047-.093.047 0 .046.046.046.092.046 0 0 .046 0 .046-.046zm1.895-.046v.139c.047-.046.093-.093.093-.139h-.093zm.463.046h-.231c0 .047.046.093.092.093s.139-.046.139-.093zm.74-.046c-.046 0-.046.046-.046.046h.092zm-.462-.139c-.047.047-.093.047-.093.093l.046.046zm-6.199 0c-.046 0-.046.047-.046.093 0 0 0 .046.046.046s.047-.046.047-.046c0-.046 0-.093-.047-.093zm1.62 0c-.047 0-.093 0-.093.047 0 0 .092 0 .092-.047zm16.822 20.584c-.694 0-1.388-.37-2.174-.648l-1.017-1.017c-.047-.232-.51-.972-.51-1.573 0-6.337.232-11.471.232-15.45 0-.6-.046-.924-.648-.924-.138 0-.323 0-.508.046-.093 0-.648-.046-.74-.046-.278 0-.602.139-1.157.139-.139-.37-.832.092-.832-.74s.647-.787 1.017-.926c0 0 .139 0 .324.093h1.295c.833-.185.786 0 1.157-.37.138-4.672-.14-5.042 1.34-5.042.047 0 1.342.046 1.666.046.648 0 .416-.277 2.359-.277h-.046c.046 0 .462.139.509.231 0 3.978-.093 3.886-.093 5.042l.37.37h2.082c.092-.139 1.248-.139 1.618-.139h-.046s.972.185.972.648c0 .601-.093.971-1.573.971-.786 0-1.99-.046-3.053-.046-.324 0-.462 2.775-.462 3.931 0 1.25.092 1.85.092 2.822 0 2.636-.139 6.152-.139 7.123 0 .833.047 1.619.232 1.758v-.046c.092 0-.093 1.757 1.757 1.757 1.018 0 1.064 0 1.804-.462-.046 0 .74-.74.74-.925v-.047s.231-1.48 1.25-1.48c.6 0 .832.648.832 1.064 0 .185-.51.509-.51.879 0 1.017-1.896 1.896-2.08 2.405-.14-.092-.417.37-.602.37-1.064 0-1.249.463-2.405.463h-.046c-.972 0-1.85.185-1.85.185-.37 0-.833-.093-1.157-.185zm-.509-.555c0-.047-.046-.047-.046-.047v.14s.046-.047.046-.093zm5.366-.14c-.046 0-.046.047-.046.093 0 0 0 .047.046.047v-.14zm-5.597-.092a.1.1 0 00-.092.093s.046.046.092.046.046-.046.046-.046c0-.046 0-.093-.046-.093zm-.786-.37a.1.1 0 00-.093.093s.046.046.093.046l.046-.046c0-.046-.046-.093-.046-.093zm-.74-.138c-.047 0-.093.046-.093.046h.139zm8.695-.88v.278l.093-.092c0-.093-.093-.185-.093-.185zm-9.482-.092l-.046.046c0 .047.046.047.046.047.047 0 .047 0 .047-.047 0 0 0-.046-.047-.046zm.14-.647c0 .092 0 .092.045.092h.047zm10.915-.694c-.046 0-.092.046-.092.046 0 .046.046.046.092.046 0 0 .046 0 .046-.046zm-11.332-.925v.092h.139zm11.008-.185c-.046 0-.046.046-.046.046 0 .046 0 .046.046.046s.047 0 .047-.046c0 0 0-.046-.047-.046zm.37 0l-.046.092h.185zm-11.378-4.81v-.093.092zm-3.562-10.408c0 .046-.046.046-.046.093s.046.046.139.092v-.185h-.093zm-.185-.37h-.046s-.046.046-.046.185c0 .046.046.139.046.139.092 0 .092-.093.092-.139 0-.093 0-.139-.046-.185zm12.073.092v.14c.092 0 .092-.047.092-.14h-.092zm-11.333-.23v.138c.047-.046.093-.093.093-.139h-.093zm-.462-.232c-.093 0-.278.185-.278.231h.463a1.04 1.04 0 00-.185-.231zm7.262-4.163v.231c.23 0 .23-.046.277-.23h-.277zm-3.516-.092s-.046.046-.046.092.046.093.046.093c.047 0 .047-.047.047-.093s0-.092-.047-.092zm0-.37v.277c.093-.046.093-.139.093-.277h-.093zm1.157-.186c0 .047-.047.093.092.093 0-.093-.092-.093-.092-.093zm-1.157-.323v.231h.232c0-.139-.14-.185-.232-.231zm3.516-.047v.185c.092-.046.092-.138.092-.185h-.092zm1.063-.37s0 .278.186.37l.092-.092c0-.046-.046-.37-.231-.37zm11.411 26.042l-.23-.278v-.786c0-.093.323-.416.37-.463h3.052c.139-.092.324-.231.37-.37v-2.636c.093 0 .139-.139.139-.232s-.139-.693-.139-.878v-12.582c0-.693-.277-.786-.463-1.063h-1.896c-.185.092-.324.092-.416.092-1.527 0-1.573-.277-1.573-.694 0-.832 2.035-.925 3.423-.925 1.018 0 1.064.046 2.081.046 2.822 0 2.73-.23 3.33-.23.463 0 1.11 0 1.11.97 0 .186.186 1.296.186 1.434 0 0 0 .14-.093.232 0 .693.093 1.064.324 1.064.278 0 .648-.74.833-1.064 0-.37 1.757-1.758 2.035-2.036.37 0 1.48-.786 2.22-.786 1.11 0 1.341.046 1.85.046s2.776 1.157 2.776 2.544v1.48c0 1.018-.556 1.25-1.064 1.804-.324.093-1.157.88-1.712.88-2.127 0-3.33-1.712-3.33-3.562.277.138-.37-.37-.37-.555-1.018 0-1.48 1.619-2.035 1.619-.185 0-.463.97-.648 1.156-.046 1.48-.786.786-.786 3.053v2.127l.092.278c0 .324-.092.509-.092.786 0 .463.185 5.18.185 7.216 0 .462.37.416.37.786 1.573 0 1.896-.092 2.313-.092 1.526 0 1.711.046 1.711.925-.046.046 0 .231-.139.324v-.047c-.092 0-.555.463-1.156.463-1.064 0 .046-.185-2.683-.185-.601 0-2.22.092-2.22.092h-.925s-.463-.092-.648-.092c-.231 0-1.434.092-1.434.092l-2.636.047c-.324 0-.694.23-.786.23-.417 0-.833-.23-1.296-.23zm-.092-.787c0 .185.231.602.231.648h.231c0-.139-.277-.601-.462-.648zm1.341.417c0 .23.232.138.278.23.092 0 .277-.092.277-.092-.138 0-.37-.138-.555-.138zm2.036.092v.046h.046zm-.833-.092c-.046 0-.093.046-.093.046 0 .046.047.046.093.046s.046 0 .046-.046c0 0 0-.046-.046-.046zm10.36-.047c0 .093 0 .14.14.14s.231-.047.277-.232c0-.046 0-.046-.046-.139-.093.278-.139.231-.37.231zm-2.127 0c.046.047.139.047.093.093.046 0 .138-.046.185-.185l-.093-.139c-.139.046-.046.139-.185.231zm2.914-.555c-.092.047-.092.093-.092.185h.092v-.185zm-12.257 0v.093h.092v-.093h-.092zm-.972-.092c0-.046-.046-.046-.046-.046-.046 0-.046 0-.046.046h.092zm16.745-13.877c-.14.047-.278.093-.278.14l.278-.047v-.093zm.97-.97l.047.23.093-.185v-.046h-.14zm-17.067-3.47c0-.046 0-.046-.046-.046s-.093 0-.093.046h.14zm.416-.277c-.092.046-.138.092-.138.138l.046.047h.092v-.185zm.37 0c.093.092.047.138.093.092v-.092h-.093zm.463.092c0-.046 0-.046-.046-.046 0 0-.047 0-.047.046s.047.093.047.093c.046 0 .046-.047.046-.093zm-1.989-.648l.231.278c.047 0 .232-.046.37-.093.278 0 .602.093.694.093s.324-.046.324-.185c-.185-.139-.648-.185-1.527-.185zm-.648.093l.093.092c.046 0 .046 0 .092-.092l-.046-.046zm8.974-.416c-.093.046-.185 0-.185.231v.092c.185 0 .185-.277.185-.323zm17.609 15.125c0-.37-.046-2.267-.046-2.637 0-.046.046-1.017.046-1.48 0-.925-.046-5.319-.046-5.597 0-.555.046-2.035.046-2.359 0-.6.046-1.988-.416-1.988-.648 0-.694.046-.972.046h-1.942c-.047 0-.093.046-.14.046-.23 0-.323-.416-.462-.555 0-.648.139-.971.972-.971.647 0 1.48.046 2.312.046h5.782c.185.046.463.231.555.462l-.092 9.714.092.092c0 1.758-.139 1.85-.139 2.498 0 .185.047.324.14.37 0 0 0 .231-.093.509 0 5.088.786 5.69 3.052 5.69.093 0 .51-.093.602-.093.647-.324.647-.278.786-.37 0 .046 0 .046.046.046.232 0 1.62-.74 2.22-1.943-.046 0-.046 0-.046-.046 0-.463 1.064-1.758 1.064-2.914.046-.046 0-.416.324-1.388v-4.255c0-1.619-.139-3.145-.139-4.21 0 0 0-.184.046-.415v-1.573c0-1.11-1.249-.463-1.249-.971-.046.092-.092.23-.185.23-.786 0-.693-.045-1.017-.045-.463 0-.555.092-.879.092-.509 0-.925-.462-.925-.833 0-.6.879-.693 1.526-.693 1.11 0 1.434-.047 1.666.138h4.579a.35.35 0 01.185-.092c.231 0 .879.185 1.572.185.278 0 .463.092.463 1.758 0 .74-.139 10.407-.185 10.684v-.046s.092 5.088.092 5.458v-.046s.047 1.388 1.157 1.388c.37 0 .879-.093 1.341-.093.648 0 1.249.185 1.249.971 0 .324-.37.51-.74.51-.694 0-1.573-.14-2.313-.14-.139 0-1.387 0-1.711.14h-2.868c0 .092-.185.184-.185.184-.74 0-1.388-.046-1.388-.786 0-.046 0-.093.047-.185v-2.174c-.093-.139-.278-.509-.463-.509-.092 0-.139.046-.185.139 0 .092-1.064 1.665-1.064 1.619-.046.37-1.434 1.202-1.757 1.295h.046c0 .046-1.712.277-1.85.601h-3.516c-3.978 0-4.995-4.255-4.995-5.504zm14.2 5.273l-.046-.093zm-.093-.231c-.046 0-.092.046-.092.092s.046.046.092.046.047 0 .047-.046 0-.092-.047-.092zm5.643-.093l.093-.046zm2.36-.046c-.14 0-.047 0-.093.046h.185zm-2.452-.093a.1.1 0 00-.093.093s.047.046.093.046.046-.046.046-.046c0-.046 0-.093-.046-.093zm1.203 0c-.047 0-.047.047-.047.093 0 0 0 .046.047.046l.046-.046c0-.046-.046-.093-.046-.093zm-10.5-.462l-.139.185h.139v-.185zm-9.945-4.21c-.046 0-.092.047-.092.047a.1.1 0 00.092.092v-.138zm0-.462c-.046 0-.092.093-.092.185s.046.185.046.185c.046 0 .046-.324.046-.37zm.185-1.064c-.046 0-.092.047-.092.093s.046.092.092.092.046-.046.046-.092 0-.093-.046-.093zm.185-.092c-.046 0-.092 0-.092.046 0 0 .046.046.092.046l.046-.046c0-.046-.046-.046-.046-.046zm13.784-10.5s0 .093.046.093c0-.047 0-.093-.046-.093zm-.694-1.064a.1.1 0 00-.092.093s.046.046.092.046l.046-.046c0-.047-.046-.093-.046-.093zm-16.975-1.202c0 .138.092.092.185.092v-.185c0 .046-.046-.046-.185.093zm13.969-.093c-.047 0-.047.046-.047.093s0 .092.047.092.046-.046.046-.092 0-.093-.046-.093zm-14.34-.092v.046h.093zm22.018-.186c0 .047-.046.047-.046.093s.046.046.138.093v.046zm-3.608 0c-.046 0-.093.047-.093.093s.047.093.093.093c0 0 .046-.047.046-.093s-.046-.093-.046-.093zm-15.218-.185c-.046 0-.092.047-.092.093s.046.092.092.092c0 0 .047-.046.047-.092s-.047-.093-.047-.093zm15.033 0v.093h.092c0-.093 0-.093-.092-.093zm-4.718-.185c0 .14.046.14.093.185 0 0 .092 0 .185-.092 0 0 0-.093-.093-.185zm1.711.185l-.046-.092zm-14.847-.185l.046.093h.093zm15.588.093v.092-.138.046zm23.298 20.722c-1.018 0-1.943-.601-2.96-.694-.278 0-.74-.74-1.388-.74-.324 0-.786-.971-1.295-.971-.833-.88-.555-.555-.601-.694v.046c0-.046-.093-.185-1.203-1.295 0-.37-.509-.555-.971-1.711 0-.047.046-.047.046-.093 0-.185-1.11-1.989-1.11-4.58 0-1.664.508-2.543.508-3.838.324-.37.37-.509.37-.601 0-.047-.092-.047-.092-.14 0-.138.139-.462.879-1.433 0-.601.555-.509.74-1.064v.046c-.231-.601 2.868-2.497 3.191-2.96l.047.046c.046 0 1.156-1.156 6.938-1.156 1.573 0 2.636.925 3.006.971.093 0 .14 0 .232-.046-.047 0 1.711.833 1.85 1.434 0 .185.879.879.879 1.202 0 .14.37 1.25.37 1.712 0 1.48-.787 1.526-.787 2.174 0 0-.277.74-1.341.879 0 .138-1.295.138-1.295.23-.046 0-.046.047-.046.047-.093 0-1.25-.879-1.804-.879l.046.047c-.231 0-.925-1.203-.925-2.082 0-1.156.37-1.11.509-1.896 1.11-.602.37-.51.925-1.25-.046.047-.046.047-.093.047 0-.092.047-.185.047-.37 0-.324-.185-.647-1.018-.647.092 0-1.11-.37-1.203-.648-4.209 0-3.237.833-4.625 1.711-.648-.046-.971 6.337-.971 8.141 0 6.244.786 8.187 1.202 8.187.093 0 .046 0 .046-.046 0 0 .694 1.388 2.174 1.388 1.943 0 2.73-.047 3.377-.047 0 0 1.573-.185 2.359-1.295.601 0 2.081-1.85 2.081-2.636.88-1.99.787-2.082 1.527-2.082 0 0 0 .046.046.046 0 0 .093-.046.139-.046.185 0 .37.093.37.509 0 1.989-.74 1.758-1.018 2.822v-.047c-.092 0-.647 1.48-1.249 1.758-.37.37-.693.277-2.174 1.758-1.11.277-1.433.323-1.572.462h-.787c-.046 0 .047-.185-.092-.185-.046 0-.37 0-.37.046s.046.093.185.14c-.231.323-.416.415-.648.462v-.14h-.647l-.093.14-.138-.093.092-.046c-.37 0-.416 0-.463.046-.462 0-.37 0-.555-.046 0 0-.046 0-.092.046zm-.093-.37c.14 0 .278.092.324.046 0-.046-.046-.092-.046-.139-.185 0-.185 0-.278.093zm3.84-.139a.1.1 0 00-.093.093s.046.046.092.046l.047-.046c0-.047-.047-.093-.047-.093zm-3.192-.555v.278l.046-.185zm4.903-.092c-.231 0-.278.092-.278.23 0 .047-.046.186.047.186.046 0 .23-.185.23-.416zm-1.295-.185v.092s.231.093.324.093l.138-.047c0-.185-.185-.138-.462-.138zm-.648.092c-.046 0-.092.046-.092.046s.046.047.092.047v-.093zm2.082-.092a.665.665 0 00.138.092c.093 0 .232-.092.278-.185-.37 0-.416-.046-.416.093zm-.417-.093v.093-.14.047zm-.092-.139c-.046 0-.093 0-.093.047h.14c0-.047 0-.047-.047-.047zm.647-.462a.1.1 0 00-.092.092s.046.047.092.047.047-.047.047-.047c0-.046 0-.092-.047-.092zm1.25-.925c.138.092.23.092.323.092l-.139-.277c-.138 0-.185.046-.185.185zm1.017-1.064c0 .046.092.046.092.046zm-15.357-1.85a.1.1 0 00-.092.092h.139c0-.046 0-.092-.047-.092zm-.693-.602v.047l.092-.047h-.092zm17.669-.323c0 .092.046.277.092.277s.047-.046.047-.092-.047-.093-.14-.232v.047zm-.555 0v.185c.046-.047.092-.093.092-.185h-.092zm.277-.602v.093h.278v-.093h-.278zm-18.131-1.387a.1.1 0 00-.093.092s.046.046.093.046.046-.046.046-.046c0-.046 0-.092-.046-.092zm-.37-1.573v.046H152zm.23-1.758c-.046.047-.092.047-.092.047a.1.1 0 00.093.092s0-.046.046-.092zm0-.323h-.046c0 .046 0 .046.047.046 0 0 .046 0 .046-.046h-.046zm15.912-1.11c-.046 0-.046.046-.046.092 0 0 0 .046.046.046s.047-.046.047-.046c0-.046 0-.093-.047-.093zm-.647-.232a.1.1 0 00-.093.093s.046.046.093.046.046-.046.046-.046c0-.047 0-.093-.046-.093zm-2.683-1.989c-.046 0-.093 0-.093.046s.047.093.093.093.046-.046.046-.093 0-.046-.046-.046zm5.412-.092c-.185 0-.232.092-.278.231.139.046.278-.139.278-.231zm-5.412-.88a.1.1 0 00-.093.093s.047.047.093.047.046-.047.046-.047c0-.046 0-.092-.046-.092zm5.227-.74c-.232 0-.185.093-.185.186.138-.046.231-.139.185-.185zm-2.082-2.636c-.046 0-.092.047-.092.093s.046.092.092.092.047-.046.047-.092 0-.093-.047-.093zm-1.202-.092c-.047 0-.047.046-.047.046 0 .046 0 .046.047.046v-.092zm-8.789-.139l-.138.093h.37s-.185-.093-.232-.093zm8.927 0a.1.1 0 00-.092.093s.046.046.092.046.047-.046.047-.046c0-.047 0-.093-.047-.093zm-6.984-.648c.185.185.324.37.463.51 0-.325.23-.51.555-.51l-.14-.185c-.554 0-.693.14-.878.185zm6.43.278v.092c.046 0 .046 0 .046-.046 0 0 0-.046-.047-.046zm-3.1-.833c-.323 0-.277.278-.277.37h.37c0-.046-.046-.323-.093-.37zm9.931 20.306c0-.324.324-.37.463-.601h2.775c.046 0 .37-.185.462-.463v-17.623c0-.046-.092-.231-.092-.277 0-.093.092-.232.092-.232v-3.654c-.046-.046-.092-.23-.092-.23 0-.047.092-.417.092-.88 0-.092-.092-1.295-.092-3.561 0-.14 0-.324.092-.463v-2.313c-.092-.092-.092-.138-.092-.277 0-.278.092-.648.092-.971 0-.093-.092-.37-.092-.463l.092-.231c0-.185 0-.787-.416-.88h-3.284c-.185 0-.555-.277-.555-.832l-.046.093c0-.046.462-.971.601-.833h7.03c0 .047.14.232.232.232.416 0 .463-.093.463-.14 0-.092-.093-.184-.093-.184h-.277l1.433-.046c.51.046.74.23.74 1.295 0 .832-.184 3.515-.184 4.163 0 .092.092.462.092.555 0 1.063-.185 2.127-.185 3.607 0 4.302.185 8.65.185 13.46 0 .324 0 .324-.092.51.046.046.046.323.185.37 3.099-2.591 3.885-3.886 5.273-4.904 0 .047.046.093.046.093.092 0 .092-.972.925-.972 1.202-1.387 1.249-1.11 1.249-1.665-.139.324.324-.37-.88-.37-.092 0-.37.185-.508.185-.092 0-.231-.092-.324-.092-.277 0-1.572.046-1.619.046-.6 0-.693-.601-.693-.786 0-.694 5.041-.74 7.77-.74 1.712 0 3.516.092 3.516.601 0 .879-.925 1.018-1.573 1.018-1.156 0-1.11 0-1.573-.232-.693.185-1.11-.231-2.359.74-.925 1.434-1.572 1.25-1.757 1.573 0 .231-.51.74-.51.74s-.045-.092-.138-.092c-.139 0-.416.185-1.064 1.063 0 .093-.74.417-.879.74l-.185.14c0 1.063.185.554.602 1.387h-.093c0 .092 1.064.601 1.064 1.064 1.99 2.359 1.342 2.312 2.405 3.191.047.232.555.463.787.833.925 1.295 1.387 1.526 2.22 2.868 3.145 3.145 2.128 3.7 4.209 3.7.278 0 .463-.046.694-.046.509 0 .694.324.694.416-.093 0-.185 0-.232-.046l-.416.694.046.092c.463 0 .37-.601.694-.601 0 .832-.971.879-1.249.879-.138 0-.185 0-.323-.047h-1.25c-.138.047-.184.093-.323.093-.185 0-.324-.046-.37-.093h-1.388c-.139.047-.185.093-.462.093s-.972-.139-1.48-.139c-.463 0-1.203.046-1.85.046-.093 0-.324-.046-.37-.046 0 .046-.047.046-.093.046-.093 0-.278-.092-.555-.092-.185 0-.417.046-.694.231-.139 0-.74-.139-1.018-.185-.185.093-.37.093-.462.093-.602 0-.787-.37-.879-.555 0-.74.092-.324.648-.694h1.433c.14 0 .463-.185.463-.555 0-.278-.37-.463-.37-.833-2.128-2.128-.093-.694-2.544-3.145-.786-1.064-.046.37-3.192-4.117 0-.139-.693-.277-.786-.509-.416.417-.462 1.99-.462 3.192 0 5.828-.417 6.013 2.22 6.013.277 0 .462 0 .509-.092.37 0 1.017 0 1.017.647a.667.667 0 01-.694.648h-1.526c0 .185-.139.185-.278.185-.092 0-2.22-.185-3.931-.185-.463 0-2.405.092-2.822.092-.185.093-.324.093-.416.093-.416 0-.463-.093-.694-.093-.185 0-.416.093-.647.093h-1.527c-.509-.37-.555-.278-.555-.833zm1.665.37v.185h.139v-.046c0-.093-.139-.139-.139-.139zm.787 0c-.047 0-.093.046-.093.093s.046.092.093.092v-.185zm.647-.416c0 .231-.139.509-.37.509a.1.1 0 00.093.092c.138 0 .323-.37.462-.37 0-.277-.092-.231-.185-.231zm-2.081.277c0 .093.092.047.37.047-.093 0-.232-.14-.324-.14 0 0-.046.047-.046.093zm11.748-.37c0 .14-.185.278-.185.37l.047.047h.138v-.417zm-12.118-.092c-.37 0-.37.37-.37.509.046.046.092.046.138.046.093 0 .417-.278.417-.37s-.185-.185-.185-.185zm25.578-.139c-.046 0-.046.046-.046.046 0 .047 0 .047.046.047s.047 0 .047-.047c0 0 0-.046-.047-.046zm-2.59-.139c-.046 0-.046.047-.046.093 0 0 0 .046.046.046s.046-.046.046-.046c0-.046 0-.093-.046-.093zm.139 0c-.046 0-.093.047-.093.047 0 .046.047.046.093.046s.046 0 .046-.046c0 0 0-.047-.046-.047zm-19.797-8.094c-.046 0-.093.046-.093.046h.14s0-.046-.047-.046zm10.824-5.69c0 .047-.047.093-.047.093-.046 0-.046-.046-.046-.093s0-.046.046-.046c0 0 .047 0 .047.046zm-10.824-.462c-.046 0-.093.046-.093.092s.047.093.093.093.046-.046.046-.093 0-.092-.046-.092zm14.524-3.377c-.046 0-.093 0-.093.047 0 0 .047.046.093.046s.046-.046.046-.046c0-.047 0-.047-.046-.047zm3.006-1.526v.231c.047 0 .093 0 .093-.046zm-.555.092a.1.1 0 00-.092.093s.046.046.092.046.047-.046.047-.046c0-.046 0-.093-.047-.093zm-16.975-9.898a.1.1 0 00-.093.093h.14c0-.047 0-.093-.047-.093zm3.192-3.654l.185.139c0-.232.185-.278.185-.74 0-.14 0-.185-.093-.232-.046.047-.139.047-.185.14zm1.896.046v-.139.14zm-8.88-.277c0-.047-.047-.047-.047-.047-.046 0-.046 0-.046.047s0 .092.046.092c0 0 .046-.046.046-.092zm1.248-.093c-.046 0-.046.046-.046.093s0 .092.046.092.046-.046.046-.092 0-.093-.046-.093zm.231.093c0-.047-.046-.047-.046-.047v.14s.046-.047.046-.093zm-1.85-.555c-.046 0-.092.046-.092.092s.046.093.092.093.046-.047.046-.093 0-.092-.046-.092zm4.024-.278c-.046 0-.092.046-.092.093s.046.092.092.092c0 0 .046-.046.046-.092s-.046-.093-.046-.093zm-3.561-.139c-.37 0-.324 0-.324.232h-.046l.092-.093c.093 0 .37-.046.463.093 0-.232-.047-.232-.185-.232zm4.995.232c0-.047-.046-.047-.046-.047-.046 0-.046 0-.046.047s0 .092.046.092c0 0 .046-.046.046-.092zm2.73-.232c-.047 0-.093.047-.093.14 0 .045.046.092.092.092s.046-.047.046-.093c0-.092 0-.139-.046-.139zm.508-.231c0 .416.046.324.231.509l.231-.231c0-.232-.37-.14-.462-.278zm-6.614.278l-.185.092h.185v-.092zm3.469 0s-.047.046-.047.092.047.093.047.093c.046 0 .046-.047.046-.093s0-.092-.046-.092zm1.619-.047c-.047 0-.093 0-.093.047h.139c0-.047-.046-.047-.046-.047z" fill="#111"/><path d="M31.27 252.816c-.303 0-.471.067-.674.101-.303 0-.236 0-.27-.034l-.1.034c0 .101.033.101.1.135 0-.034-.1.067-.168.202h.034c0 .034-1.08.877-1.248.877-.775 0-.775-.91-.775-1.045 0-.068 0-.068.033-.169 0-3.776-.168-3.203-.168-5.462 0 0 .033-.034.033-.068 0-.1-.067-.27-.067-.438 0-.303.135-.506 1.011-.506.102 0 .237.101.54.641 0 .169.607.674.674.978-.033.033-.067.067-.067.1 0 .136.506.338.506.54 0 .034-.034.068-.034.068 0 .202.337.37.337.472.405.742.438.708.978 1.247.169 0 1.416 2.226 2.36 2.226 1.214.101 1.45.54 2.731.54.708 0 .607-.034.843-.17-.067.068-.033.068-.067.068 0 0 .236-.337 1.349-.337.505 0 1.483-.944 1.685-1.079.068-.067.405-.202.405-.27 0-.202.708-1.18.81-1.281-.034-.067-.034-.135-.034-.169 0-.505.539.27.539-2.866-.034-.1-.135-1.18-.37-1.382-.102 0-.102-.776-.911-1.315 0-.034.033-.202.033-.27-1.315-.067-.64-.742-1.517-.742-1.652 0-.337-.505-2.124-.505-.169-.169-1.652-.135-1.99-.338-.067 0-.303.068-.37.068-.405 0-.068-.337-.978-.337-3.068-.169-1.416-.742-2.462-.742v-.067c.102 0 .237-.034.338.067 0 0 .168-.067.168-.101 0 0-.067-.068-.067-.101H31.27c-.338-.304-.304-.506-.574-.574 0-.033-.37.034-.944-.741 0-.236-.742-1.113-.91-1.248-.304-1.585-.674-2.529-.674-3.743.067-.37 0-.843.134-1.079v.034c.034 0 .169-1.146.27-1.079a.073.073 0 01-.067-.067c0-.27.708-1.012.708-1.282-.034-.033-.034-.067-.034-.067 0-.236.54-.472.54-.573s.438-.81.64-.944c-.034.033-.034.067-.034.067-.033 0 1.653-1.113 1.686-1.146 2.057-.337.27-.91 2.563-.91h3.304c.068 0 .776 0 1.113.27 1.382.067 1.146.876 1.753.876 1.113 0 .81-.068 1.147-.405-.135-.168.91-.034 1.011-.472h.439c.067 0 .337.27.37.337.102 4.181.304 4.08.304 6.272 0 .168-.304.27-.438.54h-.472v-.136c-.102 0-.81-.472-.81-.842v.033c-.033 0-.27-.843-.64-.978h.033c0-.1-.438-.438-.438-.674-.506-.742-.438-.708-.843-1.113h.034c0-.033-.843-.54-.843-.775 0-.506-1.248-1.113-1.517-1.383.1-.202-.877-.472-1.855-.472-.034 0-.067.034-.101.034-.337 0-.202-.573-.304-.573-.067.067-.1.067-.134.135a1.517 1.517 0 01-.27-.068c-.202.742-.54.337-.64.54-.203-.101-.068-.203-.203-.236-.708.337-.506.303-2.057 1.079-1.011 1.99-.472-.472-1.585 2.562v1.484-.034c.034 0 .169 1.315.472 1.484.068.1.506.438.641.708.236 0 .54.876 1.517.876.405.439 1.99.338 3.608.742.472.135 2.934.135 3.507.81h-.034c0 .067.81.134.944.236 0-.068 1.619.944 1.619 1.146 0 .034 0 .034-.034.034.573 0 1.146 1.28 1.382 1.45.169 1.213.641.842.641 1.787.405 1.28.337 1.584.337 3.169-.101.101-.168 1.281-.337 1.349 0 1.72-.877 1.618-.877 2.36l-.438.405c0 .067-.034.202-.034.202-.674.607-.438.708-.741.843-.102 0-.27.506-.843.674-.641.978-.91.203-1.585 1.18-3.035 0 .067.742-3.305.742-3.843 0-2.495-.101-3.742-.404-.034 0-.034.033-.068.033-.202 0-.505-.27-.775-.27 0-.033-.506-.1-.506-.168 0 .034.034.034.034.034 0-.034-.472-.708-.843-.708a.48.48 0 00-.202.067zm6.407 1.214c-.034 0-.034.034-.034.067 0 0 0 .034.034.034s.034-.034.034-.034c0-.033 0-.067-.034-.067zm-2.529-.068c-.034 0-.034.034-.034.034 0 .034 0 .034.034.034s.034 0 .034-.034c0 0 0-.034-.034-.034zm3.203 0c-.033 0-.067.034-.067.068s.034.067.067.067.034-.033.034-.067 0-.068-.034-.068zm-.741-.067c-.034 0-.068.034-.068.067s.034.068.068.068.033-.034.033-.068 0-.067-.033-.067zm.741-.067c-.067 0-.1 0-.1.033l.033.034h.067v-.067zm-2.461 0c-.034 0-.034 0-.034.033 0 0 0 .034.034.034s.034-.034.034-.034c0-.033 0-.033-.034-.033zm2.461-.237v.17a.406.406 0 00.169-.17h-.169zm.91-.1c-.303 0-.303.1-.303.202.034 0 .101-.034.169-.068.034 0 .135.034.202.068l.135-.068s0-.135-.202-.135zm-4.012.033v.067h.135v-.067h-.135zm1.686 0c-.034 0-.034.034-.034.067 0 0 0 .034.034.034s.034-.034.034-.034c0-.033 0-.067-.034-.067zm.944 0a.073.073 0 00-.067.067s.034.034.067.034.034-.034.034-.034c0-.033 0-.067-.034-.067zm-3.102-.202c-.033 0-.067 0-.067.033h.1c0-.033 0-.033-.033-.033zm-1.045-.101c-.034 0-.067 0-.101.033zm-.101-.135c-.034 0-.068.033-.068.067s.034.068.068.068.034-.034.034-.068 0-.067-.034-.067zm.101-.034c-.034 0-.034.034-.034.067 0 0 0 .034.034.034s.034-.034.034-.034c0-.033 0-.067-.034-.067zm-4.822-.067a.073.073 0 00-.067.067s.034.034.067.034l.034-.034c0-.034-.034-.067-.034-.067zm4.72 0a.073.073 0 00-.067.067s.034.034.068.034.034-.034.034-.034c0-.034 0-.067-.034-.067zm-5.192-.102c-.033 0-.067.034-.067.034 0 .034.034.068.067.068 0 0 .034-.034.034-.068zm5.463.034h-.068c0 .034 0 .068.034.068 0 0 .034-.034.034-.068zm6.608-.034c-.033 0-.033.034-.033.034h.067c0 .034 0-.034-.034-.034zm-12.07-.573v-.135.135zm13.621-.067a.073.073 0 00-.067.067h.101c0-.034-.034-.067-.034-.067zm.472-.405v.068h.034zm-.1-.101a.073.073 0 00-.068.067s.033.034.067.034.034-.034.034-.034c0-.033 0-.067-.034-.067zm.201.034l.068-.034zm.203-.203l-.068.068c.034-.034.034-.068.068-.068zm-14.297-.033c-.033 0-.067 0-.067.033 0 0 .067 0 .067-.033zm-.1-.337v.202h.033c0-.034 0-.169-.034-.202zm15.442-.742c-.034 0-.034.033-.034.033s0 .034.034.034.034-.034.034-.034 0-.033-.034-.033zm-1.045-2.765l.067.034.068-.034h-.135zm-14.398-.54h-.067c0 .034 0 .068.034.068 0 0 .033-.034.033-.068zm16.792-.573v-.034c-.034 0-.034 0-.034.034s0 .068.034.068v-.068zm-14.162-5.698c-.033 0-.067.034-.067.067s.034.068.067.068.034-.034.034-.068 0-.067-.034-.067zm-1.382-1.45a.073.073 0 00-.068.067s.034.034.068.034l.034-.034c0-.033-.034-.067-.034-.067zm10.823-.337c-.033 0-.033.034-.033.067 0 0 0 .034.033.034s.034-.034.034-.034c0-.033 0-.067-.034-.067zm-11.228-.135v.067l.068-.067h-.068zm3.203-.303s-.033 0-.033.033h.067c0-.033-.034-.033-.034-.033zm3.338-.439c-.067 0-.236.068-.236.101s.034.034.034.034c.068 0 .135-.067.202-.135zm-7.181-.978c-.034 0-.068-.033-.068.169a.34.34 0 00.034.101c.034 0 .067-.067.067-.101 0-.067-.033-.135-.033-.169zm-.102-.337c-.033 0-.067.034-.067.068s.034.067.067.067v-.135zm14.432-5.934a.073.073 0 00-.068.067s.034.034.068.034.033-.034.033-.034c0-.033 0-.067-.033-.067zm.472 0c-.034 0-.034.034-.034.067 0 0 0 .034.034.034s.033-.034.033-.034c0-.033 0-.067-.033-.067zm.135 0a.073.073 0 00-.068.067s.034.034.068.034l.033-.034c0-.033-.033-.067-.033-.067zm-7.553-.742v-.37c.033-.035.1-.068.135-.102l.067.067c0 .102-.135.27-.135.472zm7.418-.135c-.034 0-.034.034-.034.068 0 0 0 .033.034.033s.033-.033.033-.033c0-.034 0-.068-.033-.068zm-11.06-.168c-.168.033-.168.168-.168.168.033-.034.168-.101.168-.135v-.033zm-.809-.169c0 .067.101.101.169.101-.034-.101-.169-.101-.203-.101h.034zm11.734.067c.034.034.067.034.101.034.135 0 .169-.101.169-.202zm-11.194-.27c-.102 0-.068.102-.068.203h.068v-.202zm6.676-.303c-.102.169-.068.304-.068.439.135-.034.169-.203.169-.371-.034-.034-.034-.068-.101-.068zm-6.676.135c-.034 0-.068 0-.068.034h.101c0-.034 0-.034-.033-.034zm10.857-.067c0-.034-.034-.034-.102-.034-.033 0-.067 0-.067.034s.034.067.067.067c.068 0 .102-.034.102-.067zm.135-.101c-.034 0-.068.033-.068.033h.068v-.033zm-3.339 0l-.033-.034zm-2.09-.034c0-.034-.034-.034-.034-.034s-.033 0-.033.034.033.034.033.034.034 0 .034-.034zm4.586 0c0-.034-.034-.034-.034-.034-.034 0-.034 0-.034.034s0 .034.034.034c0 0 .034 0 .034-.034zm.438-.068a.073.073 0 00-.068.068s.034.034.068.034.034-.034.034-.034c0-.034 0-.068-.034-.068zm.742-.067v.135l.067-.068zm-10.25-.27c0 .101.067.236.067.337l.067-.168s-.033-.135-.067-.236zm5.934.135c-.034 0-.068.034-.068.034s.034.033.068.033.034-.033.034-.033 0-.034-.034-.034zm3.675-.202c-.101.033-.135.135-.169.236.203 0 .17-.101.17-.236zm.64.202v.034h.068zm0-.202c-.033 0-.033.033-.033.033 0 .034 0 .034.034.034s.033 0 .033-.034c0 0 0-.033-.033-.033zm-7.046-.135c-.034.101.168.135.168.135.068-.101.405.033.371-.135h-.54zm2.124.067h-.068c0 .034 0 .068.034.068 0 0 .034-.034.034-.068zm-4.013-.135v.068h.135v-.068h-.135zm.641-.067c-.101 0-.236.101-.27.135h.27v-.135zm2.529.067v.068h.202zm30.095 25.289c-1.248 0-3.27.034-3.372.034-1.079 0-1.113-.068-1.113-.405 0-.607.708-.607.708-.776h.607l.135.068h1.383s.168-.135.168-.169c0-.64-.506-.607-.506-.978l-.404-.438v-.135c-.135-.067-.506-.404-.573-.506 0-.539-.675-.337-.675-.944-.573-.741-.472-.472-1.584-1.922 0-.236-.843-1.112-1.046-1.247 0-.101-.37-.978-1.011-1.315.033-.034.033-.068.033-.068 0-.27-1.787-2.326-2.056-2.46 0-.102-.675-1.046-.81-1.114l-.033.034c-.135 0-.27-.64-.506-.64-.101 0-.169 3-.169 3.304 0 .135.034.742.034 1.112v6.17c0 .102.068.776.068.911-.034 0-.034.034-.034.034 0 .135.337.472.438.472h1.45l.101-.034.169.034c.067 0 .135 0 .202-.034.91 0 .944.405.944.91-.067.068-.438.237-.843.237-.067 0-.067-.101-.37-.101-.81 0-1.62.067-2.53.067-.472 0-2.562-.067-4.551-.067l.067-.034h-.236l.034.034c-.236 0-.607.1-.843.1-.068 0-.169 0-.169-.067 0-.033.101-.067.169-.1 0 0-.068-.136-.068-.203-.202.236-.674.236-.876.236h.27a4.474 4.474 0 01-.709.101h-.067c.034-.067.135-.067.202-.101h-.404l-.102.101s-.54 0-.54-.135v-.607c.035 0 .507-.337.911-.37 0 .033.034.033.068.033.1 0 .303-.067.438-.067.202 0 .337.067.472.067.304 0 .371-.034.54-.034.1.034.303.101.404.101.304 0 .405-.472.506-.607 0-.134 0-.37-.034-.505 0-.034.034-.304.034-.371 0-.034-.034-.64-.034-.81 0-.134.034-.404.034-.707 0-.439-.067-1.754-.067-5.26 0-.304.033-.776.033-1.046 0-.54-.033-1.382-.033-2.056 0-.27.033-2.26.033-2.327 0-.135-.033-.438-.033-.54 0-.236.033-1.146.033-1.348v-7.35c0-.439-.337-.338-.37-.54-.405 0-.372.067-.574.067h-2.191c-.068-.033-.27-.135-.27-.236v-.404c0-.068.404-.405.607-.405h1.55c.17 0 .304.135.54.135.068 0 1.248-.034 1.754-.135.1 0 .438.067.539.067.135 0 .438.034.674.034.203 0 .405-.034.439-.101 0 0 .54.067.775.067.978 0 2.26-.168 3.406-.168.573 0 1.247.067 1.382.37 0 .743-.236.776-.607.776-.708 0-.742-.067-1.079-.067-.033.034-.1.034-.135.034-.202 0-.54-.068-.843-.068-.64 0-.708.64-.708 1.383 0 .337.034.842.034 1.753 0 .236-.101 1.888-.101 2.798 0 .304 0 .574.067.675a.362.362 0 01-.067.202c0 .405 0 .472.067.64 0 .203-.067 3.642.236 3.642.102-.1 1.518-1.382 1.518-1.652.775-.067-.371-.405 1.348-1.517 0-.607.91-.337.91-1.113 2.26-2.293.608-.81 1.855-2.057.742-.236-.708.338 1.518-1.584.134 0 .472-.877.977-1.18.371 0 .843-1.012 1.417-1.45v-.405c-.034-.034-.135-.067-.17-.101h-2.562c-.27 0-.607 0-.607-.337v.033-.033c0-.169.068-.843.81-.843.168 0 .573.1.54.1.201 0 .134 0 .235-.033l1.214.034.067-.101c.135 0 .338.1.675.1.034-.067 2.596-.1 3.034-.1.304 0 .641-.034 1.012-.034.708 0 1.416.101 1.45.64 0 .372-.068.675-.81.675-.471 0-.91-.101-1.483-.101l.101-.034c0-.067 0-.135-.101-.135-.034 0-.034.034-.101.135h-1.147c-.404.135-.404.438-.775.64 0 .54-.607.338-.91 1.147-.203 0-1.147 1.113-1.214 1.349.033 0 .033 0 .033.034 0 .1-1.213.708-1.213 1.247-2.63 2.63-2.36 2.226-2.462 2.563.034.135-1.214.876-1.214 1.416 0 .202.304.506.304.742.101.135.843.708.843 1.011 0 0 .573 1.012 1.45 1.888 0 .034-.034.034-.034.068 0 .202.64.472.843 1.045-.135.101.775.674.843.91 0 .034.202.338.202.338.202 0 1.753 2.191 1.855 2.259 0 .236 1.18 1.146 1.18 1.618 0 .101.64.573.708.776 0 .202.91.775.91 1.18.742.809.405.607.978 1.18.742.236.674 1.753 1.72 1.753h1.989c.303.27.472.337.54.776 0 .573-.506.64-.776.64 0 0-.506-.134-1.012-.134-2.292 0-2.866-.034-5.9-.034zm-11.498-.034l-.034.034.034.034c.034 0 .034-.034.034-.034s0-.034-.034-.034zm3.642.034h-.304c0 .034.068.034.135.034.101 0 .169 0 .169-.034zm14.06 0h-.101c0 .034.033.034.033.034.034 0 .068 0 .068-.034zm-24.985-.236c0 .135-.034.202.135.202.067 0 .135-.101.135-.236 0 0-.101-.27-.203-.337-.033 0-.067.202-.067.37zm15.173.135l.034.067.135-.067h-.169zm-.236-.068c-.034 0-.034.034-.034.068s0 .067.034.067.034-.034.034-.067 0-.068-.034-.068zm8.8-.1a.073.073 0 00-.067.066s.034.034.067.034.034-.034.034-.034c0-.033 0-.067-.034-.067zm-13.622-.102a.073.073 0 00-.067.067s.034.034.067.034.034-.034.034-.034c0-.033 0-.067-.034-.067zm-7.418-.101c-.033 0-.067 0-.067.033h.101c0-.033 0-.033-.034-.033zm7.823-.135l.101.135c0-.034.034-.068.034-.135h-.135zm-10.25 0v.067l.033-.067h-.033zm.404 0h-.1c0 .034.033.067.033.067a.073.073 0 00.067-.067zm.843 0h-.067c0 .034 0 .067.034.067 0 0 .033-.033.033-.067zm22.288-.101l.067.067c.101 0 .101-.034.135-.067h-.202zm1.247-.169c-.033 0-.067.034-.067.068s.034.067.067.067.034-.034.034-.067 0-.068-.034-.068zm-2.562-.37c0 .168.236.202.27.235 0-.236-.17-.236-.27-.236zm-6.002-1.518v.034l.034-.034h-.034zm-13.15-5.934l-.034.033c0 .034.034.034.034.034s.034 0 .034-.034zm10.756-3.035v.067h.101v-.067h-.101zm-.27-6.609l-.067.068h.337zm.607-.64l.034-.068zm.506-.405c-.034 0-.034.034-.034.068s0 .067.034.067.034-.034.034-.067 0-.068-.034-.068zm-.067-.607c-.034 0-.068.034-.068.068s.034.067.068.067v-.135zm1.112-.64c-.034 0-.034.033-.034.033 0 .034 0 .034.034.034s.034 0 .034-.034c0 0 0-.033-.034-.033zm.776-.742a.073.073 0 00-.068.067s.034.034.068.034l.033-.034c0-.034-.033-.067-.033-.067zm-.101-.068c-.034 0-.068.034-.068.068s.034.067.068.067.033-.034.033-.067 0-.068-.033-.068zm.876-.742c-.034 0-.067.034-.067.034h.1zm-.775-.168a.073.073 0 00-.068.067s.034.034.068.034l.033-.034c0-.033-.033-.067-.033-.067zm-16.455-2.124v.067h.102v-.067h-.102zm1.282-.405c-.068 0-.068.067-.135.135 0 .034.034.034.034.067 0 .102-.54.135-.54.27h.506c.101 0 .135-.202.135-.472zm19.994.405c.034.033.304.067.371.067.304 0 .405-.067.54-.067 0-.068-.068-.169-.135-.169-.169.101-.472.169-.776.169zm-11.261-.068v.068l.067-.068h-.067zm.741-.1c-.067-.035-.168.1-.168.168.202.033.168-.068.168-.169zm12.105-.17c0 .034-.168.203-.168.27v.068c.202-.101.168-.101.168-.338zm-23.299-.067c.068.101.068.169.068.304h.1c0-.338.27-.371.54-.371v-.135c-.27 0-.674-.034-.708.202zm20.905.236c-.034 0-.067.034-.067.034 0 .034.033.034.067.034s.034 0 .034-.034c0 0 0-.034-.034-.034zm-6.07-.37c0 .168-.033.336.102.471 0 0 .135-.472.101-.472h-.202zm5.733-.068c.236 0 .135.067.27.337.1 0 .1-.068.168-.135l.236-.135v-.067c-.135 0-.202 0-.27.067l-.134-.067.135-.068c-.203 0-.27 0-.405.068zm-19.354.067v.202h.034c0-.067 0-.168-.034-.202zm.775 0c0 .068 0 .101.068.135.202 0 .202-.135.202-.135h-.27zm1.383.135h.101v-.067c-.034 0-.067.033-.101.067zm.607-.135c0 .068 0 .101.067.135v-.135h-.067zm17.904-.067l.101.202.034-.067c0-.068 0-.135-.034-.203zm-19.152.067c-.033 0-.067.034-.067.068s.034.067.067.067c0 0 .034-.034.034-.067s-.034-.068-.034-.068zm6.98 0c0 .068.135.135.168.135.203-.034.27-.101.27-.135s0-.067-.034-.067c-.1 0-.303.067-.404.067zm-5.024 0c-.034 0-.068.034-.068.068s.034.067.068.067v-.135zm5.9 0l.068.068c.101 0 .169-.068.27-.135-.203 0-.203 0-.338.067zm.607 0c-.033 0-.067.034-.067.068s.034.067.067.067c0 0 .034-.034.034-.067s-.034-.068-.034-.068zm5.699 0c-.034 0-.068.034-.068.034 0 .034.034.034.068.034 0 0 .033 0 .033-.034zm5.867-.135c0 .135.067.203.1.203l.338-.203-.135-.033c-.202 0-.27.033-.303.033zm-5.429.135c0-.034-.034-.034-.034-.034-.033 0-.033 0-.033.034s0 .068.033.068c0 0 .034-.034.034-.068zm.472-.067c-.034 0-.067.033-.067.067s.033.068.067.068.034-.034.034-.068 0-.067-.034-.067zm-1.787 0c0-.034-.034-.034-.101-.034 0 0-.034 0-.034.034s.034.067.034.067c.067 0 .101-.034.101-.067zm3.17-.068c-.034 0-.068.034-.068.068s.034.067.068.067c0 0 .033-.034.033-.067s-.033-.068-.033-.068zm.539 0c-.034 0-.067.034-.067.068s.033.067.067.067c0 0 .034-.034.034-.067s-.034-.068-.034-.068zm.573 0l-.067.068h.135zm1.922 0v.068h.202c-.1-.068-.134-.068-.202-.068zm8.684 1.214c-.168 0-.27.101-.404.101-.473 0-1.046-.303-1.046-.505v.033c0-.033 0-.775.843-.775 0 0 1.416.067 1.686.067.776 0 3.507-.067 4.215-.067.27 0 2.495.067 2.765.067.337 0 .741-.034 1.079-.034.607 0 .91.102.91.641 0 .304-.202.337-.303.472-1.35 0-1.585-.067-2.057-.067-.068 0-.607.067-.607.067l-.101.101v.371c.135.169-.135.607.337 1.18-.034.068-.034.101-.034.169 0 .438.776.708.776 1.922-.034 0-.034.034-.034.034 0 .1.303.404.506 1.315.202 0-.135.236.472.977-.034.034-.034.034-.034.068 0 .135.337.472.337.775 0 .068 0 .135-.033.135 0 .068.539.708.539 1.484 0 1.011.91 1.618.91 2.529.135.91.641 1.18.641 1.753.337.067.101.573.472.91a.073.073 0 00-.067.068c0 .135.37.472.37.944-.033 0-.067 0-.067.034 0 .134.506.606.506.977.202.607.236.708.303 1.046.135-.034.607.337 1.113-2.057v.034c.034 0 .067-.978.438-1.214.135 0-.236-.27.574-1.855.438-.64.337-1.55.674-1.99 0 .035.169-1.146.472-1.382 0-.168.202-.944.573-1.854 0-.135.573-1.214.573-1.484.068-.033.068-.033.068-.067s-.068-.101-.068-.236c0-.169.068-.371.338-.776.27-.236.27-1.28.539-1.416.169-.809.303-1.011.337-1.146.101.067.068-.843.337-1.248-.1-.202-.303-.236-.472-.236-.337 0-.337 0-.438.068-.236-.101-.472-.101-.742-.101v-.034c-.472 0-.573.135-.876.135-.034-.034-.068-.068-.102-.068-.067 0-.168.034-.27.034-.134 0-.303-.067-.471-.37 0-.776.067-.304.64-.675h6.508c.168 0 .438.067.472.168h-.169a.86.86 0 00.068.169c.067 0 .1-.034.168-.068 0 1.012-.708.607-.809.81-.27 0-.944.033-1.045-.135h-.81s-.134.135-.202.27c0 0-.607.674-.607 1.382-.1-.034 0 .506-.438 1.146 0 0 .034.034.034.068 0 .135-.337.573-.337.843 0 .067 0 .101.033.135 0 .067-.27.741-.404.843.033 0 .067.033.067.1 0 .405-.877 2.058-.877 2.462-.033 0-.134.675-.303.81-.135.067 0 .775-.472 1.483 0 .405-.742 1.18-.742 2.225-.034 0-.236.641-.37.742-.068 0-.136-.034-.136-.034 0 .338.034.27.034.54 0 .067-.37.674-.37 1.281v-.034c-.237 0-1.417 3.81-1.383 3.844.067.101-.337.506-.337.978 0 .64-.405.068-.405 1.281 0 .034.034.068.034.102 0 .202-.371.337-.371.843-.135 1.72-.708.708-.708 1.888-.101.404.1 1.146-.877 1.922-.674 0-1.011-1.214-1.011-1.315-.102-.034.067-.439-.506-1.315 0-.034.033-.034.033-.068 0-.168-.337-.472-.337-.876 0-.506-.742-.877-.742-2.091 0-.37-.573-.877-.573-1.281-.067 0-.033-.607-.472-1.315l.034.033c0-.033-.405-.674-.472-1.28 0-.237-.573-.54-.573-1.518a.073.073 0 00.067-.068c0-.236-.607-.708-.607-1.45 0-.438-.708-.944-.708-1.584-.27-.54-.337-.978-.472-1.551.034 0 .034 0 .034-.034 0-.135-.843-2.158-.843-2.326v-.135c0 .033-.405-1.012-.506-1.046-.168 0 .101-.606-.54-1.416 0 0 .034-.033.034-.067 0-.236-.505-.776-.505-1.113 0-.573-.338-1.011-.439-1.517-.135.27.034-.405-.27-.776-.168-.775-.505-.573-.708-.809h-1.28zm11.363 24.412v.101c.067 0 .101 0 .135-.101h-.135zm-.708-.64l-.034.033h.068s0-.034-.034-.034zm1.214-.27c-.135 0-.135.235-.169.27.169-.035.169.033.169-.27zm-1.517-1.248c-.034.034-.034.067-.034.101.034 0 .034-.034.067-.067zm5.158-9.441l.101.067v-.236c-.067.068-.1.068-.1.169zm.101-.708c-.033 0-.067.034-.067.034 0 .033.034.033.067.033s.034 0 .034-.033c0 0 0-.034-.034-.034zm.17-.405c-.17 0-.17.27-.17.27l.203-.202zm-5.53.135a.073.073 0 00-.068.068s.034.033.067.033.034-.033.034-.033c0-.034 0-.068-.034-.068zm-4.89-2.664l.068.102.067-.034c-.067-.068-.101-.068-.135-.068zm12.172-2.124c-.033 0-.067.034-.067.034 0 .034.034.034.067.034 0 0 .034 0 .034-.034zm-13.25-.54a.073.073 0 00-.068.068s.034.034.067.034v-.101zm13.453-1.483c0-.034-.034-.034-.068-.034s-.033 0-.033.034 0 .068.033.068.068-.034.068-.068zm.708-.674v.033l.067-.033h-.067zm-15.578-2.023c.034 0 .101.1.101.168l.068-.067c0-.135 0-.371-.169-.371 0 .034-.168.135-.168.27l.067.067zm16.218-1.012v.034h.068zm-15.577-1.585c0 .102 0 .135.067.135.034 0 .068-.033.068-.033 0-.034-.068-.102-.135-.169v.067zm-4.62-.202c.034.034.102.135.169.202l.067-.067h-.033s.033 0 .033-.034c0-.067-.033-.1-.236-.1zm18.174.135c-.033 0-.033.034-.033.034 0 .033 0 .033.033.033s.034 0 .034-.033c0 0 0-.034-.034-.034zm-.843-.067c-.033 0-.067.033-.067.067s.034.067.067.067c0 0 .034-.033.034-.067s-.034-.067-.034-.067zm.708 0v.067l.034.034c.034 0 .034-.034.068-.101h-.102zm5.564 0l-.034.033c0 .034.034.034.034.034.034 0 .034 0 .034-.034 0 0 0-.033-.034-.033zm-1.08 0s-.033-.034-.066-.034l-.034.034c0 .033.034.067.034.067a.073.073 0 00.067-.067zm-17.97-.068c-.034 0-.068 0-.068.034 0 0 .034.034.067.034s.034-.034.034-.034c0-.034 0-.034-.034-.034zm-.978-.135c-.034.034-.068.068-.068.101l.034.034c.034 0 .101-.034.168-.067zm-1.821 0l.033.068c.068 0 .102.033.135-.068l-.135-.067zm1.45 0c-.034 0-.034.034-.034.068s0 .067.034.067.033-.034.033-.067 0-.068-.033-.068zm3.81 0l.067.068v-.068h-.067zm2.765.068c0-.034-.034-.034-.068-.034s-.067 0-.067.034.033.067.067.067.068-.034.068-.067zm1.079-.169c-.034.135.067.202.1.169 0-.101.034-.169-.1-.169zm10.047-.101c-.168 0-.168.169-.168.27h.54c-.135 0-.237-.203-.372-.27zm1.754-.068c0 .034-.034.135-.034.237 0 .067.034.1.068.1l.1-.134v.034c0-.034-.067-.237-.134-.237zm-21.68.27c0-.033-.034-.033-.068-.033 0 0-.034 0-.034.033s.034.068.034.068a.073.073 0 00.067-.068zm9.508-.168c-.068.067-.068.1-.068.168.068-.033.068-.1.068-.168zm12.509-.034s0 .101.067.101c.169-.034.135-.135.135-.27-.168.034-.202 0-.202.169zm-6.002-.068c-.067.068-.067.135-.067.135 0-.033.067 0 .067-.135zm10.202 24.277c.168-.472.27-.573.64-.573 1.113 0 1.349.101 2.158.101.304 0 .438-.27.573-.438l-.067-5.193c0-.067.067-.168.067-.236 0 .034-.067-.472-.067-.607 0-.033-.034-.674.067-.977 0-.034-.067-.135-.067-.203v-2.394c.067-.067.067-.168.067-.236 0-.202-.067-.303-.067-.472 0 0-.101-8.092-.101-10.722l.067-.135v-1.585c-.236-.337-1.011-.1-1.113-.27l-.202.068v.034c-.067 0-.27-.101-.64-.101-.068 0-.405.067-.473.135-.539 0-.91.1-.91-.607 0-.27.169-.641 1.281-.641.135 0 .439.067.641.067.135 0 1.888-.067 1.922-.067.236 0 .64.101.775.101.135.034 1.889-.135 2.698-.135.101 0 .067.304.303.304 0 0 .034 0 .034-.034s-.034-.101-.034-.169c.371 0 .742-.1 1.282-.202.033.034.168.068.134.101.034 0 .102-.067.102-.135.033 0 .202.034.27.102.168-.034.606-.135.64-.135 1.315 0 1.382.607 1.382.944 0 .168-.236.506-.404.506-.675 0-1.956-.169-2.26-.169-.269 0-.404.438-.438.64l.034 11.296c0 .169-.034.64-.034.708 0 .034.034-.034.034.506 0 1.18-.034 1.652-.034 2.293 0 .91.034.809.034 1.045v3.911c0 .169-.101 2.833.405 2.934.067 0 1.281.033 1.854-.034l.068-.067h.607c.37.168.438.505.438.64 0 .169-.27.573-.371.573-1.585 0-4.012.102-4.35.102 0 0-1.011-.068-1.517-.068-1.483 0-3.372.101-4.45.101-.877 0-.978-.27-.978-.607zm.708.405c0-.034-.034-.034-.068-.034s-.067 0-.067.034.033.067.067.067.068-.033.068-.067zm.202-.068c.135 0 .202.068.337.068.068 0 .169 0 .27-.068-.236 0-.304-.236-.405-.27-.033 0-.202 0-.202.203v.067zm.674 0c-.033 0-.067.034-.067.068s.034.067.067.067c0 0 .034-.033.034-.067s-.034-.068-.034-.068zm.843-.067l.068.067c.168 0 .202 0 .27-.067l-.068-.034c-.303 0-.202 0-.27.034zm7.25-.27c-.203.068-.169.135-.169.337.169-.067.135-.168.202-.337h-.033zm1.146 0c-.236 0-.236.236-.27.337h.405c0-.236-.068-.337-.135-.337zm-2.529.236l-.101.034c0 .034 0 .034.034.034zm.405.034l-.068-.034zm2.529-.337v.202c.1.034.168-.135.168-.202h-.168zm-10.723-.202c-.236 0-.236.236-.236.337.135-.101.337-.068.371-.135 0-.034.034-.202-.135-.202zm2.53.236l.067.1v-.1h-.068zm-1.99-.169v.067l.067-.067h-.067zm9.44-.067c0 .033-.033.033-.033.067s.034.034.101.067l.068-.067-.068-.135a.073.073 0 00-.067.068zm.54.067c.034.067.101.067.169.067 0-.033-.034-.1-.034-.168zm-7.283-.438c-.033.033-.033.033-.033.067s.1.034.168.034v-.101h-.135zm3.979-21.748c-.034 0-.068 0-.068.033h.102c0-.033 0-.033-.034-.033zm1.72-1.821c-.034 0-.068.034-.068.067s.034.068.068.068.033-.034.033-.068 0-.067-.033-.067zm-9.273-.304a.073.073 0 00-.067.068s.033.034.067.034.034-.034.034-.034c0-.034 0-.068-.034-.068zm1.922-.168a.073.073 0 00-.067.067s.033.034.067.034v-.101zm.472 0c0 .034-.034.034-.034.034 0 .033.034.033.102.067v-.101h-.068zm-2.124-.034c-.135 0-.101.034-.101.101.067 0 .135 0 .168-.067zm14.652 24.951v-.168c.067-.068-.034-.64.708-.64.573 0 .674.033.978.033.674 0 1.18-.034 1.281-.202v-2.866c0-.068-.034-.304-.034-.338l-.033.034c-.068-.067.067.304.067-.91 0-2.53-.034-3.473-.034-4.316 0-.54 0-1.585.068-2.462 0-.067-.135-.505-.135-1.348 0-.405.101-.405.101-.607 0-.54-.034-1.045-.034-1.45 0-.708.034-1.248.034-2.023 0-.202.506-.169.607-.27 0 0 0-.169-.303-.169 0 0-.102 0-.203.135-.033 0-.067-.033-.1-.135v-5.698c0-.438-.102-.708-.54-.708-.641 0-.776.101-1.922.101-.91 0-.371-.135-.877-.438 0-.81 2.529-.573 3.237-.674h-.101c0 .033 1.955.134 1.955.134.068 0 .135.034.203.034.404 0 .573-.168.876-.168.135 0 .27.033.439.033.1 0 .37-.033.54-.033.404 0 1.618.033 1.989.033.27 0 .472-.1 1.011-.1.169 0 3.102.067 3.473.067.674 0 1.787.337 2.697.337 1.282.135.506.303 1.788.607-.034 0-.068-.034-.068-.034 0 .034.944.54.944.64.405.102 1.012.945 1.315 1.214l-.034-.033s.91 1.281.91 2.427c0 1.248 0 1.315-.269 2.158 0 .574-.775 1.585-2.124 2.731-.169-.067-.371.574-.978.574.101-.337-.169.438-1.113.505-.033-.033-.067-.033-.067-.033-.169 0-.405.303-.54.303-1.28.337-1.854.203-1.854.708 0 0-.067.27.202.27.371-.067.978.54 1.18.54.708 0 .843.64 1.417.64.606.27.842.472 1.584 1.248.742 2.191 1.315 1.011 1.315 2.663 0 .91.304 1.551.304 2.462 0 .135-.068.708-.068 1.888.068.438.101 1.315.236 1.45v-.068c0 .034-.1 1.113 1.08 1.113.809 0 1.18-.101 1.415-.101 0 0 .034.034.068.034.067 0 .236-.068.37-.068s.27.034.338.169h-.236c0 .168.101.168.101.236.068-.034.101-.101.135-.101h.034v.438c-.101 0-.101-.101-.101-.236-.068.034-.102.034-.27.101 0 .068.033.135.27.236-.135.068-.17.236-.338.236v-.034s-.168.338-1.18.338c-.37 0-2.663-.135-3.27-.169 0 .034 0 .034-.034.034-.27 0-.91-.675-1.45-.675h.034c0-.134-1.518-.843-1.551-1.483l.033.034c0-.034-.337-.338-.337-.439 0-.067.034-.27.034-.472 0-.101-.101-.101-.27-.168-.236-5.496-.742-7.014-1.247-7.755-.101.37.135-.405-.641-.776 0-.236-1.045-.607-1.012-.742-.067 0-.134.034-.168.034-.708 0-.674-.674-1.82-.674h-1.822c-.37.775-.37 1.753-.37 2.225 0 .101 0 .877.067.944 0 .034-.034.135-.101.472 0 .101.067.506.067.776v-.034c0 .202-.034.944-.034 1.18 0 .438.034.54.034.843v3.911c0 .068.068.27.068.337 0 .102-.068.304-.068.439 0 .438.068.505.068.674-.034.034-.068.034-.068.068 0 .1.472.168 1.383.168.033 0 .708-.067.741-.067.945 0 .945.067 1.147.337 0 .607-.135.708-.236.708-.034 0-.068-.034-.135-.169-.169 0-.202 0-.202.034.27.304-3.271.304-3.642.304h.068s-1.147-.034-1.585-.135c-1.349.135-3.675 0-4.62.337-.404 0-.775 0-.775-.54zm20.804.203c-.034 0-.068.033-.068.067s.034.068.068.068c0 0 .034-.034.034-.068s-.034-.067-.034-.067zm.91-.304c-.236 0-.168.135-.27.304 0 0 .034.033.068.033.101 0 .202-.168.202-.337zm-19.96.202c-.068 0-.17 0-.237.034.068 0 .169 0 .236-.034zm.067 0v.034h.067zm1.214.034l-.034-.034c-.034 0-.034.034-.034.034 0 .034 0 .068.034.068 0 0 .034-.034.034-.068zm.64-.067c-.034.033-.067.033-.067.067.033 0 .1 0 .135-.034zm5.226-.068v.101h.203c-.068-.067-.101-.1-.203-.1zm1.315.068c-.033 0-.067.033-.067.033s.034.034.067.034.034-.034.034-.034 0-.033-.034-.033zm11.633-.27c-.034.101.135.27.135.303.169 0 .169 0 .27-.033-.101-.304 0-.371-.27-.506-.101.067-.135.034-.135.236zm-13.42.202l-.067.068h.067v-.068zm2.26-.607c0 .304.202.304.202.54h.067v-.371c-.033-.067-.1-.135-.27-.169zm-10.116.068v.101c0-.034.034.303.236.303.034 0 .101-.067.169-.134-.034.033-.27-.27-.371-.27h-.034zm.573.337c0-.034-.033-.034-.033-.034-.034 0-.034 0-.034.034 0 0 0 .034.034.034zm7.35-.067c-.033 0-.033.033-.033.033 0 .034 0 .034.034.034s.034 0 .034-.034c0 0 0-.033-.034-.033zm1.046-.102v.169c.068-.034.135-.067.169-.135-.068-.034-.101-.034-.169-.034zm-8.969-.404c-.034 0-.034.034-.034.067s0 .068.034.068.034-.034.034-.068 0-.067-.034-.067zm15.544-.877c.034.068.067.169.067.169.034 0 .034 0 .034-.034v-.135h-.1zm-9.407-.91l.135.067c.067-.033.067-.1.067-.168-.101 0-.135.033-.202.1zm7.99-1.349c.035 0 .035.034.035.068 0 0 0 .033-.034.033s-.034-.033-.034-.033c0-.034 0-.068.034-.068zm.406-.034c.033.034.067.034.134.034-.067-.034-.1-.034-.134-.034zm-11.7-3.506c-.034 0-.068.033-.068.067s.034.068.067.068.034-.034.034-.068 0-.067-.034-.067zm-.27-.877c-.034 0-.068.034-.068.067s.034.068.068.068.033-.034.033-.068 0-.067-.033-.067zm11.261-4.046c-.033 0-.067.034-.067.034 0 .033.034.067.067.067 0 0 .034-.034.034-.067zm-8.058-.573v.135l.034.033c.1 0 .236-.135.236-.168h-.27zm.067-.337c0 .033-.033.033-.033.033 0 .034.033.034.134.034 0 0 .034 0 .102-.034-.034-.1 0-.135-.102-.27-.033 0-.134.203-.1.237zm1.416-2.9v1.72c0 .573.338.674.641.842 5.361-.135 5.361-.876 5.867-1.382-.034 0-.034-.034-.034-.034 0-.168.506-.506.506-.742h-.034c0-.134.708-1.247.708-2.697 0-3.44-.944-4.08-1.079-4.788 0-.034-1.011-.91-2.191-.91-.742 0-.91.067-1.18.067h-2.53c-.707 0-.438.337-.64.708v2.664l.068.168c0 1.315-.135 2.53-.135 3.71 0 .067 0 .168.1.27 0 .067-.067.168-.067.404zm-4.417-.742c-.033 0-.067.034-.067.034h.101s0-.034-.034-.034zm-.1-.169c-.034 0-.034.034-.034.068 0 0 0 .034.033.034l.034-.034c0-.034-.034-.068-.034-.068zm.1-.168a.073.073 0 00-.067.067s.034.034.067.034.034-.034.034-.034c0-.033 0-.067-.034-.067zm-.27-1.956v.169h.068c0-.068 0-.135-.067-.169zm15.207-3.911c.034.067.135.067.169.067v-.202c-.101 0-.169 0-.169.135zm-2.562-1.146c-.034 0-.068.033-.068.067s.034.034.068.034.034 0 .034-.034 0-.067-.034-.067zm-13.96-.237a.428.428 0 00.203.034l-.135-.1zm3.271 0v-.033c-.033 0-.033 0-.033.033s0 .034.033.034v-.034zm7.89-.067l.135.067c.169 0 .169-.067.169-.236 0-.033-.034-.033-.169-.033-.067 0-.135 0-.135.202zm-3.439-.202c0 .067-.034.202.068.202.033-.034.067-.135.1-.202h-.168zm4.72.135c-.033 0-.067.033-.067.033 0 .034.034.034.068.034s.033 0 .033-.034c0 0 0-.033-.033-.033zm-11.936-.135v.067c0-.034.102.068.17-.067h-.17zm8.7 0c-.068 0-.101.033-.135.067h.135v-.067zm-11.026 0h.843-.843zm27.161 25.22c-.37 0-.37.034-.607.034-.067 0-.37-.27-.472-.37 0 0 .068-.506.068-.607 1.214-.102 2.09-.135 3.034-.236.102 0 0-.641.371-.641v-.54a.104.104 0 00.068.034c.202 0 .168-.944.438-1.011 0-.068.135-1.214.472-1.484l.169-.64s1.146-3.912 1.584-3.912c.034 0 .102.034.135.034.169 0 .203-.068.203-.135 0-.303-.27-.169-.27-.405 0-.607.607-1.753.674-1.82.034-1.383.54-1.046.54-1.922v.033c.033 0 .303-.843.438-.944 0 .068.034.068.034.068s-.034 0-.034-.034c0-.202.674-1.585.674-1.956.169 0 .203-.033.203-.1s-.034-.136-.034-.237c0-.202.067-.404.303-.674v.034c.068 0 .034-.742.304-.742l.135-.64.202-.17v-.539l.27-.202v-.573s.202-.068.202-.135c-.034 0-.067-.068-.067-.101 0-.439.843-1.72.843-2.597l.168-.135v-.54c0 .035.034.035.034.035.472 0-.169-1.956 1.585-1.956.135 0 .741.37.741.877.135.135-.134.472.473 1.584.033 0 .842 2.192.842 2.765.304 0 .102.675.877 2.293.202.91.573.877.573 1.281v-.033s.169 1.079.304 1.079h-.034c0 .134.81 1.011.81 2.056.202.978.539.574.539 1.417l-.034-.034c0 .067.54.775.54 1.214-.034 0-.068 0-.068.033 0 .135.371.607.371.776 0 .034-.034.034-.034.067 0 .068.337.337.337.944.135 1.18.709 1.248.709 1.99-.034.067-.068.1-.068.135 0 .168.54.168.54.944 0 1.922 1.315 2.36 1.315 3.709.134 1.079.775 1.45.876 1.517h2.192c.135 0 .337.101.438.169v.606c-.135.068-.236.203-.775.203-.068 0-1.686-.068-2.36-.068-.304 0-.574.068-.843.068-.034 0-.574-.068-.641-.068-1.82 0-2.967.102-3.675.102-.034 0-.034-.102-.574-.102-.27 0-.337 0-.472.068-.168 0-.303-.068-.37-.169-.068 0-.203.034-.203.034l.068.067-.068.068c-1.112 0-1.214 0-1.45-.203l.068-.573c0-.067.236-.202.37-.202h2.53c.033.034.27-.169.27-.337 0-.068-.54-.776-.54-1.18.067-.034.067-.034.067-.101 0-.17-.573-.607-.573-1.484.034 0 .034 0 .034-.034 0-.067-.371-.337-.371-.607 0-1.214-.54-1.214-.54-2.124v.034c-.067 0-.37-.843-.674-.843-2.26 0-4.653.067-7.384.067 0 .135-.27.203-.27.573-.506 1.113-.573.945-.573 1.484-.405.27.034.472-.438 1.045-.27 1.855-.641.81-.641 2.057v-.034c-.068 0-.371.877-.405.877 0 .54.135.54.337.674h2.698c.168 0 .506.034.506.439s-.102.607-.708.607c-.102 0-.236-.068-.405-.068-.371 0-.506.068-.674.068-.068 0-.236-.068-.27-.068h-2.394c-.068.068-.135.068-.202.068a.718.718 0 01-.405-.135s.067-.068.067-.135h-.1c-.068 0-.102 0-.102.067l.034.068c-.034.135-.068.135-.27.135 0-.439 0-.338.101-.472-.034-.135.034-.304-.067-.371 0 .236-.101.404-.304.54 0 .067.101.134.169.168-.135 0-.506.168-.573.27-.607 0-.54-.135-.91-.135zm-.27-.27v.068h.17c-.102-.067-.136-.067-.17-.067zm.574.068c0-.033-.034-.033-.068-.033s-.067 0-.067.033.034.068.067.068.068-.034.068-.068zm.202-.067c-.034 0-.067.034-.067.067s.033.068.067.068.034-.034.034-.068 0-.067-.034-.067zm.742-.068c-.202 0-.472.068-.54.135.574 0 .405-.033.54-.135zm1.113.034c0 .034.27.068.303.101l.067-.067c-.168-.034-.337-.034-.37-.034zm2.495.034c.438 0 1.112.067 1.281.067-.37 0-.37-.37-.405-.54.034 0-.27.068-.27.27-.067 0-.033-.202-.303-.202 0 .236-.135.304-.303.405zm1.55 0l.068.067c.034 0 .236-.067.304-.067h-.371zm-4.652-.034a.073.073 0 00-.068.068s.034.033.068.033.033-.033.033-.033c0-.034 0-.068-.033-.068zm2.663.034s-.067-.034-.1-.034c-.068 0-.068.034-.068.034 0 .034 0 .067.067.067.034 0 .101-.033.101-.067zm8.295-.068c.034.034.135.068.169.068s.202-.034.27-.068v-.404s-.068-.034-.102-.034c-.303 0-.337.068-.337.202v.236zm9.137.034c.102 0 .135.034.304.034.034 0 .202-.034.303-.034h-.607zm1.619 0v.034l.034-.034h-.034zm-9.812-.034l-.067.034.1.034zm2.529 0c-.034 0-.068.034-.068.034s.034.034.068.034.034-.034.034-.034 0-.034-.034-.034zm4.62 0c.033.034.067.034.168.034h.64a.737.737 0 00-.168-.1c-.068.066-.169.066-.202.066-.304 0-.236-.236-.304-.236zm-21.614-.236c0 .203 0 .17.068.236h.438v-.573c-.472.236-.506.135-.506.337zm7.115.068v.168c.067 0 .1-.067.1-.067-.033-.202-.134-.202-.134-.37-.135 0-.202.067-.202.1.033.068.067.169.236.169zm16.488.101c-.034 0-.034.034-.034.067s0 .034.034.034.033 0 .033-.034 0-.067-.033-.067zm-22.693-.37c0 .269-.033.336-.1.37.202 0 .37 0 .37-.202s-.034-.169-.27-.169zm3.575.303v.067h.067zm.606-.135l.068.033v-.1zm2.192-.236c0 .033 0 .1.034.1 0 0 .135 0 .135-.1 0-.068-.068-.068-.135-.101-.034.033-.034.067-.034.1zm15.41.067c0 .034.067.034.1.034 0-.169 0-.169-.067-.202 0 0-.034.1-.034.168zm1.483-.236c-.169.034-.135.101-.135.27l.27-.169c0-.033-.102-.067-.135-.1zm-2.563.101c-.034 0-.067.034-.067.034 0 .034.033.034.067.034s.034 0 .034-.034c0 0 0-.034-.034-.034zm-18.51-.1v.1l.067-.1h-.068zm.1-.507c0 .034.034.506.337.506-.067-.034-.168-.337-.168-.506l.067-.202-.067-.067c-.135 0-.169.202-.169.27zm1.248-1.584c-.101.067-.236.27-.236.54a.104.104 0 00.067.033c.135 0 .169-.202.203-.304 0-.033-.034-.303-.034-.27zm-.169-.877c0-.034-.033-.034-.033-.034-.034 0-.034 0-.034.034s0 .034.034.034c0 0 .033 0 .033-.034zm.944-2.428c-.033 0-.067.034-.067.034s.034.034.067.034l.034-.034zm9.576-.472c-.034 0-.034.034-.034.068s0 .067.034.067.034-.034.034-.067 0-.068-.034-.068zm-9.272-.27c-.034 0-.034.034-.034.068s0 .067.034.067.034-.033.034-.067 0-.068-.034-.068zm0-.708c-.034 0-.034.034-.034.034 0 .034 0 .034.034.034s.034 0 .034-.034c0 0 0-.034-.034-.034zm1.55-1.382c.102.405.136.438.372.573.404 0 1.517-.067 4.585-.067.27 0 .405.1 1.08.1.336 0 .674-.1.674-.471 0-.169-.439-.81-.439-1.147h.034c0-.067-.37-.37-.37-.741 0-1.248-.641-1.113-.641-1.889a.104.104 0 01.033.068c-.033 0-.64-1.113-.64-1.753 0-.439-.607-1.08-.607-1.821h.033c0-.068-.37-.405-.37-.81-.304-.707-.338-.64-.607-.64-.978 2.326-.91 2.36-1.214 2.933 0-.067-.034 1.08-.472 1.248v-.067c-.034 0-.371 1.921-.708 2.225 0 .438-.742 1.011-.742 2.259zm-.674-.944c-.033 0-.067.034-.067.067s.034.068.067.068.034-.034.034-.068 0-.067-.034-.067zm.776-2.225a.073.073 0 00-.067.067s.033.034.067.034v-.101zm1.416-1.99v.034h.034zm-.135-.54a.073.073 0 00-.067.068h.101c0-.034 0-.067-.034-.067zm.135-.876c-.034 0-.067.034-.067.034 0 .033.033.067.067.067 0 0 .034-.034.034-.067zm.91-2.293c0-.034-.033-.034-.033-.034-.034 0-.034 0-.034.034s0 .068.034.068c0 0 .034-.034.034-.068zm.102-.1h-.034c0 .033.034.033.034.033s.033 0 .033-.034h-.033zm3.675-2.361c-.034 0-.034.034-.034.067s0 .068.034.068.034-.034.034-.068 0-.067-.034-.067zm-.64-4.687s-.034.034-.034.067h.067c0-.033 0-.067-.034-.067zm-.877-.067c-.034 0-.034.033-.034.067s0 .067.034.067.033-.033.033-.067 0-.067-.033-.067zm.27 0l.134.067c.27 0 .169 0 .27-.067l-.101-.135c-.135 0-.203.135-.304.135z" fill="#0f81c7"/></svg>