<svg width="318" height="68" fill="none" xmlns="http://www.w3.org/2000/svg"><path d="M19.077 15.138l-.034.733a.658.658 0 01-.036.22.745.745 0 01-.255.276 1.92 1.92 0 00-.7 1.028c-.095.413.019.885.346 1.153.117.09.247.161.386.212.468.186 1.005.259 1.47.067.466-.19.823-.695.73-1.192a1.858 1.858 0 00-.056-.204l-.142-.456a.414.414 0 00-.187-.28c-.138-.06-.3.062-.344.208a.91.91 0 00.028.45.69.69 0 010 .442.462.462 0 01-.198.203.607.607 0 01-.894-.43.615.615 0 01.053-.378c.11-.233.362-.371.498-.594.091-.168.14-.356.145-.547.02-.26.01-.537-.134-.752a.57.57 0 00-.253-.206v-.508l.257.013L42.964 5.69l-.282 12.984 2.338-.465 1.95-.375V.356L45.016 0 17.688 12.663v1.835l1.389.07v.57zm26.115 4.197l-4.227 1.016c-.661.163-1.119 5.826-.842 5.835l3.264.248c2.814.31 2.339 2.448 3.352 2.496h.502a.76.76 0 00.77-.605c.486-2.87.11-5.691-1.45-8.45-.256-.453-.83-.677-1.37-.54zm6.368 19.971l4.176-.222a.76.76 0 00.685-.54c.03-.098.04-.203.03-.306l-.11-1.12a.766.766 0 00-.755-.69h-4.063a.757.757 0 00-.702.475.767.767 0 00-.056.293v1.345a.768.768 0 00.494.717.76.76 0 00.302.047zm16.386-.899c.11-.014.202-.332.207-.697l.015-.934c0-.332-.064-.58-.159-.585l-.99-.04c-.103 0-.2.28-.215.633l-.051 1.12c-.016.366.07.56.177.545l1.016-.042zm1.062-16.57c-1.033-1.08-3.597-1.76-6.724-1.791a1.529 1.529 0 00-.488-.222c-3.928-1.013-7.682-1.532-11.356-1.822a4.59 4.59 0 011.487.996c.574.59.88 1.307.867 2.018a.54.54 0 01-.01.084.934.934 0 01.474.792v2.943c0 .532-.491.964-1.101.964s-1.101-.432-1.101-.964v-2.947a.968.968 0 01.63-.871v-.029c.01-.416-.182-.838-.55-1.217-.738-.756-2.012-1.193-3.5-1.2a61.922 61.922 0 004.426 9.783c.377.6 1.112 1.006 1.953 1.078 5.574.47 9.247.7 12.751.46.36-.025.621-.284.564-.566-1.22-2.955-2.264-5.696-4.287-8.371 2.985.134 4.727.865 5.334 1.5.035.035.068.072.098.112a.959.959 0 00-.135.502v2.38c0 .43.256.775.572.775.316 0 .572-.349.572-.775v-2.376a.393.393 0 00.016-.096c.006-.273-.07-.697-.492-1.14zM66.254 35.63c.012-.207-.22-.378-.501-.377l-7.89.023c-.293 0-.527.175-.523.388v.007c0 .208.242.375.53.373l7.89-.062c.266 0 .481-.154.494-.346v-.007zm-.053 1.252c.014-.222-.24-.413-.55-.408l-7.694.15c-.316.005-.567.195-.561.424v.01c0 .233.275.419.599.41l7.689-.205c.282-.008.508-.17.52-.374l-.003-.008zm-.443-2.842l-7.89-.027c-.294 0-.53.17-.528.382v.008c0 .209.236.377.525.377l7.891-.01c.265 0 .483-.151.496-.343v-.007c.011-.206-.209-.379-.494-.38zm-.126 3.688l-7.688.268c-.316.01-.561.204-.55.433v.01c.013.233.288.414.61.4l7.684-.323c.28-.013.502-.178.507-.382v-.008c.008-.227-.25-.41-.563-.398z" fill="#FFD412"/><path d="M67.183 40.166l1.045-.054a2.134 2.134 0 00-.254-.885l-18.672.995c-.88 0-2.965 0-3.714-1.045-.489-1.697-1.09-3.513-2.312-3.513l-3.892.07a.891.891 0 01-.843-.552.905.905 0 01-.07-.35l.008-.874-.014-6.914h-3.758l.072-5.317a1.43 1.43 0 011.136-1.383l3.21-.238c.136-.752.317-.695 2.762-1.165l-6.578.222c-.493.064-.998.4-1.375.84l.054-3.151a.166.166 0 00-.162-.17.166.166 0 00-.168.163l-.063 3.65c-.14.248-.224.523-.25.806l-.969 12.514L5.5 36.54v1.911h4.99l-.384 1.402 1.598-.064c-.133.32-.209 1.242-.209 2.262 0 1.71.72 3.928 1.675 3.928l29.985 1.895c7.12.405 14.5-.183 22.071-1.51a.117.117 0 00.1-.123.117.117 0 00-.114-.11l-5.405-.31c1.23 0 2.321-2.261 2.365-3.695l5.8-.458a5.02 5.02 0 00.23-.936l-.99.052a.304.304 0 01-.32-.307v-.007a.307.307 0 01.291-.304zm-53.96 4.15c-.508 0-.919-1.015-.919-2.266 0-1.251.411-2.266.918-2.266.22 0 .428.197.587.525-.273.056-.49.813-.49 1.74 0 .929.22 1.685.49 1.742-.16.327-.363.524-.586.524zm4.31.442c.37-.43.59-2.003.59-2.583h5.16c-.028.968.35 1.603.851 2.137l-6.602.446zm11.017-.262c.606 0 1.037-1.566 1.037-2.628l9.08.037c-.142.975-.029 1.75.186 2.853l-10.303-.262zm22.503-2.987a.306.306 0 01.287-.306l4.505-.235a.301.301 0 01.319.305v.06a.306.306 0 01-.284.304l-4.504.294a.302.302 0 01-.298-.182.305.305 0 01-.025-.122v-.118zm-8.961 4.902c-1.297 0-2.347-1.724-2.347-3.852 0-2.129 1.05-3.853 2.347-3.853 1.296 0 2.346 1.724 2.346 3.853 0 2.128-1.05 3.86-2.346 3.86v-.008zm13.11-.793l-7.345-.755c.16-.353.22-.95.25-1.636l5.632-.443c.195 1.288.803 2.72 1.464 2.842v-.008z" fill="#FFD412"/><path d="M11.36 29.781c5.181-.744 9.247-1.2 9.46-1.832-4.348.526-9.49 1.64-9.46 1.832zm18.608-.323l.873-.097c-.503-.443-1.057-1.16-1.148-1.632-1.243-.253-2.183-.38-2.955-.34-.597.032-.976.161-.962.347.076.528 1.048 1.901 4.192 1.722zm8.222 1.257c-.268-.41-.568-.775-1.135-.723l-3.45.234c-1.373.092-1.724.963-2.319 1.418a.112.112 0 00-.016.12.11.11 0 00.102.062l6.599-.43c.72-.116.55.006.22-.681zm-8.421 1.195c.709-.047 1.046-.651 1.541-1.106a.088.088 0 00-.02-.141.087.087 0 00-.055-.008l-1.354.09c-.907.071-1.147.568-1.127 1.151.005.142.434.09 1.015.014zm.964-4.27l.01.023.058.123c.063.12.14.24.21.351l.096.15c.08.122.168.239.262.35l.133.14c.55.524 1.211.476 3.126.545h.093c1.619-.166 2.253-.078 2.25-1.187a1.42 1.42 0 00-.093-.7l-2.554-.1h-.11c-1.125.008-3.315.044-3.546.11a.86.86 0 00.065.195zm-20.535.216c3.57-1.074 6.75-1.57 9.247-1.575-2.99-6.656-8.665-.468-9.247 1.575z" fill="#FFD412"/><path d="M25.119 33.231l-.28-.774c.049.34.003.687-.133 1.003l-1.596-2.09-.338-2.564c.137-.025.276-.038.416-.037.353.008.69.15.943.396-.22-.527-.794-.809-1.131-.809-.096 0-.19.005-.285.015l-.33-2.482 10.017-.17c-.801-1.168-3.658-2.818-5.841-3.301a55.997 55.997 0 00-4.649-.084l-.564-4.355 6.093-.855h6.384a.275.275 0 00.276-.277.277.277 0 00-.276-.277H21.04a.183.183 0 00-.042 0 .059.059 0 00-.018 0 .273.273 0 00-.232.231.275.275 0 00.153.29l.05.38-8.477 1.19H6.68a.273.273 0 00-.276.24.276.276 0 00.207.302l1.798 11.67c-.323.381-.4 1.012-.44 1.367-.375.276-.682-.11-.897-.714 0 1.916-.007 2.747.797 3.149.1.449.407 1.651 1.38 1.651.01 0 .09.009.1.007h1.541c.576 0 .868-1.139.868-1.42l2.323-.603 2.11-.083c0 .743.585 1.422 1.236 1.422h2.066c.784 0 1.243-.946 1.312-1.603l.524-.02c.37.756.907 1.254 1.505 1.254.388 0 .75-.187 1.056-.511l2.324-.18.247-.828 7.95-.678-.15-.405-9.142.553zM23.46 17.125l-2.184.306-.04-.306h2.224zm-2.443.9l.568 4.319a25.201 25.201 0 00-3.174.284v-3.43a.277.277 0 00-.11-.529h-1.85l4.566-.645zM8.556 31.841l.261 1.69-.392 1.576c-.31-.951-.287-2.572.135-3.266h-.004zm1.26 2.812l-.78-1.145-.291-1.889a.477.477 0 01.226-.104c.752-.115 1.066 1.819.85 3.138h-.004zm-.69 1.18c-.227.034-.413-.12-.559-.387l.408-1.636.78 1.143c-.118.49-.326.834-.626.88h-.003zm1.482-2.907c-.44-1.167-.66-2.434-1.587-2.367a.85.85 0 00-.417.141l-1.77-11.483h11.358v3.448a9.42 9.42 0 00-.674.149c1.514.681 2.157 1.912 2.789 3.108l1.742-.028.33 2.536c-1.166.311-1.578 1.561-1.578 3.208a5.6 5.6 0 00.038.672l-10.23.616zm11.133.729a4.068 4.068 0 01-.45-1.92c0-1.141.15-2.433 1.157-2.836l.33 2.496-1.037 2.26zm2.631.4c0-.01.01-.019.015-.028a2.173 2.173 0 01-.313.331 1.385 1.385 0 01-.89.348c-.47 0-.9-.27-1.231-.715l1.025-2.241 1.565 2.05a2.27 2.27 0 01-.167.254h-.004zm91.498.422H97.434l-3.517 8.402H84.5l17.699-39.207h9.076L129.03 42.88h-9.643l-3.517-8.402zm-2.893-6.889l-6.297-15.01-6.297 15.01h12.594zm25.643 15.739c-1.551 0-2.855-.523-3.914-1.569-1.059-1.045-1.589-2.352-1.589-3.92 0-1.606.53-2.894 1.589-3.865 1.059-1.008 2.363-1.512 3.914-1.512 1.55 0 2.855.504 3.914 1.512 1.059.971 1.588 2.26 1.588 3.865 0 1.568-.529 2.875-1.588 3.92-1.059 1.046-2.364 1.569-3.914 1.569zm54.414-7.842V45h-8.509v-2.121h-28.022V45h-8.509l.057-9.515h1.588c2.382-.074 4.065-1.792 5.048-5.152.984-3.361 1.589-8.16 1.816-14.395l.454-12.266h30.518v31.813h5.559zm-28.419-18.707c-.19 4.668-.587 8.588-1.192 11.762-.605 3.137-1.531 5.452-2.779 6.945h17.755v-24.42h-13.614l-.17 5.713zm37.656 26.549c-1.551 0-2.856-.523-3.915-1.569-1.058-1.045-1.588-2.352-1.588-3.92 0-1.606.53-2.894 1.588-3.865 1.059-1.008 2.364-1.512 3.915-1.512 1.55 0 2.855.504 3.914 1.512 1.059.971 1.588 2.26 1.588 3.865 0 1.568-.529 2.875-1.588 3.92-1.059 1.046-2.364 1.569-3.914 1.569zm41.066-8.85h-18.436l-3.517 8.402h-9.416l17.698-39.207h9.076l17.756 39.207h-9.644l-3.517-8.402zm-2.893-6.889l-6.297-15.01-6.296 15.01h12.593zm25.643 15.739c-1.55 0-2.855-.523-3.914-1.569-1.059-1.045-1.588-2.352-1.588-3.92 0-1.606.529-2.894 1.588-3.865 1.059-1.008 2.364-1.512 3.914-1.512 1.551 0 2.856.504 3.915 1.512 1.058.971 1.588 2.26 1.588 3.865 0 1.568-.53 2.875-1.588 3.92-1.059 1.046-2.364 1.569-3.915 1.569zm30.019.223c-4.046 0-7.715-.858-11.005-2.576-3.252-1.755-5.824-4.163-7.714-7.225-1.854-3.1-2.78-6.59-2.78-10.474 0-3.883.926-7.355 2.78-10.417 1.89-3.1 4.462-5.508 7.714-7.226C288.391 3.877 292.079 3 296.163 3c3.441 0 6.542.597 9.303 1.792 2.798 1.195 5.143 2.913 7.034 5.153l-5.9 5.377c-2.685-3.062-6.012-4.593-9.983-4.593-2.458 0-4.652.542-6.581 1.625a11.43 11.43 0 00-4.538 4.424c-1.059 1.905-1.588 4.07-1.588 6.497 0 2.427.529 4.593 1.588 6.498a11.822 11.822 0 004.538 4.48c1.929 1.046 4.123 1.569 6.581 1.569 3.971 0 7.298-1.55 9.983-4.65l5.9 5.378c-1.891 2.277-4.236 4.014-7.034 5.209-2.799 1.194-5.918 1.792-9.36 1.792z" fill="#FFD412"/><path d="M6.732 63.2h-3.9L2.088 65H.096l3.744-8.4h1.92L9.516 65h-2.04l-.744-1.8zm-.612-1.476l-1.332-3.216-1.332 3.216H6.12zm10.33-1.104c.512.152.904.4 1.176.744.272.344.408.768.408 1.272 0 .744-.284 1.324-.852 1.74-.56.416-1.364.624-2.412.624h-4.14v-8.4h3.912c.976 0 1.736.188 2.28.564.544.376.816.912.816 1.608 0 .416-.104.784-.312 1.104-.208.312-.5.56-.876.744zm-3.888-.54h1.812c.424 0 .744-.084.96-.252.216-.176.324-.432.324-.768 0-.328-.112-.58-.336-.756-.216-.176-.532-.264-.948-.264h-1.812v2.04zm2.136 3.48c.912 0 1.368-.36 1.368-1.08 0-.696-.456-1.044-1.368-1.044h-2.136v2.124h2.136zm11.176-5.376h-2.688V65h-1.92v-6.816H18.59V56.6h7.284v1.584zm5.112 6.96c-.872 0-1.66-.188-2.364-.564a4.255 4.255 0 01-1.644-1.548c-.392-.664-.588-1.408-.588-2.232 0-.824.196-1.564.588-2.22.4-.664.948-1.184 1.644-1.56.704-.376 1.492-.564 2.364-.564.872 0 1.656.188 2.352.564a4.226 4.226 0 011.644 1.56c.4.656.6 1.396.6 2.22 0 .824-.2 1.568-.6 2.232a4.255 4.255 0 01-1.644 1.548c-.696.376-1.48.564-2.352.564zm0-1.656c.496 0 .944-.112 1.344-.336.4-.232.712-.552.936-.96.232-.408.348-.872.348-1.392 0-.52-.116-.984-.348-1.392a2.372 2.372 0 00-.936-.948 2.63 2.63 0 00-1.344-.348 2.63 2.63 0 00-1.344.348c-.4.224-.716.54-.948.948a2.844 2.844 0 00-.336 1.392c0 .52.112.984.336 1.392.232.408.548.728.948.96.4.224.848.336 1.344.336zM44.723 65l-.012-5.028-2.472 4.14h-.864l-2.472-4.044V65H37.08v-8.4h1.608l3.144 5.22 3.096-5.22h1.608l.012 8.4h-1.824zm7.919.144c-.872 0-1.66-.188-2.364-.564a4.255 4.255 0 01-1.644-1.548c-.392-.664-.588-1.408-.588-2.232 0-.824.196-1.564.588-2.22.4-.664.948-1.184 1.644-1.56.704-.376 1.492-.564 2.364-.564.872 0 1.656.188 2.352.564a4.226 4.226 0 011.644 1.56c.4.656.6 1.396.6 2.22 0 .824-.2 1.568-.6 2.232a4.255 4.255 0 01-1.644 1.548c-.696.376-1.48.564-2.352.564zm0-1.656c.496 0 .944-.112 1.344-.336.4-.232.712-.552.936-.96.232-.408.348-.872.348-1.392 0-.52-.116-.984-.348-1.392a2.372 2.372 0 00-.936-.948 2.63 2.63 0 00-1.344-.348 2.63 2.63 0 00-1.344.348c-.4.224-.716.54-.948.948a2.844 2.844 0 00-.336 1.392c0 .52.112.984.336 1.392.232.408.548.728.948.96.4.224.848.336 1.344.336zm6.093-6.888h6.78v1.548h-4.848v1.728h2.328c1.016 0 1.788.212 2.316.636.536.424.804 1.036.804 1.836 0 .84-.296 1.492-.888 1.956-.592.464-1.428.696-2.508.696h-3.984v-8.4zm3.876 6.96c.496 0 .876-.096 1.14-.288.264-.2.396-.488.396-.864 0-.736-.512-1.104-1.536-1.104h-1.944v2.256h1.944zm4.984-6.96h1.932V65h-1.932v-8.4zm11.449 0V65h-1.92v-6.816h-2.88l-.06 1.752c-.04 1.192-.136 2.16-.288 2.904-.152.736-.408 1.304-.768 1.704-.352.392-.848.588-1.488.588-.264 0-.584-.044-.96-.132l.12-1.644c.104.032.22.048.348.048.464 0 .788-.272.972-.816.184-.552.3-1.412.348-2.58l.12-3.408h6.456zm6.166 2.76c1.024 0 1.808.228 2.352.684.552.456.828 1.132.828 2.028 0 .952-.304 1.68-.912 2.184-.6.496-1.448.744-2.544.744h-3.792v-8.4h1.932v2.76h2.136zm-.384 4.2c.504 0 .896-.124 1.176-.372.288-.248.432-.608.432-1.08 0-.872-.536-1.308-1.608-1.308h-1.752v2.76h1.752zm12.668-6.96V65H95.55v-3.444h-3.816V65H89.79v-8.4h1.944v3.312h3.816V56.6h1.944zm7.793 6.6h-3.9l-.744 1.8h-1.992l3.744-8.4h1.92l3.756 8.4h-2.04l-.744-1.8zm-.612-1.476l-1.332-3.216-1.332 3.216h2.664zm16.572 1.692v3.324h-1.8V65h-5.928v1.74h-1.8l.012-3.324h.336c.504-.016.86-.384 1.068-1.104.208-.72.336-1.748.384-3.084l.096-2.628h6.456v6.816h1.176zm-6.012-4.008c-.04 1-.124 1.84-.252 2.52-.128.672-.324 1.168-.588 1.488h3.756v-5.232h-2.88l-.036 1.224zm11.329 5.736c-.872 0-1.66-.188-2.364-.564a4.255 4.255 0 01-1.644-1.548c-.392-.664-.588-1.408-.588-2.232 0-.824.196-1.564.588-2.22.4-.664.948-1.184 1.644-1.56.704-.376 1.492-.564 2.364-.564.872 0 1.656.188 2.352.564a4.226 4.226 0 011.644 1.56c.4.656.6 1.396.6 2.22 0 .824-.2 1.568-.6 2.232a4.255 4.255 0 01-1.644 1.548c-.696.376-1.48.564-2.352.564zm0-1.656c.496 0 .944-.112 1.344-.336.4-.232.712-.552.936-.96.232-.408.348-.872.348-1.392 0-.52-.116-.984-.348-1.392a2.372 2.372 0 00-.936-.948 2.63 2.63 0 00-1.344-.348 2.63 2.63 0 00-1.344.348c-.4.224-.716.54-.948.948a2.844 2.844 0 00-.336 1.392c0 .52.112.984.336 1.392.232.408.548.728.948.96.4.224.848.336 1.344.336zm9.729-6.888c.744 0 1.388.124 1.932.372.552.248.976.6 1.272 1.056.296.456.444.996.444 1.62 0 .616-.148 1.156-.444 1.62-.296.456-.72.808-1.272 1.056-.544.24-1.188.36-1.932.36h-1.692V65h-1.944v-8.4h3.636zm-.108 4.5c.584 0 1.028-.124 1.332-.372.304-.256.456-.616.456-1.08 0-.472-.152-.832-.456-1.08-.304-.256-.748-.384-1.332-.384h-1.584V61.1h1.584zm9.164 4.044c-.872 0-1.66-.188-2.364-.564a4.255 4.255 0 01-1.644-1.548c-.392-.664-.588-1.408-.588-2.232 0-.824.196-1.564.588-2.22.4-.664.948-1.184 1.644-1.56.704-.376 1.492-.564 2.364-.564.872 0 1.656.188 2.352.564a4.226 4.226 0 011.644 1.56c.4.656.6 1.396.6 2.22 0 .824-.2 1.568-.6 2.232a4.255 4.255 0 01-1.644 1.548c-.696.376-1.48.564-2.352.564zm0-1.656c.496 0 .944-.112 1.344-.336.4-.232.712-.552.936-.96.232-.408.348-.872.348-1.392 0-.52-.116-.984-.348-1.392a2.372 2.372 0 00-.936-.948 2.63 2.63 0 00-1.344-.348 2.63 2.63 0 00-1.344.348c-.4.224-.716.54-.948.948a2.844 2.844 0 00-.336 1.392c0 .52.112.984.336 1.392.232.408.548.728.948.96.4.224.848.336 1.344.336zm13.409-1.872h-1.224V65h-1.908v-3.384h-1.248L152.494 65h-2.244l2.52-4.392-2.364-4.008h2.052l1.884 3.396h1.284V56.6h1.908v3.396h1.248l1.896-3.396h2.052l-2.352 4.008L162.886 65h-2.244l-1.884-3.384zm12.763-5.016V65h-1.944v-3.444h-3.816V65h-1.944v-8.4h1.944v3.312h3.816V56.6h1.944zm6.113 8.544c-.872 0-1.66-.188-2.364-.564a4.255 4.255 0 01-1.644-1.548c-.392-.664-.588-1.408-.588-2.232 0-.824.196-1.564.588-2.22.4-.664.948-1.184 1.644-1.56.704-.376 1.492-.564 2.364-.564.872 0 1.656.188 2.352.564a4.226 4.226 0 011.644 1.56c.4.656.6 1.396.6 2.22 0 .824-.2 1.568-.6 2.232a4.255 4.255 0 01-1.644 1.548c-.696.376-1.48.564-2.352.564zm0-1.656c.496 0 .944-.112 1.344-.336.4-.232.712-.552.936-.96.232-.408.348-.872.348-1.392 0-.52-.116-.984-.348-1.392a2.372 2.372 0 00-.936-.948 2.63 2.63 0 00-1.344-.348 2.63 2.63 0 00-1.344.348c-.4.224-.716.54-.948.948a2.844 2.844 0 00-.336 1.392c0 .52.112.984.336 1.392.232.408.548.728.948.96.4.224.848.336 1.344.336zm5.72-2.616h3.396v1.5h-3.396v-1.5zM193.81 63.2h-3.9l-.744 1.8h-1.992l3.744-8.4h1.92l3.756 8.4h-2.04l-.744-1.8zm-.612-1.476l-1.332-3.216-1.332 3.216h2.664zm10.33-1.104c.512.152.904.4 1.176.744.272.344.408.768.408 1.272 0 .744-.284 1.324-.852 1.74-.56.416-1.364.624-2.412.624h-4.14v-8.4h3.912c.976 0 1.736.188 2.28.564.544.376.816.912.816 1.608 0 .416-.104.784-.312 1.104-.208.312-.5.56-.876.744zm-3.888-.54h1.812c.424 0 .744-.084.96-.252.216-.176.324-.432.324-.768 0-.328-.112-.58-.336-.756-.216-.176-.532-.264-.948-.264h-1.812v2.04zm2.136 3.48c.912 0 1.368-.36 1.368-1.08 0-.696-.456-1.044-1.368-1.044h-2.136v2.124h2.136zm10.561-.36h-3.9l-.744 1.8h-1.992l3.744-8.4h1.92l3.756 8.4h-2.04l-.744-1.8zm-.612-1.476l-1.332-3.216-1.332 3.216h2.664zm8.146-5.124c.744 0 1.388.124 1.932.372.552.248.976.6 1.272 1.056.296.456.444.996.444 1.62 0 .616-.148 1.156-.444 1.62-.296.456-.72.808-1.272 1.056-.544.24-1.188.36-1.932.36h-1.692V65h-1.944v-8.4h3.636zm-.108 4.5c.584 0 1.028-.124 1.332-.372.304-.256.456-.616.456-1.08 0-.472-.152-.832-.456-1.08-.304-.256-.748-.384-1.332-.384h-1.584V61.1h1.584zm5.039-4.5h1.932V65h-1.932v-8.4zm4.019 0h1.932v5.472l4.008-5.472h1.824V65h-1.92v-5.46L230.657 65h-1.836v-8.4zm3.876-.54c-1.536 0-2.312-.612-2.328-1.836h1.332c.016.584.348.876.996.876.32 0 .564-.072.732-.216.168-.152.256-.372.264-.66h1.332c-.008.6-.204 1.056-.588 1.368-.384.312-.964.468-1.74.468zm13.684.54V65h-1.944v-3.444h-3.816V65h-1.944v-8.4h1.944v3.312h3.816V56.6h1.944zm7.792 6.6h-3.9l-.744 1.8h-1.992l3.744-8.4h1.92l3.756 8.4h-2.04l-.744-1.8zm-.612-1.476l-1.332-3.216-1.332 3.216h2.664zm11.881 3.42c-.856 0-1.632-.184-2.328-.552a4.277 4.277 0 01-1.632-1.548c-.392-.664-.588-1.412-.588-2.244 0-.832.196-1.576.588-2.232.4-.664.944-1.18 1.632-1.548.696-.376 1.476-.564 2.34-.564.728 0 1.384.128 1.968.384a3.943 3.943 0 011.488 1.104l-1.248 1.152c-.568-.656-1.272-.984-2.112-.984-.52 0-.984.116-1.392.348-.408.224-.728.54-.96.948a2.844 2.844 0 00-.336 1.392c0 .52.112.984.336 1.392.232.408.552.728.96.96.408.224.872.336 1.392.336.84 0 1.544-.332 2.112-.996l1.248 1.152c-.4.488-.896.86-1.488 1.116-.592.256-1.252.384-1.98.384zm12.024-8.544V65h-1.92v-6.816h-2.88l-.06 1.752c-.04 1.192-.136 2.16-.288 2.904-.152.736-.408 1.304-.768 1.704-.352.392-.848.588-1.488.588-.264 0-.584-.044-.96-.132l.12-1.644c.104.032.22.048.348.048.464 0 .788-.272.972-.816.184-.552.3-1.412.348-2.58l.12-3.408h6.456zm9.682 0l-3.576 6.648c-.344.64-.76 1.124-1.248 1.452a2.729 2.729 0 01-1.572.492c-.44 0-.896-.096-1.368-.288l.468-1.476c.336.104.616.156.84.156.24 0 .456-.056.648-.168.192-.12.368-.304.528-.552l.072-.096-3.312-6.168h2.076l2.232 4.512 2.304-4.512h1.908zm8.403 5.016h-1.224V65h-1.908v-3.384h-1.248L289.287 65h-2.244l2.52-4.392-2.364-4.008h2.052l1.884 3.396h1.284V56.6h1.908v3.396h1.248l1.896-3.396h2.052l-2.352 4.008L299.679 65h-2.244l-1.884-3.384zm5.059-5.016h6.78v1.548h-4.848v1.728h2.328c1.016 0 1.788.212 2.316.636.536.424.804 1.036.804 1.836 0 .84-.296 1.492-.888 1.956-.592.464-1.428.696-2.508.696h-3.984v-8.4zm3.876 6.96c.496 0 .876-.096 1.14-.288.264-.2.396-.488.396-.864 0-.736-.512-1.104-1.536-1.104h-1.944v2.256h1.944zm10.601-.36h-3.9l-.744 1.8h-1.992l3.744-8.4h1.92l3.756 8.4h-2.04l-.744-1.8zm-.612-1.476l-1.332-3.216-1.332 3.216h2.664z" fill="#fff"/></svg>