<svg xmlns="http://www.w3.org/2000/svg" width="16" height="16"><path fill="#787878" d="M14.904 7.753l-2.373-2.372c-.291-.292-.529-.193-.529.22V7h-3V4H10.4c.414 0 .512-.239.221-.53L8.25 1.098a.354.354 0 00-.497 0L5.381 3.47c-.292.292-.193.53.22.53H7v3H4V5.631c0-.413-.239-.511-.53-.22L1.098 7.783a.35.35 0 000 .494l2.372 2.372c.291.292.53.192.53-.219V9h3v3H5.6c-.413 0-.511.238-.22.529l2.374 2.373a.35.35 0 00.495 0l2.373-2.373c.29-.291.19-.529-.222-.529H9.002V9h3v1.4c0 .412.238.511.529.219l2.373-2.371a.35.35 0 000-.495z"/></svg>