<svg width="40" height="40" fill="none" xmlns="http://www.w3.org/2000/svg"><path d="M32.736 26.68h-4.008v1.337h4.008v-1.336zm-5.345 0h-4.008v1.337h4.008v-1.336zm-5.344 0h-4.009v1.337h4.009v-1.336z" fill="#FFD412"/><path d="M39.408 13.856L26.188.634a1.996 1.996 0 00-1.42-.59h-.006c-.53 0-1.037.212-1.409.59L9.33 14.655H2.004A2.004 2.004 0 000 16.66v18.706c0 1.107.897 2.004 2.004 2.004h9.899l1.993 1.996c.375.379.887.592 1.42.591h.006c.53 0 1.038-.213 1.41-.591l1.997-1.996h15.343a2.004 2.004 0 002.004-2.004V20.023l3.329-3.328a1.997 1.997 0 00.003-2.839zm-8.499-6.61l-7.409 7.41h-5.673L28.073 4.41l2.836 2.836zm-6.61-5.67a.659.659 0 01.932-.01l.011.01 1.886 1.89-11.19 11.19H11.22L24.3 1.575zm-8.514 36.848a.65.65 0 01-.467.2.668.668 0 01-.476-.2l-1.05-1.054h3.048l-1.055 1.054zm18.955-3.058a.668.668 0 01-.668.668H2.004a.668.668 0 01-.668-.668v-9.353H34.74v9.353zm0-10.69H1.336v-4.008H34.74v4.009zm0-5.344H1.336V16.66c0-.37.3-.668.668-.668h32.068c.369 0 .668.299.668.668v2.672zm3.723-3.586l-2.387 2.388V16.66a2.004 2.004 0 00-2.004-2.005h-8.685l6.464-6.464 6.61 6.61c.128.125.2.297.2.477a.655.655 0 01-.198.468z" fill="#fff"/><path d="M6.408 34.716a2.67 2.67 0 00.273-.273 2.649 2.649 0 003.517.453 2.716 2.716 0 001.16-2.203 2.672 2.672 0 00-2.673-2.672 2.025 2.025 0 00-.395.034l-.018.004h-.02a2.638 2.638 0 00-1.571.887 2.672 2.672 0 10-.273 3.77zm2.108-3.345a.805.805 0 01.17-.014c.737 0 1.335.599 1.335 1.337 0 .282-.092.557-.262.783-.024.033-.043.067-.07.101l-.017.014a1.33 1.33 0 01-.987.438 1.336 1.336 0 01-.169-2.659zm-3.84-.014a1.336 1.336 0 110 2.673 1.336 1.336 0 010-2.673z" fill="#FFD412"/></svg>