<svg width="60" height="60" fill="none" xmlns="http://www.w3.org/2000/svg"><path fill="#fff" fill-opacity=".1" d="M0 0h60v60H0z"/><path d="M36.294 40.132h-.031a17.247 17.247 0 01-11.556-4.836 17.228 17.228 0 01-4.838-11.55 2.25 2.25 0 01.66-1.616l3.053-3.05c.44-.44 1.151-.44 1.59 0l4.5 4.5c.44.439.44 1.15 0 1.59l-1.795 1.792a8.44 8.44 0 001.793 3.366 8.42 8.42 0 003.362 1.795l1.8-1.794a1.124 1.124 0 011.59 0l4.5 4.5c.44.44.44 1.152 0 1.591l-3.053 3.052c-.416.42-.983.658-1.575.66zM24.375 21.467h-.006l-2.25 2.254a14.9 14.9 0 004.176 9.983 14.909 14.909 0 009.983 4.176l2.257-2.255-2.916-2.908-1.454 1.453a1.11 1.11 0 01-1.023.305 11.475 11.475 0 01-5.062-2.555 11.475 11.475 0 01-2.555-5.062c-.078-.373.037-.76.307-1.029l1.453-1.454-2.91-2.908z" fill="#fff"/></svg>