<svg width="134" height="136" fill="none" xmlns="http://www.w3.org/2000/svg"><circle opacity=".2" cx="65.278" cy="67.278" r="54.167" fill="#292929" stroke="#fff"/><circle opacity=".2" cx="66" cy="68" r="65" fill="#292929" stroke="#fff"/><path d="M66 3a65 65 0 11-56.207 97.646" stroke="#FFD412" stroke-width="6" stroke-linecap="round"/><g clip-path="url(#clip0)"><path d="M83.812 41.325H71.478a.937.937 0 100 1.875h12.334a.937.937 0 100-1.875zm0 4.172H71.478a.937.937 0 100 1.875h12.334a.937.937 0 100-1.875zm0 4.173H71.478a.937.937 0 100 1.874h12.334a.937.937 0 100-1.875z" fill="#FFD412"/><path d="M89.329 35.999h-9.81a.937.937 0 100 1.875h9.81c.082 0 .148.066.148.148V54.19a.149.149 0 01-.148.148H71.927a2.02 2.02 0 00-1.36.526l-.475.431-.004.003-4.028 3.66a.135.135 0 01-.16.026c-.088-.04-.088-.11-.088-.136V38.022c0-.082.066-.148.148-.148h9.81a.937.937 0 100-1.876h-9.81a2.026 2.026 0 00-2.023 2.024v3.784c-.074-.001-.149-.004-.221-.004-9.687 0-17.568 7.88-17.568 17.568 0 .74.046 1.533.138 2.355a.938.938 0 001.864-.208 19.44 19.44 0 01-.127-2.147c0-8.653 7.04-15.693 15.693-15.693.072 0 .147.003.22.004v6.966a8.071 8.071 0 00-.22-.004c-4.812 0-8.727 3.915-8.727 8.727s3.915 8.726 8.727 8.726 8.726-3.914 8.726-8.726c0-1.088-.199-2.14-.585-3.138.072-.038-.42-.011 7.231-.02.212 1.035.32 2.094.32 3.158 0 9.02-7.334 23.943-15.692 23.943-2.148 0-5.472-1.005-9.112-5.79-2.671-3.513-4.729-8.113-5.789-12.38a.937.937 0 10-1.82.452 38.418 38.418 0 002.343 6.66h-6.094a2.599 2.599 0 00-2.596 2.596v22.552a2.599 2.599 0 002.596 2.596h26.011a.937.937 0 100-1.875H61.91l-3.18-2.112 26.18-13.643v15.034c0 .397-.324.72-.722.72H73.004a.937.937 0 100 1.876h11.183a2.599 2.599 0 002.596-2.596V74.85a2.599 2.599 0 00-2.596-2.595h-6.094c1.984-4.349 3.19-9.11 3.19-12.886 0-1.062-.096-2.12-.285-3.158h8.33a2.026 2.026 0 002.024-2.023V38.022A2.026 2.026 0 0089.33 36zM63.716 66.22a6.86 6.86 0 01-6.852-6.851 6.86 6.86 0 017.073-6.847v6.324a2 2 0 001.204 1.85 2.003 2.003 0 002.18-.353l3.015-2.739c.152.571.232 1.16.232 1.765a6.86 6.86 0 01-6.852 6.851zM42.524 97.403v-6.146l10.344 6.867h-9.624a.722.722 0 01-.72-.721zm13.93-2.32a.937.937 0 00-.086 1.613l2.15 1.428h-2.26l-13.734-9.118v-1.5l10.87 7.216a.937.937 0 00.952.05l30.562-15.927v1.41L56.453 95.084zm27.733-20.952c.398 0 .721.323.721.72v1.88L53.97 92.854l-11.446-7.599V74.852c0-.398.323-.721.72-.721h7.013a32.52 32.52 0 002.855 4.527c3.25 4.272 6.916 6.53 10.604 6.53 4.485 0 8.948-3.358 12.565-9.455.31-.522.607-1.057.893-1.602h7.013z" fill="#fff"/><path d="M67.936 92.811l-1.512.788a.937.937 0 10.867 1.663l1.511-.788a.937.937 0 10-.866-1.663zm5.223-.375l1.511-.787a.937.937 0 10-.866-1.663l-1.511.787a.938.938 0 00.866 1.663zm5.436-2.719a.932.932 0 00.432-.107l1.511-.787a.937.937 0 10-.866-1.663l-1.511.788a.937.937 0 00.434 1.769z" fill="#fff"/></g><defs><clipPath id="clip0"><path fill="#fff" transform="translate(34 36)" d="M0 0h64v64H0z"/></clipPath></defs></svg>