<svg width="134" height="134" fill="none" xmlns="http://www.w3.org/2000/svg"><circle opacity=".2" cx="65.278" cy="67.278" r="54.167" fill="#292929" stroke="#fff"/><circle opacity=".2" cx="66" cy="68" r="65" fill="#292929" stroke="#fff"/><path d="M66 3a65 65 0 0156.358 97.385" stroke="#FFD412" stroke-width="6" stroke-linecap="round"/><g clip-path="url(#clip0)"><path d="M74.797 51.441c.24 0 .48-.091.663-.274l4.638-4.638a.937.937 0 10-1.326-1.326l-4.638 4.638a.937.937 0 00.663 1.6zm-3.102-3.101c.518 0 .938-.42.938-.938v-4.275a.937.937 0 10-1.875 0v4.275c0 .518.42.938.937.938zm5.267 5.266c0 .518.42.938.937.938h4.275a.937.937 0 100-1.875H77.9a.938.938 0 00-.937.937z" fill="#FFD412"/><path d="M90.39 73.424a3.5 3.5 0 00-1.475-2.565c-3.08-2.172-5.806-4.917-8.106-8.158a3.486 3.486 0 00-5.31-.453l-3.366 3.367-1.358 1.358a1.55 1.55 0 01-1.627.364c-3.99-1.476-8.608-6.094-10.083-10.084a1.55 1.55 0 01.364-1.626l4.724-4.725a3.486 3.486 0 00-.453-5.31 35.964 35.964 0 01-3.784-3.087.937.937 0 00-1.283 1.367 37.823 37.823 0 003.983 3.25c.39.277.637.708.677 1.183.04.473-.13.936-.465 1.271l-2.704 2.704-11.256-11.255 2.68-2.68a1.58 1.58 0 011.27-.464c.479.04.913.29 1.192.686a34.455 34.455 0 001.962 2.52.937.937 0 101.425-1.218 32.558 32.558 0 01-1.855-2.383 3.499 3.499 0 00-2.564-1.474 3.473 3.473 0 00-2.756 1.007l-5.86 5.86a9.422 9.422 0 00-2.735 7.393 9.51 9.51 0 001.495 4.416c6.737 10.423 14.72 18.966 23.784 25.467l-4.547 1.81a5.01 5.01 0 00-3.173 4.678 5.04 5.04 0 005.035 5.035h16.175a3.163 3.163 0 013.16 3.16v.127a3.163 3.163 0 01-3.16 3.16H44.32a.937.937 0 100 1.875h36.077a5.04 5.04 0 005.035-5.035v-.127a5.04 5.04 0 00-5.035-5.035H64.221a3.163 3.163 0 01-3.16-3.16c0-1.301.782-2.454 1.991-2.935l5.697-2.268a79.792 79.792 0 003.044 1.96 9.507 9.507 0 004.155 1.36.938.938 0 00.155-1.869 7.62 7.62 0 01-3.332-1.09c-10.86-6.646-20.305-16.11-28.074-28.13a7.627 7.627 0 01-1.2-3.543 7.55 7.55 0 012.191-5.924l1.854-1.854 11.256 11.256-.695.695a3.43 3.43 0 00-.797 3.602c1.665 4.505 6.686 9.526 11.192 11.192A3.43 3.43 0 0072.1 68.3l.695-.695L84.05 78.859l-1.854 1.854a7.502 7.502 0 01-2.745 1.752.937.937 0 10.644 1.761 9.367 9.367 0 003.427-2.187l2.516-2.515.001-.002h.001l3.342-3.343a3.47 3.47 0 001.006-2.755zm-2.333 1.43l-2.68 2.68L74.12 66.278l2.704-2.704a1.61 1.61 0 012.454.212c2.424 3.415 5.302 6.31 8.555 8.605.395.28.646.714.687 1.193.04.478-.124.93-.464 1.27z" fill="#fff"/></g><defs><clipPath id="clip0"><path fill="#fff" transform="translate(34 36)" d="M0 0h64v64H0z"/></clipPath></defs></svg>