<svg width="136" height="136" fill="none" xmlns="http://www.w3.org/2000/svg"><circle opacity=".2" cx="66.903" cy="67.278" r="54.167" fill="#292929" stroke="#fff"/><circle opacity=".2" cx="68" cy="68" r="65" fill="#292929" stroke="#fff"/><path d="M68 3a65 65 0 110 130A65 65 0 0168 3h0z" stroke="#FFD412" stroke-width="6" stroke-linecap="round"/><path d="M91.953 82.96c0-1.467-1.225-2.662-2.918-2.98V56.02c1.693-.318 2.918-1.513 2.918-2.98s-1.225-2.661-2.918-2.98v-6.928h.59a1.52 1.52 0 001.518-1.518v-4.096A1.52 1.52 0 0089.625 36H79.076a.91.91 0 100 1.822h10.246v3.488H46.678v-3.488H74.53a.91.91 0 100-1.822H46.374a1.52 1.52 0 00-1.518 1.518v4.096a1.52 1.52 0 001.518 1.518h.59v6.927c-1.693.32-2.918 1.514-2.918 2.981 0 1.467 1.225 2.662 2.918 2.98v23.962c-1.685.324-2.902 1.516-2.902 2.978 0 1.462 1.217 2.654 2.902 2.978v6.93h-.59a1.52 1.52 0 00-1.518 1.518v4.096A1.52 1.52 0 0046.374 100h43.251a1.52 1.52 0 001.518-1.518v-4.096a1.52 1.52 0 00-1.518-1.518h-.59v-6.927c1.693-.32 2.918-1.514 2.918-2.981zm-1.822 0c0 .588-.824 1.244-2.006 1.244-1.183 0-2.007-.656-2.007-1.244s.824-1.244 2.007-1.244c1.182 0 2.007.656 2.007 1.244zm-7.728 5.836h-1.727c3.786-3.704 3.799-10.303-.013-13.999l-8.692-8.8a.305.305 0 010-.426l8.692-8.8a9.912 9.912 0 002.878-7.007c0-.892-.117-1.768-.348-2.617a5.534 5.534 0 004.02-2.72v5.632c-1.692.32-2.917 1.514-2.917 2.98 0 1.467 1.225 2.662 2.918 2.981v23.96c-1.693.319-2.918 1.514-2.918 2.98 0 1.467 1.225 2.662 2.918 2.981v5.64a5.554 5.554 0 00-4.811-2.784zm-24.162 0a8.166 8.166 0 01-2.84-2.877h3.63c1.87 0 3.668-.79 4.934-2.165l3.81-4.14a.306.306 0 01.454 0l3.81 4.14a6.724 6.724 0 004.935 2.165h3.628a8.161 8.161 0 01-2.843 2.877H58.241zm-9.456 2.784v-5.636c1.702-.315 2.934-1.513 2.934-2.984s-1.232-2.67-2.934-2.984V56.021c1.693-.32 2.918-1.514 2.918-2.98 0-1.468-1.225-2.662-2.918-2.982v-5.633a5.537 5.537 0 004.021 2.721 9.963 9.963 0 00-.348 2.617 9.913 9.913 0 002.878 7.007l8.692 8.8a.305.305 0 010 .427l-8.693 8.8c-3.814 3.698-3.793 10.29-.01 13.998h-1.729a5.553 5.553 0 00-4.81 2.784zm21.89-24.302l8.693 8.8a8.1 8.1 0 012.352 5.727c0 .786-.116 1.557-.332 2.292h-4.414a4.897 4.897 0 01-3.594-1.576l-3.81-4.141a2.135 2.135 0 00-1.567-.688c-.594 0-1.165.251-1.567.688l-3.811 4.14a4.897 4.897 0 01-3.594 1.578h-4.418a8.1 8.1 0 01-.333-2.293 8.1 8.1 0 012.352-5.728l8.693-8.8a2.134 2.134 0 00.377-2.463A10.59 10.59 0 0068 65.07c.776 0 1.546-.09 2.297-.256a2.134 2.134 0 00.378 2.464zm3.633-6.665a8.924 8.924 0 01-6.309 2.635 8.923 8.923 0 01-6.309-2.636l-5.059-5.12a8.105 8.105 0 01-2.082-3.645h6.13a.91.91 0 100-1.822h-6.393a8.058 8.058 0 01.404-2.821h26.619c.298.902.44 1.86.404 2.82H65.027a.91.91 0 100 1.823H81.45a8.105 8.105 0 01-2.082 3.644l-5.06 5.122zm8.095-15.23H53.596a3.72 3.72 0 01-3.424-2.251h35.655a3.718 3.718 0 01-3.424 2.25zm7.728 7.657c0 .589-.824 1.244-2.006 1.244-1.183 0-2.007-.655-2.007-1.244 0-.588.824-1.244 2.007-1.244 1.182 0 2.007.656 2.007 1.244zm-44.264 0c0-.588.825-1.244 2.007-1.244 1.183 0 2.007.656 2.007 1.244 0 .589-.824 1.244-2.007 1.244-1.182 0-2.007-.655-2.007-1.244zm.017 29.92c0-.588.824-1.244 2.007-1.244 1.183 0 2.007.656 2.007 1.244s-.825 1.244-2.007 1.244c-1.183 0-2.007-.656-2.007-1.244zM89.32 98.178H46.678V94.69h21.325a.91.91 0 000-1.822h-17.83a3.73 3.73 0 013.423-2.25h28.807a3.73 3.73 0 013.423 2.25h-13.27a.91.91 0 000 1.822h16.766v3.488z" fill="#fff"/><path d="M68.94 69.51a.974.974 0 100-1.948.974.974 0 000 1.948zm0 6.89a.974.974 0 100-1.947.974.974 0 000 1.947zm-5.97-19.508a.974.974 0 10.001-1.948.974.974 0 000 1.948zm3.907 3.255a.974.974 0 100-1.948.974.974 0 000 1.948zm0 11.617a.974.974 0 100-1.948.974.974 0 000 1.948zm0 13.078a.974.974 0 100-1.948.974.974 0 000 1.948z" fill="#FFD412"/></svg>