<svg width="60" height="60" fill="none" xmlns="http://www.w3.org/2000/svg"><path fill="#fff" fill-opacity=".1" d="M0 0h60v60H0z"/><path d="M41.231 24.972l-.007-.029c-.567-2.312-3.125-4.794-5.473-5.31l-.027-.005a30.155 30.155 0 00-11.448 0l-.027.005c-2.348.516-4.906 2.998-5.474 5.31l-.006.029a22.78 22.78 0 000 9.734l.006.028c.544 2.214 2.911 4.581 5.172 5.232v2.582c0 .934 1.13 1.393 1.771.719l2.594-2.72a29.91 29.91 0 007.412-.497l.027-.006c2.348-.516 4.906-2.997 5.473-5.31l.007-.028a22.79 22.79 0 000-9.734zm-2.052 9.265c-.38 1.509-2.32 3.385-3.864 3.731-2.02.387-4.055.553-6.09.496a.143.143 0 00-.107.044l-1.893 1.96-2.015 2.085a.236.236 0 01-.406-.164v-4.277c0-.07-.05-.13-.119-.144-1.544-.347-3.485-2.222-3.864-3.73a20.675 20.675 0 010-8.798c.38-1.509 2.32-3.384 3.863-3.73a28.093 28.093 0 0110.631 0c1.544.346 3.485 2.221 3.864 3.73a20.65 20.65 0 010 8.797z" fill="#fff"/><path d="M33.356 36.211c-.237-.073-.463-.121-.673-.21-2.175-.91-4.177-2.083-5.763-3.883-.902-1.024-1.608-2.179-2.204-3.402-.283-.58-.521-1.182-.765-1.781-.221-.546.105-1.11.449-1.521a3.544 3.544 0 011.187-.9c.35-.17.697-.072.953.228.554.649 1.063 1.33 1.475 2.081.253.463.183 1.028-.276 1.342-.111.077-.213.166-.317.253a1.048 1.048 0 00-.24.254.702.702 0 00-.045.613c.566 1.569 1.52 2.789 3.086 3.446.25.105.502.227.791.193.484-.056.64-.591.979-.87.331-.274.754-.277 1.111-.05.357.228.703.472 1.047.72.337.242.673.48.984.756.3.265.403.614.234.975-.308.66-.757 1.21-1.405 1.561-.183.099-.401.131-.608.195.207-.064-.237-.073 0 0zm-3.35-12.452c2.846.08 5.182 1.985 5.683 4.821.086.484.116.978.154 1.468.016.207-.1.403-.32.405-.229.003-.332-.19-.346-.396-.03-.408-.05-.818-.106-1.223-.294-2.137-1.984-3.906-4.094-4.285-.318-.057-.643-.072-.964-.106-.204-.022-.47-.034-.515-.289-.038-.214.141-.384.343-.395.055-.003.11 0 .165 0-.055 0 2.846.08 0 0z" fill="#fff"/><path d="M34.33 29.411c-.005.036-.007.12-.028.2-.075.288-.508.324-.608.033a.874.874 0 01-.034-.277c-.001-.608-.132-1.215-.436-1.744a3.23 3.23 0 00-1.35-1.276 3.859 3.859 0 00-1.075-.333c-.162-.027-.326-.044-.49-.066-.197-.028-.302-.155-.293-.351a.307.307 0 01.341-.305c.653.037 1.284.18 1.864.49 1.18.63 1.855 1.625 2.052 2.954.009.06.023.12.028.18l.03.495c-.012-.196-.006.036 0 0z" fill="#fff"/><path d="M32.56 29.342c-.238.004-.365-.128-.39-.349-.017-.153-.03-.309-.067-.458a1.29 1.29 0 00-.471-.747 1.227 1.227 0 00-.385-.187c-.174-.05-.356-.037-.53-.08-.19-.046-.294-.2-.264-.38a.342.342 0 01.36-.277c1.104.08 1.892.655 2.005 1.965.008.092.017.19-.003.279-.035.15-.146.227-.255.234.109-.007-.238.004 0 0z" fill="#fff"/></svg>