<svg width="60" height="60" fill="none" xmlns="http://www.w3.org/2000/svg"><path fill="#fff" fill-opacity=".1" d="M0 0h60v60H0z"/><path d="M36.651 32.063c-.06-.1-.2-.168-.407-.268a13 13 0 01-.162-.08c-.298-.148-1.758-.867-2.031-.966-.272-.1-.47-.149-.669.149-.198.297-.767.966-.94 1.165-.174.198-.347.223-.644.074a4.348 4.348 0 00-.197-.088c-.418-.182-1.243-.54-2.193-1.387-.883-.788-1.48-1.76-1.653-2.058-.173-.298-.018-.459.13-.607.09-.088.191-.213.294-.337.051-.063.102-.125.152-.183a1.71 1.71 0 00.255-.411l.042-.085c.1-.198.05-.372-.025-.52-.05-.1-.332-.788-.587-1.41l-.329-.797c-.213-.512-.429-.51-.602-.51h-.066c-.173-.009-.372-.01-.57-.01-.198 0-.52.074-.792.371l-.058.063c-.31.33-.982 1.047-.982 2.416 0 1.455 1.053 2.861 1.21 3.071l.003.003.052.074c.356.51 2.239 3.21 5.024 4.413.71.306 1.263.49 1.694.626.712.226 1.36.194 1.872.118.571-.085 1.758-.719 2.006-1.413.247-.694.247-1.29.173-1.413z" fill="#fff"/><path fill-rule="evenodd" clip-rule="evenodd" d="M30.655 41.127h.005c6.557-.002 11.89-5.337 11.892-11.892a11.82 11.82 0 00-3.48-8.414 11.816 11.816 0 00-8.413-3.488c-6.555 0-11.89 5.335-11.892 11.892a11.87 11.87 0 001.587 5.946l-1.687 6.163 6.304-1.654a11.882 11.882 0 005.684 1.447zm-5.391-3.6l.36.214a9.87 9.87 0 005.032 1.378h.004c5.448 0 9.882-4.434 9.884-9.885a9.825 9.825 0 00-2.892-6.993 9.817 9.817 0 00-6.989-2.899c-5.452 0-9.886 4.434-9.888 9.884a9.859 9.859 0 001.511 5.26l.235.375-.998 3.647 3.74-.981z" fill="#fff"/></svg>